/* XPM */
static char * astro_xpm[] = {
"64 48 228 2",
"  	c #000000",
". 	c #090608",
"+ 	c #010101",
"@ 	c #020202",
"# 	c #0C090B",
"$ 	c #161114",
"% 	c #030203",
"& 	c #060506",
"* 	c #0A0709",
"= 	c #0F0B0D",
"- 	c #040303",
"; 	c #010001",
"> 	c #010000",
", 	c #050304",
"' 	c #100D0F",
") 	c #151013",
"! 	c #161113",
"~ 	c #0D0A0C",
"{ 	c #030202",
"] 	c #181316",
"^ 	c #000100",
"/ 	c #080507",
"( 	c #0D090B",
"_ 	c #050404",
": 	c #0B0809",
"< 	c #0B080A",
"[ 	c #080607",
"} 	c #100C0E",
"| 	c #171215",
"1 	c #342A30",
"2 	c #110D0F",
"3 	c #1E181B",
"4 	c #140F12",
"5 	c #292125",
"6 	c #0A0809",
"7 	c #050405",
"8 	c #070506",
"9 	c #282828",
"0 	c #525252",
"a 	c #4B4B4B",
"b 	c #2D2D2D",
"c 	c #020102",
"d 	c #7B7B7B",
"e 	c #D8D8D8",
"f 	c #A3A3A3",
"g 	c #717171",
"h 	c #BCBCBC",
"i 	c #5C5C5C",
"j 	c #4C4C4C",
"k 	c #EEEEEE",
"l 	c #EAEAEA",
"m 	c #A4A4A4",
"n 	c #838383",
"o 	c #C7C7C7",
"p 	c #CBCBCB",
"q 	c #0C0C0C",
"r 	c #141012",
"s 	c #8B8B8B",
"t 	c #FBFBFB",
"u 	c #F7F7F7",
"v 	c #E8E8E8",
"w 	c #DEDEDE",
"x 	c #E9E9E9",
"y 	c #F1F1F1",
"z 	c #555555",
"A 	c #C1C1C1",
"B 	c #FDFDFD",
"C 	c #F8F8F8",
"D 	c #4A4A4A",
"E 	c #FCFCFC",
"F 	c #C8C8C8",
"G 	c #1C1C1C",
"H 	c #808080",
"I 	c #898989",
"J 	c #BFBFBF",
"K 	c #FEFEFE",
"L 	c #EFEFEF",
"M 	c #727272",
"N 	c #030303",
"O 	c #191417",
"P 	c #505050",
"Q 	c #818181",
"R 	c #DFDFDF",
"S 	c #686868",
"T 	c #0D0D0D",
"U 	c #241E21",
"V 	c #040304",
"W 	c #444444",
"X 	c #F6F6F6",
"Y 	c #D3D3D3",
"Z 	c #C4C4C4",
"` 	c #A0A0A0",
" .	c #120E10",
"..	c #231D20",
"+.	c #060405",
"@.	c #777777",
"#.	c #F3F3F3",
"$.	c #E6E6E6",
"%.	c #CECECE",
"&.	c #ADADAD",
"*.	c #B5B5B5",
"=.	c #575757",
"-.	c #080808",
";.	c #E5E5E5",
">.	c #F4F4F4",
",.	c #DCDCDC",
"'.	c #A1A1A1",
").	c #D0D0D0",
"!.	c #DBDBDB",
"~.	c #696969",
"{.	c #212121",
"].	c #3C3C3C",
"^.	c #EBEBEB",
"/.	c #F9F9F9",
"(.	c #9A9A9A",
"_.	c #CDCDCD",
":.	c #EDEDED",
"<.	c #9B9B9B",
"[.	c #494949",
"}.	c #989898",
"|.	c #ECECEC",
"1.	c #F2F2F2",
"2.	c #E3E3E3",
"3.	c #6A6A6A",
"4.	c #202020",
"5.	c #D9D9D9",
"6.	c #C9C9C9",
"7.	c #D5D5D5",
"8.	c #E0E0E0",
"9.	c #212021",
"0.	c #585858",
"a.	c #F0F0F0",
"b.	c #C0C0C0",
"c.	c #E1E1E1",
"d.	c #AAAAAA",
"e.	c #969696",
"f.	c #9D9D9D",
"g.	c #3A3A3A",
"h.	c #747474",
"i.	c #A8A8A8",
"j.	c #BDBDBD",
"k.	c #D2D2D2",
"l.	c #AFAFAF",
"m.	c #0B0B0B",
"n.	c #D1D1D1",
"o.	c #959595",
"p.	c #707070",
"q.	c #D6D6D6",
"r.	c #232323",
"s.	c #C6C6C6",
"t.	c #8C8C8C",
"u.	c #010100",
"v.	c #939393",
"w.	c #7E7E7E",
"x.	c #CFCFCF",
"y.	c #E7E7E7",
"z.	c #868686",
"A.	c #393939",
"B.	c #C3C3C3",
"C.	c #333333",
"D.	c #B3B3B3",
"E.	c #221C1F",
"F.	c #020101",
"G.	c #292929",
"H.	c #616161",
"I.	c #BBBBBB",
"J.	c #787878",
"K.	c #080506",
"L.	c #303030",
"M.	c #5F5F5F",
"N.	c #626262",
"O.	c #E4E4E4",
"P.	c #3F3F3F",
"Q.	c #8D8D8D",
"R.	c #2D2429",
"S.	c #2B2327",
"T.	c #666666",
"U.	c #F5F5F5",
"V.	c #4F4F4F",
"W.	c #2C2C2C",
"X.	c #1B1B1B",
"Y.	c #090708",
"Z.	c #595959",
"`.	c #CCCCCC",
" +	c #7C7C7C",
".+	c #404040",
"++	c #949494",
"@+	c #5A5A5A",
"#+	c #515151",
"$+	c #ACACAC",
"%+	c #110D10",
"&+	c #251E22",
"*+	c #0C080A",
"=+	c #656565",
"-+	c #414141",
";+	c #B8B8B8",
">+	c #6C6C6C",
",+	c #9F9F9F",
"'+	c #C5C5C5",
")+	c #2C2428",
"!+	c #737373",
"~+	c #D7D7D7",
"{+	c #2A2A2A",
"]+	c #1C1619",
"^+	c #BEBEBE",
"/+	c #151515",
"(+	c #A7A7A7",
"_+	c #313131",
":+	c #252525",
"<+	c #30272B",
"[+	c #1D171A",
"}+	c #130E10",
"|+	c #090607",
"1+	c #000101",
"2+	c #0A0708",
"3+	c #0F0C0E",
"4+	c #2F272C",
"5+	c #040203",
"6+	c #382E34",
"7+	c #292226",
"8+	c #271F24",
"9+	c #060404",
"0+	c #0E0B0C",
"a+	c #282025",
"b+	c #211B1E",
"c+	c #211A1E",
"d+	c #261F23",
"e+	c #100C0F",
"                        . .                                                                             + @                   + ",
"                        # $ +                                                                           % &                     ",
"  * =                     +                                                                                                 - % ",
"  + +         ;                         > ,                                     @ %   * ' +                                 ) ) ",
"                              + ! ~     { ] ^                                   / *   + {             (                 +       ",
"                              ; * _     > &                 + : < @ +             >                   [               } :       ",
"    +                         +                               | 1 }                   +           @                             ",
"  _ 2 >                       3 <                           + 4 5 6                                                             ",
"  + 7                         } 8                             + +                                                               ",
"        ;                               -                   9 0 a b                                                         +   ",
"        c +                             &                 d e f g h i                                                           ",
"                +                                       j k l m n o p q         = r                                             ",
"                                                        s t u v w x y z         + +                                             ",
"                                                        A B B C C t y D                                                         ",
"                                                        n u B E E B F                                                           ",
"                                                    G H I J B K B L M G                                                         ",
"              N O c             c                   P Q R k K K K C F S T                   + @ >                               ",
"              % U V                                 W w X X X u L Y Z ` D                    ...+.                              ",
"                %                       >           @.R #.X #.$.%.%.&.*.=.-.                + N                                 ",
"                                                    A ;.>.>.$.,.A '.).!.~.{.                                                    ",
"                    + ;                           ].R ^./.X w (.` _.#.:.<.[.+                                                   ",
"                    8 -                           }.|.k >.C 1.;.2.:.>.x _.3.r +                                                 ",
"                                                4.5.v %.6./.#.7.2.C x 8.l '.9.                                                  ",
"              +                                 0.a.k b.c./.y Z d.|.<.e.l f.g.                                                  ",
"    - +.                              ;         h.L x i.&.>.v j.e.k.l.m.n.j.~.                                                  ",
"    : ~               +             c @         o.#.:.p.j.#.:.5.q.2.&.r.s.2.t.                                                  ",
"                    u.: >                       v.u a.w.x.y.L 1.y Y z.A.B.y m                       ; @ ;                       ",
"                                                i X u 6.2.w ^.w L _.h.C.D.>.h.                      N E.F.                      ",
"          < 2                         + +       G.8.#.i.k w v H.I.q.J.C.*.y ~.                                              > + ",
"          , [                         < K.        L.M.J.#.^.5.q N.O.(.P.Q.B.4.                                                  ",
"                                      R.S.@           T.U.a.F   V.^.I.n W.X.                                                    ",
"                                      V Y.+           Z.#.#.b.  V.a.`. +                                                        ",
"                            + <       ; ;             V.#.X e.  .+k y ++        _ 8                                             ",
"                              c     + +             @ @+X #.#+  G.v #.$+                                                        ",
"                                    %+&+            *+=+C a.-+    %.X ;+              >                                         ",
"                                    [ !             c >+/.^.L.    ,+X '+          @ )+@                             N } V       ",
"                                      >               !+C ~+      >+>.~+{+        @ ]+                              8 &+=       ",
"                                                      l.X ^+      /+k.$.(+                      & +                   < _       ",
"                                                      _+g {+        :+S L.                  < <+[+                    8 %       ",
"                                                                      V ;                   * }+N             V               |+",
"                                                                                                              *               } ",
"                                            % 2 +                                                                               ",
"                  + V                       % ) c   +.;                                                                         ",
"              + @   1+        @ 2++                 3+F.                                                                        ",
"              @ 4+'           + 5+                                                                                              ",
"              F.6+|                                                           + { +                                             ",
"                ^ - +       ^                                                 7 7+8+              c %                     9+| +.",
"                            0+a+                                              @ b+c+%             > +                     . d+e+"};
