/* XPM */
static char * crytals_xpm[] = {
"64 48 748 2",
"  	c #000000",
". 	c #090608",
"+ 	c #010101",
"@ 	c #020202",
"# 	c #0C090B",
"$ 	c #161114",
"% 	c #030203",
"& 	c #060506",
"* 	c #0A0709",
"= 	c #0F0B0D",
"- 	c #040303",
"; 	c #010001",
"> 	c #010000",
", 	c #050304",
"' 	c #100D0F",
") 	c #151013",
"! 	c #161113",
"~ 	c #0D0A0C",
"{ 	c #030202",
"] 	c #181316",
"^ 	c #000100",
"/ 	c #080507",
"( 	c #0D090B",
"_ 	c #050404",
": 	c #0B0809",
"< 	c #0B080A",
"[ 	c #080607",
"} 	c #100C0E",
"| 	c #171215",
"1 	c #342A30",
"2 	c #110D0F",
"3 	c #1E181B",
"4 	c #140F12",
"5 	c #292125",
"6 	c #0A0809",
"7 	c #050405",
"8 	c #070506",
"9 	c #514B52",
"0 	c #AD91B1",
"a 	c #9E60A5",
"b 	c #95589B",
"c 	c #845189",
"d 	c #603964",
"e 	c #351D38",
"f 	c #201022",
"g 	c #08030A",
"h 	c #2F2631",
"i 	c #B8A8BD",
"j 	c #99709E",
"k 	c #B656C9",
"l 	c #911E9B",
"m 	c #8F2799",
"n 	c #AF4FB9",
"o 	c #BD67C8",
"p 	c #C076C5",
"q 	c #B078B3",
"r 	c #8F6791",
"s 	c #664F6A",
"t 	c #39293A",
"u 	c #271C28",
"v 	c #130D14",
"w 	c #020102",
"x 	c #140D15",
"y 	c #9870A3",
"z 	c #D2AFDD",
"A 	c #752C76",
"B 	c #C73BE8",
"C 	c #C635E1",
"D 	c #9C24A8",
"E 	c #740B75",
"F 	c #740F72",
"G 	c #89288B",
"H 	c #BA6EBB",
"I 	c #E3ACE1",
"J 	c #F4C4F1",
"K 	c #E7AFE6",
"L 	c #D496D4",
"M 	c #BD8DBF",
"N 	c #8F7F92",
"O 	c #221926",
"P 	c #060307",
"Q 	c #7B5381",
"R 	c #DA87EF",
"S 	c #B9A2BC",
"T 	c #761276",
"U 	c #D163E2",
"V 	c #CF4CEC",
"W 	c #CB3AE1",
"X 	c #AC22BF",
"Y 	c #770E79",
"Z 	c #630957",
"` 	c #68095A",
" .	c #76296B",
"..	c #CEA9CA",
"+.	c #F9DDF4",
"@.	c #F7DCF6",
"#.	c #E4C6E5",
"$.	c #BA9DBE",
"%.	c #714A7C",
"&.	c #141012",
"*.	c #513554",
"=.	c #CC6FDD",
"-.	c #E8B3F8",
";.	c #957893",
">.	c #821283",
",.	c #DB8AE2",
"'.	c #DD80EE",
").	c #D645EA",
"!.	c #C237D4",
"~.	c #B126C7",
"{.	c #AA2EB1",
"].	c #7B1E76",
"^.	c #69075E",
"/.	c #B8A3B6",
"(.	c #F6F0F7",
"_.	c #C9BCC9",
":.	c #6A4C6C",
"<.	c #754F78",
"[.	c #A368B2",
"}.	c #0E0312",
"|.	c #2B1C2D",
"1.	c #B46AC2",
"2.	c #E771F9",
"3.	c #EBD5F0",
"4.	c #743C6D",
"5.	c #901F93",
"6.	c #E69DEB",
"7.	c #F0A6EF",
"8.	c #DE53F2",
"9.	c #E649F1",
"0.	c #BE33CE",
"a.	c #AC28BF",
"b.	c #BD42C8",
"c.	c #AB44AF",
"d.	c #B187AF",
"e.	c #BEAEBF",
"f.	c #562456",
"g.	c #4E064E",
"h.	c #5A255B",
"i.	c #B772C6",
"j.	c #29082F",
"k.	c #130B14",
"l.	c #9663A0",
"m.	c #E66FF9",
"n.	c #EFA7FA",
"o.	c #DACEDB",
"p.	c #6E2367",
"q.	c #A433AB",
"r.	c #F1B5F2",
"s.	c #F8BCF1",
"t.	c #E679F1",
"u.	c #EB4BF9",
"v.	c #E141ED",
"w.	c #B52FC6",
"x.	c #9521A7",
"y.	c #771B86",
"z.	c #977A98",
"A.	c #BEACC1",
"B.	c #531252",
"C.	c #51074F",
"D.	c #581E57",
"E.	c #B16FBF",
"F.	c #571664",
"G.	c #76547B",
"H.	c #DE79F1",
"I.	c #EC76FD",
"J.	c #F6DBFC",
"K.	c #C3B4C2",
"L.	c #720F6A",
"M.	c #C15BCA",
"N.	c #F7C5F5",
"O.	c #F8BBEF",
"P.	c #EA90E8",
"Q.	c #D846E8",
"R.	c #B63ACB",
"S.	c #791C8F",
"T.	c #600973",
"U.	c #5C076E",
"V.	c #7F6283",
"W.	c #D6C4DB",
"X.	c #5D285A",
"Y.	c #570854",
"Z.	c #5E0E5C",
"`.	c #9E6CA2",
" +	c #72237D",
".+	c #050006",
"++	c #030303",
"@+	c #191417",
"#+	c #4B3A4E",
"$+	c #CB82DC",
"%+	c #E974FE",
"&+	c #EE9CFC",
"*+	c #F9F5FB",
"=+	c #A88EA6",
"-+	c #85117F",
";+	c #D984E0",
">+	c #F2C0EB",
",+	c #D18FCD",
"'+	c #9E54A8",
")+	c #79239C",
"!+	c #8128B1",
"~+	c #6D148C",
"{+	c #5C0871",
"]+	c #5A066E",
"^+	c #69416F",
"/+	c #E7D4EC",
"(+	c #724471",
"_+	c #5F095B",
":+	c #6D0A69",
"<+	c #956497",
"[+	c #882C8E",
"}+	c #170119",
"|+	c #241E21",
"1+	c #040304",
"2+	c #251E26",
"3+	c #AC7FB9",
"4+	c #D86DF6",
"5+	c #DF77F2",
"6+	c #F3D4FA",
"7+	c #F8F7F9",
"8+	c #8D5B87",
"9+	c #8E1A8B",
"0+	c #AD61B2",
"a+	c #8E4F9B",
"b+	c #751F8F",
"c+	c #6F188C",
"d+	c #711D95",
"e+	c #7F28B1",
"f+	c #711993",
"g+	c #5B0770",
"h+	c #5A076E",
"i+	c #5F3268",
"j+	c #E4CFEA",
"k+	c #987499",
"l+	c #660963",
"m+	c #780C75",
"n+	c #8B388A",
"o+	c #A65EAD",
"p+	c #400744",
"q+	c #120E10",
"r+	c #231D20",
"s+	c #060405",
"t+	c #0E0B0F",
"u+	c #957B98",
"v+	c #DB8BF0",
"w+	c #D88EE6",
"x+	c #D3A3D7",
"y+	c #E0D4DD",
"z+	c #E2D6E0",
"A+	c #7D4573",
"B+	c #550845",
"C+	c #4C0A42",
"D+	c #560B5C",
"E+	c #67127D",
"F+	c #6E168A",
"G+	c #711A91",
"H+	c #7A21A5",
"I+	c #6F1790",
"J+	c #5A0770",
"K+	c #59076D",
"L+	c #5F2C6A",
"M+	c #DFC9E4",
"N+	c #B28AB7",
"O+	c #6F0D6B",
"P+	c #85107F",
"Q+	c #972691",
"R+	c #B068B5",
"S+	c #6F1475",
"T+	c #020002",
"U+	c #443948",
"V+	c #C496C2",
"W+	c #8D6B8B",
"X+	c #65385E",
"Y+	c #5F2956",
"Z+	c #612858",
"`+	c #876482",
" @	c #A1619C",
".@	c #621352",
"+@	c #4E093E",
"@@	c #4D0940",
"#@	c #4F0A49",
"$@	c #5D0F6A",
"%@	c #6E1789",
"&@	c #751B95",
"*@	c #71178D",
"=@	c #5A076F",
"-@	c #59066D",
";@	c #61286F",
">@	c #DCC9DF",
",@	c #C08BC5",
"'@	c #82177D",
")@	c #901289",
"!@	c #A6219B",
"~@	c #B367B3",
"{@	c #7B1E83",
"]@	c #150114",
"^@	c #1A161B",
"/@	c #977993",
"(@	c #6A2A60",
"_@	c #56064C",
":@	c #58064F",
"<@	c #58074F",
"[@	c #5B1953",
"}@	c #9F7A9B",
"|@	c #93418A",
"1@	c #5B0C4A",
"2@	c #4F0940",
"3@	c #4E0941",
"4@	c #4D0A45",
"5@	c #590F61",
"6@	c #6A147C",
"7@	c #6F1482",
"8@	c #600A72",
"9@	c #5C066C",
"0@	c #652570",
"a@	c #D7C9DB",
"b@	c #C48BC9",
"c@	c #821C7D",
"d@	c #8B1083",
"e@	c #B428A6",
"f@	c #BF69B6",
"g@	c #95399B",
"h@	c #4D1244",
"i@	c #484048",
"j@	c #94638E",
"k@	c #5C0C52",
"l@	c #59074F",
"m@	c #590750",
"n@	c #590850",
"o@	c #663961",
"p@	c #B280AD",
"q@	c #8C3480",
"r@	c #540B45",
"s@	c #500943",
"t@	c #510A47",
"u@	c #520B4B",
"v@	c #550D55",
"w@	c #63106B",
"x@	c #670D71",
"y@	c #65086E",
"z@	c #6E2073",
"A@	c #D4C5D7",
"B@	c #CA97CD",
"C@	c #792775",
"D@	c #820E78",
"E@	c #C036AD",
"F@	c #D64FBF",
"G@	c #B25CB5",
"H@	c #912A82",
"I@	c #090108",
"J@	c #070507",
"K@	c #745674",
"L@	c #7B3275",
"M@	c #5C0852",
"N@	c #5B0853",
"O@	c #5A0A53",
"P@	c #8F6C8D",
"Q@	c #BB73B3",
"R@	c #862E7A",
"S@	c #5B0A4E",
"T@	c #630A56",
"U@	c #690A5C",
"V@	c #690B5D",
"W@	c #660D60",
"X@	c #750E72",
"Y@	c #790B76",
"Z@	c #811B7D",
"`@	c #D4C0D6",
" #	c #C99FCC",
".#	c #894487",
"+#	c #8A0E80",
"@#	c #C547B1",
"##	c #ED65D2",
"$#	c #DF6BDD",
"%#	c #CD51CB",
"&#	c #310D31",
"*#	c #201520",
"=#	c #844281",
"-#	c #711169",
";#	c #620959",
">#	c #5F0956",
",#	c #5E0957",
"'#	c #64225E",
")#	c #B384AF",
"!#	c #B659AA",
"~#	c #851F78",
"{#	c #780B67",
"]#	c #830A71",
"^#	c #870B75",
"/#	c #860C74",
"(#	c #8F0E7F",
"_#	c #961087",
":#	c #9D198C",
"<#	c #D7BBD6",
"[#	c #CDAACF",
"}#	c #924B94",
"|#	c #96118C",
"1#	c #B940A8",
"2#	c #D047B4",
"3#	c #EA6FDE",
"4#	c #E360E4",
"5#	c #804381",
"6#	c #4E254E",
"7#	c #972396",
"8#	c #84177E",
"9#	c #660A5D",
"0#	c #630A5B",
"a#	c #640B5D",
"b#	c #895F85",
"c#	c #B874AE",
"d#	c #B23CA5",
"e#	c #8E1B7D",
"f#	c #9A0F81",
"g#	c #A5118B",
"h#	c #A9128D",
"i#	c #AB138F",
"j#	c #BA199E",
"k#	c #BB1D9F",
"l#	c #DFB4D8",
"m#	c #D4B9D6",
"n#	c #944595",
"o#	c #95158B",
"p#	c #A82099",
"q#	c #E45AC5",
"r#	c #F884E1",
"s#	c #F097E6",
"t#	c #BF99C1",
"u#	c #19171D",
"v#	c #070108",
"w#	c #7D237E",
"x#	c #B02DAC",
"y#	c #881982",
"z#	c #6B0B64",
"A#	c #6A0C65",
"B#	c #6E1D69",
"C#	c #AC79A6",
"D#	c #B14BA1",
"E#	c #AD319E",
"F#	c #A4178B",
"G#	c #C0199C",
"H#	c #CB1EA2",
"I#	c #CB1FA0",
"J#	c #D62BAF",
"K#	c #D62BB0",
"L#	c #E8ADDA",
"M#	c #DDC5DD",
"N#	c #964093",
"O#	c #82147B",
"P#	c #971A8C",
"Q#	c #DE60C5",
"R#	c #FB7FDE",
"S#	c #F8CBF0",
"T#	c #ECCDED",
"U#	c #514F5B",
"V#	c #010100",
"W#	c #39123A",
"X#	c #B639B6",
"Y#	c #C935C6",
"Z#	c #851780",
"`#	c #780E72",
" $	c #770E72",
".$	c #914B8B",
"+$	c #B462A5",
"@$	c #AB389B",
"#$	c #AB2E9B",
"$$	c #C723A3",
"%$	c #E12FAF",
"&$	c #E534AE",
"*$	c #E73AB3",
"=$	c #E93DB9",
"-$	c #F0A8DB",
";$	c #E6D3E6",
">$	c #993E95",
",$	c #771272",
"'$	c #971A8E",
")$	c #C94CB4",
"!$	c #FB79DC",
"~$	c #F9C9EE",
"{$	c #F4E8F7",
"]$	c #989DA5",
"^$	c #060608",
"/$	c #7A2A7B",
"($	c #E34AE3",
"_$	c #CD3DCA",
":$	c #8F1787",
"<$	c #8D1485",
"[$	c #8D1B85",
"}$	c #B769AC",
"|$	c #A23C91",
"1$	c #A82A98",
"2$	c #B32A9D",
"3$	c #E63BB6",
"4$	c #F147B9",
"5$	c #F24BB8",
"6$	c #F351BB",
"7$	c #F5A8DA",
"8$	c #F0E1F0",
"9$	c #A0449B",
"0$	c #781676",
"a$	c #A928A0",
"b$	c #BF3CB0",
"c$	c #FA72DD",
"d$	c #F6AAE7",
"e$	c #EBE1F6",
"f$	c #C8CDDA",
"g$	c #26282C",
"h$	c #221C1F",
"i$	c #020101",
"j$	c #1F0720",
"k$	c #B74AB9",
"l$	c #F55BF3",
"m$	c #C43EC0",
"n$	c #AF24A4",
"o$	c #A11B97",
"p$	c #AD41A3",
"q$	c #B662AA",
"r$	c #9B2C89",
"s$	c #AF27A0",
"t$	c #C838A7",
"u$	c #F455C0",
"v$	c #F65CC1",
"w$	c #F763C1",
"x$	c #F8A9DA",
"y$	c #F6EBF6",
"z$	c #A64EA0",
"A$	c #7D1D7B",
"B$	c #BC44B2",
"C$	c #E181D5",
"D$	c #F774E6",
"E$	c #F392E7",
"F$	c #EAE6F7",
"G$	c #CACDDD",
"H$	c #2D2D32",
"I$	c #080506",
"J$	c #623264",
"K$	c #E169E1",
"L$	c #D161D2",
"M$	c #D057C7",
"N$	c #C637B8",
"O$	c #B225A7",
"P$	c #C964BE",
"Q$	c #A03C90",
"R$	c #9A2088",
"S$	c #B92FAA",
"T$	c #DC53B7",
"U$	c #F86FCE",
"V$	c #F979D0",
"W$	c #F9ACDF",
"X$	c #F8F1F8",
"Y$	c #B165A8",
"Z$	c #82217E",
"`$	c #CD79C4",
" %	c #F8B4EC",
".%	c #F68AEE",
"+%	c #F3AFF0",
"@%	c #EBEBF8",
"#%	c #7F8092",
"$%	c #060508",
"%%	c #2D2429",
"&%	c #2B2327",
"*%	c #150C15",
"=%	c #A0739F",
"-%	c #A84A9D",
";%	c #E78FE3",
">%	c #E665D9",
",%	c #C938BD",
"'%	c #CC3ABD",
")%	c #C66ABD",
"!%	c #922481",
"~%	c #AC269F",
"{%	c #BE3CB5",
"]%	c #EB7AD1",
"^%	c #F998E1",
"/%	c #F9B9E9",
"(%	c #F8F3F9",
"_%	c #BD7EB4",
":%	c #8C2784",
"<%	c #C672BE",
"[%	c #FAB9EE",
"}%	c #EEA0F0",
"|%	c #EAD5F5",
"1%	c #CACCD7",
"2%	c #2B2B31",
"3%	c #090708",
"4%	c #4F454F",
"5%	c #BF87B8",
"6%	c #F495E9",
"7%	c #F0B3EB",
"8%	c #EB61DE",
"9%	c #DD3CCF",
"0%	c #E064D5",
"a%	c #AC5DA2",
"b%	c #8E1D7C",
"c%	c #C336C2",
"d%	c #CF5FCD",
"e%	c #F6AEEA",
"f%	c #FACCF2",
"g%	c #F9F5FA",
"h%	c #CA92C0",
"i%	c #9C2F92",
"j%	c #B959B9",
"k%	c #E491E8",
"l%	c #CB64E9",
"m%	c #D4ADEE",
"n%	c #787680",
"o%	c #0F0E10",
"p%	c #A28DA3",
"q%	c #F7A2EB",
"r%	c #F7BBED",
"s%	c #F688E9",
"t%	c #EF5DE1",
"u%	c #E74DDA",
"v%	c #DC8ED8",
"w%	c #8C3E7D",
"x%	c #9C2695",
"y%	c #DD4BE4",
"z%	c #E994EA",
"A%	c #FBDAF8",
"B%	c #F9F6FB",
"C%	c #D4A6CC",
"D%	c #AF65AC",
"E%	c #BB3BCA",
"F%	c #D26EE5",
"G%	c #C34FEB",
"H%	c #9E59BE",
"I%	c #1D1821",
"J%	c #57535C",
"K%	c #E5BFE4",
"L%	c #FAB2E7",
"M%	c #F6C3F0",
"N%	c #F784E6",
"O%	c #ED73E1",
"P%	c #F18CE2",
"Q%	c #C998C5",
"R%	c #78226B",
"S%	c #C041C2",
"T%	c #EA60F0",
"U%	c #EFBAF2",
"V%	c #E7DEE9",
"W%	c #A781A4",
"X%	c #AE72AE",
"Y%	c #C752DA",
"Z%	c #D981F0",
"`%	c #AE3EDD",
" &	c #44105D",
".&	c #110D10",
"+&	c #251E22",
"@&	c #151417",
"#&	c #AFA7B5",
"$&	c #F8C0E9",
"%&	c #F7CAEE",
"&&	c #F6BEEF",
"*&	c #F48CE1",
"=&	c #F58EE2",
"-&	c #F0A7E5",
";&	c #A681A4",
">&	c #7B2075",
",&	c #B94EBE",
"'&	c #9B4E9C",
")&	c #643665",
"!&	c #4A1B4F",
"~&	c #AE73B1",
"{&	c #CC6FE0",
"]&	c #DE94F7",
"^&	c #76309A",
"/&	c #08010F",
"(&	c #67666C",
"_&	c #E1D4E9",
":&	c #ECC5F1",
"<&	c #ECCDF8",
"[&	c #EEC3F4",
"}&	c #EBCBEF",
"|&	c #D580DD",
"1&	c #D08CD9",
"2&	c #845082",
"3&	c #641062",
"4&	c #540A54",
"5&	c #4C074C",
"6&	c #541758",
"7&	c #B36CB6",
"8&	c #C872DB",
"9&	c #C181DB",
"0&	c #3E284A",
"a&	c #0C0B10",
"b&	c #5F5271",
"c&	c #9076AB",
"d&	c #BC97DA",
"e&	c #DAAEF7",
"f&	c #E4B8FC",
"g&	c #E5BCF3",
"h&	c #DB8BE9",
"i&	c #CA8AD6",
"j&	c #773377",
"k&	c #620666",
"l&	c #4F084D",
"m&	c #621863",
"n&	c #B671BA",
"o&	c #BD65D2",
"p&	c #6B3A84",
"q&	c #1D161B",
"r&	c #050307",
"s&	c #281D31",
"t&	c #614573",
"u&	c #9369AA",
"v&	c #BA80D9",
"w&	c #D397ED",
"x&	c #D888ED",
"y&	c #BD7EC9",
"z&	c #84158E",
"A&	c #601A5E",
"B&	c #B06FB4",
"C&	c #863A9C",
"D&	c #190522",
"E&	c #07020D",
"F&	c #240E31",
"G&	c #58216F",
"H&	c #85359F",
"I&	c #A945C1",
"J&	c #A02CAE",
"K&	c #800691",
"L&	c #68176A",
"M&	c #924E96",
"N&	c #300C3D",
"O&	c #30272B",
"P&	c #1D171A",
"Q&	c #07010B",
"R&	c #22072B",
"S&	c #561365",
"T&	c #761887",
"U&	c #821C94",
"V&	c #5C2368",
"W&	c #130E10",
"X&	c #090607",
"Y&	c #000101",
"Z&	c #0A0708",
"`&	c #0F0C0E",
" *	c #2F272C",
".*	c #040203",
"+*	c #382E34",
"@*	c #292226",
"#*	c #271F24",
"$*	c #060404",
"%*	c #0E0B0C",
"&*	c #282025",
"**	c #211B1E",
"=*	c #211A1E",
"-*	c #261F23",
";*	c #100C0F",
"                        . .                                                                             + @                   + ",
"                        # $ +                                                                           % &                     ",
"  * =                     +                                                                                                 - % ",
"  + +         ;                         > ,                                     @ %   * ' +                                 ) ) ",
"                              + ! ~     { ] ^                                   / *   + {             (                 +       ",
"                              ; * _     > &                 + : < @ +             >                   [               } :       ",
"    +                         +                               | 1 }                   +           @                             ",
"  _ 2 >                       3 <                           + 4 5 6                                                             ",
"  + 7                         } 8                 9 0 a b c d e f g                                                             ",
"        ;                               -       h i j k l m n o p q r s t u v                                               +   ",
"        w +                             &     x y z A B C D E F G H I J K L M N O                                               ",
"                +                           P Q R S T U V W X Y Z `  ...+.@.#.$.%.&.                                            ",
"                                            *.=.-.;.>.,.'.).!.~.{.].^./.(._.:.<.[.}.                                            ",
"                                          |.1.2.3.4.5.6.7.8.9.0.a.b.c.d.e.f.g.h.i.j.                                            ",
"                                        k.l.m.n.o.p.q.r.s.t.u.v.w.x.y.z.A.B.C.D.E.F.                                            ",
"                                        G.H.I.J.K.L.M.N.O.P.Q.R.S.T.U.V.W.X.Y.Z.`. +.+                                          ",
"              ++@+w             w     #+$+%+&+*+=+-+;+>+,+'+)+!+~+{+]+^+/+(+_+:+<+[+}+      + @ >                               ",
"              % |+1+                2+3+4+5+6+7+8+9+0+a+b+c+d+e+f+g+h+i+j+k+l+m+n+o+p+      q+r+s+                              ",
"                %                 t+u+v+w+x+y+z+A+B+C+D+E+F+G+H+I+J+K+L+M+N+O+P+Q+R+S+T+    + ++                                ",
"                                  U+V+W+X+Y+Z+`+ @.@+@@@#@$@%@&@*@=@-@;@>@,@'@)@!@~@{@]@                                        ",
"                    + ;           ^@/@(@_@:@<@[@}@|@1@2@3@4@5@6@7@8@9@0@a@b@c@d@e@f@g@h@                                        ",
"                    8 -             i@j@k@l@m@n@o@p@q@r@s@t@u@v@w@x@y@z@A@B@C@D@E@F@G@H@I@                                      ",
"                                    J@K@L@M@M@N@O@P@Q@R@S@T@U@V@W@X@Y@Z@`@ #.#+#@###$#%#&#                                      ",
"              +                       *#=#-#;#>#,#'#)#!#~#{#]#^#/#(#_#:#<#[#}#|#1#2#3#4#5#                                      ",
"    - s+                              ; 6#7#8#9#0#a#b#c#d#e#f#g#h#i#j#k#l#m#n#o#p#q#r#s#t#u#                                    ",
"    : ~               +             w @ v#w#x#y#z#A#B#C#D#E#F#G#H#I#J#K#L#M#N#O#P#Q#R#S#T#U#                                    ",
"                    V#: >                 W#X#Y#Z#`# $.$+$@$#$$$%$&$*$=$-$;$>$,$'$)$!$~${$]$^$      ; @ ;                       ",
"                                            /$($_$:$<$[$}$|$1$2$3$4$5$6$7$8$9$0$a$b$c$d$e$f$g$      ++h$i$                      ",
"          < 2                         + +   j$k$l$m$n$o$p$q$r$s$t$u$v$w$x$y$z$A$B$C$D$E$F$G$H$                              > + ",
"          , [                         < I$    J$K$L$M$N$O$P$Q$R$S$T$U$V$W$X$Y$Z$`$ %.%+%@%#%$%                                  ",
"                                      %%&%@   *%=%-%;%>%,%'%)%!%~%{%]%^%/%(%_%:%<%[%}%|%1%2%                                    ",
"                                      1+3%+     4%5%6%7%8%9%0%a%b%c%d%e%f%g%h%i%j%k%l%m%n%                                      ",
"                            + <       ; ;       o%p%q%r%s%t%u%v%w%x%y%z%A%B%C%D%E%F%G%H%I%                                      ",
"                              w     + +           J%K%L%M%N%O%P%Q%R%S%T%U%V%W%X%Y%Z%`% &                                        ",
"                                    .&+&          @&#&$&%&&&*&=&-&;&>&,&'&)&!&~&{&]&^&/&                                        ",
"                                    [ !             (&_&:&<&[&}&|&1&2&3&4&5&6&7&8&9&0&@                             ++} 1+      ",
"                                      >             a&b&c&d&e&f&g&h&i&j&k&l&m&n&o&p&q&                              8 +&=       ",
"                                                        r&s&t&u&v&w&x&y&z&k&A&B&C&D&            & +                   < _       ",
"                                                              E&F&G&H&I&J&K&L&M&N&          < O&P&                    8 %       ",
"                                                                    Q&R&S&T&U&V&;           * W&++            1+              X&",
"                                                                                                              *               } ",
"                                            % 2 +                                                                               ",
"                  + 1+                      % ) w   s+;                                                                         ",
"              + @   Y&        @ Z&+                 `&i$                                                                        ",
"              @  *'           + .*                                                                                              ",
"              i$+*|                                                           + { +                                             ",
"                ^ - +       ^                                                 7 @*#*              w %                     $*| s+",
"                            %*&*                                              @ **=*%             > +                     . -*;*"};
