/* XPM */
static char *space64_resized[] = {
/* columns rows colors chars-per-pixel */
"64 48 82 1 ",
"  c black",
". c #090608",
"X c #010101",
"o c #020202",
"O c #0C090B",
"+ c #161114",
"@ c #030203",
"# c #060506",
"$ c #0A0709",
"% c #0F0B0D",
"& c #040303",
"* c #010001",
"= c #010000",
"- c #050304",
"; c #100D0F",
": c #151013",
"> c #161113",
", c #0D0A0C",
"< c #030202",
"1 c #181316",
"2 c #000100",
"3 c #080507",
"4 c #0D090B",
"5 c #050404",
"6 c #0B0809",
"7 c #0B080A",
"8 c #080607",
"9 c #100C0E",
"0 c #171215",
"q c #342A30",
"w c #110D0F",
"e c #1E181B",
"r c #140F12",
"t c #292125",
"y c #0A0809",
"u c #050405",
"i c #070506",
"p c #020102",
"a c #141012",
"s c gray1",
"d c #040304",
"f c #191417",
"g c #241E21",
"h c #120E10",
"j c #231D20",
"k c #060405",
"l c #1E181C",
"z c #201A1D",
"x c #0E0A0D",
"c c #130E11",
"v c #060505",
"b c #010100",
"n c #221C1F",
"m c #020101",
"M c #080506",
"N c #2D2429",
"B c #2B2327",
"V c #090708",
"C c #110D10",
"Z c #251E22",
"A c #0C080A",
"S c #2C2428",
"D c #1C1619",
"F c #30272B",
"G c #1D171A",
"H c #130E10",
"J c #090607",
"K c #000101",
"L c #0A0708",
"P c #0F0C0E",
"I c #2F272C",
"U c #040203",
"Y c #382E34",
"T c #292226",
"R c #271F24",
"E c #060404",
"W c #0E0B0C",
"Q c #282025",
"! c #211B1E",
"~ c #211A1E",
"^ c #261F23",
"/ c #100C0F",
/* pixels */
"            ..                                      Xo         X",
"            O+X                                     @#          ",
" $%          X                                                &@",
" XX    *            =-                  o@ $;X                ::",
"               X>,  <12                 3$ X<      4        X   ",
"               *$5  =#        X67oX      =         8       96   ",
"  X            X               0q9         X     o              ",
" 5w=           e7             Xrty                              ",
" Xu            9i              XX                               ",
"    *               &                                         X ",
"    pX              #            <$                             ",
"        X                      X X&     %a                      ",
"                              p8 Os     XX                      ",
"                                 1d                             ",
"                                                                ",
"                                                                ",
"       sfp      p                             Xo=               ",
"       @gd                  oo                hjk               ",
"        @           =       lzX               Xs                ",
"                            puX                                 ",
"          X*                         XX                         ",
"          i&                 <       xcX                        ",
"                                     4O                         ",
"       X                             iv                         ",
"  &k               *                                            ",
"  6,       X      po                                            ",
"          b6=                                     *o*           ",
"                                                  snm           ",
"     7w            XX                                         =X",
"     -8            7M                                           ",
"                   NBo                                          ",
"                   dVX                                          ",
"              X7   **                   5i                      ",
"               p  XX      o                                     ",
"                  CZ      Am               =                    ",
"                  8>      p              oSo              s9d   ",
"                   =                     oD               iZ%   ",
"                                                #X         75   ",
"                                              7FG          i@   ",
"                                   d*         $Hs      d       J",
"                                                       $       9",
"                      @wX                                       ",
"         Xd           @:p k*                                    ",
"       Xo K    oLX        Pm                                    ",
"       oI;     XU                                               ",
"       mY0                             X<X                      ",
"        2&X   2                        uTR       p@          E0k",
"              WQ                       o!~@      =X          .^/"
};
