/* XPM */
static char * sprite18_xpm[] = {
"90 64 130 2",
"  	c None",
". 	c #000000",
"+ 	c #1A1625",
"@ 	c #1C1729",
"# 	c #1E182C",
"$ 	c #20192F",
"% 	c #201930",
"& 	c #211930",
"* 	c #211931",
"= 	c #221A33",
"- 	c #231A34",
"; 	c #231A35",
"> 	c #241B37",
", 	c #251B38",
"' 	c #261B39",
") 	c #261B3A",
"! 	c #271C3B",
"~ 	c #281C3D",
"{ 	c #291C3E",
"] 	c #291D3F",
"^ 	c #2B1D41",
"/ 	c #2B1D42",
"( 	c #2D1E45",
"_ 	c #2D1F46",
": 	c #2E1F47",
"< 	c #2E1F48",
"[ 	c #2F1F49",
"} 	c #30204A",
"| 	c #30204B",
"1 	c #32204D",
"2 	c #32214E",
"3 	c #332150",
"4 	c #342252",
"5 	c #352253",
"6 	c #352254",
"7 	c #362255",
"8 	c #372356",
"9 	c #382358",
"0 	c #39245B",
"a 	c #3A245B",
"b 	c #3A245C",
"c 	c #3B245D",
"d 	c #3B255E",
"e 	c #3F2560",
"f 	c #412561",
"g 	c #492564",
"h 	c #4A2465",
"i 	c #4B2465",
"j 	c #4C2466",
"k 	c #4D2466",
"l 	c #4E2467",
"m 	c #502467",
"n 	c #512468",
"o 	c #552469",
"p 	c #5C246C",
"q 	c #5D246D",
"r 	c #5E246D",
"s 	c #60246E",
"t 	c #672371",
"u 	c #642470",
"v 	c #692372",
"w 	c #6D2374",
"x 	c #6F2375",
"y 	c #702375",
"z 	c #742377",
"A 	c #772378",
"B 	c #7A257C",
"C 	c #7B257D",
"D 	c #7C257E",
"E 	c #7D267F",
"F 	c #7E2781",
"G 	c #802883",
"H 	c #822985",
"I 	c #872C8C",
"J 	c #8B2E92",
"K 	c #8C2E93",
"L 	c #8D2F94",
"M 	c #8E2F95",
"N 	c #903097",
"O 	c #93329C",
"P 	c #96339F",
"Q 	c #9835A2",
"R 	c #9C36A6",
"S 	c #9E38A9",
"T 	c #A23AAE",
"U 	c #A43BB1",
"V 	c #A63CB3",
"W 	c #A73DB3",
"X 	c #B248AF",
"Y 	c #B54BAF",
"Z 	c #B84EAE",
"` 	c #BD53AD",
" .	c #BF55AC",
"..	c #AC42B1",
"+.	c #B147B0",
"@.	c #C056AC",
"#.	c #C55BAA",
"$.	c #CB61A9",
"%.	c #CC62A8",
"&.	c #CF65A8",
"*.	c #D167A7",
"=.	c #D269A6",
"-.	c #D76DA5",
";.	c #DF86B4",
">.	c #E18CB8",
",.	c #E290BA",
"'.	c #E393BC",
").	c #E497BE",
"!.	c #E59AC0",
"~.	c #E8A3C6",
"{.	c #E9A9C9",
"].	c #EAACCB",
"^.	c #EBAFCD",
"/.	c #ECB2CF",
"(.	c #EEB7D2",
"_.	c #F0BDD6",
":.	c #F0C0D8",
"<.	c #F1C3DA",
"[.	c #F5CFE1",
"}.	c #F6D1E2",
"|.	c #F6D4E4",
"1.	c #F8D9E7",
"2.	c #000000",
"3.	c #000000",
"4.	c #000000",
"5.	c #000000",
"6.	c #000000",
"7.	c #000000",
"8.	c #000000",
"9.	c #000000",
". . . . . . . . . . . . . . . . . . . . . . . . . . . . . . . . . . . . . . . . . . . . . . . . . . . . . . . . . . . . . . . . . . . . . . . . . . . . . . . . . . . . . . . . . . ",
". . . . . . . . . . . . . . . . . . . . . . . . . . . . . . . . . . . . . . . . . . . . . . . . . . . . . . . . . . . . . . . . . . . . . . . . . . . . . . . . . . . . . . . . . . ",
". . . . . . . . . . . . . . . . . . . . . . . . . . . . . . . . . . . . . . . . . . . . . . . . . . . . . . . . . . . . . . . . . . . . . . . . . . . . . . . . . . . . . . . . . . ",
". . . . . . . . . . . . . . . . . . . . . . . . . . . . . . . . . . . . . . . . . . . . . . . . . . . . . . . . . . . . . . . . . . . . . . . . . . . . . . . . . . . . . . . . . . ",
". . . . . . . . . . . . . . . . . . . . . . . . . . . . . . . . . . . . . . . . . . . . . . . . . . . . . . . . . . . . . . . . . . . . . . . . . . . . . . . . . . . . . . . . . . ",
". . . . . . . . . . . . . . . . . . . . . . . . . . . . . . . . . . . . . . . . . . . . . . . . . . . . . . . . . . . . . . . . . . . . . . . . . . . . . . . . . . . . . . . . . . ",
". . . . . . . . . . . . . . . . . . . . . . . . . . . . . . . . . . + - & & & # . . . . . . . . . . . . . . . . . . . . . . . . . . . . . . . . . . . . . . . . . . . . . . . . . . ",
". . . . . . . . . . . . . . . . . . . . . . . . . . . . . . . . . . L {.{.{.{.,.. . . . . . . . . . . . . . . . . . . . . . . . . . . . . . . . . . . . . . . . . . . . . . . . . . ",
". . . . . . . . . . . . . . . . . . . . . . . . . . . . . o 8 . . . 5 H H H H H H H 5 . . . . . . . . . . . . . . . . . . . . . . . . . . . . . . . . . . . . . . . . . . . . . . . ",
". . . . . . . . . . . . . . . . . . . . . . . . . . #.N . N u .  .#.;._.(.(.;.;.;.;.u . . . . . . . . . . . . . . . . . . . . . . . . . . . . . . . . . . . . . . . . . . . . . . . ",
". . . . . . . . . . . . . . . . . . . . . . . . #.;._.{.. I ;.;.(._._.(.(.(.;.;.;.;.;.g . . . . . . . . . . . . . . . . . . . . . . . . . . . . . . . . . . . . . . . . . . . . . . ",
". . . . . . . . . . . . . . . . . . . . . . . #./._.(./.).{.(.(.^.I I I I I I I I I I ^ . . . . . . . . . . . . . . . . . . . . . . . . . . . . . . . . . . . . . . . . . . . . . . ",
". . . . . . . . . . . . . . . . . . . . . B ^.(._.(.(.(.(././.I g . . . . . . . . . . . . . . . . . . . . . . . . . . . . . . . . . . . . . . . . . . . . . . . . . . . . . . . . . ",
". . . . . . . . . . . . . . . . . . . . u (._._.(.(.(./.{.%.& + . . . . . . . . . . . . . . . . . . . . . . . . . . . . . . . . . . . . . . . . . . . . . . . . . . . . . . . . . . ",
". . . . . . . . . . . . . . . . . . . H (._._.(.(.(.).;.. . . . . . . . . . . . . . . . . . . . . . . . . . . . . . . . . . . . . . . . . . . . . . . . . . . . . . . . . . . . . . ",
". . . . . . . . . . . . . . . . . . . {._._.(.(.(.;.# . . . . . . . . . . . x z z z z z z u . . . . . . . . . . . . . . . . . . . . . . . . . . . . . . . . . . . . . . . . . . . . ",
". . . . . . . . . . . . . . . . . . #./._.(.(.,.#.: . . . . . . . . . . x I V W W W W W W T I p . . . . . . . . . . . . . . . . . . . . . . . . . . . . . . . . . . . . . . . . . . ",
". . . . . . . . . . . . . . . . . #.(._.(.(.).g . . . . . . . . . . o P T W W W W T U W W W W S P 1 . . . . . . . . . . . . . . . . . . . . . . . . . . . . . . . . . . . . . . . . ",
". . . . . . . . . . . . . . . +  .(._.(.(.!.: . . . . . . . . . 1 S T W W V S R Q Q Q Q R V V W W S & . . . . . . . . . . . . . . . . . . . . . . . . . . . . . . . . . . . . . . . ",
". . . . . . . . . . . . . . . u _._.(.(.].' . . . . . . . . . 1 T W U V S O N I + + + + { N P T W U k 1 . . . . . . . . . . . . . . . . . . . . . . . . . . . . . . . . . . . . . . ",
". . . . . . . . . . . . . . + %._._.(.(.>.+ . . . . . . . . i S W U P I I ^ . . . . . . . . i O T U W Q . . . . . . . . . . . . . . . . . . . . . . . . . . . . . . . . . . . . . . ",
". . . . . . . . . . . . . + =._._.(.(.;.# . . . . . . . . . M W S R p . . . . . . . . . . . . m z P V S p . . . . . . . . . . . . . . . . . . . . . . . . . . . . . . . . . . . . . ",
". . . . . . . . . . . . . + /._._.(.;.^ . . . . . . . . . s S W P o . . . . . . . . . . . . . . . N T W J . . . . . . . . . . . . . . . . . . . . . . . . . . . . . . . . . . . . . ",
". . . . . . . . . . . . . & /._.(.(.L . . . . . . . . . p T W S i . . . . . . . . . . . . . . . . 1 o z L . . . . . . . . . . . . . . . . . . . . . . . . p 7 . . . . . . . . . . . ",
". . . . . . . . . . . . . !._._.(.=.+ . . . . . . . . . x W S i . . . . . . . . . . . . . . . . . . + o T y . . . . . . . . . . . . . . . . . . . . . . . + + . . . . . . . . . . . ",
". . . . . . . . . . . . . ,.{.(./.#.. . . . . . . . . i W V t . . . . . . . . . . . ' ( + . . . . . + 1 , m 1 . . . . . . . . . . . . . . . . . . . . . . . . . . . . . . . . . . . ",
". . . . . . . . . . . . . . 2 (.;.. . . . . . . . . . i V N 1 . . . . . . . 1 9 ( ^ C I o * ^ 5 + . { 1 } 9 @ . . . . . . . . . . . . . . . . . . . . . . . . . . . . . . . . . . . ",
". . . . . . . . . . . . . . 8 (.,.. . . . . . . . . . i T v + . . . . . 7 o E B m x I I r + 9 B s o + ( m H o 1 . . . . . . . . . . . . . . . . . . . . . . . . . . . . . . . . . . ",
". . . . . . . . . . . . . . 2 ~.u . . . . . . . . . . i T t . . . . . 7 B F F y { i i i . # v F F H w 5 z z p [ . + f { . . } ,.%.. . . . . . . . . . . . . u ' . . . . . . . . . . ",
". . . . . . . . . . . . . + !.!.. . . . . . . . . . . + v t . . . . 1 B F F B 8 f > . . . ' w x G I I B F w [ . + k o 1 . . + u g . . . . . . . . . . . . r K ( . . . . . . . . . . ",
". . . . . . . . . . . . . + ~.2 . . . . . . . . . . . [ J r . . . { E F F E { n f + 9 & & & # . w f C E x o { . k o o 1 . . 8 ).8 ^ . . . . . . . . . . . v N ^ . . . . . . . . . . ",
". . . . . . . . . . . . . + ~.+ . . . . . . . . . . . 1 F & . . . i F F F z & o a + f 5 A G o . . ^ B s ' i - . m o o 1 . . I (./. .. . . . . . . . . . . v N ^ . . . . . . . . . . ",
". . . . . . . . . . . . . + ~.+ . . . . . . . . . . . ' H t . . + F F z t 1 + 7 9 p z o + m 1 . . o p . . . + % g o m ' . + ^.(.,.. . . . . . . . . . . . v N ^ . . . . . . . . . . ",
". . . . . . . . . . . . . +  .+ . . . . . . . . . . . . ^ 1 . . p F z 8 ) ^ + o v F F F r k . . . . . . . + ( 2 3 m ^ . . =./.].I . . . . . . . . . . . 1 H M ^ . . . . . . . . . . ",
". . . . . . . . . . . . . . . . . . . . . . . . . . . . . . . . B F t x s @ @ F F F F F F y . . . . . . + / | 2 g ^ . . . ~.(.~.. . . . . . . . . . . . o N M ^ . . . . . . . . . . ",
". . . . . . . . . . . . . . . . . . . . . . . . . . . . . . . . B z [ I x + + y - - - z E w . . . . + [ G H m 1 { @ . . + ~./.o . . . . . . . . . . . . o M R 1 . . . . . . . . . . ",
". . . . . . . . . . . . . . . . . . . . . . . . . . . . . . . & z @ ~ G v + . + . . . + + + . . # ' H I I I w 5 & . . ! ,._.^.+ . . . . . . . . . . . . r N m . . . . . . . . . . . ",
". . . . . . . . . . . . . . . . . . . . . . . . . . . . . . . z v ' m < 3 3 . . . . . . $ & & @ z I I I I I F z - ! H ;._._.).+ . . . . . . . . . . . 1 M O m . . . . . . . . . . . ",
". . . . . . . . . . . . . . . . . . . . . . . . . . . . . . . m . i N / 3 { . . . . . . + & * # o w I H v v 1 . + =._.(._.,.# . . . . . . . . . . . . 9 M S p . . . . . . . . . . . ",
". . . . . . . . . . . . . . . . . . . . . . . . . . . . . . . . # L N / 3 + . . . . . . . + + @ # $ o o       =.;._.(._.;.^ . . . . . . . . . . . . + E O U O { . . . . . . . . . . ",
". . . . . . . . . . . . . . . . . . . . . . . . . . . . . . . . { W N ~ 1 + . . . . . . . . . . + + . s _.(.(.(.L H =.>.} . . . . . . . . . . . . . 1 M Q W W 7 . . . . . . . . . . ",
". . . . . . . . . . . . . . . . . . . . . . . . . . . . . . . . ' T U F 1 + . . . . . . . . . . . . . + #.(.#.g + . ! } . . . . . . . . . . . . . # N O V W U 1 . . . . . . . . . . ",
". . . . . . . . . . . . . . . . . . . . . . . . . . . . . . . . . m W W B 4 . . . . . . . . . . . . . . . =.I . . . . . . . . . . . . . . . . . . I M P W W u . . . . . . . . . . . ",
". . . . . . . . . . . . . . . . . . . . . . . . . . . . . . . . . i W W S x m . . . . . . . . . . . . . . . . . . . . . . . . . . . . . . . . . i P Q W W S i . . . . . . . . . . . ",
". . . . . . . . . . . . . . . . . . . . . . . . . . . . . . . . . i W W T S P . . . . . . . . . . . . . . . . . . . . . . . . . . . . . . . . g O P V W R m . . . . . . . . . . . . ",
". . . . . . . . . . . . . . . . . . . . . . . . . . . . . . . . . i W W W S Q z . . . . . . . . . . . . . . . . . . . . . . . . . . . . . . 9 O P R V W J . . . . . . . . . . . . . ",
". . . . . . . . . . . . . . . . . . . . . . . . . . . . . . . . . + F W W U R Q z . . . . . . . . . . . . . . . . . . . . . . . . . . . . 1 O P R V W W J . . . . . . . . . . . . . ",
". . . . . . . . . . . . . . . . . . . . . . . . . . . . . . . . . . t W W W U R R x . . . . . . . . . . . . . . . . . . . . . . . . . @ 1 P P R W W V O @ . . . . . . . . . . . . . ",
". . . . . . . . . . . . . . . . . . . . . . . . . . . . . . . . . . p T W W W U R R v + . . . . . . . . . . . . . . . . . . . . . . { N Q Q R W W W O + . . . . . . . . . . . . . . ",
". . . . . . . . . . . . . . . . . . . . . . . . . . . . . . . . . . . u S W W W U S R v o . . . . . . . . . . . . . . . . . . . { o M R S R W W W N + . . . . . . . . . . . . . . . ",
". . . . . . . . . . . . . . . . . . . . . . . . . . . . . . . . . . . . N W W W W U T S Q z o . . . . . . . . . . . . . . . + x I S R T W W W W L & . . . . . . . . . . . . . . . . ",
". . . . . . . . . . . . . . . . . . . . . . . . . . . . . . . . . . . . k S W W W W W U R R O H H { . . . . . . . . . . w H I R R S T W W W W L ' . . . . . . . . . . . . . . . . . ",
". . . . . . . . . . . . . . . . . . . . . . . . . . . . . . . . . . . . . 9 T W W W W W U T R R R O N H . + + + J N N N Q R R S U V W W W W N - . . . . . . . . . . . . . . . . . . ",
". . . . . . . . . . . . . . . . . . . . . . . . . . . . . . . . . . . . . . 1 S T W W W W W V V S R R R P P P P R R R R R S V V W W W W V O + . . . . . . . . . . . . . . . . . . . ",
". . . . . . . . . . . . . . . . . . . . . . . . . . . . . . . . . . . . . . . . p T W W W W W W W W V S S S S S S S T W W W W W W W W R O + . . . . . . . . . . . . . . . . . . . . ",
". . . . . . . . . . . . . . . . . . . . . . . . . . . . . . . . . . . . . . . . . s S W W W W W W W W W W W W W W W W W W W W W W Q J { . . . . . . . . . . . . . . . . . . . . . . ",
". . . . . . . . . . . . . . . . . . . . . . . . . . . . . . . . . . . . . . . . . . s E U W W W W W W W W W W W W W W W W W W S B i . . . . . . . . . . . . . . . . . . . . . . . . ",
". . . . . . . . . . . . . . . . . . . . . . . . . . . . . . . . . . . . . . . . . . . . p p H W W W W W W W W W W W W W W y r m . . . . . . . . . . . . . . . . . . . . . . . . . . ",
". . . . . . . . . . . . . . . . . . . . . . . . . . . . . . . . . . . . . . . . . . . . . . & 7 7 7 m U U U U U S 7 7 7 7 + . . . . . . . . . . . . . . . . . . . . . . . . . . . . ",
". . . . . . . . . . . . . . . . . . . . . . . . . . . . . . . . . . . . . . . . . . . . . . . . . . . & & & & & & . . . . . . . . . . . . . . . . . . . . . . . . . . . . . . . . . ",
". . . . . . . . . . . . . . . . . . . . . . . . . . . . . . . . . . . . . . . . . . . . . . . . . . . . . . . . . . . . . . . . . . . . . . . . . . . . . . . . . . . . . . . . . . ",
". . . . . . . . . . . . . . . . . . . . . . . . . . . . . . . . . . . . . . . . . . . . . . . . . . . . . . . . . . . . . . . . . . . . . . . . . . . . . . . . . . . . . . . . . . ",
". . . . . . . . . . . . . . . . . . . . . . . . . . . . . . . . . . . . . . . . . . . . . . . . . . . . . . . . . . . . . . . . . . . . . . . . . . . . . . . . . . . . . . . . . . ",
". . . . . . . . . . . . . . . . . . . . . . . . . . . . . . . . . . . . . . . . . . . . . . . . . . . . . . . . . . . . . . . . . . . . . . . . . . . . . . . . . . . . . . . . . . "};
