/* XPM */
static char * sprite17_xpm[] = {
"85 64 130 2",
"  	c None",
". 	c #000000",
"+ 	c #1A1625",
"@ 	c #1C1729",
"# 	c #1E182C",
"$ 	c #20192F",
"% 	c #201930",
"& 	c #211930",
"* 	c #211931",
"= 	c #221A33",
"- 	c #231A34",
"; 	c #231A35",
"> 	c #241B37",
", 	c #251B38",
"' 	c #261B39",
") 	c #261B3A",
"! 	c #271C3B",
"~ 	c #281C3D",
"{ 	c #291C3E",
"] 	c #291D3F",
"^ 	c #2B1D41",
"/ 	c #2B1D42",
"( 	c #2D1E45",
"_ 	c #2D1F46",
": 	c #2E1F47",
"< 	c #2E1F48",
"[ 	c #2F1F49",
"} 	c #30204A",
"| 	c #30204B",
"1 	c #32204D",
"2 	c #32214E",
"3 	c #332150",
"4 	c #342252",
"5 	c #352253",
"6 	c #352254",
"7 	c #362255",
"8 	c #372356",
"9 	c #382358",
"0 	c #39245B",
"a 	c #3A245B",
"b 	c #3A245C",
"c 	c #3B245D",
"d 	c #3B255E",
"e 	c #3F2560",
"f 	c #412561",
"g 	c #492564",
"h 	c #4A2465",
"i 	c #4B2465",
"j 	c #4C2466",
"k 	c #4D2466",
"l 	c #4E2467",
"m 	c #502467",
"n 	c #512468",
"o 	c #552469",
"p 	c #5C246C",
"q 	c #5D246D",
"r 	c #5E246D",
"s 	c #60246E",
"t 	c #672371",
"u 	c #642470",
"v 	c #692372",
"w 	c #6D2374",
"x 	c #6F2375",
"y 	c #702375",
"z 	c #742377",
"A 	c #772378",
"B 	c #7A257C",
"C 	c #7B257D",
"D 	c #7C257E",
"E 	c #7D267F",
"F 	c #7E2781",
"G 	c #802883",
"H 	c #822985",
"I 	c #872C8C",
"J 	c #8B2E92",
"K 	c #8C2E93",
"L 	c #8D2F94",
"M 	c #8E2F95",
"N 	c #903097",
"O 	c #93329C",
"P 	c #96339F",
"Q 	c #9835A2",
"R 	c #9C36A6",
"S 	c #9E38A9",
"T 	c #A23AAE",
"U 	c #A43BB1",
"V 	c #A63CB3",
"W 	c #A73DB3",
"X 	c #B248AF",
"Y 	c #B54BAF",
"Z 	c #B84EAE",
"` 	c #BD53AD",
" .	c #BF55AC",
"..	c #AC42B1",
"+.	c #B147B0",
"@.	c #C056AC",
"#.	c #C55BAA",
"$.	c #CB61A9",
"%.	c #CC62A8",
"&.	c #CF65A8",
"*.	c #D167A7",
"=.	c #D269A6",
"-.	c #D76DA5",
";.	c #DF86B4",
">.	c #E18CB8",
",.	c #E290BA",
"'.	c #E393BC",
").	c #E497BE",
"!.	c #E59AC0",
"~.	c #E8A3C6",
"{.	c #E9A9C9",
"].	c #EAACCB",
"^.	c #EBAFCD",
"/.	c #ECB2CF",
"(.	c #EEB7D2",
"_.	c #F0BDD6",
":.	c #F0C0D8",
"<.	c #F1C3DA",
"[.	c #F5CFE1",
"}.	c #F6D1E2",
"|.	c #F6D4E4",
"1.	c #F8D9E7",
"2.	c #000000",
"3.	c #000000",
"4.	c #000000",
"5.	c #000000",
"6.	c #000000",
"7.	c #000000",
"8.	c #000000",
"9.	c #000000",
". . . . . . . . . . . . . . . . . . . . . . . . . . . . . . . . . . . . . . . . . . . . . . . . . . . . . . . . . . . . . . . . . . . . . . . . . . . . . . . . . . . . . ",
". . . . . . . . . . . . . . . . . . . . . . . . . . . . . . . . . . . . . . . . . . . . . . . . . . . . . . . . . . . . . . . . . . . . . . . . . . . . . . . . . . . . . ",
". . . . . . . . . . . . . . . . . . . . . . . . . . . . . . . . . . . . . . . . . . . . . . . . . . . . . . . . . . . . . . . . . . . . . . . . . . . . . . . . . . . . . ",
". . . . . . . . . . . . . . . . . . . . . . . . . . . . . . . . . . . . . . . . . . . . . . . . . . . . . . . . . . . . . . . . . . . . . . . . . . . . . . . . . . . . . ",
". . . . . . . . . . . . . . . . . . . . . . . . . . . . . . . . . . . . . . . . . . . . . . . . . . . . . . . . . . . . . . . . . . . . . . . . . . . . . . . . . . . . . ",
". . . . . . . . . . . . . . . . . . . . . . . . . . . . . . . . . . . . . . . . . . . . . . . . . . . . . . . . . . . . . . . . . . . . . . . . . . . . . . . . . . . . . ",
". . . . . . . . . . . . . . . . . . . . . . . . . . . . . . . . . . . . . . . . . . . . . . . . . . . . . . . . . . . . . . . . . . . . . . . . . . . . . . . . . . . . . ",
". . . . . . . . . . . . . . . . . . . . . . . . . . . . . . . . . . . . . . . . . . . . . . . . . . . . . . . . . . . . . . . . . . . . . . . . . . . . . . . . . . . . . ",
". . . . . . . . . . . . . . . . . . . . . . . . . . . . . . . . . . . . . . . . . . . . . . . . . . . . . . . . . . . . . . . . . . . . . . . . . . . . . . . . . . . . . ",
". . . . . . . . . . . . . . . . . . . . . . . . . . . . . . . . . . . . . . . . . . . . . . . . . . . . . . . . . . . . . . . . . . . . . . . . . . . . . . . . . . . . . ",
". . . . . . . . . . . . . . . . . . . . . . . . . . . . . . . . . . . . . . . . . . . . . . . . . . . . . . . . . . . . . . . . . . . . . . . . . . . . . . . . . . . . . ",
". . . . . . . . . . . . . . . . . . . . . . . . . . . . . . . . . . . . . . . . . . . . . . . . . . . . . . . . . . . . . . . . . . . . . . . . . . . . . . . . . . . . . ",
". . . . . . . . . . . . . . . . . . . . . . . . . . . . . . . . . . . . . . . . . . . . . . . . . . . . . . . . . . . . . . . . . . . . . . . . . . . . . . . . . . . . . ",
". . . . . . . . . . . . . . . . . . . . . . . . . . . . . . . . . . . . . . . . . . . . . . . . . . . . . . . . . . . . . . . . . . . . . . . . . . . . . . . . . . . . . ",
". . . . . . . . . . . . . . . . . . . . . . . . . . . . . . . . . . . . . . . . . . . . . . . . . . . . . . . . . . . . . . . . . . . . . . . . . . . . . . . . . . . . . ",
". . . . . . . . . . . . . . . . . . . . . . . . . . . . . . . . . . . . . . . . . . . . . . . . . . . . . . . . . . . . . . . . . . . . . . . . . . . . . . . . . . . . . ",
". . . . . . . . . . . . . . . . . . . . . . . . . . . . . . . . . . . . . . . . . . . . . . . . . . . . . . . . . . . . . . . . . . . . . . . . . . . . . . . . . . . . . ",
". . . . . . . . . . . . . . . . . . . . . . . . . . . . . . . . . . . . . . . . . . . . . . . . . . . . . . . . . . . . . . . . . . . . . . . . . . . . . . . . . . . . . ",
". . . . . . . . . . . . . . . . . . . . . . . . . . . . . . . . . . . . . . . . . . . . . . . . . . . . . . . . . . . . . . . . . . . . . . . . . . . . . . . . . . . . . ",
". . . . . . . . . . . . . . . . . } =.. . . . . . . . . . . . . o L ^ I L p B + . . . . . . . . . . . . . . . . . . . . . . . . . . . . . . . . . . . . . . . . . . . . . ",
". . . . . . . . . . . . . u (. .@ /.{.. . . . . . . . . . . & X Z ` X ` ` Z Z X N . . . . . . . . . . . . . . . . . . . . . . . . . . . . . . . . . . . . . . . . . . . . ",
". . . . . . . . . . . . } <.).} /.(._ . . . . . . . . + ' Q Z ` ` ` ` ` Q I ` Z ` L + . . . . . . . . . . . . . . . . . . . . . . . . . . . . . . . . . . . . . . . . . . ",
". . . . . . . . . . . . L (.. ;.^.^ . . . . . . . . + H ` ` ` ` X Q Q Q H + I m X X G + . . . . . . . . . . . . . . . . . . . . . . . . . . . . . . . . . . . . . . . . . ",
". . . . . . . . . . . #.[.(.. . . . . . . . . . . . I  .` Z Z I u . . . . . . % % ] F ( + i . . . . - 7 7 . . . . . . . . . . . . . . . . . . . . . . . . . . . . . . . . ",
". . . . . . . . . . #.[.|.[.=.. . . . . . . . . . J ` ` Z H u . . . . . . . . . . + < | + r i . . . 7 w t + . . . . . . . . . . . . . . . . . . . . . . . . . . . . . . . ",
". . . . . . . . . . >.|.|.|.).. . . . . . . . . . X ` Y I + . . . . . . . . . . . . + 4 / i I 1 . . 5 v t + . . . . . . . . . . . . . . . . . . . . . . . . . . . . . . . ",
". . . . . . . . . L |.|.|.(.. . . . . . . . . @ O ` Z J . . . . . . . . . . . . . . . . 7 o M 7 . . 5 v v r . . . . . . . . . . . . . . . . . . . . . . . . . . . . . . . ",
". . . . . . . . ! >.|.|.}.,.. . . . . . . . . B ` Z J . . . . . . . . . . . . . . . . . { g M u + . 1 v v s . . . . . . . . . . . . . . . . . . . . . . . . . . . . . . . ",
". . . . . . . . o 1.|.|.[.. . . . . . . . . ( S ` X + . . . . . . . . . . . . . . . . . . j H L - ~ g v v s . . . . . . . . . . . . . . . . . . . . . . . . . . . . . . . ",
". . . . . . . . & I !.|.#.. . . . . . . . . o ` Z y . . . . . . . . . . + # # , p . . . z 0 z p + 8 m v v s . . . . . . . . . . . . . . . . . . . . . . . . . . . . . . . ",
". . . . . . . . . . ;.|.g . . . . . . . . . m Z X g . . . . . . . . . ( [ { , ^ w . + F J I J I f 9 m v v s . . . . . . . . . . . . . . . . . . . . . . . . . . . . . . . ",
". . . . . . . . . . ;.:.g . . . . . . . . . o Z ..1 . . . . . 1 1 @ g O J v y D r @ B J J J J   v s o v v s . . u H . . . . . . . . . . . . . g . . . . . . . . . . . . . ",
". . . . . . . . . o /.L . . . . . . . . . . ( R y . . . . . p K L A N N < o E r . 5 w J N J M B v v v v t g . . =.,.. . . . . . . . . . . . v S . . . . . . . . . . . . . ",
". . . . . . . . .  .{.g . . . . . . . . . . ( R y . . . . r J J J P H u g     # $ . . J P K O B   v v v t . . . ;.- . . . . . . . . . . . . R S . . . . . . . . . . . . . ",
". . . . . . . . .  .;.. . . . . . . . . . . i N & . . . p J J J K z v u   N O - { z z 9 [ ^ p w   i v v v * . . /.:.!.. . . . . . . . . . . S S . . . . . . . . . . . . . ",
". . . . . . . . .  .;.. . . . . . . . . . . g ..w . . + w K J J K w v u o - + . { A A - . .     s o x t I ' . ;.|.[.^ . . . . . . . . . . . S T . . . . . . . . . . . . . ",
". . . . . . . . . H %.. . . . . . . . . . . . p o . . i L J J J K B t a x s . . . . . . . . ; 7 e P J I ^ . . ,.|.{.+ . . . . . . . . . . i ..S . . . . . . . . . . . . . ",
". . . . . . . . . . . . . . . . . . . . . . . . . . . i K J J J K B v B H 1 . . . . . . . + 1 4 B P P H { . . I <.8 . . . . . . . . . . . N X R . . . . . . . . . . . . . ",
". . . . . . . . . . . . . . . . . . . . . . . . . . & G J J J J K B v x ( . . . . . . . . # 6 F P P P p . . I /.=.$ . . . . . . . . . . . N X X . . . . . . . . . . . . . ",
". . . . . . . . . . . . . . . . . . . . . . . . . . ( J J J I J J I x s . . + + + . . . + p O P P O B + . o ).,.I . . . . . . . . . . . . O +.1 . . . . . . . . . . . . . ",
". . . . . . . . . . . . . . . . . . . . . . . . . . I J K p c o I i m o . . p C y + @ @ 1 J J J I ; + . . . + + . . . . . . . . . . . . B X ..+ . . . . . . . . . . . . . ",
". . . . . . . . . . . . . . . . . . . . . . . . . . I J K p b g m . . . . . . p y * ; * % # % + + . . . . . . . . . . . . . . . . . . { N X Z + . . . . . . . . . . . . . ",
". . . . . . . . . . . . . . . . . . . . . . . . . + J J K p b 3 . . . . . . . . 1 + + p t m + . . . . . . . . . . . . . . . . . . . . m X Z ` I . . . . . . . . . . . . . ",
". . . . . . . . . . . . . . . . . . . . . . . . . . 9 J L f b 3 . . . . . . . . . . . ' { & . . . . . . . . . . . . . . . . . . . . & S X Z ` X . . . . . . . . . . . . . ",
". . . . . . . . . . . . . . . . . . . . . . . . . . ' J J   0 4 . . . . . . . . . . . . . . . . . . . . . . . . . . . . . . . . . . g X Z ` ` X . . . . . . . . . . . . . ",
". . . . . . . . . . . . . . . . . . . . . . . . . . ' J J   | 9 > . . . . . . . . . . . . . . . . . . . . . . . . . . . . . . . . m +.X Z ` ` N . . . . . . . . . . . . . ",
". . . . . . . . . . . . . . . . . . . . . . . . . . ' K K g [ 0 { . . . . . . . . . . . . . . . . . . . . . . . . . . . . . . . . Q X Z ` ` ` + . . . . . . . . . . . . . ",
". . . . . . . . . . . . . . . . . . . . . . . . . . + u L 7 + 4 9 @ . . . . . . . . . . . . . . . . . . . . . . . . . . . . . . y +.X ` ` ` A . . . . . . . . . . . . . . ",
". . . . . . . . . . . . . . . . . . . . . . . . . . . i M 7 . 1 b ) . . . . . . . . . . . . . . . . . . . . . . . . . . . . . t X X ` ` ` E + . . . . . . . . . . . . . . ",
". . . . . . . . . . . . . . . . . . . . . . . . . . . 5 I o . + 4 9 @ . . . . . . . . . . . . . . . . . . . . . . . . . . . s X X ` ` ` Z s . . . . . . . . . . . . . . . ",
". . . . . . . . . . . . . . . . . . . . . . . . . . . . i I p + / | | @ . . . . . . . . . . . . . . . . . . . . . . . . o z X X Z ` ` Z y . . . . . . . . . . . . . . . . ",
". . . . . . . . . . . . . . . . . . . . . . . . . . . . . i o . + ~ | [ ) + . . . . . . . . . . . . . . . . . . . . . o ..X X Z ` ` ` v . . . . . . . . . . . . . . . . . ",
". . . . . . . . . . . . . . . . . . . . . . . . . . . . . . . . . I o 1 | < + . . . . . . . . . . . . . . . . . . ' R ..X Z ` ` ` ` p . . . . . . . . . . . . . . . . . . ",
". . . . . . . . . . . . . . . . . . . . . . . . . . . . . . . . . L Z X g 9 e [ + & . . . . . . . . . . . . + ^ ^ ..X X Z ` ` ` ` s . . . . . . . . . . . . . . . . . . . ",
". . . . . . . . . . . . . . . . . . . . . . . . . . . . . . . . . . X ` ` O ..g H J 9 + . . . . . . . . m p H X X Y Z ` ` ` ` Z w . . . . . . . . . . . . . . . . . . . . ",
". . . . . . . . . . . . . . . . . . . . . . . . . . . . . . . . . . G ` ` ` ` N X u O I G F F F F F F F ..X X Y Z ` ` ` ` ` Z y . . . . . . . . . . . . . . . . . . . . . ",
". . . . . . . . . . . . . . . . . . . . . . . . . . . . . . . . . . . A ` ` ` ` Z Q Y H G X X X X X X X Z Z Z ` ` ` ` ` ` ` u . . . . . . . . . . . . . . . . . . . . . . ",
". . . . . . . . . . . . . . . . . . . . . . . . . . . . . . . . . . . + 1 J ` ` ` ` ` Z Z ` ` ` ` ` ` ` ` ` ` ` ` ` ` ` B 1 . . . . . . . . . . . . . . . . . . . . . . . ",
". . . . . . . . . . . . . . . . . . . . . . . . . . . . . . . . . . . . . . N X ` ` ` ` ` ` ` ` ` ` ` ` ` ` ` ` ` X O . . . . . . . . . . . . . . . . . . . . . . . . . . ",
". . . . . . . . . . . . . . . . . . . . . . . . . . . . . . . . . . . . . . . + N N Z  .` ` ` ` ` ` ` ` ` ` Z N O # . . . . . . . . . . . . . . . . . . . . . . . . . . . ",
". . . . . . . . . . . . . . . . . . . . . . . . . . . . . . . . . . . . . . . . . . s E E E E E H ` X B E E u . . . . . . . . . . . . . . . . . . . . . . . . . . . . . . ",
". . . . . . . . . . . . . . . . . . . . . . . . . . . . . . . . . . . . . . . . . . . . . . . . . o 1 . . . . . . . . . . . . . . . . . . . . . . . . . . . . . . . . . . ",
". . . . . . . . . . . . . . . . . . . . . . . . . . . . . . . . . . . . . . . . . . . . . . . . . . . . . . . . . . . . . . . . . . . . . . . . . . . . . . . . . . . . . ",
". . . . . . . . . . . . . . . . . . . . . . . . . . . . . . . . . . . . . . . . . . . . . . . . . . . . . . . . . . . . . . . . . . . . . . . . . . . . . . . . . . . . . "};
