/* XPM */
static char * sprite12_xpm[] = {
"76 64 130 2",
"  	c None",
". 	c #000000",
"+ 	c #1A1625",
"@ 	c #1C1729",
"# 	c #1E182C",
"$ 	c #20192F",
"% 	c #201930",
"& 	c #211930",
"* 	c #211931",
"= 	c #221A33",
"- 	c #231A34",
"; 	c #231A35",
"> 	c #241B37",
", 	c #251B38",
"' 	c #261B39",
") 	c #261B3A",
"! 	c #271C3B",
"~ 	c #281C3D",
"{ 	c #291C3E",
"] 	c #291D3F",
"^ 	c #2B1D41",
"/ 	c #2B1D42",
"( 	c #2D1E45",
"_ 	c #2D1F46",
": 	c #2E1F47",
"< 	c #2E1F48",
"[ 	c #2F1F49",
"} 	c #30204A",
"| 	c #30204B",
"1 	c #32204D",
"2 	c #32214E",
"3 	c #332150",
"4 	c #342252",
"5 	c #352253",
"6 	c #352254",
"7 	c #362255",
"8 	c #372356",
"9 	c #382358",
"0 	c #39245B",
"a 	c #3A245B",
"b 	c #3A245C",
"c 	c #3B245D",
"d 	c #3B255E",
"e 	c #3F2560",
"f 	c #412561",
"g 	c #492564",
"h 	c #4A2465",
"i 	c #4B2465",
"j 	c #4C2466",
"k 	c #4D2466",
"l 	c #4E2467",
"m 	c #502467",
"n 	c #512468",
"o 	c #552469",
"p 	c #5C246C",
"q 	c #5D246D",
"r 	c #5E246D",
"s 	c #60246E",
"t 	c #672371",
"u 	c #642470",
"v 	c #692372",
"w 	c #6D2374",
"x 	c #6F2375",
"y 	c #702375",
"z 	c #742377",
"A 	c #772378",
"B 	c #7A257C",
"C 	c #7B257D",
"D 	c #7C257E",
"E 	c #7D267F",
"F 	c #7E2781",
"G 	c #802883",
"H 	c #822985",
"I 	c #872C8C",
"J 	c #8B2E92",
"K 	c #8C2E93",
"L 	c #8D2F94",
"M 	c #8E2F95",
"N 	c #903097",
"O 	c #93329C",
"P 	c #96339F",
"Q 	c #9835A2",
"R 	c #9C36A6",
"S 	c #9E38A9",
"T 	c #A23AAE",
"U 	c #A43BB1",
"V 	c #A63CB3",
"W 	c #A73DB3",
"X 	c #B248AF",
"Y 	c #B54BAF",
"Z 	c #B84EAE",
"` 	c #BD53AD",
" .	c #BF55AC",
"..	c #AC42B1",
"+.	c #B147B0",
"@.	c #C056AC",
"#.	c #C55BAA",
"$.	c #CB61A9",
"%.	c #CC62A8",
"&.	c #CF65A8",
"*.	c #D167A7",
"=.	c #D269A6",
"-.	c #D76DA5",
";.	c #DF86B4",
">.	c #E18CB8",
",.	c #E290BA",
"'.	c #E393BC",
").	c #E497BE",
"!.	c #E59AC0",
"~.	c #E8A3C6",
"{.	c #E9A9C9",
"].	c #EAACCB",
"^.	c #EBAFCD",
"/.	c #ECB2CF",
"(.	c #EEB7D2",
"_.	c #F0BDD6",
":.	c #F0C0D8",
"<.	c #F1C3DA",
"[.	c #F5CFE1",
"}.	c #F6D1E2",
"|.	c #F6D4E4",
"1.	c #F8D9E7",
"2.	c #000000",
"3.	c #000000",
"4.	c #000000",
"5.	c #000000",
"6.	c #000000",
"7.	c #000000",
"8.	c #000000",
"9.	c #000000",
". . . . . . . . . . . . . . . . . . . . . . . . . . . . . . . . . . . . . . . . . . . . . . . . . . . . . . . . . . . . . . . . . . . . . . . . . . . . ",
". . . . . . . . . . . . . . . . . . . . . . . . . . . . . . . . . . . . . . . . . . . . . . . . . . . . . . . . . . . . . . . . . . . . . . . . . . . . ",
". . . . . . . . . . . . . . . . . . . . . . . . . . . . . . . . . . . . . . . . . . . . . . . . . . . . . . . . . . . . . . . . . . . . . . . . . . . . ",
". . . . . . . . . . . . . . . . . . . . . . . . . . . . . . . . . . . . . . . . . . . . . . . . . . . . . . . . . . . . . . . . . . . . . . . . . . . . ",
". . . . . . . . . . . . . . . . . . . . . . . . . . . . . . . . . . . . . . . . . . . . . . . . . . . . . . . . . . . . . . . . . . . . . . . . . . . . ",
". . . . . . . . . . . . . . . . . . . . . . . . s I I I I I I I I I I . . . . . . . . . . . . . . . . . . . . . . . . . . . . . . . . . . . . . . . . . ",
". . . . . . . . . . . . . . . . . . . . . . %.%.;.'.,.,.,.,.,.,.,.,.,.%.=.o . . . . . . . . . . . . . . . . . . . . . . . . . . . . . . . . . . . . . . ",
". . . . . . . . . . . . . . . . . . + y #.-.,.,.,.,.,.,.,.,.,.,.,.,.,.,.,.;.;.=.. . . . . . . . . . . . . . . . . . . . . . . . . . . . . . . . . . . . ",
". . . . . . . . . . . . . . . . ^ m %.>.,.,.,.,.;.;.;.;.;.;.;.;.;.;.,.,.,.,.,.,.#.o + . . . . . . . . . . . . . . . . . . . . . . . . . . . . . . . . . ",
". . . . . . . . . . . . . . . (  .-.;.,.,.;.;.$.I J J J J J J J J S >.;.;.,.,.,.,.'.L . . . . . . . . . . . . . . . . . . . . . . . . . . . . . . . . . ",
". . . . . . . . . . . . . . O  .-.>.,.;.$.X y o . . . . . + + + + + # w Q   ,.,.,.,.,. .. . . . . . . . . . . . . . . . . . . . . . . . . . . . . . . . ",
". . . . . . . . . . . . . Z &.-.>.,.` Y H 1 . . . . . . + + . . . . + + + +     ,.,.,.>. .. . . . . . . . . . . . . . . . . . . . . . . . . . . . . . . ",
". . . . . . . . . . . @ X &.-.>.$.T P + . . . . . . . . . . . . . . . . + + + $   >.,.,.,.L + . . . . . . . . . . . . . . . . . . . . . . . . . . . . . ",
". . . . . . . . . . + P &.-.;.$.Q ( . . . . . . . . . 8 O N + . . . . . . . + + + . >.,.,.,.5 . . . . . . . . . . . . . . . . . . . . . . . . . . . . . ",
". . . . . . . . . . Z &.-.&...v 1 . . . . . . . . . =.;.~.~.-.=.=.=.1  .. . . + + + 8 ,.,.,.} . . . . . . . . . . . . . . . . . . . . . . . . . . . . . ",
". . . . . . . . . Z &.-.&...g . . . . . . . . + + -.~.~.~.!.).).).).>.).>.y . . + + & I ,.,.;.@ . . . . . . . . . . . . . . . . . . . . . . . . . . . . ",
". . . . . . . . { #.-.;.T i . . . . . . . . +  .~.~.!.;.>.w # # # & ;.,.,.'.u . . ; $ + N >.,.-.. . . . . . . . . . . . . . . . . . . . . . . . . . . . ",
". . . . . . . . O *.>.$.z . . . . . . . . .  .~.;.=.%.. . . . . . . . o H  .,.. . . ; * .  .=. .. . . . . . . . . . . . . . . . . . . . . . . . . . . . ",
". . . . . . . o #.&.#.Q 1 . . . . . . . . #.~.>.o . . . . . . . . . . . . . L #.. . . / + + ) 9 ; . . . . . . . . . . . . . . . . . . . . . . . . . . . ",
". . . . . . 1 %.&.Z S { . . . . . . . . #.!.u g . . . . . . . . . . . . . . + I  .. . + , + # e < . . . . . . . . . . . . . . . . . . . . . . . . . . . ",
". . . . . . u &.%.X - . . . . . . . . - =.u . . . . . . . . . . . . . . . . . . + . . + ~ + # e e ) . . . . . . . . . . . . . . . . . . . . . . . . . . ",
". . . . . + %.&.` N + . . . . . . . ' #.H . . . . . . . . . . . . . % * + . . . . . . * [ * @ 7 e f + . . . . . . . . . . . . . . . . . . . . . . . . . ",
". . . . . + %.$.X 9 . . . . . . . . ' G . . . . . . . . . . . + + + ~ ] { / . . . . . < < ^ @ # 5 e + . . . . . . . . . . . . . . . . . . . . . . . . . ",
". . . . . . u #.G + . . . . . . . . . . . . . . . . . . + @ @ 1 p 9 7 1 o ; # / . . { < < < @ + : f + . . . . . . . . . . . . . . . . . . . . . . . . . ",
". . . . . . 1 ..y . . . . . . . . . . . . . . . . . . + = ' , { d d a i B f ; ~ ; . ( < < < @ + < a + . . . . . . . . . . . . . . . . . . . . . . . . . ",
". . . . . . 1 T o . . . . . . . . . . . . . . . . . . - 9 f 3 ~ 8 8 a D s d 9 ^ * + ( | < < @ + [ * . { y [ . . . . . . . . . . . . . . . . . . . . . . ",
". . . . . . L L . . . . . . . . . . . . . . . . . . + 9 f 1 @ ; / 3         b 2 9 5 3 2 < ) + + % + . ' y [ . . . . . . . . . . . . . . . . . . . . . . ",
". . . . . + S { . . . . . . . . . . . . . . . . . . 9 7 + + @ ~ /           c 1 f : 4   < * + + + . . i F . . . . . . . . . . . . . . . . . . . . . . . ",
". . . . . + R . . . . . . . . . . . . . . . . . . . 5 . . + @ < 1 0 9 9 A C A ( [ | 6   < * + + + . . v @.y . . . . . . . . . . . . . . . . . . . . . . ",
". . . . . + R . . . . . . . . . . . . . . . . . . . . . . + @ < < 8 { > i A s % ~ 2 ( # ~ # + + + . @ Y *.y . . . . . . . . . . . . . . . . . . . . . . ",
". . . . . . s . . . . . . . . . . . . . . . . . . . . . ; 3 $ < <       ~ i   | 7 / + + @ @ + + . . I Y  .} . . . . . . . . . . . . . . . . . . . . . . ",
". . . . . . . . . . . . . . . . . . . . . . . . . . . . . 7 % ; : a         6 6 ( @ 6 2 @ @ + . . . ..;.L . . . . . . . . . . . . . . . . . . . . . . . ",
". . . . . . . . . . . . . . . . . . . . . . . . . . . . . 1 a + = a         1 < | b d 6 @ @ + . . ^ X #.. . . . . . . . . . . . . . . . . . . . . . . . ",
". . . . . . . . . . . . . . . . . . . . . . . . . . . . . . < % + ~ B D 1 + { [ d d d 9 ; + . . o Z %.I . . . . . . . . . . . . . . . . . . . . . . . . ",
". . . . . . . . . . . . . . . . . . . . . . . . . . . . . . ^ =.=.p i D o + 0 d d d b ) @ . + I $.-.H . . . . . . . . . . . . . . . . . . . . . . . . . ",
". . . . . . . . . . . . . . . . . . . . . . . . . . . . . . + L '.  { i o + 0 e d ) + . . + S ;.;.&.( . . . . . . . . . . . . . . . . . . . . . . . . . ",
". . . . . . . . . . . . . . . . . . . . . . . . . . . . . . . u ;.>.>.  8 + - y i 1 7 1 I Z >.;.I + . . . . . . . . . . . . . . . . . . . . . . . . . . ",
". . . . . . . . . . . . . . . . . . . . . . . . . . . . . . . . .  .,.,.'. .  L I #.$.$.;.-.%. .. . . . . . . . . . . . . . . . . . . . . . . . . . . . ",
". . . . . . . . . . . . . . . . . . . . . . . . . . . . . . . . . . I #.'.'.,.,.'.'.'.'.=.} . . . . . . . . . . . . . . . . . . . . . . . . . . . . . . ",
". . . . . . . . . . . . . . . . . . . . . . . . . . . . . . . . . . . & o o u >.#.o o o } . . . . . . . . . . . . . . . . . . . . . . . . . . . . . . . ",
". . . . . . . . . . . . . . . . . . . . . . . . . . + g . . . . . . . . . . . # + . . . . . . . . . . . . . . . . . . . . . . . . . . . . . . . . . . . ",
". . . . . . . . . . . . . . . . . . . . . . . . . . ^ %.p . . . . . . . . . . . . . . . . . . . . . . . . . . . . . . . . . . ^  .o . . . . . . . . . . ",
". . . . . . . . . . . . . . . . . . . . . . . . . . . G ;.g . . . . . . . . . . . . . . . . . . . . . . . . . . . . . . . . + ;.>.g . . . . . . . . . . ",
". . . . . . . . . . . . . . . . . . . . . . . . . . . G !.>.1 . . . . . . . . . . . . . . . . . . . . . . . . . . . . . . =.,.,.} . . . . . . . . . . . ",
". . . . . . . . . . . . . . . . . . . . . . . . . . . . %.!.,.g . . . . . . . . . . . . . . . . . . . . . . . . . . . o %.~.,.- . . . . . . . . . . . . ",
". . . . . . . . . . . . . . . . . . . . . . . . . . . . I ,.!.;.p . . . . . . . . . . . . . . . . . . . . . . . . B O ~.~.~.g . . . . . . . . . . . . . ",
". . . . . . . . . . . . . . . . . . . . . . . . . . . . . ;.!.!.;.=.& . . . . . . . . . . . . . . . . . . . . . B ,.~.~.~.=.! . . . . . . . . . . . . . ",
". . . . . . . . . . . . . . . . . . . . . . . . . . . . . g ,.!.!.!.>.=.+ . . . . . . . . . . . . . . . # # } ;.'.~.~.~.=.- . . . . . . . . . . . . . . ",
". . . . . . . . . . . . . . . . . . . . . . . . . . . . . . 8 ,.!.!.!.!.).L o p } . . . . . . & p o o I ).).).!.~.~.'.;.. . . . . . . . . . . . . . . . ",
". . . . . . . . . . . . . . . . . . . . . . . . . . . . . . . o =.,.!.!.!.!.!.!.-.L L L L L L #.!.!.!.!.!.!.~.~.~.;.^ . . . . . . . . . . . . . . . . . ",
". . . . . . . . . . . . . . . . . . . . . . . . . . . . . . . . . G ).!.!.!.!.!.!.!.!.!.!.!.!.!.!.!.~.~.~.~.~.).N g . . . . . . . . . . . . . . . . . . ",
". . . . . . . . . . . . . . . . . . . . . . . . . . . . . . . . . . o o %.).).).!.!.!.!.!.!.!.!.~.~.~.~.~.~.!.o . . . . . . . . . . . . . . . . . . . . ",
". . . . . . . . . . . . . . . . . . . . . . . . . . . . . . . . . . . . + # # y >.,.~.~.~.~.~.~.~.~.~.,.#.+ # . . . . . . . . . . . . . . . . . . . . . ",
". . . . . . . . . . . . . . . . . . . . . . . . . . . . . . . . . . . . . . . . . . =.=.>.~.~.!.=.=.=.. . . . . . . . . . . . . . . . . . . . . . . . . ",
". . . . . . . . . . . . . . . . . . . . . . . . . . . . . . . . . . . . . . . . . . . . p N N H . . . . . . . . . . . . . . . . . . . . . . . . . . . . ",
". . . . . . . . . . . . . . . . . . . . . . . . . . . . . . . . . . . . . . . . . . . . . . . . . . . . . . . . . . . . . . . . . . . . . . . . . . . . ",
". . . . . . . . . . . . . . . . . . . . . . . . . . . . . . . . . . . . . . . . . . . . . . . . . . . . . . . . . . . . . . . . . . . . . . . . . . . . ",
". . . . . . . . . . . . . . . . . . . . . . . . . . . . . . . . . . . . . . . . . . . . . . . . . . . . . . . . . . . . . . . . . . . . . . . . . . . . ",
". . . . . . . . . . . . . . . . . . . . . . . . . . . . . . . . . . . . . . . . . . . . . . . . . . . . . . . . . . . . . . . . . . . . . . . . . . . . ",
". . . . . . . . . . . . . . . . . . . . . . . . . . . . . . . . . . . . . . . . . . . . . . . . . . . . . . . . . . . . . . . . . . . . . . . . . . . . ",
". . . . . . . . . . . . . . . . . . . . . . . . . . . . . . . . . . . . . . . . . . . . . . . . . . . . . . . . . . . . . . . . . . . . . . . . . . . . ",
". . . . . . . . . . . . . . . . . . . . . . . . . . . . . . . . . . . . . . . . . . . . . . . . . . . . . . . . . . . . . . . . . . . . . . . . . . . . ",
". . . . . . . . . . . . . . . . . . . . . . . . . . . . . . . . . . . . . . . . . . . . . . . . . . . . . . . . . . . . . . . . . . . . . . . . . . . . ",
". . . . . . . . . . . . . . . . . . . . . . . . . . . . . . . . . . . . . . . . . . . . . . . . . . . . . . . . . . . . . . . . . . . . . . . . . . . . "};
