/* XPM */
static char * sprite19_xpm[] = {
"73 64 130 2",
"  	c None",
". 	c #000000",
"+ 	c #1A1625",
"@ 	c #1C1729",
"# 	c #1E182C",
"$ 	c #20192F",
"% 	c #201930",
"& 	c #211930",
"* 	c #211931",
"= 	c #221A33",
"- 	c #231A34",
"; 	c #231A35",
"> 	c #241B37",
", 	c #251B38",
"' 	c #261B39",
") 	c #261B3A",
"! 	c #271C3B",
"~ 	c #281C3D",
"{ 	c #291C3E",
"] 	c #291D3F",
"^ 	c #2B1D41",
"/ 	c #2B1D42",
"( 	c #2D1E45",
"_ 	c #2D1F46",
": 	c #2E1F47",
"< 	c #2E1F48",
"[ 	c #2F1F49",
"} 	c #30204A",
"| 	c #30204B",
"1 	c #32204D",
"2 	c #32214E",
"3 	c #332150",
"4 	c #342252",
"5 	c #352253",
"6 	c #352254",
"7 	c #362255",
"8 	c #372356",
"9 	c #382358",
"0 	c #39245B",
"a 	c #3A245B",
"b 	c #3A245C",
"c 	c #3B245D",
"d 	c #3B255E",
"e 	c #3F2560",
"f 	c #412561",
"g 	c #492564",
"h 	c #4A2465",
"i 	c #4B2465",
"j 	c #4C2466",
"k 	c #4D2466",
"l 	c #4E2467",
"m 	c #502467",
"n 	c #512468",
"o 	c #552469",
"p 	c #5C246C",
"q 	c #5D246D",
"r 	c #5E246D",
"s 	c #60246E",
"t 	c #672371",
"u 	c #642470",
"v 	c #692372",
"w 	c #6D2374",
"x 	c #6F2375",
"y 	c #702375",
"z 	c #742377",
"A 	c #772378",
"B 	c #7A257C",
"C 	c #7B257D",
"D 	c #7C257E",
"E 	c #7D267F",
"F 	c #7E2781",
"G 	c #802883",
"H 	c #822985",
"I 	c #872C8C",
"J 	c #8B2E92",
"K 	c #8C2E93",
"L 	c #8D2F94",
"M 	c #8E2F95",
"N 	c #903097",
"O 	c #93329C",
"P 	c #96339F",
"Q 	c #9835A2",
"R 	c #9C36A6",
"S 	c #9E38A9",
"T 	c #A23AAE",
"U 	c #A43BB1",
"V 	c #A63CB3",
"W 	c #A73DB3",
"X 	c #B248AF",
"Y 	c #B54BAF",
"Z 	c #B84EAE",
"` 	c #BD53AD",
" .	c #BF55AC",
"..	c #AC42B1",
"+.	c #B147B0",
"@.	c #C056AC",
"#.	c #C55BAA",
"$.	c #CB61A9",
"%.	c #CC62A8",
"&.	c #CF65A8",
"*.	c #D167A7",
"=.	c #D269A6",
"-.	c #D76DA5",
";.	c #DF86B4",
">.	c #E18CB8",
",.	c #E290BA",
"'.	c #E393BC",
").	c #E497BE",
"!.	c #E59AC0",
"~.	c #E8A3C6",
"{.	c #E9A9C9",
"].	c #EAACCB",
"^.	c #EBAFCD",
"/.	c #ECB2CF",
"(.	c #EEB7D2",
"_.	c #F0BDD6",
":.	c #F0C0D8",
"<.	c #F1C3DA",
"[.	c #F5CFE1",
"}.	c #F6D1E2",
"|.	c #F6D4E4",
"1.	c #F8D9E7",
"2.	c #000000",
"3.	c #000000",
"4.	c #000000",
"5.	c #000000",
"6.	c #000000",
"7.	c #000000",
"8.	c #000000",
"9.	c #000000",
". . . . . . . . . . . . . . . . . . . . . . . . . . . . . . . . . . . . . . . . . . . . . . . . . . . . . . . . . . . . . . . . . . . . . . . . . ",
". . . . . . . . . . . . . . . . . . . . . . . . . . . . . . . . . . . . . . . . . . . . . . . . . . . . . . . . . . . . . . . . . . . . . . . . . ",
". . . . . . . . . . . . . . . . . . . . . . . . . . . . . . . . . . . . . . . . . . . . . . . . . . . . . . . . . . . . . . . . . . . . . . . . . ",
". . . . . . . . . . . . . . . . . . . . . . . . . . . . . . . . . . . . . . . . . . . . . . . . . . . . . . . . . . . . . . . . . . . . . . . . . ",
". . . . . . . . . . . . . . . . . . . . . . . . . . . . . . . . . . . . . . . . . . . . . . . . . . . . . . . . . . . . . . . . . . . . . . . . . ",
". . . . . . . . . . . . . . . . . . . . . . . . . . . . . . . . . . . . . . . . . . . . . . . . . . . . . . . . . . . . . . . . . . . . . . . . . ",
". . . . . . . . . . . . . . . . . . . . . . . . . . . . . . . . . . . . . . . . . . . . . . . . . . . . . . . . . . . . . . . . . . . . . . . . . ",
". . . . . . . . . . . . . . . . . . . . . . . . . . . . . . . . . . . . . . . . . . . . . . . . . . . . . . . . . . . . . . . . . . . . . . . . . ",
". . . . . . . . . . . . . . . . . . . . . . . . . . . . . . . . . . . . . . . . . . . . . . . . . . . . . . . . . . . . . . . . . . . . . . . . . ",
". . . . . . . . . . . . . . . . . . . . . . . . . . . . . . . . . . . . . . . . . . . . . . . . . . . . . . . . . . . . . . . . . . . . . . . . . ",
". . . . . . . . . . . . . . . . . . . . . . . . . ^ 8 8 - . . . . . . . . . . . . . . . . . . . . . . . . . . . . . . . . . . . . . . . . . . . . ",
". . . . . . . . . . . . . . . . . . . . . . B I I >.~.~.=.I B . . . . . . . . . . . . . . . . . . . . . . . . . . . . . . . . . . . . . . . . . . ",
". . . . . . . . . . . . . . . . . . . . 8 =.!.~.~.~.~.~.~.~.!.=.=.+ . . . . . . . . . . . . . . . . . . . . . . . . . . . . . . . . . . . . . . . ",
". . . . . . . . . . . . . . . . . . %.).).~.~.~.~.!.!.!.!.!.!.!.!.>.>.>.g ' + . . . . . . . . . . . . . . . . . . . . . . . . . . . . . . . . . . ",
". . . . . . . . . . . . . . . . u  .~.~.~.~.~.!.!.!.!.!.!.!.!.!.!.!.!.!.!.!.%.+ . . . . . . . . . . . . . . . . . . . . . . . . . . . . . . . . . ",
". . . . . . . . . . . . . . . I ~.~.~.~.!.!.!.!.!.=.#.#.#.#.#.#.,.!.!.!.!.!.!.=.N . . . . . . . . . . . . . . . . . . . . . . . . . . . . . . . . ",
". . . . . . . . . . . . . 8 >.!.~.~.!.!.!.!.).B u ^ . . . . . . o u u ;.!.!.!.!.).N . . . . . . . . . . . . . . . . . . . . . . . . . . . . . . . ",
". . . . . . . . . . . . g !.~.~.~.!.!.>.-.+ & . . . . . . . . . . . . + 8 >.'.!.!.!.I . . . . . . . . . . . . . . . . . . . . . . . . . . . . . . ",
". . . . . . . . . . . r '.~.~.!.!.,.=.1 . . . . . . . . . . . . . . . . . . I =.!.!.!.+ . . . . . . . . . . . . . . . . . . . . . . . . . . . . . ",
". . . . . . . . . . . #.~.~.!.!.).u . . . . . . . . . . . . ^ G G { s . . . . .  .!.!.=.. . . . . . . . . . . . . . . . . . . . . . . . . . . . . ",
". . . . . . . . . . y ~.~.!.).L } . . . . . . . . + & m N M N O O N O N ( @ . . + #.!.>.& . . . . . . . . . . . . . . . . . . . . . . . . . . . . ",
". . . . . . . . . G ~.~.!.). .. . . . . . . . . - I O O O N N N N N O O O I m + . . %.!.=.. . . . . . . . . . . . . . . . . . . . . . . . . . . . ",
". . . . . . . . I !.~.!.!.N . . . . . . . . . y H O O K L I o m G o y L L O P ^ . . . #.=.. . . . . . . . . . . . . . . . . . . . . . . . . . . . ",
". . . . . . . . =.~.~.).).{ . . . . . . . . C O K E I z ' ' . . & . + ' H J O J F . . +  .B . . . . . . . . . . . . . . . . . . . . . . . . . . . ",
". . . . . . . B ~.~.,.. + . . . . . . . . & I M I 1 . . . . . . . . . . + F L O I - . . . . . . . . . . . . . . . . . . . . . . . . . . . . . . . ",
". . . . . . @ =.~.~. .. . . . . . . . . - H O B 1 . . . . . . . . . . . . ' C O O w . . . . . . . . . . . . . . . . . . . . . . . . . . . . . . . ",
". . . . . . ^ ~.~.L . . . . . . . . . . 1 P I 7 . . . . . . . . . . . . . . ( m O v . . . . . . . . . . . . . . . . . . . . . . . . . . . . . . . ",
". . . . . . ,.~.!.p . . . . . . . . . + I I 1 . . . . . . . . . # & + . . . . ^ O O 1 . . . . . . . . . . . . . . . . . . . . . . . . . . . . . . ",
". . . . . . %.=.G . . . . . . . . . . . - y - . . . . . . . 5 5 z D p + . . . ; G I { . . . . . . . . . . . . . . . . . . . . . . . . . . . . . . ",
". . . . . . . . . . . . . . . . . . . . t o . . . . . ' p p t 5 9 B z s s + . + B 1 . . . . . . . . . . . . . . . . . . . . . . . . . . . . . . . ",
". . . . . . . . . . . . . . . . . . . + A m . . . . # w w v : c ( v + + v A i & } > . . . . . . . . . . . . . . . . . . . . . . + . . . . . . . . ",
". . . . . . . . . . . . . . . . . . . p w . . . . . v w 8 ) 9 ; + . . . o u p F ! + . . . . . . . . . . . . . . . . . . . . . + r 1 . . . . . . . ",
". . . . . . . . . . . . . . . . . . . m w . . . . 1 w 8 > ' ; . . . . . . { r ^ : 1 . . . . % . . . . . . . . . . . . . . . . ' E [ . . . . . . . ",
". . . . . . . . . . . . . . . . . . . w ' . . . . o 1 ' ' > . . . { o ^ . + & ^ p + . . . . ] . . . . #.,.# . . . . . . . . . ' D [ . . . . . . . ",
". . . . . . . . . . . . . . . . . . . s w . . . . * ' : k + . . . % 1 A + ( v s o . . . . . . . . . y {.u . . . . . . . . . . ' D [ . . . . . . . ",
". . . . . . . . . . . . . . . . . . . . i . . . + ) = o H & . . . + i m + ' ^ . . . . . . ; . . . . u >.8 . . . . . . . . . . o D [ . . . . . . . ",
". . . . . . . . . . . . . . . . . . . . . . . . + > H J s . . . . r y [ . . . . . + 3 . ; e + . . =.>.#.. . . . . . . . . . . B C [ . . . . . . . ",
". . . . . . . . . . . . . . . . . . . . . . . . + 1 N O s . . . . t y 7 . & & y w 1 f e e { . . ^ ,.;.. . . . . . . . . . . . A A ^ . . . . . . . ",
". . . . . . . . . . . . . . . . . . . . . . . . . G O E i . . u 8 @ 9 v m D D C y 9 f e ( . . 8 ;.~.>.. . . . . . . . . . . 1 B o . . . . . . . . ",
". . . . . . . . . . . . . . . . . . . . . . . & G L N @ . * . o =.! @ p z z C C y ] / ^ + . =.;.~.~.B . . . . . . . . . . . w B p . . . . . . . . ",
". . . . . . . . . . . . . . . . . . . . . . . { O O N ) + . . . -.;.2 : ^ w z A v + # 8 ^ =.!.~.~.u . . . . . . . . . . . m B y + . . . . . . . . ",
". . . . . . . . . . . . . . . . . . . . . . . { O O N > + . . . . -.!.!.I H H : 5  .  !.!.!.~.!.H . . . . . . . . . . . + s B p . . . . . . . . . ",
". . . . . . . . . . . . . . . . . . . . . . . { O O O u = . . . . & =.!.!.!.!.!.!.!.!.~.~.~.#.H . . . . . . . . . . . . ^ D B . . . . . . . . . . ",
". . . . . . . . . . . . . . . . . . . . . . . { O O O H ) + . . . . ^ p u ).).).!.~.~.~.~. .+ . . . . . . . . . . . . + z D 7 . . . . . . . . . . ",
". . . . . . . . . . . . . . . . . . . . . . . { O O O I y { . . . . . . . + + + +  .>.! + . . . . . . . . . . . . . . y B I I + . . . . . . . . . ",
". . . . . . . . . . . . . . . . . . . . . . . @ G O O O J s . . . . . . . . . . . . . . . . . . . . . . . . . . . . 1 A E M y . . . . . . . . . . ",
". . . . . . . . . . . . . . . . . . . . . . . . o O O O K I v . . . . . . . . . . . . . . . . . . . . . . . . . . 5 A C N O p . . . . . . . . . . ",
". . . . . . . . . . . . . . . . . . . . . . . . m O O O O J I r . . . . . . . . . . . . . . . . . . . . . . . . 1 B D N O v . . . . . . . . . . . ",
". . . . . . . . . . . . . . . . . . . . . . . . . F O O O O I z + . . . . . . . . . . . . . . . . . . . . . { m B E M O N i . . . . . . . . . . . ",
". . . . . . . . . . . . . . . . . . . . . . . . . 7 N O O O M I A . . . . . . . . . . . . . . . . . . . . # B D D M O O i . . . . . . . . . . . . ",
". . . . . . . . . . . . . . . . . . . . . . . . . . ( O O O O L I H t + . . . . . . . . . . . . . . . + z G C J N O O 1 . . . . . . . . . . . . . ",
". . . . . . . . . . . . . . . . . . . . . . . . . . + I O O O O O J I I i 7 7 + . . . . . . . . { 7 o I D H J O O M i . . . . . . . . . . . . . . ",
". . . . . . . . . . . . . . . . . . . . . . . . . . . ' I O O O O O O M I I I w t t t t t t t t F I G H I O O O O F . . . . . . . . . . . . . . . ",
". . . . . . . . . . . . . . . . . . . . . . . . . . . . - 1 N O O O O O O N O I I I I I I I I I H F N O O O O O 7 ' . . . . . . . . . . . . . . . ",
". . . . . . . . . . . . . . . . . . . . . . . . . . . . . . 1 I N O O O O O O O O O O O O O O O O O O O O O I g . . . . . . . . . . . . . . . . . ",
". . . . . . . . . . . . . . . . . . . . . . . . . . . . . . . . r O O O O O O O O O O O O O O O O O O P B t . . . . . . . . . . . . . . . . . . . ",
". . . . . . . . . . . . . . . . . . . . . . . . . . . . . . . . . 9 9 H O O O O O O O O O O O O O O i i + . . . . . . . . . . . . . . . . . . . . ",
". . . . . . . . . . . . . . . . . . . . . . . . . . . . . . . . . . . + + m L J J J J J J J J B + + . . . . . . . . . . . . . . . . . . . . . . . ",
". . . . . . . . . . . . . . . . . . . . . . . . . . . . . . . . . . . . . . . . . . . . . . . . . . . . . . . . . . . . . . . . . . . . . . . . . ",
". . . . . . . . . . . . . . . . . . . . . . . . . . . . . . . . . . . . . . . . . . . . . . . . . . . . . . . . . . . . . . . . . . . . . . . . . ",
". . . . . . . . . . . . . . . . . . . . . . . . . . . . . . . . . . . . . . . . . . . . . . . . . . . . . . . . . . . . . . . . . . . . . . . . . ",
". . . . . . . . . . . . . . . . . . . . . . . . . . . . . . . . . . . . . . . . . . . . . . . . . . . . . . . . . . . . . . . . . . . . . . . . . ",
". . . . . . . . . . . . . . . . . . . . . . . . . . . . . . . . . . . . . . . . . . . . . . . . . . . . . . . . . . . . . . . . . . . . . . . . . ",
". . . . . . . . . . . . . . . . . . . . . . . . . . . . . . . . . . . . . . . . . . . . . . . . . . . . . . . . . . . . . . . . . . . . . . . . . "};
