/* XPM */
static char *sprite4[] = {
/* columns rows colors chars-per-pixel */
"64 59 209 2 ",
"   c #000000",
".  c #06050A",
"X  c #0A040C",
"o  c #09090E",
"O  c #090507",
"+  c #10070D",
"@  c #0D0611",
"#  c #0C0A13",
"$  c #0F0E18",
"%  c #110614",
"&  c #110D16",
"*  c #130B1A",
"=  c #1B0A1D",
"-  c #14111C",
";  c #150D22",
":  c #1C0B21",
">  c #171321",
",  c #191525",
"<  c #1D152A",
"1  c #1F1531",
"2  c #1F1930",
"3  c #220B24",
"4  c #260C2A",
"5  c #2A0E2C",
"6  c #201425",
"7  c #22142A",
"8  c #29162B",
"9  c #340F38",
"0  c #211532",
"q  c #2B1334",
"w  c #221933",
"e  c #281833",
"r  c #261A39",
"t  c #291C3E",
"y  c #2D153C",
"u  c #321236",
"i  c #341339",
"p  c #3B143D",
"a  c #3C183B",
"s  c #311B3D",
"d  c #32203F",
"f  c #411C3B",
"g  c #45263A",
"h  c #2C1D44",
"j  c #2F1F4A",
"k  c #351641",
"l  c #341B44",
"z  c #331E4A",
"x  c #391E4B",
"c  c #3F1442",
"v  c #3E1E53",
"b  c #33204E",
"n  c #3F234B",
"m  c #352254",
"M  c #3C2053",
"N  c #3B245B",
"B  c #461946",
"V  c #441B4C",
"C  c #49194B",
"Z  c #4D1A51",
"A  c #431E51",
"S  c #501C54",
"D  c #551D5B",
"F  c #5A1D5E",
"G  c #45224B",
"H  c #4C294C",
"J  c #4A2746",
"K  c #543047",
"L  c #47235A",
"P  c #592654",
"I  c #5C2A53",
"U  c #5C225D",
"Y  c #552556",
"T  c #5A2B4D",
"R  c #652F55",
"E  c #682E5F",
"W  c #653055",
"Q  c #683256",
"!  c #6D375A",
"~  c #442461",
"^  c #4C2463",
"/  c #542263",
"(  c #592264",
")  c #5C286C",
"_  c #5C3060",
"`  c #5D2771",
"'  c #64226B",
"]  c #642D6B",
"[  c #6D2F6D",
"{  c #662766",
"}  c #722F6E",
"|  c #613160",
" . c #6D3265",
".. c #6F316E",
"X. c #713365",
"o. c #652674",
"O. c #6C2B7A",
"+. c #662874",
"@. c #722676",
"#. c #722D73",
"$. c #74297C",
"%. c #7B2B7E",
"&. c #6E3273",
"*. c #733370",
"=. c #74337A",
"-. c #7E3D7D",
";. c #7A3678",
":. c #774768",
">. c #764A72",
",. c #813C70",
"<. c #8E3A7F",
"1. c #8C4179",
"2. c #86467A",
"3. c #875872",
"4. c #7C2B82",
"5. c #7E2D8A",
"6. c #742D84",
"7. c #7B3884",
"8. c #812B85",
"9. c #862D8D",
"0. c #843B83",
"q. c #8B3A84",
"w. c #8A3489",
"e. c #8C3A8B",
"r. c #853584",
"t. c #913B8C",
"y. c #913A8B",
"u. c #8C2E93",
"i. c #863092",
"p. c #8A3195",
"a. c #93339D",
"s. c #993C93",
"d. c #9634A0",
"f. c #9B36A5",
"g. c #9E37A8",
"h. c #9D3CA1",
"j. c #A038A8",
"k. c #8A4A83",
"l. c #954A85",
"z. c #96418E",
"x. c #964788",
"c. c #9C538B",
"v. c #9D4394",
"b. c #A14C8D",
"n. c #A94F8E",
"m. c #A75289",
"M. c #A24495",
"N. c #A54B94",
"B. c #AB4E94",
"V. c #A4499B",
"C. c #AE4C9D",
"Z. c #A6479D",
"A. c #AB5694",
"S. c #AD539B",
"D. c #A75B98",
"F. c #B2559B",
"G. c #BC5C9B",
"H. c #B5579A",
"J. c #A56096",
"K. c #B2629E",
"L. c #B9749C",
"P. c #AB49A5",
"I. c #B54EAC",
"U. c #B84EA9",
"Y. c #BD56A5",
"T. c #BF5BA2",
"R. c #BA54AB",
"E. c #B657A7",
"W. c #BC4EB1",
"Q. c #BF61AA",
"!. c #BE65A3",
"~. c #C2709C",
"^. c #C45DA4",
"/. c #C85FA7",
"(. c #C65CAA",
"). c #CA5FAA",
"_. c #C557B4",
"`. c #C655B8",
"'. c #C662A3",
"]. c #CC64A5",
"[. c #CD62AA",
"{. c #C769AB",
"}. c #D167A7",
"|. c #D269A6",
" X c #D266AA",
".X c #D468AA",
"XX c #DB6CAD",
"oX c #CB76A7",
"OX c #D876AE",
"+X c #D577AD",
"@X c #CA6AB2",
"#X c #D364B1",
"$X c #DB7DB7",
"%X c #D777B3",
"&X c #E07DBA",
"*X c #CA82A8",
"=X c #D484AF",
"-X c #DA83B3",
";X c #DA8AB5",
":X c #DB87B8",
">X c #DF8BB8",
",X c #E086B6",
"<X c #E18BB7",
"1X c #E685BB",
"2X c #E18CB9",
"3X c #E98BBA",
"4X c #E391BB",
"5X c #EB96C1",
"6X c None",
/* pixels */
"                                                                                                                                ",
"                                                                                                                                ",
"                                                                                                                                ",
"                                                                                                                                ",
"                                                                                                                                ",
"                                                                                                                                ",
"                                                                                                                                ",
"                                              & C <                                                                             ",
"                                    O . J 1.1.1.G.b.1.1.1.1.| l 3 o .                                                           ",
"                                o y ;.m.G. X.X.X|..X.X X X.X'.G.<.@./ @ .                                                       ",
"                              3 q.H.]..X|.|.|.|.|.|.|.|.|.}.|. X].].P.4.D X                                                     ",
"                          % ] G.].|.|. X|.|.}.)././././.F.y./.].].|.]./.w.l O                                                   ",
"                        % } '.|.|.|.]. X[.^.E.w.8.8.8.8.4.y.z.e._.[. X|.'.h.( #                                                 ",
"                      % ..].|.|. X[.[.H.n. .y X   .   .   * v +.z.V.C.G.[.I.d.( X                                               ",
"                    % ..'.|.|.].'.F.v.B               3 8 3 %   . < z ^ x.Y.j.a./ %                                             ",
"                  % *.].|.|. X[.z.V $       . @ 4 g K S.}.P.2.g 6 . X , j D i.f.d./ #                                           ",
"                = ..'.|.|.}.C.E 4         . H >.D.1X1X$X@X%X3X1XJ.J . . #   k u.g.p.k                                           ",
"                U /.|.|.}.M.B           4  .oX$X!.c.! R Z S :.D.+X{.D X     O 4.f.f.F                                           ",
"              4 b. X|.].Z.i         . q q.XX@X7.u :         . 0 y L.oXY O   = 8.g.g.$.#                                         ",
"            . X.}.}.}./.f           # .. XS.H *                 $ J l.C.=   & L d.g.a.B                                         ",
"            J G..X|.[.0.O           H T.N.p .                   . $ r H r     z d.g.f.D                                         ",
"            Q XX|.[.v.3           q E.Q.B .                       $ r 2 b > X ' d.g.f.D                                         ",
"            R  X}.'.) X         * ;.).7.;               . @ r r # $ t 2 h < . 3 a.g.f.Z p p                                     ",
"            > l. XY.8           = z.l.<           . . 1 j L M h m 2 t t h ,   = a.f.f.Z I I                                     ",
"            # 2. XJ             ; e.-.#         . w h N ~ o.D t m t h w , = ' L d.g.f.Z P E O                                   ",
"            7 c.v.3             * O.] @       . - w N ~ ` / r - , w h 2 < %.f.a.f.g.f.Z T s.5                                   ",
"            R #Xy.=             @ z <         - , 2 O.4.u.^ 0   $ t h r b p.f.g.f.g.u.p X. .X                                   ",
"            R #X} %             : o.B       o > , V d.g.u.` z = , m m < U a.f.g.g.d./ u C.U.9                   * =             ",
"            R `.a               @ k 3       - , w 9.f.9./ q y q 0 h , . D p.9.' a.8.z ] _.^.a                   C D             ",
"            R `.a                           - , w O.d.' r ; # . @ .   X ' / i   p u G S..X,.%                   B D             ",
"            W W.i                         # > , w L a.5.~ N h .   . i F 4.z       e x..Xn.8                   = $.D             ",
"            C E %                         0 w , t b w.a.^ N N 2 . i 8.8.o.:     % ;. X X-.#                 X ^ 5.:             ",
"            % O                         > m w , h z o.d.6.m N m , U u.8.s O * e x.G. Xx.6                   = 5.=.#             ",
"                                        0 N w < h z ~ 9.a.5.o.h V p 3 : X X #.A. X|.^.F                     : s.M.u             ",
"                                        0 N h < r h r = +.P.Y.t.v.C.v.v.M.N.].}.|.H.E X                     G R.[.I             ",
"                                        < N N r 2 h . . * O.(./.'.[. X]. X].].^.x.: .                     4 h._.[.Y             ",
"                                          1 N r , w .     : / { @.t.H.q.N.w.$.A O                       * O.I. X;.#             ",
"                                          $ M x r < w .           % t & ; -                           . ) W.[.B.a               ",
"                                            { V.k.s w >                                               5 I.-X[. .                ",
"                                            Q -X>Xk.y 2 o                                           4 y.{.%XB.4                 ",
"                                            . >.;X2X2.- > o                                     : 9 w.{.OX^.I                   ",
"                                              w *X4X=X. , > o                               . ; O.S.@X%X^._ #                   ",
"                                              & x.>X4X=X6X# o $ .                         ; / 0.Q.:X%X^.I o                     ",
"                                                4 x.4X4X5X*X3.# # $ - * - & $         = D r.T.%X,XOX'._ .                       ",
"                                                  3 k.<X4X4X4X~.l.&.h h h h h r 0 < G s.E.%X<X<XOX-.H @                         ",
"                                                    3 t.+X4X4X4X:X,X!.F.F.H.H.S.H.S.!.:X>X4X-XP.4.: .                           ",
"                                                      + f {.;X;X4X4X2X2X>X2X2X2X>X2X2X2X+X'.k.5 X                               ",
"                                                          & b 2.oX=X:X:X;X:X:X:X;X-XoXn.V o O                                   ",
"                                                              . O Y 8.8.4.4.4.4.8.+.7 O                                         ",
"                                                                                                                                ",
"                                                                                                                                ",
"                                                                                                                                ",
"                                                                                                                                ",
"                                                                                                                                ",
"                                                                                                                                ",
"                                                                                                                                ",
"                                                                                                                                ",
"                                                                                                                                ",
"                                                                                                                                "
};
