/* XPM */
static char * sprite15_xpm[] = {
"65 64 130 2",
"  	c None",
". 	c #000000",
"+ 	c #1A1625",
"@ 	c #1C1729",
"# 	c #1E182C",
"$ 	c #20192F",
"% 	c #201930",
"& 	c #211930",
"* 	c #211931",
"= 	c #221A33",
"- 	c #231A34",
"; 	c #231A35",
"> 	c #241B37",
", 	c #251B38",
"' 	c #261B39",
") 	c #261B3A",
"! 	c #271C3B",
"~ 	c #281C3D",
"{ 	c #291C3E",
"] 	c #291D3F",
"^ 	c #2B1D41",
"/ 	c #2B1D42",
"( 	c #2D1E45",
"_ 	c #2D1F46",
": 	c #2E1F47",
"< 	c #2E1F48",
"[ 	c #2F1F49",
"} 	c #30204A",
"| 	c #30204B",
"1 	c #32204D",
"2 	c #32214E",
"3 	c #332150",
"4 	c #342252",
"5 	c #352253",
"6 	c #352254",
"7 	c #362255",
"8 	c #372356",
"9 	c #382358",
"0 	c #39245B",
"a 	c #3A245B",
"b 	c #3A245C",
"c 	c #3B245D",
"d 	c #3B255E",
"e 	c #3F2560",
"f 	c #412561",
"g 	c #492564",
"h 	c #4A2465",
"i 	c #4B2465",
"j 	c #4C2466",
"k 	c #4D2466",
"l 	c #4E2467",
"m 	c #502467",
"n 	c #512468",
"o 	c #552469",
"p 	c #5C246C",
"q 	c #5D246D",
"r 	c #5E246D",
"s 	c #60246E",
"t 	c #672371",
"u 	c #642470",
"v 	c #692372",
"w 	c #6D2374",
"x 	c #6F2375",
"y 	c #702375",
"z 	c #742377",
"A 	c #772378",
"B 	c #7A257C",
"C 	c #7B257D",
"D 	c #7C257E",
"E 	c #7D267F",
"F 	c #7E2781",
"G 	c #802883",
"H 	c #822985",
"I 	c #872C8C",
"J 	c #8B2E92",
"K 	c #8C2E93",
"L 	c #8D2F94",
"M 	c #8E2F95",
"N 	c #903097",
"O 	c #93329C",
"P 	c #96339F",
"Q 	c #9835A2",
"R 	c #9C36A6",
"S 	c #9E38A9",
"T 	c #A23AAE",
"U 	c #A43BB1",
"V 	c #A63CB3",
"W 	c #A73DB3",
"X 	c #B248AF",
"Y 	c #B54BAF",
"Z 	c #B84EAE",
"` 	c #BD53AD",
" .	c #BF55AC",
"..	c #AC42B1",
"+.	c #B147B0",
"@.	c #C056AC",
"#.	c #C55BAA",
"$.	c #CB61A9",
"%.	c #CC62A8",
"&.	c #CF65A8",
"*.	c #D167A7",
"=.	c #D269A6",
"-.	c #D76DA5",
";.	c #DF86B4",
">.	c #E18CB8",
",.	c #E290BA",
"'.	c #E393BC",
").	c #E497BE",
"!.	c #E59AC0",
"~.	c #E8A3C6",
"{.	c #E9A9C9",
"].	c #EAACCB",
"^.	c #EBAFCD",
"/.	c #ECB2CF",
"(.	c #EEB7D2",
"_.	c #F0BDD6",
":.	c #F0C0D8",
"<.	c #F1C3DA",
"[.	c #F5CFE1",
"}.	c #F6D1E2",
"|.	c #F6D4E4",
"1.	c #F8D9E7",
"2.	c #000000",
"3.	c #000000",
"4.	c #000000",
"5.	c #000000",
"6.	c #000000",
"7.	c #000000",
"8.	c #000000",
"9.	c #000000",
". . . . . . . . . . . . . . . . . . . . . . . . . . . . . . . . . . . . . . . . . . . . . . . . . . . . . . . . . . . . . . . . . ",
". . . . . . . . . . . . . . . . . . . . . . . . . . . . . . . . . . . . . . . . . . . . . . . . . . . . . . . . . . . . . . . . . ",
". . . . . . . . . . . . . . . . . . . . . . . . . . . . . . . . . . . . . . . . . . . . . . . . . . . . . . . . . . . . . . . . . ",
". . . . . . . . . . . . . . . . . . . . . . . . . . . . . . . . . . . . . . . . . . . . . . . . . . . . . . . . . . . . . . . . . ",
". . . . . . . . . . . . . . . . . . . . . . . . . . . . . . . . . . . . . . . . . . . . . . . . . . . . . . . . . . . . . . . . . ",
". . . . . . . . . . . . . . . . . . . . . . . . . . . . . . . . . . . . . . . . . . . . . . . . . . . . . . . . . . . . . . . . . ",
". . . . . . . . . . . . . . . . . . . . . . . . . . . . . . . . . . . . . . . . . . . . . . . . . . . . . . . . . . . . . . . . . ",
". . . . . . . . . . . . . . . . . . . . . . . . . . . . . . . . . . . . . . . . . . . . . . . . . . . . . . . . . . . . . . . . . ",
". . . . . . . . . . . . . . . . . . . . . . . . . . . . . . . . . . . . . . . . . . . . . . . . . . . . . . . . . . . . . . . . . ",
". . . . . . . . . . . . . . . . . . . . . . . . . . . . . . . . . . . . . . . . . . . . . . . . . . . . . . . . . . . . . . . . . ",
". . . . . . . . . . . . . . . . . . . . . . + ' ' ' ' ' ' ' ' ' . . . . . . . . . . . . . . . . . . . . . . . . . . . . . . . . . ",
". . . . . . . . . . . . . . . . . . . . i r B N M M M M M M M L r s . . . . . . . . . . . . . . . . . . . . . . . . . . . . . . . ",
". . . . . . . . . . . . . . . . . + + H J L L L L L L L L L L L L L H s . . . . . . . . . . . . . . . . . . . . . . . . . . . . . ",
". . . . . . . . . . . . . . . . m M L L M K E H I I I I I I I K L L L L K 9 & . . . . . . . . . . . . . . . . . . . . . . . . . . ",
". . . . . . . . . . . . . . 1 z L L M H m i . ' ( ( ( ( ( ( i x z I L L L M H + . . . . . . . . . . . . . . . . . . . . . . . . . ",
". . . . . . . . . . . . . { J L K I 1 + . . . . . . . . . . . + + i u J K L L I + . . . . . . . . . . . . . . . . . . . . . . . . ",
". . . . . . . . . . . . 1 J M B s . . . . . . . . . . . . . . . . . . k F H M L H & . . . . . . . . . . . . . . . . . . . . . . . ",
". . . . . . . . . . . ( I K C + . . . . . . . . . . . + + + + + . ( . + - r H L L H . . . . . . . . . . . . . . . . . . . . . . . ",
". . . . . . . . . . . K I & . . . . . . . . . . + s ` @.@.@.Z ..Q m . . . & o J L L . . . . . . . . . . . . . . . . . . . . . . . ",
". . . . . . . . . . s I { . . . . . . . . . .  .=.>.'.    ;.L z ....J J ^ . * z M L t . . . . . . . . . . . . . . . . . . . . . . ",
". . . . . . . . . o K # . . . . . . . . . p >.,.>.#.=.3 8 g . | ' - S ..T - . o m G K p . . . . . . . . . . . . . . . . . . . . . ",
". . . . . . . . . 7 x . . . . . . . . . y ,.'.,. .B . . . . . . . . & Q ..Q . + o N L r . . . . . . . . . . . . . . . . . . . . . ",
". . . . . . . . . . . . . . . . . . . u >.>.#.I p . . . . . . . . . . ' S ..s . 7 B ..I & . . . . . . . . . . . . . . . . . . . . ",
". . . . . . . . . . . . . . . . . . . N '.;.N . . . . . . . . . . . . . + S ..{ . t +.L p . . . . . . . . . . . . . . . . . . . . ",
". . . . . . . . . . . . . . . . . . #.'.,.L . . . . . . . . . . . . . . . m ..{ . Q X J X + . . . . . . . . . . . . . . . . . . . ",
". . . . . . . . . . . . . . . . . + ;.,.L . . . . . . . . . . . . . . . . m ..{ . Q Y X X ; . . . . . . . . . . . . . . . . . . . ",
". . . . . . . . . . . . . . . . . #.'.;.u . . . . . . . . . . + + . . 7 # . I ' . Q Y Y X ; . . . . . . . . . . . . . . . . . . . ",
". . . . . . . . . . . . . . . . . #.'.=.. . . . . . . . . ) = + + + J B L P T O p X Y Y X ; . . . . . . . . . . . . . . . . . . . ",
". . . . . . . . . . . . . . . . . #.;.=.. . . . . . & R w # +     ] R   S ..    Y Y Y Y X . . . . . . . . . . . . . . . m . . . . ",
". . . . . . . . . . . . . . . . . u ;.H . . . . . . z F X - +           U O G Y Y Y S Y I . . . . . . . . . . . . . . I -.. . . . ",
". . . . . . . . . . . . . . . . . Z ;.. . . . . . B S X Y   3           S l N Y   Y X Y i . . . . . . . . . . . . . . =.-.. . . . ",
". . . . . . . . . . . . . . . . . #.L . . . . . m T T X X   G           R 9 + X I ..Y Y i . . . . . . . . . . . . . . =.-.. . . . ",
". . . . . . . . . . . . . . . . . g -.. . . . I Q ....X X     + # , ,     , + & J Y Y N - . . . . . . . . . . . . . . =.-.. . . . ",
". . . . . . . . . . . . . . . . . . + . . . @ R ....x Y Y                   + + z Y Q @ . . ' . . . . . . . . . . . G ;.;.. . . . ",
". . . . . . . . . . . . . . . . . . . . + F O ........X X S F (           + + + o I ~ . . . m + . . . . . . . . . . G ;.;.. . . . ",
". . . . . . . . . . . . . . . . . . . . . ........E 1 t ..F F $ + + + + + + + @ ( / . . + i 9 . . . . . . . . . . - ;.,.o . . . . ",
". . . . . . . . . . . . . . . . . . . . . ....i . . + O O p m + + + + + + @ { { ) + . . I s . . . . . . . . . . . F ;.,.& . . . . ",
". . . . . . . . . . . . . . . . . . . . . ....i . . . { m L z + . ( @ + + + + . . . ' B I . . . . . . . . . . . . ;.;.'.# . . . . ",
". . . . . . . . . . . . . . . . . . . . . ....i . . . . . H I J o & . + . . @ + + { J u + . . . . . . . . . . . ! ;.>.'.;.. . . . ",
". . . . . . . . . . . . . . . . . . . . . ....I . . . . . . 7 J N H t y u v F C B A t 5 . . . . . . . . . . . . #.;.'.'.;.. . . . ",
". . . . . . . . . . . . . . . . . . . . . ....... . . . . . . { { B J K L J J J A + . . . . . . . . . . . . . p ;.,.'.'.;.. . . . ",
". . . . . . . . . . . . . . . . . . . . . ....... . . . . . . . . . . i B . . . . . . . . . . . . . . . . . . ;.;.'.'.'.& . . . . ",
". . . . . . . . . . . . . . . . . . . . . w ....H . . . . . . . . . . . . . . . . . . . . . . . . . . . . .  .;.>.'.'.#.+ . . . . ",
". . . . . . . . . . . . . . . . . . . . . ^ ....R + . . . . . . . . . . . . . . . . . . . . . . . . . . . N ;.>.'.'.=.. . . . . . ",
". . . . . . . . . . . . . . . . . . . . . & P ....z . . . . . . . . . . . . . . . . . . . . . . . . . . N ;.>.'.'.'.I . . . . . . ",
". . . . . . . . . . . . . . . . . . . . . . y ....T ^ . . . . . . . . . . . . . . . . . . . . . . . u -.;.>.'.'.'.B . . . . . . . ",
". . . . . . . . . . . . . . . . . . . . . . . Q ......1 . . . . . . . . . . . . . . . . . . . . 8 z ;.-.;.'.'.,.H . . . . . . . . ",
". . . . . . . . . . . . . . . . . . . . . . . r ......T 5 . . . . . . . . . . . . . . . . . . ^ -.;.-.#.,.'.'.H . . . . . . . . . ",
". . . . . . . . . . . . . . . . . . . . . . . . o ........( . . . . . . . . . . . . . . + } %.;.;.Q ,.,.'.,.B . . . . . . . . . . ",
". . . . . . . . . . . . . . . . . . . . . . . . . u ......T z + . a 5 ) > @ @ @ @ @ L O  .;.=.;.=.'.'.'.,.H . . . . . . . . . . . ",
". . . . . . . . . . . . . . . . . . . . . . . . . . g F ......R I + - 7 u =.=.=.=.-.;.%.N ,.;.'.'.'.'.'.y . . . . . . . . . . . . ",
". . . . . . . . . . . . . . . . . . . . . . . . . . . . I ........F m p w y y y u ;.'.'.'.'.'.'.>.;.%.. . . . . . . . . . . . . . ",
". . . . . . . . . . . . . . . . . . . . . . . . . . . . . w O ........` &.;.).'.'.'.'.'.'.'.'.>.H + . . . . . . . . . . . . . . . ",
". . . . . . . . . . . . . . . . . . . . . . . . . . . . . . + ( T T T ......;.,.,.,.>.>.Z O : ( . . . . . . . . . . . . . . . . . ",
". . . . . . . . . . . . . . . . . . . . . . . . . . . . . . . . . . & J I I I I I I . . . . . . . . . . . . . . . . . . . . . . . ",
". . . . . . . . . . . . . . . . . . . . . . . . . . . . . . . . . . . . . . . . . . . . . . . . . . . . . . . . . . . . . . . . . ",
". . . . . . . . . . . . . . . . . . . . . . . . . . . . . . . . . . . . . . . . . . . . . . . . . . . . . . . . . . . . . . . . . ",
". . . . . . . . . . . . . . . . . . . . . . . . . . . . . . . . . . . . . . . . . . . . . . . . . . . . . . . . . . . . . . . . . ",
". . . . . . . . . . . . . . . . . . . . . . . . . . . . . . . . . . . . . . . . . . . . . . . . . . . . . . . . . . . . . . . . . ",
". . . . . . . . . . . . . . . . . . . . . . . . . . . . . . . . . . . . . . . . . . . . . . . . . . . . . . . . . . . . . . . . . ",
". . . . . . . . . . . . . . . . . . . . . . . . . . . . . . . . . . . . . . . . . . . . . . . . . . . . . . . . . . . . . . . . . ",
". . . . . . . . . . . . . . . . . . . . . . . . . . . . . . . . . . . . . . . . . . . . . . . . . . . . . . . . . . . . . . . . . ",
". . . . . . . . . . . . . . . . . . . . . . . . . . . . . . . . . . . . . . . . . . . . . . . . . . . . . . . . . . . . . . . . . ",
". . . . . . . . . . . . . . . . . . . . . . . . . . . . . . . . . . . . . . . . . . . . . . . . . . . . . . . . . . . . . . . . . "};
