/* XPM */
static char *sprite1[] = {
/* columns rows colors chars-per-pixel */
"64 59 216 2 ",
"   c #000000",
".  c #06040A",
"X  c #0A050D",
"o  c #0A080D",
"O  c #0B0610",
"+  c #0D0913",
"@  c #0F0B18",
"#  c #130615",
"$  c #130B14",
"%  c #13071A",
"&  c #1A071D",
"*  c #130C1B",
"=  c #1C0B1A",
"-  c #180D17",
";  c #14111D",
":  c #200F1E",
">  c #23151F",
",  c #150E22",
"<  c #1B0D22",
"1  c #1D0F28",
"2  c #1D0623",
"3  c #161120",
"4  c #1A1425",
"5  c #1C132B",
"6  c #1F1530",
"7  c #220A25",
"8  c #240E2B",
"9  c #290E2D",
"0  c #23152E",
"q  c #261528",
"w  c #2A0C31",
"e  c #320E35",
"r  c #251434",
"t  c #2A1232",
"y  c #221932",
"u  c #2C1A35",
"i  c #26173A",
"p  c #261A3A",
"a  c #2A1B3C",
"s  c #321334",
"d  c #39183A",
"f  c #37182F",
"g  c #34222D",
"h  c #3D2834",
"j  c #421C38",
"k  c #422736",
"l  c #2D1C42",
"z  c #2E1E48",
"x  c #3C1642",
"c  c #331C45",
"v  c #331E4A",
"b  c #3B1C4C",
"n  c #3D1B46",
"m  c #3A1E52",
"M  c #2E204A",
"N  c #3B2343",
"B  c #30204B",
"V  c #3C214C",
"C  c #362047",
"Z  c #362152",
"A  c #3B2255",
"S  c #3D235A",
"D  c #431C4B",
"F  c #461847",
"G  c #461D52",
"H  c #491D55",
"J  c #531F5F",
"K  c #462347",
"L  c #532347",
"P  c #54254A",
"I  c #5A2A4A",
"U  c #473547",
"Y  c #5A3749",
"T  c #432155",
"R  c #492256",
"E  c #44235D",
"W  c #4A225C",
"Q  c #4C2A5A",
"!  c #58205B",
"~  c #552954",
"^  c #56385A",
"/  c #603B4E",
"(  c #632C59",
")  c #6A3557",
"_  c #561F62",
"`  c #452461",
"'  c #4B2463",
"]  c #4E2568",
"[  c #552364",
"{  c #5D2665",
"}  c #5D236C",
"|  c #582A68",
" . c #563E60",
".. c #5E316A",
"X. c #642A60",
"o. c #62236D",
"O. c #6B2A6B",
"+. c #702E6E",
"@. c #683567",
"#. c #713364",
"$. c #783769",
"%. c #652370",
"&. c #6B2473",
"*. c #6B2D78",
"=. c #702375",
"-. c #74247A",
";. c #732C76",
":. c #7A3774",
">. c #7F3C77",
",. c #79387B",
"<. c #6B3572",
"1. c #65465C",
"2. c #60476E",
"3. c #724867",
"4. c #7A577E",
"5. c #823F6C",
"6. c #853879",
"7. c #89437B",
"8. c #865A75",
"9. c #8E647A",
"0. c #753482",
"q. c #8E3981",
"w. c #873786",
"e. c #93378C",
"r. c #923C86",
"t. c #993C98",
"y. c #832E83",
"u. c #9B438D",
"i. c #954683",
"p. c #9B4792",
"a. c #985596",
"s. c #8A4A89",
"d. c #A14D85",
"f. c #A24C8E",
"g. c #A6508A",
"h. c #A6489B",
"j. c #A74897",
"k. c #AB5195",
"l. c #B35596",
"z. c #B5559B",
"x. c #B9579E",
"c. c #BB5B9C",
"v. c #B65F91",
"b. c #8A618E",
"n. c #9C708D",
"m. c #916B96",
"M. c #93709D",
"N. c #A56A9E",
"B. c #A97794",
"V. c #B87F9C",
"C. c #AA45A4",
"Z. c #B24DA1",
"A. c #B84EAA",
"S. c #B751A6",
"D. c #BA54A4",
"F. c #BC59A1",
"G. c #BD53AB",
"H. c #BD5CAE",
"J. c #BB5CB0",
"K. c #A66FA4",
"L. c #B866A4",
"P. c #AA78A6",
"I. c #BE7DB0",
"U. c #B671AE",
"Y. c #C45DA4",
"T. c #C55BAA",
"R. c #C95DAD",
"E. c #C157AA",
"W. c #CB5DB2",
"Q. c #C457B1",
"!. c #C661A0",
"~. c #CB63A5",
"^. c #CD61AC",
"/. c #C86CA8",
"(. c #D167A7",
"). c #D268A7",
"_. c #D166A9",
"`. c #D468AA",
"'. c #D570AE",
"]. c #CA64B3",
"[. c #CC7BB4",
"{. c #C876B4",
"}. c #D377B4",
"|. c #D06BB3",
" X c #C47CC0",
".X c #DE7BC2",
"XX c #BA88B5",
"oX c #BD88AD",
"OX c #CC86B6",
"+X c #D785BB",
"@X c #CF99BF",
"#X c #D394B9",
"$X c #E786B8",
"%X c #D989C2",
"&X c #DD97C3",
"*X c #E39BC4",
"=X c #E39DC9",
"-X c #DFA7C3",
";X c #EBA4CB",
":X c #E3ABC9",
">X c #E6A7C9",
",X c #F1ABCE",
"<X c #EAA1D0",
"1X c #EAAAD0",
"2X c #ECB4D2",
"3X c #E9B6D4",
"4X c #F2B4D3",
"5X c #F0BED9",
"6X c #F2BBD6",
"7X c #F1C1D9",
"8X c #F4C9DE",
"9X c #F9C0DC",
"0X c #EBC4D9",
"qX c #F4CDE1",
"wX c #FBCDE2",
"eX c None",
/* pixels */
"                                                                                                                                ",
"                                                                                                                                ",
"                                                                                                                                ",
"                                                                                                                                ",
"                                                                                                                                ",
"                                                                                                                                ",
"                                          ; ! X.X.( X.X.X.i .                                                                   ",
"                                  o i ) 7.i.R.^.^.W.^.W.^.f.5.$.x @                                                             ",
"                              7 F :.k.~.`.`.).).).).).).).`.`.`.l.i.n @                                                         ",
"                            8 r.c.~.`._.(._.(.Y.e.e.e.e.e.e.e.E._.~.F.(                                                         ",
"                        $ O.l.~.`.).~.!.q.o...R # # # # # # % N z.!._.!.u.d                                                     ",
"                    . b :.~.).).Y.F.^ - X X . .                 ; | F.~.`.u.9                                                   ",
"                  . T x.~.(.~.f.&.9                                 7 q.(.R.@.X                                                 ",
"                  h x.(.~.F.*.w                                       < 6.(.T.P .                                               ",
"                % k.~.T.'.L.c                                           7 q.(.R.d                                               ",
"              # +.Y.G.H.*XU.x                       o $ * o               7 6.T.,.;                                             ",
"            + +.Y.G.J.>XN.e                   + 1 i c S S B 5 @ + t *   # d ! l.~.! .                                           ",
"            ~ Y.W.L.;XOX9                 * 0 Z ` v r r t i S Z v &.W + # w.C.z.^.w.X                                           ",
"          h v._.C.&X6X6.            1 ( 0 m Z c 3 +         * l ' v } b   n Z.Q.C.{ .                                           ",
"          8.$XS.{.3X4.4           , _ OXw.v @ o               O a T R o.9 X >.Q.Z.C .                                           ",
"        d OX$X{.3X:X4           7 m.@X+XQ +                     X a W &.H . #.W.T.;.n                                           ",
"      O 8.;X].%X>X1..           ) 4X%X^ o                       . u %.&.%.1 #.Q.T.D.p.X                                         ",
"      , b.[.A.:X[.:           7 P.8Xs.*           @ p p a l m m 5 a %.&.%.r #.R.E.w.K . U b.                                    ",
"        O D %X3Xk             w XXOXt             @ 6 *   6 M S M b &.=.&.w $.R.T.Z.% .  .B.                                    ",
"          ) ,X:Xg             w XXU.7           X 5 z y o   3 p u } &.=.&.%.j.R.T.J.c .  .oX                                    ",
"          4.9X4..             8 K.a.2       . 8 o.R l 5 . .     ; c o.&.} a :.G.T.A.E . U oX8                                   ",
"        s I.wXU               * @.K .     . a %.o.' *.d   5 .     o u [ 8   D S.~.p.E o 3.oX: o                                 ",
"        P <X3Xh               w L.Y       7 %.=.J { G.P     * + . 4 p 6     $.W.F.V Z > [.|.p.0                 X e &           ",
"        L <XK.2               & @.g     + o.=.=.=.e.W.~     l m * p p o     K 7.! 0 V 3.>XQ.7..                 e C.~           ",
"        L <XM.%                 .       c &.=.=.-.t.R.,.<   + 0 * 3 @       . o   + Q &X.Xl.k                   j W.)           ",
"        L <XM.*                       , { =.=.=.-.h.R.Z.{ 4   o                   . s.&XS.{                   . ^ .X(           ",
"        P .X@.                        l %.=.=.=.-.y.q.h.0.W v 0 @             O . 0 [.}.g.%                   % p.B.=           ",
"        $ f $                         l &.=.=.=.&.o.0.G.e.%.c p a ;         * v # y /.~.u.                    U =X8.            ",
"                                      l &.=.=.=.&.W { k.eXo.A l M p *     , A l J u.!.t.u                   . 2.4X8.            ",
"            .                         l %.=.=.&.o.' i 5.~.,.a O o . .     * C { z.^.l.u                   . h #X9X&XP           ",
"          F T o                       l &.=.=.&.} [ 4 . o.D.6.O.u + X $ K =.f.!.F.h.=                   . 5 ,.,X8X,X)           ",
"          F G .                       i o.=.=.&.o.[ 1   x &.k.l.D.t.t.C.T.~.c.z.Q O                     o Q {.7XqX>XI           ",
"                                        J =.&.` [ ' 5       y c i.d.u.d.d.6.b u o                     . B w.3X8XwXn.O           ",
"                                        W &.&.A c ' r                                               . 6 <.[.7XqX-XY             ",
"                                        5 o.&.[ p T W %                                           . 0 ..[.7XqX0X3.              ",
"                                        . o.=.o.p l ] n *                                       . 6 *.[.5XqXqXP.,               ",
"                                        . w &.&.R B ` } T 3                                 . * p <.{.5X2X4XOXe                 ",
"                                          . n o.%.A Z [ ] T o                             o p A ` K.6X,X8.Y j                   ",
"                                            % } &.T y S ] ] b i *                     ; 6 v ` ] m n.,X1.+ .                     ",
"                                              0 o.[ 5 ; z S ] ' A p 5 ; ; ; ; ; 6 y a G ` ] ` i O q h o                         ",
"                                                1 c @   ; y z S ' ` E S A A S S ' ` ` ' W p 3 .                                 ",
"                                                  .       . . y a v E ` E ` ` E E E v + 3 .                                     ",
"                                                              ; 4 4 4 4 4 4 4 @ . . .                                           ",
"                                                                                                                                ",
"                                                                                                                                ",
"                                                                                                                                ",
"                                                                                                                                ",
"                                                                                                                                ",
"                                                                                                                                ",
"                                                                                                                                ",
"                                                                                                                                ",
"                                                                                                                                ",
"                                                                                                                                ",
"                                                                                                                                "
};
