/* XPM */
static char * sprite8_xpm[] = {
"74 64 130 2",
"  	c None",
". 	c #000000",
"+ 	c #1A1625",
"@ 	c #1C1729",
"# 	c #1E182C",
"$ 	c #20192F",
"% 	c #201930",
"& 	c #211930",
"* 	c #211931",
"= 	c #221A33",
"- 	c #231A34",
"; 	c #231A35",
"> 	c #241B37",
", 	c #251B38",
"' 	c #261B39",
") 	c #261B3A",
"! 	c #271C3B",
"~ 	c #281C3D",
"{ 	c #291C3E",
"] 	c #291D3F",
"^ 	c #2B1D41",
"/ 	c #2B1D42",
"( 	c #2D1E45",
"_ 	c #2D1F46",
": 	c #2E1F47",
"< 	c #2E1F48",
"[ 	c #2F1F49",
"} 	c #30204A",
"| 	c #30204B",
"1 	c #32204D",
"2 	c #32214E",
"3 	c #332150",
"4 	c #342252",
"5 	c #352253",
"6 	c #352254",
"7 	c #362255",
"8 	c #372356",
"9 	c #382358",
"0 	c #39245B",
"a 	c #3A245B",
"b 	c #3A245C",
"c 	c #3B245D",
"d 	c #3B255E",
"e 	c #3F2560",
"f 	c #412561",
"g 	c #492564",
"h 	c #4A2465",
"i 	c #4B2465",
"j 	c #4C2466",
"k 	c #4D2466",
"l 	c #4E2467",
"m 	c #502467",
"n 	c #512468",
"o 	c #552469",
"p 	c #5C246C",
"q 	c #5D246D",
"r 	c #5E246D",
"s 	c #60246E",
"t 	c #672371",
"u 	c #642470",
"v 	c #692372",
"w 	c #6D2374",
"x 	c #6F2375",
"y 	c #702375",
"z 	c #742377",
"A 	c #772378",
"B 	c #7A257C",
"C 	c #7B257D",
"D 	c #7C257E",
"E 	c #7D267F",
"F 	c #7E2781",
"G 	c #802883",
"H 	c #822985",
"I 	c #872C8C",
"J 	c #8B2E92",
"K 	c #8C2E93",
"L 	c #8D2F94",
"M 	c #8E2F95",
"N 	c #903097",
"O 	c #93329C",
"P 	c #96339F",
"Q 	c #9835A2",
"R 	c #9C36A6",
"S 	c #9E38A9",
"T 	c #A23AAE",
"U 	c #A43BB1",
"V 	c #A63CB3",
"W 	c #A73DB3",
"X 	c #B248AF",
"Y 	c #B54BAF",
"Z 	c #B84EAE",
"` 	c #BD53AD",
" .	c #BF55AC",
"..	c #AC42B1",
"+.	c #B147B0",
"@.	c #C056AC",
"#.	c #C55BAA",
"$.	c #CB61A9",
"%.	c #CC62A8",
"&.	c #CF65A8",
"*.	c #D167A7",
"=.	c #D269A6",
"-.	c #D76DA5",
";.	c #DF86B4",
">.	c #E18CB8",
",.	c #E290BA",
"'.	c #E393BC",
").	c #E497BE",
"!.	c #E59AC0",
"~.	c #E8A3C6",
"{.	c #E9A9C9",
"].	c #EAACCB",
"^.	c #EBAFCD",
"/.	c #ECB2CF",
"(.	c #EEB7D2",
"_.	c #F0BDD6",
":.	c #F0C0D8",
"<.	c #F1C3DA",
"[.	c #F5CFE1",
"}.	c #F6D1E2",
"|.	c #F6D4E4",
"1.	c #F8D9E7",
"2.	c #000000",
"3.	c #000000",
"4.	c #000000",
"5.	c #000000",
"6.	c #000000",
"7.	c #000000",
"8.	c #000000",
"9.	c #000000",
". . . . . . . . . . . . . . . . . . . . . . . . . . . . . . . . . . . . . . . . . . . . . . . . . . . . . . . . . . . . . . . . . . . . . . . . . . ",
". . . . . . . . . . . . . . . . . . . . . . . . . . . . . . . . . . . . . . . . . . . . . . . . . . . . . . . . . . . . . . . . . . . . . . . . . . ",
". . . . . . . . . . . . . . . . . . . . . . . . . . . . . . . . . . . . . . . . . . . . . . . . . . . . . . . . . . . . . . . . . . . . . . . . . . ",
". . . . . . . . . . . . . . . . . . . . . . . . . . . . . . . . . . . . . . . . . . . . . . . . . . . . . . . . . . . . . . . . . . . . . . . . . . ",
". . . . . . . . . . . . . . . . . . . . . . . . . . . . . . . . . . . . . . . . . . . . . . . . . . . . . . . . . . . . . . . . . . . . . . . . . . ",
". . . . . . . . . . . . . . . . . . . . . . . . . . . . . . . . . . . . . . . . . . . . . . . . . . . . . . . . . . . . . . . . . . . . . . . . . . ",
". . . . . . . . . . . . . . . . . . . . . . . . . . . . . . . . . . . . . . . . . . . . . . . . . . . . . . . . . . . . . . . . . . . . . . . . . . ",
". . . . . . . . . . . . . . . . . . . . . . . . . . . . . . . . . . . . . . . . . . . . . . . . . . . . . . . . . . . . . . . . . . . . . . . . . . ",
". . . . . . . . . . . . . . . . . . . . . . . . . . . . . . . . . . . . . . . . . . . . . . . . . . . . . . . . . . . . . . . . . . . . . . . . . . ",
". . . . . . . . . . . . . . . . . . . . . . . . . . . . . . . . . . . . . . . . . . . . . . . . . . . . . . . . . . . . . . . . . . . . . . . . . . ",
". . . . . . . . . . . . . . . . . . . . . . . + + + o C C C C C C C C C s + + . . . . . . . . . . . . . . . . . . . . . . . . . . . . . . . . . . . ",
". . . . . . . . . . . . . . . . . . . . . . + y H H H H H H H H H H H H H H G 1 1 + . . . . . . . . . . . . . . . . . . . . . . . . . . . . . . . . ",
". . . . . . . . . . . . . . . . . . . . m p w H H H H H H H H H H H H H H H H H H t . . . . . . . . . . . . . . . . . . . . . . . . . . . . . . . . ",
". . . . . . . . . . . . . . . . . . . . A H H H H w w w w w w w w B H H H H H H H H v . . . . . . . . . . . . . . . . . . . . . . . . . . . . . . . ",
". . . . . . . . . . . . . . . . . . i G H G B u t u u t r s t t t t v w G G H H H H H G m . . . . . . . . . . . . . . . . . . . . . . . . . . . . . ",
". . . . . . . . . . . . . . . . . i H F B u u u o i o p @ ^ p p p p y z y v B E H H H H H m . . . . . . . . . . . . . . . . . . . . . . . . . . . . ",
". . . . . . . . . . . . . . . . . E y v u s 5 1 + . . . . . . . . . ( 1 o A x t x H H H H H o . . . . . . . . . . . . . . . . . . . . . . . . . . . ",
". . . . . . . . . . . . . . . . u v u u 1 + . . . . . . . . . . . . . . + # v y y i F H H H G m . . . . . . . . . . . . . . . . . . . . . . . . . . ",
". . . . . . . . . . . . . . . f u u p 1 . . . . . . . . . . . . { i ' ^ ^ + + t w z g C H H H t + . . . . . . . . . . . . . . . . . . . . . . . . . ",
". . . . . . . . . . . . . . f u u i + . . . . . . . . . . . . . . . i r F t m . ^ w y t H H H H ( . . . . . . . . . . . . . . . . . . . . . . . . . ",
". . . . . . . . . . . . . i u u g + . . . . . . . . . . . . . . . . . . [ ( A v 7 ' y A G H H H z + . . . . . . . . . . . . . . . . . . . . . . . . ",
". . . . . . . . . . . . . p u i + . . . . . . . . . . . . . . . . . . . . . # D o @ ' z z G H H H + . . . . . . . . . . . . . . . . . . . . . . . . ",
". . . . . . . . . . . + m u i + . . . . . . . . . . . . . . . . . . . . . . + t z D # t z E H H H 7 . . . . . . . . . . . . . . . . . . . . . . . . ",
". . . . . . . . . . + m u u + . . . . . . . . . . . . . . . . . . . . . . . . . o D o 1 z z H H H C . . . . . . . . . . . . . . . . . . . . . . . . ",
". . . . . . . . . . + u u ^ . . . . . . . . . . . . . . . . . . . . . . . . . . + y z . r z H H H C . . . . . . . . . . . . . . . . . . . . . . . . ",
". . . . . . . . . . r u f . . . . . . . . . . . . . . . . . . . . . . . . . . . ) z A + p z G H H H t . . . . . . . . . . . . . . . . . . . . . . . ",
". . . . . . . . . ^ s p ' . . . . . . . . . . . . . . . . . . 1 1 1 1 [ . . . . . w D r o z A H H H t . 1 . . . . . . . . . . . . . . . . . . . . . ",
". . . . . . . . . m u o . . . . . . . . . . . . . . . . . . 5 p 5 m s r 5 . . . v v G G o z A H H H t . ' . . . . . . . . . . . . . . . . . . . . . ",
". . . . . . . . 1 u s + . . . . . . . . . . . . . . . . i + { ^ 1 p p p g + # p T G E 1 p z A H F H s . o . . . . . . . . . . . . . . . . . . . . . ",
". . . . . . . . 1 u m . . . . . . . . . . . . . . . . . ( u 9 ' - * + + + ^ l U   U T F y H C H a B . . p { . . . . . . . . . . . . . . . . . . . . ",
". . . . . . . + o u + . . . . . . . . . . . . . . . . + J V v % = *         o     U T s H H H H 9 i . . p ( . . . . . . . . . . . . . . . . . . . . ",
". . . . . . . & t 1 . . . . . . . . . . . . . . . . + L U U t y z               1 P o   H H H H C + . . p . . . . . . . . . . . . . . . . . . . . . ",
". . . . . . . & t ^ . . . . . . . . . . . . . . . . H U U U I H H B           $ ! ^     H H H H B + . i o . . . . . . . . . . . . . . . . . . . . . ",
". . . . . . . & t ^ . . . . . . . . . . . . . . . 1 O U U V + E E u       + = f 5 !     p t t t } . @ p + . . . . . . . . . . . . . . . . . . . . . ",
". . . . . . . & t ^ . . . . . . . . . . . . . . . r V U U R z G z u h                   ; * * * + . 5 t + . . . . . . . . . . . . . . . . . . . . . ",
". . . . . . . & i . . . . . . . . . . . . . . . . r U I I T H H z s h                 > - - - + . & u 1 . . . . . . . . . . . . . . . . . . . . . . ",
". . . . . . . & i . . . . . . . . . . . . . . . + F O D D H I H G z                 - - - - + . . s s { . . . . . . . . . . . . . . . . . . . . . . ",
". . . . . . . + { . . . . . . . . . . . . . . . a V N C w S E F G B z       s s s : * * + + . . 9 y { . . . . . . . . . . . . . . . . . . . . . . . ",
". . . . . . . . . . . . . . . . . . . . . . . . ' I G C q L + B H H A z   s s s s p o o { . - p u ^ . . . . . . . . . . . . . . . . . . . . . . . . ",
". . . . . . . . . . . . . . . . . . . . . . . . + D D C e + . + C H H A A v u u s u s i # p u B B + . . . . . . . . . . . . . . . . . . . . . . . . ",
". . . . . . . . . . . . . . . . . . . . . . . . + D D C c . . . - A H H G B x v s v v o v y B H ( . . . . . . . . . . . . . . . . . . . . . . . . . ",
". . . . . . . . . . . . . . . . . . . . . . . . + D D D t . . . . ' B H H H E C C C C E E G g g + . . . . . . . . . . . . . . . . . . . . . . . . . ",
". . . . . . . . . . . . . . . . . . . . . . . . + B D C g ( . . . . + ( G F F H H G F G k # . . . . . . . . . . . . . . . . . . . . . . . . . . . . ",
". . . . . . . . . . . . . . . . . . . . . . . . . [ E C . . . . . . . . . . + y y { . . . . . . . . . . . . . . . . . . . . . . . . . . . . . . . . ",
". . . . . . . . . . . . . . . . . . . . . . . . . [ E D m . . . . . . . . . . . . . . . . . . . . . . . . . . . . . . . . . . . . . . . . . . . . . ",
". . . . . . . . . . . . . . . . . . . . . . . . . ( E D z . . . . . . . . . . . . . . . . . . . . . . . . . . . . . . . . . . . . . . . . . . . . . ",
". . . . . . . . . . . . . . . . . . . . . . . . . . p D D s . . . . . . . . . . . . . . . . . . . . . . . . . . . . . . . . . . . . . . . . . . . . ",
". . . . . . . . . . . . . . . . . . . . . . . . . . o E D E p + . . . . . . . . . . . . . . . . . . . . . . . . . . . . . . . . . . . . . . . . . . ",
". . . . . . . . . . . . . . . . . . . . . . . . . . ' z D D E @ . . . . . . . . . . . . . . . . . . . . . . . . . . . . . . . . . . . . . . . . . . ",
". . . . . . . . . . . . . . . . . . . . . . . . . . . # B D D y . . . . . . . . . . . . . . . . . . . . . . . . . . . . . . . . . . . . . . . . . . ",
". . . . . . . . . . . . . . . . . . . . . . . . . . . . w E D B ' . . . . . . . . . . . . . . . . . . . . . . . . . . . . . . . . . . . . . . . . . ",
". . . . . . . . . . . . . . . . . . . . . . . . . . . . + t E D A ^ . . . . . . . . . . . . . . . . . . . . . . . . . . . . . . . . . . . . . . . . ",
". . . . . . . . . . . . . . . . . . . . . . . . . . . . . + ^ A D z v + . . . . . . . . . . . . . . . . . . . . . . . . . . . . . . . . . . . . . . ",
". . . . . . . . . . . . . . . . . . . . . . . . . . . . . . . @ z B D B s . . . . . . . . . . . . . . . . . . . . . . . . . . . . . . . . . . . . . ",
". . . . . . . . . . . . . . . . . . . . . . . . . . . . . . . . . 7 u D E p 7 [ . . . . . . . . . . . . . . . . . . . . . . . . . . . . . . . . . . ",
". . . . . . . . . . . . . . . . . . . . . . . . . . . . . . . . . . . 7 9 y E A r r . . . . . . . . . . . . . . . . . . . . . . . . . . . . . . . . ",
". . . . . . . . . . . . . . . . . . . . . . . . . . . . . . . . . . . . . + & 7 C B + . . . . . . . . . . . . . . . . . . . . . . . . . . . . . . . ",
". . . . . . . . . . . . . . . . . . . . . . . . . . . . . . . . . . . . . . . . . . . . . . . . . . . . . . . . . . . . . . . . . . . . . . . . . . ",
". . . . . . . . . . . . . . . . . . . . . . . . . . . . . . . . . . . . . . . . . . . . . . . . . . . . . . . . . . . . . . . . . . . . . . . . . . ",
". . . . . . . . . . . . . . . . . . . . . . . . . . . . . . . . . . . . . . . . . . . . . . . . . . . . . . . . . . . . . . . . . . . . . . . . . . ",
". . . . . . . . . . . . . . . . . . . . . . . . . . . . . . . . . . . . . . . . . . . . . . . . . . . . . . . . . . . . . . . . . . . . . . . . . . ",
". . . . . . . . . . . . . . . . . . . . . . . . . . . . . . . . . . . . . . . . . . . . . . . . . . . . . . . . . . . . . . . . . . . . . . . . . . ",
". . . . . . . . . . . . . . . . . . . . . . . . . . . . . . . . . . . . . . . . . . . . . . . . . . . . . . . . . . . . . . . . . . . . . . . . . . ",
". . . . . . . . . . . . . . . . . . . . . . . . . . . . . . . . . . . . . . . . . . . . . . . . . . . . . . . . . . . . . . . . . . . . . . . . . . "};
