/* XPM */
static char * sprite13_xpm[] = {
"79 64 130 2",
"  	c None",
". 	c #000000",
"+ 	c #1A1625",
"@ 	c #1C1729",
"# 	c #1E182C",
"$ 	c #20192F",
"% 	c #201930",
"& 	c #211930",
"* 	c #211931",
"= 	c #221A33",
"- 	c #231A34",
"; 	c #231A35",
"> 	c #241B37",
", 	c #251B38",
"' 	c #261B39",
") 	c #261B3A",
"! 	c #271C3B",
"~ 	c #281C3D",
"{ 	c #291C3E",
"] 	c #291D3F",
"^ 	c #2B1D41",
"/ 	c #2B1D42",
"( 	c #2D1E45",
"_ 	c #2D1F46",
": 	c #2E1F47",
"< 	c #2E1F48",
"[ 	c #2F1F49",
"} 	c #30204A",
"| 	c #30204B",
"1 	c #32204D",
"2 	c #32214E",
"3 	c #332150",
"4 	c #342252",
"5 	c #352253",
"6 	c #352254",
"7 	c #362255",
"8 	c #372356",
"9 	c #382358",
"0 	c #39245B",
"a 	c #3A245B",
"b 	c #3A245C",
"c 	c #3B245D",
"d 	c #3B255E",
"e 	c #3F2560",
"f 	c #412561",
"g 	c #492564",
"h 	c #4A2465",
"i 	c #4B2465",
"j 	c #4C2466",
"k 	c #4D2466",
"l 	c #4E2467",
"m 	c #502467",
"n 	c #512468",
"o 	c #552469",
"p 	c #5C246C",
"q 	c #5D246D",
"r 	c #5E246D",
"s 	c #60246E",
"t 	c #672371",
"u 	c #642470",
"v 	c #692372",
"w 	c #6D2374",
"x 	c #6F2375",
"y 	c #702375",
"z 	c #742377",
"A 	c #772378",
"B 	c #7A257C",
"C 	c #7B257D",
"D 	c #7C257E",
"E 	c #7D267F",
"F 	c #7E2781",
"G 	c #802883",
"H 	c #822985",
"I 	c #872C8C",
"J 	c #8B2E92",
"K 	c #8C2E93",
"L 	c #8D2F94",
"M 	c #8E2F95",
"N 	c #903097",
"O 	c #93329C",
"P 	c #96339F",
"Q 	c #9835A2",
"R 	c #9C36A6",
"S 	c #9E38A9",
"T 	c #A23AAE",
"U 	c #A43BB1",
"V 	c #A63CB3",
"W 	c #A73DB3",
"X 	c #B248AF",
"Y 	c #B54BAF",
"Z 	c #B84EAE",
"` 	c #BD53AD",
" .	c #BF55AC",
"..	c #AC42B1",
"+.	c #B147B0",
"@.	c #C056AC",
"#.	c #C55BAA",
"$.	c #CB61A9",
"%.	c #CC62A8",
"&.	c #CF65A8",
"*.	c #D167A7",
"=.	c #D269A6",
"-.	c #D76DA5",
";.	c #DF86B4",
">.	c #E18CB8",
",.	c #E290BA",
"'.	c #E393BC",
").	c #E497BE",
"!.	c #E59AC0",
"~.	c #E8A3C6",
"{.	c #E9A9C9",
"].	c #EAACCB",
"^.	c #EBAFCD",
"/.	c #ECB2CF",
"(.	c #EEB7D2",
"_.	c #F0BDD6",
":.	c #F0C0D8",
"<.	c #F1C3DA",
"[.	c #F5CFE1",
"}.	c #F6D1E2",
"|.	c #F6D4E4",
"1.	c #F8D9E7",
"2.	c #000000",
"3.	c #000000",
"4.	c #000000",
"5.	c #000000",
"6.	c #000000",
"7.	c #000000",
"8.	c #000000",
"9.	c #000000",
". . . . . . . . . . . . . . . . . . . . . . . . . . . . . . . . . . . . . . . . . . . . . . . . . . . . . . . . . . . . . . . . . . . . . . . . . . . . . . . ",
". . . . . . . . . . . . . . . . . . . . . . . . . . . . . . . . . . . . . . . . . . . . . . . . . . . . . . . . . . . . . . . . . . . . . . . . . . . . . . . ",
". . . . . . . . . . . . . . . . . . . . . . . . . . . . . . . . . . . . . . . . . . . . . . . . . . . . . . . . . . . . . . . . . . . . . . . . . . . . . . . ",
". . . . . . . . . . . . . . . . . . . . . . . . . . . . . . . . . . . . . . . . . . . . . . . . . . . . . . . . . . . . . . . . . . . . . . . . . . . . . . . ",
". . . . . . . . . . . . . . . . . . . . . . . . . . . . . . . . . . . . . . . . . . . . . . . . . . . . . . . . . . . . . . . . . . . . . . . . . . . . . . . ",
". . . . . . . . . . . . . . . . . . . . . . . . . . . . . . . . . . . . . . . . . . . . . . . . . . . . . . . . . . . . . . . . . . . . . . . . . . . . . . . ",
". . . . . . . . . . . . . . . . . . . . . . . . . . . . . . . . . . . . . . . . . . . . . . . . . . . . . . . . . . . . . . . . . . . . . . . . . . . . . . . ",
". . . . . . . . . . . . . . . . . . . . . . . + + + S X X X X #.%.%.1 + . . . . . . . . . . . . . . . . . . . . . . . . . . . . . . . . . . . . . . . . . . . ",
". . . . . . . . . . . . . . . . . . . . . + p X Z Z Z Z Z Z Z Z &.=.-.-.L u g . . . . . . . . . . . . . . . . . . . . . . . . . . . . . . . . . . . . . . . . ",
". . . . . . . . . . . . . . . . . . . p L O Z Z Z Z Z Z #.%.%.%.%.*.-.-.-.-.%.Z . . . . . . . . . . . . . . . . . . . . . . . . . . . . . . . . . . . . . . . ",
". . . . . . . . . . . . . . . . . @ g Y Z Z Z Y X N N N N N N N R =.=.-.-.-.-.-.=.I . . . . . . . . . . . . . . . . . . . . . . . . . . . . . . . . . . . . . ",
". . . . . . . . . . . . . . . . { S Z Z Z X N B t . . . . . . . . . @ #.-.-.-.-.-.-.H . . . . . . . . . . . . . . . . . . . . . . . . . . . . . . . . . . . . ",
". . . . . . . . . . . . . . . + S Z Z X R m { . . . . . . . . . . . + + .   -.-.-.-.-.L . . . . . . . . . . . . . . . . . . . . . . . . . . . . . . . . . . . ",
". . . . . . . . . . . . . . # X Z Y O w + . . . . . . . . . . . . . . . + + # #.=.-.-.-.I . . . . . . . . . . . . . . . . . . . . . . . . . . . . . . . . . . ",
". . . . . . . . . . . . . { S Z Y I v . . . . . . . . . y H H H H H H v . . + + 1 %.-.-.-.^ . . . . . . . . . . . . . . . . . . . . . . . . . . . . . . . . . ",
". . . . . . . . . . . . + X Z Z I + . . . . . . . . ' #.%.*.*.*.*.*.*.%.#.& . . + 8 =.-.-.#.. . . . . . . . . . . . . . . . . . . . . . . . . . . . . . . . . ",
". . . . . . . . . . . & X Z Y I . . . . . . . . # g %.*.%. .+ + + + { #.#.&.N . . + #.-.-.-. .. . . . . . . . . . . . . . . . . . . . . . . . . . . . . . . . ",
". . . . . . . . . . { R Z Y I + . . . . . . . . Z =.*.L 1 . . . . . . . . L #.( . + +  .-.-.%.g . . . . . . . . . . . . . . . . . . . . . . . . . . . . . . . ",
". . . . . . . . . . i Z Z I + . . . . . . . .  .*.I m . . . . . . . . . . + N %.@ . + u -.-.-.y . . . . . . . . . . . . . . . . . . . . . . . . . . . . . . . ",
". . . . . . . . . . Z Z S . . . . . . . . @ Z $.=.. . . . . . . . . . . . {  .%.Z . + +  .-.-.y . . . . . . . . . . . . . . . . . . . . . . . . . . . . . . . ",
". . . . . . . . . E Z X ( . . . . . . . . o #.Q #.. . . . . . . . . . . . . 8  .H . . +  .-.-.#.+ . . . . . . . . . . . . . . . . . . . . . . . . . . . . . . ",
". . . . . . . . . S Z I . . . . . . . . & #.R ].. . . . . . . . . . . . . . . Z #.G . + ^ =.-.-.f . . . . . . . . . . . . . . . . . . . . . . . . . . . . . . ",
". . . . . . . . B Z X m . . . . . . . . #.#.;.g . . . . + . ; 2 ; 3 % + ; + . Z #.I . . + =.-.-.g . . . . . . . . . . . . . . . . . . . . . . . . . . . . . . ",
". . . . . . . . 1 X N . . . . . . . . . !.#.#.. . . . + 1 { + * 5 7 7 < ] k ^ Z #.L . . + =.-.Z 9 . . . . . . . . . . . . . . . . . . . . . . . . . . . . . . ",
". . . . . . . . . & @ . . . . . . . . = %.^.+ . . . . . . . . . @ _ 4 7 ) { r 8 #.I . > + =.-.%.e . . . . . . . . . . . . . . . . . . . . . . . . . . . . . . ",
". . . . . . . . . . . . . . . . . . .  .Z /.. . . . . . . . . + + / ) 1 ; 5 p { @.v . g H =.#.3 . . . . . . . . . . . . . . . H ^ . . . . . . . . . . . . . . ",
". . . . . . . . . . . . . . . . . . . . g /.. . . . . + + . + + # (     %   [ g r . % y -.=.u 9 . . . . . . . . . . . . . . s <.o . . . . . . . . . . . . . . ",
". . . . . . . . . . . . . . . . . . . . ].{.. . . . . . . + m { ~ + '         # + + , ' N %.6 9 . . ( ( . . . . . . . . . . H |.o . . . . . . . . . . . . . . ",
". . . . . . . . . . . . . . . . . . . . /.#.. . . . . . . + O Z ^ + 9 1       + @ * ^ H . 2 9 < . . S X . . . . . . . . . . H |.o . . . . . . . . . . . . . . ",
". . . . . . . . . . . . . . . . . . . . u /.. . . . { Z Z & O G {   $ k / 3 7 1 ( ] = o + 6 9 # . m X i . . . . . . . . . . I |.o . . . . . . . . . . . . . . ",
". . . . . . . . . . . . . . . . . . . . . + . . . .  .#.#.g  .p         }   } < { ~ @ + + + + . . H Z + . . . . . . . . . + [.}.o . . . . . . . . . . . . . . ",
". . . . . . . . . . . . . . . . . . . . . . . . . y #.#.N m -. .@             ; * # + + + + . . { X J . . . . . . . . . . + [./.8 . . . . . . . . . . . . . . ",
". . . . . . . . . . . . . . . . . . . . . . . . . P #.#. .^ N -.!         @ + [ @ + + + + . . + X L + . . . . . . . . . . _ [.=.. . . . . . . . . . . . . . . ",
". . . . . . . . . . . . . . . . . . . . . . . . . P #.#.#.P A =.%.1   7 7 7 7 7 2 + + + . . + R N . . . . . . . . . . . . /.[.#.. . . . . . . . . . . . . . . ",
". . . . . . . . . . . . . . . . . . . . . . . . . P #.#.#.+ . A -.%.1 ) 8 7 7 7 1 . . . . + Q Z + . . . . . . . . . . . . /._.p . . . . . . . . . . . . . . . ",
". . . . . . . . . . . . . . . . . . . . . . . . . Q #.#.#.+ . + =.-.=. .} & ~ 3 4 9 ( i L X P { . . . . . . . . . . . . =.[.X  ./.. . . . . . . . . . . . . . ",
". . . . . . . . . . . . . . . . . . . . . . . . y $.#.#.#.+ . . . E -.-.-.        S R ..X O E . . . . . . . . . . . . ' !./.S ^.~.. . . . . . . . . . . . . . ",
". . . . . . . . . . . . . . . . . . . . . . . . ^ w @.#.#.+ . . . . v y %.-.-.-.#. .Z t ( . . . . . . . . . . . . . . {.|.@.=.[.g . . . . . . . . . . . . . . ",
". . . . . . . . . . . . . . . . . . . . . . . . . .  .#.#.+ . . . . . . @ & H =.{ & & . . . . . . . . . . . . . . . 8 <.).S ;.;.. . . . . . . . . . . . . . . ",
". . . . . . . . . . . . . . . . . . . . . . . . . . L #.#.B . . . . . . . . . . . . . . . . . . . . . . . . . . . r _.<.R %.-.I . . . . . . . . . . . . . . . ",
". . . . . . . . . . . . . . . . . . . . . . . . . I #.&.#. .. . . . . . . . . . . . . . . . . . . . . . . . . . . %.}.#.Z *.#.. . . . . . . . . . . . . . . . ",
". . . . . . . . . . . . . . . . . . . . . . . . . . %.*.v Z G . . . . . . . . . . . . . . . . . . . . . . . . . H [.$.X *.#.+ . . . . . . . . . . . . . . . . ",
". . . . . . . . . . . . . . . . . . . . . . . . . . L *.Z . . . . . . . . . . . . . . . . . . . . . . . . . .  .[.&.X *.#.{ . . . . . . . . . . . . . . . . . ",
". . . . . . . . . . . . . . . . . . . . . . . . . . . I *. .. . . . . . . . . . . . . . . . . . . . . . . . H <.#.X &.%.' . . . . . . . . . . . . . . . . . . ",
". . . . . . . . . . . . . . . . . . . . . . . . . . . v %.*.Z + . . . . . . . . . . . . . . . . . . . . . . &  .*.*.*.Z . . . . . . . . . . . . . . . . . . . ",
". . . . . . . . . . . . . . . . . . . . . . . . . . . . y *.*.Z . . . . . . . . . . . . . . . . . . . . . I  .*.*.*.O . . . . . . . . . . . . . . . . . . . . ",
". . . . . . . . . . . . . . . . . . . . . . . . . . . . . s *.*. .@ . . . . . . . . . . . . . . . . # p %.*.*.*.%.Z + . . . . . . . . . . . . . . . . . . . . ",
". . . . . . . . . . . . . . . . . . . . . . . . . . . . . ( #.*.*.*.E p . . . . . . . . . . . . y y #.*.*.*.*.#.& . . . . . . . . . . . . . . . . . . . . . . ",
". . . . . . . . . . . . . . . . . . . . . . . . . . . . . . g B *.*.*.%.p . . . . . . . G Z Z Z *.*.*.*.*.&.A 1 . . . . . . . . . . . . . . . . . . . . . . . ",
". . . . . . . . . . . . . . . . . . . . . . . . . . . . . . . . u %.*.*.%.%.%.%.%.%.%.%.&.*.*.*.*.*.*.%.%.o . . . . . . . . . . . . . . . . . . . . . . . . . ",
". . . . . . . . . . . . . . . . . . . . . . . . . . . . . . . . . . N  .*.*.*.*.*.*.*.*.*.*.*.*.*.#.Q . . . . . . . . . . . . . . . . . . . . . . . . . . . . ",
". . . . . . . . . . . . . . . . . . . . . . . . . . . . . . . . . . . { t u N *.*.*.*.*.*.*. .u u g . . . . . . . . . . . . . . . . . . . . . . . . . . . . . ",
". . . . . . . . . . . . . . . . . . . . . . . . . . . . . . . . . . . . . . + @ @ @ @ @ @ @ + . . . . . . . . . . . . . . . . . . . . . . . . . . . . . . . . ",
". . . . . . . . . . . . . . . . . . . . . . . . . . . . . . . . . . . . . . . . . . . . . . . . . . . . . . . . . . . . . . . . . . . . . . . . . . . . . . . ",
". . . . . . . . . . . . . . . . . . . . . . . . . . . . . . . . . . . . . . . . . . . . . . . . . . . . . . . . . . . . . . . . . . . . . . . . . . . . . . . ",
". . . . . . . . . . . . . . . . . . . . . . . . . . . . . . . . . . . . . . . . . . . . . . . . . . . . . . . . . . . . . . . . . . . . . . . . . . . . . . . ",
". . . . . . . . . . . . . . . . . . . . . . . . . . . . . . . . . . . . . . . . . . . . . . . . . . . . . . . . . . . . . . . . . . . . . . . . . . . . . . . ",
". . . . . . . . . . . . . . . . . . . . . . . . . . . . . . . . . . . . . . . . . . . . . . . . . . . . . . . . . . . . . . . . . . . . . . . . . . . . . . . ",
". . . . . . . . . . . . . . . . . . . . . . . . . . . . . . . . . . . . . . . . . . . . . . . . . . . . . . . . . . . . . . . . . . . . . . . . . . . . . . . ",
". . . . . . . . . . . . . . . . . . . . . . . . . . . . . . . . . . . . . . . . . . . . . . . . . . . . . . . . . . . . . . . . . . . . . . . . . . . . . . . ",
". . . . . . . . . . . . . . . . . . . . . . . . . . . . . . . . . . . . . . . . . . . . . . . . . . . . . . . . . . . . . . . . . . . . . . . . . . . . . . . ",
". . . . . . . . . . . . . . . . . . . . . . . . . . . . . . . . . . . . . . . . . . . . . . . . . . . . . . . . . . . . . . . . . . . . . . . . . . . . . . . ",
". . . . . . . . . . . . . . . . . . . . . . . . . . . . . . . . . . . . . . . . . . . . . . . . . . . . . . . . . . . . . . . . . . . . . . . . . . . . . . . ",
". . . . . . . . . . . . . . . . . . . . . . . . . . . . . . . . . . . . . . . . . . . . . . . . . . . . . . . . . . . . . . . . . . . . . . . . . . . . . . . "};
