/* XPM */
static char *sprite2[] = {
/* columns rows colors chars-per-pixel */
"64 63 220 2 ",
"   c #000000",
".  c #06050A",
"X  c #0A050C",
"o  c #0A090E",
"O  c #07080F",
"+  c #12090F",
"@  c #0D0613",
"#  c #0C0A13",
"$  c #0F0B1A",
"%  c #120B15",
"&  c #180D14",
"*  c #130718",
"=  c #1A071E",
"-  c #130C1B",
";  c #1B0A1D",
":  c #120613",
">  c #181014",
",  c #13101C",
"<  c #140E21",
"1  c #1B0D23",
"2  c #1D0F28",
"3  c #1A0620",
"4  c #161122",
"5  c #1A1325",
"6  c #1C142B",
"7  c #1E182C",
"8  c #171629",
"9  c #1E1534",
"0  c #230D2A",
"q  c #230E26",
"w  c #231323",
"e  c #2C122D",
"r  c #26182A",
"t  c #34182A",
"y  c #32172C",
"u  c #2E0F31",
"i  c #231534",
"p  c #2D1333",
"a  c #231B35",
"s  c #2C153B",
"d  c #261B3B",
"f  c #2A1B3D",
"g  c #2A1A35",
"h  c #341139",
"j  c #3B153C",
"k  c #371938",
"l  c #2C2127",
"z  c #2D2328",
"x  c #34203D",
"c  c #3E2A37",
"v  c #2B2533",
"b  c #421E39",
"n  c #2B1D43",
"m  c #2E1F49",
"M  c #291940",
"N  c #331B45",
"B  c #3C1944",
"V  c #301E4A",
"C  c #3F1B4A",
"Z  c #371541",
"A  c #2F2049",
"S  c #2F2047",
"D  c #32214D",
"F  c #352254",
"G  c #3A2255",
"H  c #372358",
"J  c #3B245C",
"K  c #3D2560",
"L  c #4B174E",
"P  c #431B4A",
"I  c #441847",
"U  c #431C53",
"Y  c #491D5A",
"T  c #521B55",
"R  c #551E5D",
"E  c #4B214D",
"W  c #492448",
"Q  c #493245",
"!  c #5C3D4D",
"~  c #553247",
"^  c #442156",
"/  c #4A2355",
"(  c #43235C",
")  c #4C235D",
"_  c #4B2A56",
"`  c #552757",
"'  c #5C2C47",
"]  c #673957",
"[  c #6B2F5C",
"{  c #442563",
"}  c #4B2464",
"|  c #512464",
" . c #542469",
".. c #5C246C",
"X. c #592964",
"o. c #5A3864",
"O. c #5D2670",
"+. c #622C65",
"@. c #61236D",
"#. c #69266A",
"$. c #663962",
"%. c #763A62",
"&. c #6C2372",
"*. c #6C2A75",
"=. c #6B277A",
"-. c #672976",
";. c #742B7B",
":. c #702C77",
">. c #6C3676",
",. c #773374",
"<. c #7A3273",
"1. c #79377C",
"2. c #68435D",
"3. c #744B6D",
"4. c #724972",
"5. c #80357E",
"6. c #833F6B",
"7. c #884A7F",
"8. c #984B78",
"9. c #92507B",
"0. c #8A577A",
"q. c #A04E7E",
"w. c #7C2D82",
"e. c #752781",
"r. c #7C3483",
"t. c #793486",
"y. c #784F86",
"u. c #842B8B",
"i. c #812F84",
"p. c #843983",
"a. c #833389",
"s. c #88358B",
"d. c #863987",
"f. c #8D3392",
"g. c #8D3D92",
"h. c #8A3198",
"j. c #943D94",
"k. c #98359A",
"l. c #9C3B9D",
"z. c #973995",
"x. c #A03D9B",
"c. c #A63DAA",
"v. c #A03AA6",
"b. c #98468C",
"n. c #885A87",
"m. c #955586",
"M. c #8D4E91",
"N. c #9B4194",
"B. c #9E4698",
"V. c #A45C8E",
"C. c #A5429C",
"Z. c #A84B98",
"A. c #AA5796",
"S. c #B25595",
"D. c #9D648E",
"F. c #A6608E",
"G. c #A46C9A",
"H. c #AA689B",
"J. c #B7689A",
"K. c #B4789C",
"L. c #AC45A4",
"P. c #AC43AA",
"I. c #AB49A4",
"U. c #B14AA6",
"Y. c #B54CA9",
"T. c #B84EAC",
"R. c #B047AA",
"E. c #BE54AC",
"W. c #B457A7",
"Q. c #B346B4",
"!. c #B54AB1",
"~. c #BA49BA",
"^. c #BE54B1",
"/. c #A960A0",
"(. c #B66AAE",
"). c #B665A8",
"_. c #A270A0",
"`. c #BE7CAB",
"'. c #BA76A2",
"]. c #C156AD",
"[. c #C45BAE",
"{. c #C95DAD",
"}. c #C25DA2",
"|. c #C254B3",
" X c #C75CB2",
".X c #C76AA6",
"XX c #D56EAE",
"oX c #C27CA7",
"OX c #D073AD",
"+X c #CC6BB4",
"@X c #D469B0",
"#X c #C875B6",
"$X c #D878B5",
"%X c #CC85AD",
"&X c #CA83A6",
"*X c #CA89B5",
"=X c #D584B3",
"-X c #D989B5",
";X c #DC92BA",
":X c #DD99BD",
">X c #D595BC",
",X c #E295BC",
"<X c #E39DBF",
"1X c #E288B7",
"2X c #DA97C2",
"3X c #D784C0",
"4X c #E79BC3",
"5X c #E5A4C6",
"6X c #EBA5C9",
"7X c #ECADCC",
"8X c #E7A5C8",
"9X c #F2ADCD",
"0X c #ECB1CE",
"qX c #F1B0CF",
"wX c #EEB5D1",
"eX c #EEBBD4",
"rX c #F2BDD6",
"tX c #F6B8D4",
"yX c #F0C1D8",
"uX c None",
/* pixels */
"                                                                                                                                ",
"                                                                                                                                ",
"                                                                                                                                ",
"                                                                                                                                ",
"                                                                                                                                ",
"                                                                                                                                ",
"                                            .     .   .                                                                         ",
"                                      . % - g x x x x x S w + @ .                                                               ",
"                                  . ; / ;.i.C.E.E.E.E.}.].N.:.:.B = X                                                           ",
"                              . : j l.T.].].E.E.].E.].].E.E.[.E.L.v.R & .                                                       ",
"                            q ) r.].].].E.E.T.Y.Y.Y.Y.Y.T.T.E.E.].].].x.I X                                                     ",
"                        . h z.E.].E.E.|.E.l.w.&.&.&.&.&.&.;.N.I.Y.].].[.C.L * .                                                 ",
"                      o j P.].E.T.[. X.XF.U 6             % S / <.Z.E.E.E.^.g.p .                                               ",
"                    X ] ].].].[..XOXJ.%.O             # 7 5 7 o   j f.C.E.].[.g.h .                                             ",
"                  o ~ $X{.]..X-XoXn.<                 . , , , #     % C p.T.E.[.j.p                                             ",
"                # ] $X].].+X#XH.M $             & t t t ; .             1 r.E.E.].>.*                                           ",
"              X 2.1X.X^.#X6XH.h           X e Q n.$X@X|.1.#               j C.].[.x.p                                           ",
"              y ,X$X].+X5XG.s         . = E #X7X6X*XuX;.| 4 # @ o         $ X.W.[.|.W                                           ",
"            6 n.4X[.#X5XG.i         . f M.(.2X%Xm.>.n f D F D n a 4         . X.U.|.t.-                                         ",
"          % M.7X5X-X6XG.h           r _.tXoX&.` 4 , . $ n n 7 5 m D 5 .       # X.U.P.u                                         ",
"        . _ 0X0X0X7X*Xf           @ 4.tX;X] .         . % , o   @ m F 6 .       . 1.R.j                                         ",
"        % W.0X0X6X,X0.#         X ` #X:X3.@                       # m N ,     ; X <.|.*.%                                       ",
"        > <X0X0X6X'.-           p #XtXF.-                         o N G a $   T L +.W.a.= t e X                                 ",
"        & -X0X0X,X]           X o.6X%X'                 o . . O # i { ( f 7 O T k.} b.r.* 8.d.&                                 ",
"        @ 7.7X5XD.            * y.5X%.              # , 7 , , a m G } } ^ Y P a.~.>.h.X.O 9.5.;                                 ",
"          v 8X:XG             @ y.>XP         . - p N C k i 4 4 m } .. . .;.c.!.!.w.h./   8.s.=                                 ",
"        . W 6X%Xa             @ o.H.Z       X i } O.;.u.X.- .   @ f ) ....u.c.T.T.C.k.W 1 F.N.;                                 ",
"        % V.5XS.#             o ) <.$       -  ...@.t.c.-.p       . f ..@.k.uXE.E.[.l.G d H.j.;                                 ",
"        > ,X4X5.              # >.m.      @ N O.....a.|.~.#.- o   . f ( ^ w.P.!.T.U.&.q 7 J.#Xr                     0 1         ",
"        > ;X%Xp               @ ` $.    . 0 O.@...=.f.L.L.Y 7 M @ X 6 5 # p r.Q.~.t.;   $.:XyXc                     i.| X       ",
"        > ;XoX                  - -     # ^ @.....-.u.f.;.i < 6 #         ; ;.Q.Q. .. = K.qX`.l                     Z.&.X       ",
"        > ,X&X                          1 ....@. .-.k.u...G 2             L k.l.t.s 0 7.=X4X>.@                   5 J.*.X       ",
"        > -X3.                          1 ......} *.v.f...) f o           p I j 0   +.+XXX$XW .                   U .Xb .       ",
"        > .X-                           - } { ( }  .a.I.i.^ d f @         .       b S.XXXX6.&                     m.}.+         ",
"        . W                             # n n H } } =.I.E.+.8 a -               b S.{.XX9.&                       &XOX%         ",
"                                        X 7 a F { } } ;.U.Z.+.U - . # .     < ] A.{.|.N.e                       ] -X5XW .       ",
"                                        . 7 7 S J { ( f R T.].l.*.R ..R T T -.W. XL.j.P X                     s .X0XeX1.X       ",
"                                        . - 7 d K { N . : W s.|.].U.L.U.U.R.!.^.U.T e X                       @.>XyX<X_         ",
"                                          # 7 f K F 5     . q I I <.P.P.P.P.d.` j X                         I J.7XrXW.;         ",
"                                            % a F F 5             & h h h h 2                             L ).5XeX(.j .         ",
"                                              - n J D -                                                 o b.5XrXeXo..           ",
"                                                - D J m #                                               3.=XeXyX).5             ",
"                                                  , V J f #                                           ] =X9XyX9Xo.X             ",
"                                                    6 H H f # o 6 7 7 q 6 #                       @ %.=XqXrX7X! +               ",
"                                                    . 9 J J M m m d f n f -                       2.1X9XyX6X3.X                 ",
"                                                      . 4 S J J H F d 7 $ .     o , - - a 6 9 T m.-X0XyX9X! #                   ",
"                                                          # 9 V V F F D f a a 9 n V m n Y r.H.#X4XtXwX4X!                       ",
"                                                              o @ 4 a n F F H H J } m.'.`.=X6XtXeXrXn.c .                       ",
"                                                                    5 ) &.&.&.e.H.&X;X5XwXrXyX7X).Q *                           ",
"                                                                    i ;.(.2X>X2X8X7XwXyXrX3X+X' 2 .                             ",
"                                                                    . * ) *XtXwXwXwX6Xn.o.x w .                                 ",
"                                                                        . 5 z l z r r % X                                       ",
"                                                                                                                                ",
"                                                                                                                                ",
"                                                                                                                                ",
"                                                                                                                                ",
"                                                                                                                                ",
"                                                                                                                                ",
"                                                                                                                                ",
"                                                                                                                                ",
"                                                                                                                                ",
"                                                                                                                                ",
"                                                                                                                                "
};
