/* XPM */
static char * sprite11_xpm[] = {
"71 64 130 2",
"  	c None",
". 	c #000000",
"+ 	c #1A1625",
"@ 	c #1C1729",
"# 	c #1E182C",
"$ 	c #20192F",
"% 	c #201930",
"& 	c #211930",
"* 	c #211931",
"= 	c #221A33",
"- 	c #231A34",
"; 	c #231A35",
"> 	c #241B37",
", 	c #251B38",
"' 	c #261B39",
") 	c #261B3A",
"! 	c #271C3B",
"~ 	c #281C3D",
"{ 	c #291C3E",
"] 	c #291D3F",
"^ 	c #2B1D41",
"/ 	c #2B1D42",
"( 	c #2D1E45",
"_ 	c #2D1F46",
": 	c #2E1F47",
"< 	c #2E1F48",
"[ 	c #2F1F49",
"} 	c #30204A",
"| 	c #30204B",
"1 	c #32204D",
"2 	c #32214E",
"3 	c #332150",
"4 	c #342252",
"5 	c #352253",
"6 	c #352254",
"7 	c #362255",
"8 	c #372356",
"9 	c #382358",
"0 	c #39245B",
"a 	c #3A245B",
"b 	c #3A245C",
"c 	c #3B245D",
"d 	c #3B255E",
"e 	c #3F2560",
"f 	c #412561",
"g 	c #492564",
"h 	c #4A2465",
"i 	c #4B2465",
"j 	c #4C2466",
"k 	c #4D2466",
"l 	c #4E2467",
"m 	c #502467",
"n 	c #512468",
"o 	c #552469",
"p 	c #5C246C",
"q 	c #5D246D",
"r 	c #5E246D",
"s 	c #60246E",
"t 	c #672371",
"u 	c #642470",
"v 	c #692372",
"w 	c #6D2374",
"x 	c #6F2375",
"y 	c #702375",
"z 	c #742377",
"A 	c #772378",
"B 	c #7A257C",
"C 	c #7B257D",
"D 	c #7C257E",
"E 	c #7D267F",
"F 	c #7E2781",
"G 	c #802883",
"H 	c #822985",
"I 	c #872C8C",
"J 	c #8B2E92",
"K 	c #8C2E93",
"L 	c #8D2F94",
"M 	c #8E2F95",
"N 	c #903097",
"O 	c #93329C",
"P 	c #96339F",
"Q 	c #9835A2",
"R 	c #9C36A6",
"S 	c #9E38A9",
"T 	c #A23AAE",
"U 	c #A43BB1",
"V 	c #A63CB3",
"W 	c #A73DB3",
"X 	c #B248AF",
"Y 	c #B54BAF",
"Z 	c #B84EAE",
"` 	c #BD53AD",
" .	c #BF55AC",
"..	c #AC42B1",
"+.	c #B147B0",
"@.	c #C056AC",
"#.	c #C55BAA",
"$.	c #CB61A9",
"%.	c #CC62A8",
"&.	c #CF65A8",
"*.	c #D167A7",
"=.	c #D269A6",
"-.	c #D76DA5",
";.	c #DF86B4",
">.	c #E18CB8",
",.	c #E290BA",
"'.	c #E393BC",
").	c #E497BE",
"!.	c #E59AC0",
"~.	c #E8A3C6",
"{.	c #E9A9C9",
"].	c #EAACCB",
"^.	c #EBAFCD",
"/.	c #ECB2CF",
"(.	c #EEB7D2",
"_.	c #F0BDD6",
":.	c #F0C0D8",
"<.	c #F1C3DA",
"[.	c #F5CFE1",
"}.	c #F6D1E2",
"|.	c #F6D4E4",
"1.	c #F8D9E7",
"2.	c #000000",
"3.	c #000000",
"4.	c #000000",
"5.	c #000000",
"6.	c #000000",
"7.	c #000000",
"8.	c #000000",
"9.	c #000000",
". . . . . . . . . . . . . . . . . . . . . . . . . . . . . . . . . . . . . . . . . . . . . . . . . . . . . . . . . . . . . . . . . . . . . . . ",
". . . . . . . . . . . . . . . . . . . . . . . . . . . . . . . . . . . . . . . . . . . . . . . . . . . . . . . . . . . . . . . . . . . . . . . ",
". . . . . . . . . . . . . . . . . . . . . . . . . . . . . . . . . . . . . . . . . . . . . . . . . . . . . . . . . . . . . . . . . . . . . . . ",
". . . . . . . . . . . . . . . . . . . . . . . . . . . . . . . . . . . . . . . . . . . . . . . . . . . . . . . . . . . . . . . . . . . . . . . ",
". . . . . . . . . . . . . . . . . . . . . . . . . . . . . . . . . . . . . . . . . . . . . . . . . . . . . . . . . . . . . . . . . . . . . . . ",
". . . . . . . . . . . . . . . . . . . . . . . . . . . . . . . . . . . . . . . . . . . . . . . . . . . . . . . . . . . . . . . . . . . . . . . ",
". . . . . . . . . . . . . . . . . . . . . . . . . . . . . . . . . . . . . . . . . . . . . . . . . . . . . . . . . . . . . . . . . . . . . . . ",
". . . . . . . . . . . . . . . . . . . . . . . . . . . . . . . . . . . . . . . . . . . . . . . . . . . . . . . . . . . . . . . . . . . . . . . ",
". . . . . . . . . . . . . . . . . . . . . . . . . . . . . . . . . . . . . . . . . . . . . . . . . . . . . . . . . . . . . . . . . . . . . . . ",
". . . . . . . . . . . . . . . . . . . . . . . . B B B B B B B B B p . . . . . . . . . . . . . . . . . . . . . . . . . . . . . . . . . . . . . ",
". . . . . . . . . . . . . . . . . . . . . o =.=.].].].].].].].].].!.=.%.. . . . . . . . . . . . . . . . . . . . . . . . . . . . . . . . . . . ",
". . . . . . . . . . . . . . . . . . & =.!.!.{.{.{.{.{.{.{.{.{.{.{.{.{.{.!.I . . . . . . . . . . . . . . . . . . . . . . . . . . . . . . . . . ",
". . . . . . . . . . . . . . . . o I {.{.{.{.{.!.).;.;.                {.{.{.I p . . . . . . . . . . . . . . . . . . . . . . . . . . . . . . . ",
". . . . . . . . . . . . . . . o ).].{.{.{.;.;.I v . . @ @ @ @ @ @         {.].!.r . . . . . . . . . . . . . . . . . . . . . . . . . . . . . . ",
". . . . . . . . . . . . . + ,.~.{.{.{.;.&.  8 $ + @ @ @ @ @ @ @ @ @ # @ +     {.~.} . . . . . . . . . . . . . . . . . . . . . . . . . . . . . ",
". . . . . . . . . . . . ' =.{.{.~.).Z t + + + . . . . . + . . . + % ; > @ @     {.Z + . . . . . . . . . . . . . . . . . . . . . . . . . . . . ",
". . . . . . . . . . . + -.{.{.~.=.G . . . . . . . . . . . . . . . . . # @ { # +   {.#.. . . . . . . . . . . . . . . . . . . . . . . . . . . . ",
". . . . . . . . . . + -.{.{.-. .' . . . . . . . . ! m !.!.p } } : + @ . + ( 2 ( @ 2 ^ . . . . . . . . . . . . . . . . . . . . . . . . . . . . ",
". . . . . . . . . ^ =.).~.;.Z . . . . . . . . . } ;.~.~.~.~.!.!.).%.=.H . . / 5 / + . . . . . . . . . . . . . . . . . . . . . . . . . . . . . ",
". . . . . . . . . u !.{.-.P + . . . . . . . . =.>.~.!.!.%.I I I L !.!.!. .. . ~ 5 # + . . . . . . . . . . . . . . . . . . . . . . . . . . . . ",
". . . . . . . . + ;.!.~. .. . . . . . . . + =.~.!.).o ( + . . + + { =.u '.H . . / 1 @ + . . . . . . . . . . . . . . . . . . . . . . . . . . . ",
". . . . . . . . H >.).*.I . . . . . . . . =.~.!.=.u . . . . + < ( . . . u #.+ . . 1 ; @ @ . . . . . . . . . . . . . . . . . . . . . . . . . . ",
". . . . . . . I >.!.=.B . . . . . . . . -.~.!.I . . . . . . . . . . . . . s =.. . # 3 ; @ + . . . . . . . . . . . . . . . . . . . . . . . . . ",
". . . . . . + %.,.).I . . . . . . . . ^ ).).L . . . . . . . . . . . . . . . - . . 9 4 , @ + . . . . . . . . . . . . . . . . . . . . . . . . . ",
". . . . . . u ,.~.#.s . . . . . . . g >.!.;.. . . . . . . . . . . . . . . . . . # 0 4 ( # @ @ . . . . . . . . . . . . . . . . . . . . . . . . ",
". . . . . . u !.;. .. . . . . . . . G {.I p . . . . . . . . + + + + + . . . . # 0 b 4 4 # @ @ . . . . . . . . . . . . . . . . . . . . . . . . ",
". . . . . . . =.=.+ . . . . . . . . G !.8 . . . . . . + # # 9 g ' p s 1 # + . ; d a 4 4 # @ + . . . . . . . . . . . . . . . . . . . . . . . . ",
". . . . . . . L %.. . . . . . . . + =. .. . . . . . + > } } 9 h - m y A ( # + ; d 4 4 4 # @ @ . . . . . . . . . . . . . . . . . . . . . . . . ",
". . . . . . . N A . . . . . . . . + y 2 . . . . . . $ c f f 1 f v C       # # ) g f c 4 # @ @ . . N Z . . . . . . . . . . . . . . . . . . . . ",
". . . . . . p #.1 . . . . . . . . . . . . . . . . @ c 9 f g ] u           f g f f g 0 , @ & + . . g + . . . . . . . . . . . . . . . . . . . . ",
". . . . . . p I . . . . . . . . . . . . . . . . . 1 ( . 5 5 | f g h     x 5 e ( f g 6 % # a ; . . Z O . . . . . . . . . . . . . . . . . . . . ",
". . . . . . p I . . . . . . . . . . . . . . . . . + . . # $ 9 g   ~   B C g , @ e d < @ f h ; . y ,.;.. . . . . . . . . . . . . . . . . . . . ",
". . . . . . m B . . . . . . . . . . . . . . . . . . . . + # 4 0 d   # { t @     0 e g g h 8 . + I ).=.. . . . . . . . . . . . . . . . . . . . ",
". . . . . . . . . . . . . . . . . . . . . . . . . . . . . # 4 0 e             ~ _ g 8 a g - . 1 -.,.# . . . . . . . . . . . . . . . . . . . . ",
". . . . . . . . . . . . . . . . . . . . . . . . . . . . + @ ~ 0 f           @ ( g g 9 a f . . g ;.L . . . . . . . . . . . . . . . . . . . . . ",
". . . . . . . . . . . . . . . . . . . . . . . . . . . . . . @ ^   C C     @ @ ( g g g f . . r ;.'.s . . . . . . . . . . . . . . . . . . . . . ",
". . . . . . . . . . . . . . . . . . . . . . . . . . . . . . + + 4 t E ' @ @ @ : h ( / + . o '.'.u . . . . . . . . . . . . . . . . . . . . . . ",
". . . . . . . . . . . . . . . . . . . . . . . . . . . . . . . & 2 8 1       - + + . + ^ o !.~.'.. . . . . . . . . . . . . . ! ! + . . . . . . ",
". . . . . . . . . . . . . . . . . . . . . . . . . . . . . . . #.>.  . ~ + o u + + & Q ;.{.!.u . . . . . . . . . . . . . . y ~.{.y . . . . . . ",
". . . . . . . . . . . . . . . . . . . . . . . . . . . . . . . . g ].^.;.        =.;.~.=. .y . . . . . . . . . . . . . . . >.~.;.} . . . . . . ",
". . . . . . . . . . . . . . . . . . . . . . . . . . . . . . . . . g 8 ).~.{.{.~.~.~.;.+ . . . . . . . . . . . . . . . . #.~.~.%.. . . . . . . ",
". . . . . . . . . . . . . . . . . . . . . . . . . . . . . . . . . . . . . #.=.. . . . . . . . . . . . . . . . . . . . o ~.~.,.. . . . . . . . ",
". . . . . . . . . . . . . . . . . . . . . . . . . . %.. . . . . . . . . . . . . . . . . . . . . . . . . . . . . . H =.;.~.~.I . . . . . . . . ",
". . . . . . . . . . . . . . . . . . . . . . . . . . g =.+ . . . . . . . . . . . . . . . . . . . . . . . . . . . + #.!.!.~.!.# . . . . . . . . ",
". . . . . . . . . . . . . . . . . . . . . . . . . . ^ !.=.+ . . . . . . . . . . . . . . . . . . . . . . . . . .  .!.!.~.'.m . . . . . . . . . ",
". . . . . . . . . . . . . . . . . . . . . . . . . . + #.!.=.. . . . . . . . . . . . . . . . . . . . . . . . . #.!.!.~.).o . . . . . . . . . . ",
". . . . . . . . . . . . . . . . . . . . . . . . . . . B ).!.=.+ [ . . + + + + + . . . . . . . . . . . . . u ).).!.~.~.2 . . . . . . . . . . . ",
". . . . . . . . . . . . . . . . . . . . . . . . . . . . =.!.!.=.L . * ( ( ( ( < + . . . . . . . . . . o N !.!.!.~.~.;.+ . . . . . . . . . . . ",
". . . . . . . . . . . . . . . . . . . . . . . . . . . . o '.!.!.!.;.B . . . . . . . . . . . . . . . -.;.!.!.~.~.~.;.! . . . . . . . . . . . . ",
". . . . . . . . . . . . . . . . . . . . . . . . . . . . . 8 ,.!.!.!.).,.g m g . . . . . . ' m y ).).!.!.!.~.~.).;.+ . . . . . . . . . . . . . ",
". . . . . . . . . . . . . . . . . . . . . . . . . . . . . . p %.).!.!.!.!.!.). . . . . . .=.!.!.!.!.!.~.~.~.,.g . . . . . . . . . . . . . . . ",
". . . . . . . . . . . . . . . . . . . . . . . . . . . . . . . . B !.!.!.!.!.!.!.!.!.!.!.!.!.!.!.~.~.~.~.~.G m . . . . . . . . . . . . . . . . ",
". . . . . . . . . . . . . . . . . . . . . . . . . . . . . . . . . # + ;.;.;.!.!.!.!.!.!.!.!.~.~.~.~.,.'.B . . . . . . . . . . . . . . . . . . ",
". . . . . . . . . . . . . . . . . . . . . . . . . . . . . . . . . . . . . . #.#.).~.~.~.~.~.~.~.,.%.. . . . . . . . . . . . . . . . . . . . . ",
". . . . . . . . . . . . . . . . . . . . . . . . . . . . . . . . . . . . . . . . o u #.~.~.;.u u g . . . . . . . . . . . . . . . . . . . . . . ",
". . . . . . . . . . . . . . . . . . . . . . . . . . . . . . . . . . . . . . . . . . . + + + . . . . . . . . . . . . . . . . . . . . . . . . . ",
". . . . . . . . . . . . . . . . . . . . . . . . . . . . . . . . . . . . . . . . . . . . . . . . . . . . . . . . . . . . . . . . . . . . . . . ",
". . . . . . . . . . . . . . . . . . . . . . . . . . . . . . . . . . . . . . . . . . . . . . . . . . . . . . . . . . . . . . . . . . . . . . . ",
". . . . . . . . . . . . . . . . . . . . . . . . . . . . . . . . . . . . . . . . . . . . . . . . . . . . . . . . . . . . . . . . . . . . . . . ",
". . . . . . . . . . . . . . . . . . . . . . . . . . . . . . . . . . . . . . . . . . . . . . . . . . . . . . . . . . . . . . . . . . . . . . . ",
". . . . . . . . . . . . . . . . . . . . . . . . . . . . . . . . . . . . . . . . . . . . . . . . . . . . . . . . . . . . . . . . . . . . . . . ",
". . . . . . . . . . . . . . . . . . . . . . . . . . . . . . . . . . . . . . . . . . . . . . . . . . . . . . . . . . . . . . . . . . . . . . . ",
". . . . . . . . . . . . . . . . . . . . . . . . . . . . . . . . . . . . . . . . . . . . . . . . . . . . . . . . . . . . . . . . . . . . . . . ",
". . . . . . . . . . . . . . . . . . . . . . . . . . . . . . . . . . . . . . . . . . . . . . . . . . . . . . . . . . . . . . . . . . . . . . . "};
