/* XPM */
static char * sprite10_xpm[] = {
"76 64 130 2",
"  	c None",
". 	c #000000",
"+ 	c #1A1625",
"@ 	c #1C1729",
"# 	c #1E182C",
"$ 	c #20192F",
"% 	c #201930",
"& 	c #211930",
"* 	c #211931",
"= 	c #221A33",
"- 	c #231A34",
"; 	c #231A35",
"> 	c #241B37",
", 	c #251B38",
"' 	c #261B39",
") 	c #261B3A",
"! 	c #271C3B",
"~ 	c #281C3D",
"{ 	c #291C3E",
"] 	c #291D3F",
"^ 	c #2B1D41",
"/ 	c #2B1D42",
"( 	c #2D1E45",
"_ 	c #2D1F46",
": 	c #2E1F47",
"< 	c #2E1F48",
"[ 	c #2F1F49",
"} 	c #30204A",
"| 	c #30204B",
"1 	c #32204D",
"2 	c #32214E",
"3 	c #332150",
"4 	c #342252",
"5 	c #352253",
"6 	c #352254",
"7 	c #362255",
"8 	c #372356",
"9 	c #382358",
"0 	c #39245B",
"a 	c #3A245B",
"b 	c #3A245C",
"c 	c #3B245D",
"d 	c #3B255E",
"e 	c #3F2560",
"f 	c #412561",
"g 	c #492564",
"h 	c #4A2465",
"i 	c #4B2465",
"j 	c #4C2466",
"k 	c #4D2466",
"l 	c #4E2467",
"m 	c #502467",
"n 	c #512468",
"o 	c #552469",
"p 	c #5C246C",
"q 	c #5D246D",
"r 	c #5E246D",
"s 	c #60246E",
"t 	c #672371",
"u 	c #642470",
"v 	c #692372",
"w 	c #6D2374",
"x 	c #6F2375",
"y 	c #702375",
"z 	c #742377",
"A 	c #772378",
"B 	c #7A257C",
"C 	c #7B257D",
"D 	c #7C257E",
"E 	c #7D267F",
"F 	c #7E2781",
"G 	c #802883",
"H 	c #822985",
"I 	c #872C8C",
"J 	c #8B2E92",
"K 	c #8C2E93",
"L 	c #8D2F94",
"M 	c #8E2F95",
"N 	c #903097",
"O 	c #93329C",
"P 	c #96339F",
"Q 	c #9835A2",
"R 	c #9C36A6",
"S 	c #9E38A9",
"T 	c #A23AAE",
"U 	c #A43BB1",
"V 	c #A63CB3",
"W 	c #A73DB3",
"X 	c #B248AF",
"Y 	c #B54BAF",
"Z 	c #B84EAE",
"` 	c #BD53AD",
" .	c #BF55AC",
"..	c #AC42B1",
"+.	c #B147B0",
"@.	c #C056AC",
"#.	c #C55BAA",
"$.	c #CB61A9",
"%.	c #CC62A8",
"&.	c #CF65A8",
"*.	c #D167A7",
"=.	c #D269A6",
"-.	c #D76DA5",
";.	c #DF86B4",
">.	c #E18CB8",
",.	c #E290BA",
"'.	c #E393BC",
").	c #E497BE",
"!.	c #E59AC0",
"~.	c #E8A3C6",
"{.	c #E9A9C9",
"].	c #EAACCB",
"^.	c #EBAFCD",
"/.	c #ECB2CF",
"(.	c #EEB7D2",
"_.	c #F0BDD6",
":.	c #F0C0D8",
"<.	c #F1C3DA",
"[.	c #F5CFE1",
"}.	c #F6D1E2",
"|.	c #F6D4E4",
"1.	c #F8D9E7",
"2.	c #000000",
"3.	c #000000",
"4.	c #000000",
"5.	c #000000",
"6.	c #000000",
"7.	c #000000",
"8.	c #000000",
"9.	c #000000",
". . . . . . . . . . . . . . . . . . . . . . . . . . . . . . . . . . . . . . . . . . . . . . . . . . . . . . . . . . . . . . . . . . . . . . . . . . . . ",
". . . . . . . . . . . . . . . . . . . . . . . . . . . . . . . . . . . . . . . . . . . . . . . . . . . . . . . . . . . . . . . . . . . . . . . . . . . . ",
". . . . . . . . . . . . . . . . . . . . . . . . . . . . . . . . . . . . . . . . . . . . . . . . . . . . . . . . . . . . . . . . . . . . . . . . . . . . ",
". . . . . . . . . . . . . . . . . . . . . . . . . . . . . . . . . . . . . . . . . . . . . . . . . . . . . . . . . . . . . . . . . . . . . . . . . . . . ",
". . . . . . . . . . . . . . . . . . . . . . . . . . . . . . . . . . . . . . . . . . . . . . . . . . . . . . . . . . . . . . . . . . . . . . . . . . . . ",
". . . . . . . . . . . . . . . . . . . . . . . . . . . . . . . . . . . . . . . . . . . . . . . . . . . . . . . . . . . . . . . . . . . . . . . . . . . . ",
". . . . . . . . . . . . . . . . . . . . . . . . . . . . . . . . . . . . . . . . . . . . . . . . . . . . . . . . . . . . . . . . . . . . . . . . . . . . ",
". . . . . . . . . . . . . . . . . . . . . . . . . . . . . . . . . . . . . . . . . . . . . . . . . . . . . . . . . . . . . . . . . . . . . . . . . . . . ",
". . . . . . . . . . . . . . . . . . . . . . . . u ;.;.;.;.;.=.. . . . . . . . . . . . . . . . . . . . . . . . . . . . . . . . . . . . . . . . . . . . . ",
". . . . . . . . . . . . . . . . . . . . & + ,.]./.:.:.:.:.:._.;.+ . . . . . . . . . . . . . . . . . . . . . . . . . . . . . . . . . . . . . . . . . . . ",
". . . . . . . . . . . . . . . . . . o H _._.:.(.(.~.).'.;.;.;.;.;.} . . . . . . . . . . . . . . . . . . . . . . . . . . . . . . . . . . . . . . . . . . ",
". . . . . . . . . . . . . . . . - =.{.<._.^.^.).!.-.#.Z + @ @ % . . . . . . . . . . . . . . . . . . . . . . . . . . . . . . . . . . . . . . . . . . . . ",
". . . . . . . . . . . . . . . . !.:.:.~.~.).    I p 9 0 c c c c 7 3 ( . . . . . . . . . . . . . . . . . . . . . . . . . . . . . . . . . . . . . . . . . ",
". . . . . . . . . . . . . + =._.:./.!.>.=.& 9 8 8 8 7 + + # # ] 9 9 b 0 0 6 + . . . . . . . . . . . . . . . . . . . . . . . . . . . . . . . . . . . . . ",
". . . . . . . . . . . . . =.<.:.^.>.=.^ . * [ . . . . . . . . . . . [ [ 0 c d ( ; . . . . . . . . . . . . . . . . . . . . . . . . . . . . . . . . . . . ",
". . . . . . . . . . . . ;.:.:.].,.u . . . . . . . . . . . . . . . . . . # ) c c c { . . . . . . . . . . . . . . . . . . . . . . . . . . . . . . . . . . ",
". . . . . . . . . . + ;.:.:.^.'.m . . . . . . . . . . . . . + } + . . . . . + 3 c b ) . . . . . . . . . . . . . . . . . . . . . . . . . . . . . . . . . ",
". . . . . . . . . $ =.:.:./.>.p . . . . . . . . . u # . o I g {. .. . . . . . + 3 c < . . . . . . . . . . . . . . . . . . . . . . . . . . . . . . . . . ",
". . . . . . . . . 8 <.:.].>.u . . . . . . . . ^  .I =.;.~.;.+ r p . . . . . . . + c c [ . . . . . . . . . . . . . . . . . . . . . . . . . . . . . . . . ",
". . . . . . . . . {.:.:.!.o . . . . . . . . $ {./.~.].u u & . + # . . . . . . . . , c c 1 . . . . . . . . . . . . . . . . . . . . . . . . . . . . . . . ",
". . . . . . . . o (._.{.;.+ . . . . . . . 2 ~._.^.~.g . . . . . . . . . . . . . . . { b 9 = + . . . . . . . . . . . . . . . . . . . . . . . . . . . . . ",
". . . . . . . u ^._.{.-.^ . . . . . . . g !._./.N . . . . . . . . . . . . . . . . . . 6 c 1 # . . . . . . . . . . . . . . . . . . . . . . . . . . . . . ",
". . . . . . . %._._.;.} . . . . . . . . G _.(.H . . . . . . . . . . . . . . . . . . / g c 1 # + . . . . . . . . . . . . . . . . . . . . . . . . . . . . ",
". . . . . . s (.:.!.%.. . . . . . . . p (.(.I . . . . . . . . . . . . . . . . . . . 5 j c 1 # # + . . . . . . . . . . . . . . . . . . . . . . . . . . . ",
". . . . . . u _.(.,.. . . . . . . . . ^._.~.p . . . . . . . . . + + + . . . . . . * j j c 5 = # + . . . . . . . . . . . . . . . . . . . . . . . . . . . ",
". . . . . . } ,.~.I . . . . . . . . %.(.{.p . . . . . . + + + f f $ * @ ( + . 1 + 9 g j f c ] # + . . . . . . . . . . . . . . . . . . . . . . . . . . . ",
". . . . . . .  .!.^ . . . . . . . . g ^.!.. . . . . . . & A H v ' $ ' # B B 9 ^ + m g k o c { - @ . . . . . . . . . . . . . . . . . . . . . . . . . . . ",
". . . . . . .  .;.' . . . . . . . . =.(.!.. . . . . . 5 F I F r o { t + v y g * m o o p o e 5 p i . . B o . . . . . . . . . . . . . . . . . . . . . . . ",
". . . . . . 8 ;.B . . . . . . . . . .  . .. . . . . + ' g x r p ^ . . . . . - { m o r o j o s r i . +  .B . . . . . . . . . . . . . . . . . . . . . . . ",
". . . . . . s =.& . . . . . . . . . . >.. . . . . . - m f o r o m + . . . . ; x p 8 s m p r r r i . + =.. . . . . . . . . . . . . . . . . . . . . . . . ",
". . . . . . s %.. . . . . . . . . . . ~.+ . . . . & m o f o q o p p i . . 9 I I I p p l r r r p f . p ~.;.. . . . . . . . . . . + o . . . . . . . . . . ",
". . . . . . u %.. . . . . . . . . . . %.. . . . + i o m ^ o g g o     * = t y I     m o r r r p . . ;.:.;.. . . . . . . . . . . ! !.. . . . . . . . . . ",
". . . . . . ' o . . . . . . . . . . . . . . . . ^ o o g . { ; f j                   o q r r r { . O '.].o . . . . . . . . . . . ' !.. . . . . . . . . . ",
". . . . . . . . . . . . . . . . . . . . . . . + g o o f . + ; a g H I             & g r r s ( . . %.(.!.. . . . . . . . . . . . o !.. . . . . . . . . . ",
". . . . . . . . . . . . . . . . . . . . . . . + h o a . @ 1 + / a H I           & 3 m r s o & . } ;._.+ . . . . . . . . . . . . {.=.. . . . . . . . . . ",
". . . . . . . . . . . . . . . . . . . . . . . + 9 ^ . + m 1 . ( 6 q w       # # - s s r [ * . & ;.:.=.+ . . . . . . . . . . . #.].. . . . . . . . . . . ",
". . . . . . . . . . . . . . . . . . . . . . . + 1 . . . + . . . + 8 ^     # # # # ' & + . . & ;._.=.+ . . . . . . . . . . . . ;./.+ . . . . . . . . . . ",
". . . . . . . . . . . . . . . . . . . . . . . + / . . . . . . . . | 6 e         @ . + + g G ;._.~.O . . . . . . . . . . . . 2 './.I o . . . . . . . . . ",
". . . . . . . . . . . . . . . . . . . . . . . . . . . . . . . . . . + ~ 9 c d e 1 [ <  .!./.:.=.. . . . . . . . . . . . . . L (.(.:.;.. . . . . . . . . ",
". . . . . . . . . . . . . . . . . . . . . . . . . . . . . . . . . . . . + + + + ' B ;./.{.u u + . . . . . . . . . . . . . 8 {.(._.{.8 . . . . . . . . . ",
". . . . . . . . . . . . . . . . . . . . . . . . . . . . . . . . . . . . . . . . !.{.{.{.^ . . . . . . . . . . . . . . . . H (._._.~.. . . . . . . . . . ",
". . . . . . . . . . . . . . . . . . . . . . . . . . . . . . . . . . . . . . . . . . . . . . . . . . . . . . . . . . . . L /.(._._.=.. . . . . . . . . . ",
". . . . . . . . . . . . . . . . . . . . . . . . . . . . . . . . . . . . . . . . . . . . . . . . . . . . . . . . . . . L ^.(._._.#.. . . . . . . . . . . ",
". . . . . . . . . . . . . . . . . . . . . . . . . . . . . . . . . . . . . . . . . . . . . . . . . . . . . . . . . . + =.(.(._.(.o . . . . . . . . . . . ",
". . . . . . . . . . . . . . . . . . . . . . . . . . . . . . . . . . . . . . . . . . . . . . . . . . . . . . . . . . %.(.(._./.H . . . . . . . . . . . . ",
". . . . . . . . . . . . . . . . . . . . . . . . . . . . . . . . . . . . . . . . . . . . . . . . . . . . . . . . . =.(.(._.(.H . . . . . . . . . . . . . ",
". . . . . . . . . . . . . . . . . . . . . . . . . . . . . . . . . . . . . . . . . . . . . . . . . . . . . . . L {.(.(._._.u . . . . . . . . . . . . . . ",
". . . . . . . . . . . . . . . . . . . . . . . . . . . . . . . . . . . . . . . . . . . . . . . . . . . . . s L (.(.(._._.{.^ . . . . . . . . . . . . . . ",
". . . . . . . . . . . . . . . . . . . . . . . . . . . . . . . . . . . . . + + + + + . . . . . . . . . 2 =.{.(.(.(._._.~.g . . . . . . . . . . . . . . . ",
". . . . . . . . . . . . . . . . . . . . . . . . . . . . . . . . . . . . . . . . . . . . . . . . . . >.~.(.(.(.(._._.{.8 . . . . . . . . . . . . . . . . ",
". . . . . . . . . . . . . . . . . . . . . . . . . . . . . . . . . . . . . . . g r r r r r r r r #.(.(./.~./.(._./.r # . . . . . . . . . . . . . . . . . ",
". . . . . . . . . . . . . . . . . . . . . . . . . . . . . . . . . . . . . . . #.;.;.;.;.(.(.(._._.!.;.%.. !._.;.G . . . . . . . . . . . . . . . . . . . ",
". . . . . . . . . . . . . . . . . . . . . . . . . . . . . . . . . . . . . . . . ;.,.,.'.(.(.(. .I g + ;.. B I . . . . . . . . . . . . . . . . . . . . . ",
". . . . . . . . . . . . . . . . . . . . . . . . . . . . . . . . . . . . . . . . } 2 o s s s u + . . . } . . . . . . . . . . . . . . . . . . . . . . . . ",
". . . . . . . . . . . . . . . . . . . . . . . . . . . . . . . . . . . . . . . . . . #.).).).).} . . . . . . . . . . . . . . . . . . . . . . . . . . . . ",
". . . . . . . . . . . . . . . . . . . . . . . . . . . . . . . . . . . . . . . . . . . . . . . . . . . . . . . . . . . . . . . . . . . . . . . . . . . . ",
". . . . . . . . . . . . . . . . . . . . . . . . . . . . . . . . . . . . . . . . . . . . . . . . . . . . . . . . . . . . . . . . . . . . . . . . . . . . ",
". . . . . . . . . . . . . . . . . . . . . . . . . . . . . . . . . . . . . . . . . . . . . . . . . . . . . . . . . . . . . . . . . . . . . . . . . . . . ",
". . . . . . . . . . . . . . . . . . . . . . . . . . . . . . . . . . . . . . . . . . . . . . . . . . . . . . . . . . . . . . . . . . . . . . . . . . . . ",
". . . . . . . . . . . . . . . . . . . . . . . . . . . . . . . . . . . . . . . . . . . . . . . . . . . . . . . . . . . . . . . . . . . . . . . . . . . . ",
". . . . . . . . . . . . . . . . . . . . . . . . . . . . . . . . . . . . . . . . . . . . . . . . . . . . . . . . . . . . . . . . . . . . . . . . . . . . ",
". . . . . . . . . . . . . . . . . . . . . . . . . . . . . . . . . . . . . . . . . . . . . . . . . . . . . . . . . . . . . . . . . . . . . . . . . . . . ",
". . . . . . . . . . . . . . . . . . . . . . . . . . . . . . . . . . . . . . . . . . . . . . . . . . . . . . . . . . . . . . . . . . . . . . . . . . . . ",
". . . . . . . . . . . . . . . . . . . . . . . . . . . . . . . . . . . . . . . . . . . . . . . . . . . . . . . . . . . . . . . . . . . . . . . . . . . . "};
