/* XPM */
static char * sprite6_xpm[] = {
"76 64 130 2",
"  	c None",
". 	c #000000",
"+ 	c #1A1625",
"@ 	c #1C1729",
"# 	c #1E182C",
"$ 	c #20192F",
"% 	c #201930",
"& 	c #211930",
"* 	c #211931",
"= 	c #221A33",
"- 	c #231A34",
"; 	c #231A35",
"> 	c #241B37",
", 	c #251B38",
"' 	c #261B39",
") 	c #261B3A",
"! 	c #271C3B",
"~ 	c #281C3D",
"{ 	c #291C3E",
"] 	c #291D3F",
"^ 	c #2B1D41",
"/ 	c #2B1D42",
"( 	c #2D1E45",
"_ 	c #2D1F46",
": 	c #2E1F47",
"< 	c #2E1F48",
"[ 	c #2F1F49",
"} 	c #30204A",
"| 	c #30204B",
"1 	c #32204D",
"2 	c #32214E",
"3 	c #332150",
"4 	c #342252",
"5 	c #352253",
"6 	c #352254",
"7 	c #362255",
"8 	c #372356",
"9 	c #382358",
"0 	c #39245B",
"a 	c #3A245B",
"b 	c #3A245C",
"c 	c #3B245D",
"d 	c #3B255E",
"e 	c #3F2560",
"f 	c #412561",
"g 	c #492564",
"h 	c #4A2465",
"i 	c #4B2465",
"j 	c #4C2466",
"k 	c #4D2466",
"l 	c #4E2467",
"m 	c #502467",
"n 	c #512468",
"o 	c #552469",
"p 	c #5C246C",
"q 	c #5D246D",
"r 	c #5E246D",
"s 	c #60246E",
"t 	c #672371",
"u 	c #642470",
"v 	c #692372",
"w 	c #6D2374",
"x 	c #6F2375",
"y 	c #702375",
"z 	c #742377",
"A 	c #772378",
"B 	c #7A257C",
"C 	c #7B257D",
"D 	c #7C257E",
"E 	c #7D267F",
"F 	c #7E2781",
"G 	c #802883",
"H 	c #822985",
"I 	c #872C8C",
"J 	c #8B2E92",
"K 	c #8C2E93",
"L 	c #8D2F94",
"M 	c #8E2F95",
"N 	c #903097",
"O 	c #93329C",
"P 	c #96339F",
"Q 	c #9835A2",
"R 	c #9C36A6",
"S 	c #9E38A9",
"T 	c #A23AAE",
"U 	c #A43BB1",
"V 	c #A63CB3",
"W 	c #A73DB3",
"X 	c #B248AF",
"Y 	c #B54BAF",
"Z 	c #B84EAE",
"` 	c #BD53AD",
" .	c #BF55AC",
"..	c #AC42B1",
"+.	c #B147B0",
"@.	c #C056AC",
"#.	c #C55BAA",
"$.	c #CB61A9",
"%.	c #CC62A8",
"&.	c #CF65A8",
"*.	c #D167A7",
"=.	c #D269A6",
"-.	c #D76DA5",
";.	c #DF86B4",
">.	c #E18CB8",
",.	c #E290BA",
"'.	c #E393BC",
").	c #E497BE",
"!.	c #E59AC0",
"~.	c #E8A3C6",
"{.	c #E9A9C9",
"].	c #EAACCB",
"^.	c #EBAFCD",
"/.	c #ECB2CF",
"(.	c #EEB7D2",
"_.	c #F0BDD6",
":.	c #F0C0D8",
"<.	c #F1C3DA",
"[.	c #F5CFE1",
"}.	c #F6D1E2",
"|.	c #F6D4E4",
"1.	c #F8D9E7",
"2.	c #000000",
"3.	c #000000",
"4.	c #000000",
"5.	c #000000",
"6.	c #000000",
"7.	c #000000",
"8.	c #000000",
"9.	c #000000",
". . . . . . . . . . . . . . . . . . . . . . . . . . . . . . . . . . . . . . . . . . . . . . . . . . . . . . . . . . . . . . . . . . . . . . . . . . . . ",
". . . . . . . . . . . . . . . . . . . . . . . . . . . . . . . . . . . . . . . . . . . . . . . . . . . . . . . . . . . . . . . . . . . . . . . . . . . . ",
". . . . . . . . . . . . . . . . . . . . . . . . . . . . . . . . . . . . . . . . . . . . . . . . . . . . . . . . . . . . . . . . . . . . . . . . . . . . ",
". . . . . . . . . . . . . . . . . . . . . . . . . . . . . . . . . . . . . . . . . . . . . . . . . . . . . . . . . . . . . . . . . . . . . . . . . . . . ",
". . . . . . . . . . . . . . . . . . . . . . . . . . . . . . . . . . . . . . . . . . . . . . . . . . . . . . . . . . . . . . . . . . . . . . . . . . . . ",
". . . . . . . . . . . . . . . . . . . . . . . . . . . . . . . . . . . . . . . . . . . . . . . . . . . . . . . . . . . . . . . . . . . . . . . . . . . . ",
". . . . . . . . . . . . . . . . . . . . . . . . . . . . m o o o o g . . . . . . . . . . . . . . . . . . . . . . . . . . . . . . . . . . . . . . . . . . ",
". . . . . . . . . . . . . . . . . . . . . . . . B B B B V W W W W S B B B v . . . . . . . . . . . . . . . . . . . . . . . . . . . . . . . . . . . . . . ",
". . . . . . . . . . . . . . . . . . . . . o O N W W W W W W W W W W W W W T N N { . . . . . . . . . . . . . . . . . . . . . . . . . . . . . . . . . . . ",
". . . . . . . . . . . . . . . . . . + { R T W W W W W W W W W W W W W W W W W W S O + . . . . . . . . . . . . . . . . . . . . . . . . . . . . . . . . . ",
". . . . . . . . . . . . . . . . + i N V W W W W W W V U U U U U U U W W W W W W W W N & . . . . . . . . . . . . . . . . . . . . . . . . . . . . . . . . ",
". . . . . . . . . . . . . . . . G W W W W W W T T T S R R R R R R S T T W W W W W W W J x . . . . . . . . . . . . . . . . . . . . . . . . . . . . . . . ",
". . . . . . . . . . . . . . . I W W W W W U S R R R R R Q p r r t R R R S S T W W W W W W I . . . . . . . . . . . . . . . . . . . . . . . . . . . . . . ",
". . . . . . . . . . . . . . I V W W W V S R Q Q O [ 1 1 ( . . . . 1 ( I Q Q R S U W W W W V I . . . . . . . . . . . . . . . . . . . . . . . . . . . . . ",
". . . . . . . . . . . . + G W W W W S R Q O p + + . . . . . . . . . . + + 9 O Q R U V W W W W x . . . . . . . . . . . . . . . . . . . . . . . . . . . . ",
". . . . . . . . . . . . F W W W S S R I B . . . . . . . . . . . r o . . . . . v H R S V W W W J & . . . . . . . . . . . . . . . . . . . . . . . . . . . ",
". . . . . . . . . . . H W W W R P S G + . . . . . . . . + H H H T S H H H z . . . z R S V W W W L + . . . . . . . . . . . . . . . . . . . . . . . . . . ",
". . . . . . . . . . I V W W Q Q N 7 & . . . . . . . z O P T T T S G O T T S S u . + z R S W W W V & . . . . . . . . . . . . . . . . . . . . . . . . . . ",
". . . . . . . . . B W W W R Q O # . . . . . . . ^ t T T R N m # # + + @ X R S Z p . . E R S V W V 1 . . . . . . . . . . . . . . . . . . . . . . . . . . ",
". . . . . . . . . F W V R P M & . . . . . . . . S S N J + . . . . . . . . . v X @.s . . F R S W W S . . . . . . . . . . . . . . . . . . . . . . . . . . ",
". . . . . . . . [ P W V Q L ^ . . . . . . . . x T N & . . . . . . . . . . . . w @.@.v . . Q S U W S . . . . . . . . . . . . . . . . . . . . . . . . . . ",
". . . . . . . - Q W W P O 1 . . . . . . . . y S o 1 . . . . . . . . . . . . . + u #.@.u . i F T W S . . . . . . . . . . . . . . . . . . . . . . . . . . ",
". . . . . . . 7 W W P N E . . . . . . . . s T R + . . . . . . . . . . . . . . . '  .#.B . + 3 J V S @ . . . . . . . . . . . . . . . . . . . . . . . . . ",
". . . . . . . T W U O I . . . . . . . . + F R 1 . . . . . . . . . . . . . . . . + o #.N & . # _ J V N . . . . . . . . . . . . . . . . . . . . . . . . . ",
". . . . . . . T W R M { . . . . . . . + G Q 9 . . . . . . . . . . . . . . . . . . m #.#.i . # 1 / T N . . o . . . . . . . . . . . . . . . . . . . . . . ",
". . . . . . . t T O v + . . . . . . . . w I . . . . . . . . . . ) + + + + i . + + O N #.g . @ 3 } S o . . I . . . . . . . . . . . . . . . . . . . . . . ",
". . . . . . . { S M i . . . . . . . . + M & . . . . . . . . + $ z A m + & v m [ + s  .I + + 1 3 [ Q . o ( H . . . . . . . . . . . . . . . . . . . . . . ",
". . . . . . . & M I 1 . . . . . . . . + I . . . . . . . + $ ( z E t + + & s 2 2 @ + ^ 4 + + | i 3 / 1 B ^ I 1 . . . . . . . . . . . . . . . . . . . . . ",
". . . . . . . x M u . . . . . . . . . . . . . . . . . @ 1 2 u G C ~ + + +   2 < ^ @ / | i . + L p ( s o . I B . . . . . . . . . . . . . . . . . . . . . ",
". . . . . . . O M t . . . . . . . . . . . . . . . . . ( 2 | 9 m m 1 y G G   : ; + $ 2 s F + + L p v B [ . H . . . . . . . . . . . . . . . . . . . . . . ",
". . . . . . . J M u . . . . . . . . . . . . . . . . ; 1 2 2 ] J [ 8 H g f < @ + + @ i E E + { f 1 5 a # z S I . . . . . . . . . . . . . . . . . . . . . ",
". . . . . . . J F . . . . . . . . . . . . . . . . @ 2 2 : 9 p L f ;     2 _ + + + ( E     ( } 5 z ^ 2 ^ H U O . . . . . . . . . . . . . . . . . . . . . ",
". . . . . . . J E . . . . . . . . . . . . . . . . ) | < + ( i ~ 2           +           _ 1 u F F m _ F P U E . . . . . . . . . . . . . . . . . . . . . ",
". . . . . . . J E . . . . . . . . . . . . . . . + < B O N G s g <                       / 8 F F F G   P T T . . . . . . . . . . . . . . . . . . . . . . ",
". . . . . . . J E . . . . . . . . . . . . . . . + y @.#.#.X G S P 7     w w             y z F F E p R S V o . . . . . . . . . . . . . . . . . . . . . . ",
". . . . . . . F + . . . . . . . . . . . . . . . 1 #.#.#. .X . P V Q   w w w w         F F F F E i P S W T - . . . . . . . . . . . . . . . . . . . . . . ",
". . . . . . . . . . . . . . . . . . . . . . . . g #.#.#.m X . H U S S z w w           F F F F w r S W S 7 . . . . . . . . . . . . . . . . . . . . . . . ",
". . . . . . . . . . . . . . . . . . . . . . . . o #.#.#.8 A . . T W U S J                     R T W W B . . . . . . . . . . . . . . . . . . . . . . . . ",
". . . . . . . . . . . . . . . . . . . . . . . . o #.#.#.^ + . . r W W U U R R R         R R S U W W P ^ . . . . . . . . . . . . . . ^ B . . . . . . . . ",
". . . . . . . . . . . . . . . . . . . . . . . . o #.#.#.8 + . . . p U W W V T R R R R R R V V W T R & . . . . . . . . . . . . . . + R I . . . . . . . . ",
". . . . . . . . . . . . . . . . . . . . . . . . m #.#.#. .+ + . . . v P V W W W W W W W W W T P 7 . . . . . . . . . . . . . . . . i S B . . . . . . . . ",
". . . . . . . . . . . . . . . . . . . . . . . . ' X #.#. .+ + . . . . . E H H S W W W W J H t . . . . . . . . . . . . . . . . . o S Q . . . . . . . . . ",
". . . . . . . . . . . . . . . . . . . . . . . . . y #.#. .+ + . . . . . . . . i s s s s + . . . . . . . . . . . . . . . . . . . I T Q . . . . . . . . . ",
". . . . . . . . . . . . . . . . . . . . . . . . . y #.#.#.O + . . . . . . . . . . . . . . . . . . . . . . . . . . . . . . . . t S T 1 . . . . . . . . . ",
". . . . . . . . . . . . . . . . . . . . . . . . . u @.#.#.Z ( + . . . . . . . . . . . . . . . . . . . . . . . . . . . . . . r T T P + . . . . . . . . . ",
". . . . . . . . . . . . . . . . . . . . . . . . . . L #.#.#.X } + . . . . . . . . . . . . . . . . . . . . . . . . . . . . t T T O ' . . . . . . . . . . ",
". . . . . . . . . . . . . . . . . . . . . . . . . . o  .#.#.#.r . . . . . . . . . . . . . . . . . . . . . . . . . . . . w S T O ^ . . . . . . . . . . . ",
". . . . . . . . . . . . . . . . . . . . . . . . . . . 8 @.#.#. .^ . . . . . . . . . . . . . . . . . . . . . . . . . + t S T P ' . . . . . . . . . . . . ",
". . . . . . . . . . . . . . . . . . . . . . . . . . . . Z #.Y ` ` 5 ' . . . . . . . . . . . . . . . . . . . . . + B S T T Q @ . . . . . . . . . . . . . ",
". . . . . . . . . . . . . . . . . . . . . . . . . . . . - Z ` U T ` Q i . . . . . . . . . . . . . . . . . . + k G S T T O - . . . . . . . . . . . . . . ",
". . . . . . . . . . . . . . . . . . . . . . . . . . . . . ( Z ..T T ..R L i . . . . . . . . . . . . . . . o I R T T T O ( . . . . . . . . . . . . . . . ",
". . . . . . . . . . . . . . . . . . . . . . . . . . . . . . ^ X U T T T ..O t t t . . . . . . . . . ^ t J R T T T T P { . . . . . . . . . . . . . . . . ",
". . . . . . . . . . . . . . . . . . . . . . . . . . . . . . . & Z S T T T T S S H B B B B B B B B R S S T T T T S 1 @ . . . . . . . . . . . . . . . . . ",
". . . . . . . . . . . . . . . . . . . . . . . . . . . . . . . . . m Q R T T T T T T T T T T T T T T T T T T M N g . . . . . . . . . . . . . . . . . . . ",
". . . . . . . . . . . . . . . . . . . . . . . . . . . . . . . . . . . s B I U U T T T T T T T T T U U U I z . . . . . . . . . . . . . . . . . . . . . . ",
". . . . . . . . . . . . . . . . . . . . . . . . . . . . . . . . . . . . . @ o o R T T T T T T T T p o o # . . . . . . . . . . . . . . . . . . . . . . . ",
". . . . . . . . . . . . . . . . . . . . . . . . . . . . . . . . . . . . . . . . ' { { { { { { { { . . . . . . . . . . . . . . . . . . . . . . . . . . . ",
". . . . . . . . . . . . . . . . . . . . . . . . . . . . . . . . . . . . . . . . . . . . . . . . . . . . . . . . . . . . . . . . . . . . . . . . . . . . ",
". . . . . . . . . . . . . . . . . . . . . . . . . . . . . . . . . . . . . . . . . . . . . . . . . . . . . . . . . . . . . . . . . . . . . . . . . . . . ",
". . . . . . . . . . . . . . . . . . . . . . . . . . . . . . . . . . . . . . . . . . . . . . . . . . . . . . . . . . . . . . . . . . . . . . . . . . . . ",
". . . . . . . . . . . . . . . . . . . . . . . . . . . . . . . . . . . . . . . . . . . . . . . . . . . . . . . . . . . . . . . . . . . . . . . . . . . . ",
". . . . . . . . . . . . . . . . . . . . . . . . . . . . . . . . . . . . . . . . . . . . . . . . . . . . . . . . . . . . . . . . . . . . . . . . . . . . ",
". . . . . . . . . . . . . . . . . . . . . . . . . . . . . . . . . . . . . . . . . . . . . . . . . . . . . . . . . . . . . . . . . . . . . . . . . . . . ",
". . . . . . . . . . . . . . . . . . . . . . . . . . . . . . . . . . . . . . . . . . . . . . . . . . . . . . . . . . . . . . . . . . . . . . . . . . . . "};
