/* XPM */
static char *sprite5[] = {
/* columns rows colors chars-per-pixel */
"64 55 194 2 ",
"   c #000000",
".  c #06050A",
"X  c #0A050C",
"o  c #09080D",
"O  c #0C0611",
"+  c #0D0A14",
"@  c #0E0A19",
"#  c #120614",
"$  c #110B16",
"%  c #140B1A",
"&  c #1B0A1D",
"*  c #19071B",
"=  c #14101E",
"-  c #150E21",
";  c #1D0C22",
":  c #1F0E28",
">  c #161122",
",  c #1A1324",
"<  c #1C142C",
"1  c #1E1530",
"2  c #230C26",
"3  c #240D28",
"4  c #290E2B",
"5  c #22132D",
"6  c #29122D",
"7  c #2E0F32",
"8  c #221633",
"9  c #2C1333",
"0  c #251A34",
"q  c #2D1935",
"w  c #25173A",
"e  c #2C163B",
"r  c #251B39",
"t  c #2A1B3D",
"y  c #321235",
"u  c #35143B",
"i  c #3A143D",
"p  c #341B3D",
"a  c #3C193E",
"s  c #41183D",
"d  c #2D1E45",
"f  c #2D1F49",
"g  c #311740",
"h  c #3D1643",
"j  c #321C44",
"k  c #3A1C43",
"l  c #3E1748",
"z  c #351E4B",
"x  c #3A1E4C",
"c  c #362040",
"v  c #3B2245",
"b  c #33204C",
"n  c #38204D",
"m  c #352252",
"M  c #3C2154",
"N  c #3A2459",
"B  c #421646",
"V  c #441D4D",
"C  c #491B48",
"Z  c #511D4F",
"A  c #441E53",
"S  c #4B1C54",
"D  c #511C54",
"F  c #561D5B",
"G  c #5A1E5C",
"H  c #42214B",
"J  c #452749",
"K  c #51254D",
"L  c #432153",
"P  c #4C2155",
"I  c #42225A",
"U  c #4A215B",
"Y  c #522456",
"T  c #55245C",
"R  c #59235E",
"E  c #64295D",
"W  c #69375A",
"Q  c #72385C",
"!  c #5D1F61",
"~  c #4A2462",
"^  c #452461",
"/  c #542363",
"(  c #5B2563",
")  c #552866",
"_  c #5F2865",
"`  c #53256A",
"'  c #5C256B",
"]  c #532A69",
"[  c #5C296D",
"{  c #5D2C71",
"}  c #622562",
"|  c #64246D",
" . c #652C6D",
".. c #6E256F",
"X. c #743469",
"o. c #773C6A",
"O. c #612570",
"+. c #6B2673",
"@. c #6A2C73",
"#. c #6C2B7C",
"$. c #682877",
"%. c #712576",
"&. c #742B73",
"*. c #74267B",
"=. c #7B267E",
"-. c #72297C",
";. c #7A2B7C",
":. c #6C307B",
">. c #70307C",
",. c #7A3576",
"<. c #7F4074",
"1. c #863B7A",
"2. c #88447C",
"3. c #762C83",
"4. c #7D2C84",
"5. c #7E2A85",
"6. c #7B3A81",
"7. c #822B85",
"8. c #852C8C",
"9. c #892C8E",
"0. c #853286",
"q. c #83338B",
"w. c #8B338B",
"e. c #873A89",
"r. c #8C3D8C",
"t. c #8A3D82",
"y. c #90378E",
"u. c #96398E",
"i. c #8B2E92",
"p. c #873190",
"a. c #8D3392",
"s. c #8D3B92",
"d. c #943793",
"f. c #913D95",
"g. c #9C3D94",
"h. c #94339B",
"j. c #963B9B",
"k. c #9B3D9C",
"l. c #A13E9A",
"z. c #9D38A3",
"x. c #9E36A8",
"c. c #9F38A8",
"v. c #A33EA4",
"b. c #A63EA9",
"n. c #A83FAC",
"m. c #8E408E",
"M. c #8E4380",
"N. c #964A84",
"B. c #9D508A",
"V. c #9C4295",
"C. c #9F439D",
"Z. c #A3538C",
"A. c #AE558C",
"S. c #B2578D",
"D. c #A3439D",
"F. c #A8449E",
"G. c #AA489F",
"H. c #A54B92",
"J. c #AB5492",
"K. c #B25499",
"L. c #BC569D",
"P. c #BC5D97",
"I. c #BE6196",
"U. c #BF609B",
"Y. c #A542A2",
"T. c #AA44A4",
"R. c #AB49A0",
"E. c #AA42AA",
"W. c #AF48AB",
"Q. c #B14BA5",
"!. c #B147AE",
"~. c #B54BAD",
"^. c #B84EAD",
"/. c #BC54A5",
"(. c #BD53AD",
"). c #AC40B0",
"_. c #B54AB1",
"`. c #BA4EB1",
"'. c #BD51B0",
"]. c #C25D9E",
"[. c #C3629A",
"{. c #C55EA4",
"}. c #C85EA9",
"|. c #C157AB",
" X c #CE65A4",
".X c #CE63AC",
"XX c #C763A2",
"oX c #D56BA6",
"OX c #D96EA6",
"+X c #DA6DA9",
"@X c #D468A8",
"#X c #DB70A7",
"$X c #DD70A8",
"%X c None",
/* pixels */
"                                                                                                                                ",
"                                                                                                                                ",
"                                                                                                                                ",
"                                                                                                                                ",
"                                                                                                                                ",
"                                        . X X & %.B X X X X .                                                                   ",
"                                  . % p  .T.T.R.(.R.R.G.G.Y.;.p , .                                                             ",
"                                2 ) e./.(.(.(.(.(.(.(.(.|.|.(.(.f./ +                                                           ",
"                            * B r.~.(.(.(.(.^.(.^.'.(.(.D.C.(.'.(.!. .y                                                         ",
"                          # &.(.'.(.|.`.^.^._.E.E.b.b.b.h.a.C.V.(.(.(.g.u .                                                     ",
"                        # &.^.|.(.(.^._.v.d.-.u 7 7 9 y y S -.p.a.k.^.|.r.,                                                     ",
"                      # ;.^.(.(.^._.k.[ L & O               2 x x ~ $.y.Q.Y                                                     ",
"                    # &.^.(.(.~.E.q.g .         . # ; P k $ # X   , b n [ Y   X X                                               ",
"                  # &.^.(.(.!.Y.| X         * 4 T w.u././.D.g.,.9 X % 8 f t @ z / %                                             ",
"                # &.^.(.^.~.;.l X       o ; ;.n.E.Y.N.2.2.N.{.+X/.D . . 8 z r 1 [ ' O                                           ",
"                B T.|.^._.7.;           k s.Y.d.D e - o @ % a W J.L.C   . d m % x 3.1                                           ",
"              2 s.^.(.~.0.9           & 0.E.' 2                 v K.L.D   - m d M 8.B                                           ",
"            . P `.(.^.E.F           $ &.Y.T +                     p [.L.B + f f m i.!                                           ",
"            & k.(.(.~...X           H ~.:.@                       . N. X} X d m j 7.G                                           ",
"            ; Y.(.`.j.%           4 j.q.%             . % X X o     j oXB.- - N x #.| * * .                                     ",
"            # ;.`.).) .         . ;.Y.i               = U M j z ,   t K.M., 1 N ` 8.9.=.O.%                                     ",
"              a _.j.9           . 4.&.          . + + j N O.` ^ I 5 r =.A 9 / N ` i.9.7.O.%                                     ",
"              H ).( X             V 9           = , t ' M L x %X%Xb ,.L N %.7.*.3.i.-.| w.q                                     ",
"            * s.b.i               . .         = , k -.*.x %X%X%X%Xd v q %.i.i.i.i.i.D l 4.<                                     ",
"            & z.v.y                         X , , L 9.8.+./ z %Xr 0 0 x *.p.i.i.i.5.d ' h.p                                     ",
"            & x.#.+                       $ f f r @.8.4./ < x ~ m d R +./ ' 8.i.i.-.n s.(.J                                     ",
"            ; v.R                         < m ~ A #.$.m =   # d r 0 % w w < #.i.8.U } `.D.q                                     ",
"            & c.G                         w N H.V.5.#.f %           9 j + e -.9.| ' k.~. .O                                     ",
"            * 5.9                         w #. X{.8.7.U 8 = < > u D %.F . P 7./ ~ k.(.Y.u                                       ",
"            . * .                       + ( Q.[.J p ( V d r b U %.5.=.A . # 2 S 4.^.Q.F .                     .                 ",
"              . .                       , B.+XI.q + p ~ t n n b A M m @ . 3 -.Y.Q.|.,..                   + / ( +               ",
"              y S                       < B.+XI.r + $ , + q.s.] 3.3.{ { ] 6.^.(.^.D.u                     ; d._.y               ",
"              y S                       , Z.+X[.n $       k F.D.E.`.^.(.^.'.^.Y...i                       / `.j.4               ",
"              # *                       o X.oXoXM.$       $ i T 6.C.^.e.Y.e.@.B .                       ; g.!.Y                 ",
"                                          l ].+XJ.r .         . @ 9 a ; 9 > +                         $ @.`.k.y                 ",
"                                          k P.OXXX_ = .                                             + } E.~.| .                 ",
"                                          % e.oX+XH.k , .                                         . F E.`.s.8                   ",
"                                            F ].oXOX<.< .                                       + ( E.`.m.5                     ",
"                                              E oXOXL.T , . .                                 4 ( v.`.m.t                       ",
"                                              $ Z.OX#XL.o.k > X                           + u 8.Y.`.r.9                         ",
"                                                p J.+XOXoXZ.k 4 . $ +                 $ e O.j.W.`.m.e                           ",
"                                                  i J.OXOX+XoXS.1.6 o . .   .     # G +.j.!.`.^.j.t                             ",
"                                                  . u Z. X+XOXOXoXP.S.0.4.q.7.4.4.w.E.~.^.~.T._ 5 .                             ",
"                                                      X } H.].oXOXOX X}.}..X|.`.~.`.`.~.d.4.F .                                 ",
"                                                          , D X.Z.XX@X.X|.`.'.'.!.r.m.@.9 .                                     ",
"                                                              X > K Q Q } | E } D ; > o                                         ",
"                                                                                                                                ",
"                                                                                                                                ",
"                                                                                                                                ",
"                                                                                                                                ",
"                                                                                                                                ",
"                                                                                                                                ",
"                                                                                                                                ",
"                                                                                                                                ",
"                                                                                                                                "
};
