/* XPM */
static char * aste64x64_xpm[] = {
"64 48 190 2",
"  	c #010101",
". 	c #080504",
"+ 	c #343324",
"@ 	c #14130B",
"# 	c #090708",
"$ 	c #040A0B",
"% 	c #061112",
"& 	c #2A3333",
"* 	c #152225",
"= 	c #53594A",
"- 	c #2A2C25",
"; 	c #0F1E20",
"> 	c #030708",
", 	c #1B1C13",
"' 	c #14292D",
") 	c #0C0B0B",
"! 	c #120E10",
"~ 	c #0A0A06",
"{ 	c #3C423C",
"] 	c #35555B",
"^ 	c #2C3A37",
"/ 	c #0C191C",
"( 	c #3E3B26",
"_ 	c #555135",
": 	c #64644A",
"< 	c #646243",
"[ 	c #19170D",
"} 	c #403D28",
"| 	c #4A462C",
"1 	c #4C4A35",
"2 	c #3B3B2D",
"3 	c #1E211E",
"4 	c #111415",
"5 	c #232A2C",
"6 	c #25545B",
"7 	c #1C292D",
"8 	c #363A2D",
"9 	c #686545",
"0 	c #6B6A4E",
"a 	c #646D59",
"b 	c #586557",
"c 	c #525443",
"d 	c #5C5A43",
"e 	c #2D302C",
"f 	c #494C3E",
"g 	c #5B5D49",
"h 	c #626551",
"i 	c #5B695B",
"j 	c #656D55",
"k 	c #5D583A",
"l 	c #48452C",
"m 	c #494630",
"n 	c #224551",
"o 	c #2C3A3C",
"p 	c #4B5448",
"q 	c #546C65",
"r 	c #505C51",
"s 	c #45473B",
"t 	c #2D3027",
"u 	c #2A2E2C",
"v 	c #32342D",
"w 	c #4B4E40",
"x 	c #5A7B6F",
"y 	c #3D4132",
"z 	c #6D6947",
"A 	c #322F1C",
"B 	c #444434",
"C 	c #34484A",
"D 	c #2B4146",
"E 	c #495E59",
"F 	c #457475",
"G 	c #42504C",
"H 	c #335354",
"I 	c #468E92",
"J 	c #5F624F",
"K 	c #353A35",
"L 	c #52513D",
"M 	c #3A3F38",
"N 	c #4F503E",
"O 	c #222524",
"P 	c #35311E",
"Q 	c #6C765D",
"R 	c #43686C",
"S 	c #405C5C",
"T 	c #434D43",
"U 	c #3D524F",
"V 	c #386468",
"W 	c #333C3A",
"X 	c #313632",
"Y 	c #302F26",
"Z 	c #625E41",
"` 	c #2A363B",
" .	c #2B4D53",
"..	c #3B3D33",
"+.	c #262824",
"@.	c #1B252A",
"#.	c #292F32",
"$.	c #506762",
"%.	c #4A7F84",
"&.	c #385E65",
"*.	c #233135",
"=.	c #191E21",
"-.	c #211D18",
";.	c #1D2D32",
">.	c #151A1C",
",.	c #3BA6B4",
"'.	c #2C818B",
").	c #35423F",
"!.	c #232E32",
"~.	c #191818",
"{.	c #191D1D",
"].	c #1B2224",
"^.	c #1C3F4B",
"/.	c #1C3D43",
"(.	c #251E22",
"_.	c #279FB0",
":.	c #2B717C",
"<.	c #2A3D41",
"[.	c #212629",
"}.	c #15252A",
"|.	c #131619",
"1.	c #274C5A",
"2.	c #2A454B",
"3.	c #25393E",
"4.	c #23353A",
"5.	c #364F59",
"6.	c #0D100C",
"7.	c #161D21",
"8.	c #4F5141",
"9.	c #313E48",
"0.	c #1D333A",
"a.	c #090F10",
"b.	c #1D3135",
"c.	c #243D43",
"d.	c #0A1618",
"e.	c #2A494E",
"f.	c #235B63",
"g.	c #357682",
"h.	c #0B1314",
"i.	c #282719",
"j.	c #537C7B",
"k.	c #316A76",
"l.	c #525649",
"m.	c #3A5A5A",
"n.	c #2F5859",
"o.	c #374646",
"p.	c #143944",
"q.	c #27616A",
"r.	c #050E10",
"s.	c #27281F",
"t.	c #295E68",
"u.	c #285761",
"v.	c #23444B",
"w.	c #1A424D",
"x.	c #1F85A0",
"y.	c #1D5563",
"z.	c #14363B",
"A.	c #2D7987",
"B.	c #2B5156",
"C.	c #286B78",
"D.	c #1F4C53",
"E.	c #244146",
"F.	c #1E393D",
"G.	c #26484E",
"H.	c #162C30",
"I.	c #0C2124",
"J.	c #386F78",
"K.	c #34747E",
"L.	c #408590",
"M.	c #347D89",
"N.	c #2E555C",
"O.	c #394E57",
"P.	c #489FAD",
"Q.	c #36BDE4",
"R.	c #38B4D6",
"S.	c #2F8397",
"T.	c #020101",
"U.	c #43ACC3",
"V.	c #2EA7CB",
"W.	c #070403",
"X.	c #030101",
"Y.	c #050202",
"Z.	c #040202",
"`.	c #060503",
" +	c #030202",
".+	c #060303",
"++	c #050302",
"@+	c #130C06",
"#+	c #040201",
"$+	c #060403",
"                                                                                          .                                     ",
"                                                                                          + @                                   ",
"  # #                                 . @ . $ %                                           & *                                 . ",
"                                    . + = - ; >   . , , @ .                   >         > ' ;                         .     ) ! ",
"                                    ~ { ] ^ / @ ( _ : : < ( . [ + } } | 1 2 3 ,                                     ) 4         ",
"                                    . 5 6 7 8 9 0 a b = c d 8 e f g h i i j 9 k l @ . @ l _ m } @                               ",
"                                    . * n o a g p q r f f s t u v w x j : c y 1 z | | < : c w w < A .                           ",
"    )                               ~ B C D p w E F G s { v t 1 v H I b J 9 2 e K _ L : 0 d M s N s O                           ",
"    .                               P Q R S T s U V W X & O Y Z B `  ...M K +.@.5 - d d p = c #.K v +.#                         ",
"                                  } Z $.%.&.{ K & ` *.5 =.-.- 2 L ..O u u 7 ;.7 >.B s K M T w 2 O O t A .                       ",
"                                , k s S ,.'.).& u !.*.@.~.{.O u K B ].].=.^./.].v B e W { M M u X (.O B ~                       ",
"                        .       P Q w H _.:.<.#.5 !.[.=.~.~.{.[.& u ].>.>.}.* >.u [.@.^ W K 5 #.F t |.{.                        ",
"                      > E t     +.U { D 1.2.3.4.!.[.@.~.4 4 ~.7 5 O >.>.|.].- v u =.[.X #.#.[.5 5.O =.=.#                       ",
"                      6.V ^     {.<.u *.#.#.!.!.[.[.7.|.! |.|.].[.>.>.|.~.Y ..B 8.} 2 #.+.].=.[.3.>.=.}.4                       ",
"                      # 9.7.    ~.u [.7 [.!.[.;.!.].~.|.|.|.7.=.>.>.>.~.~.{.>.7.5 #.#.=.=.7.7.=.!.=.=.7.4                       ",
"        !             > !.4     ) ~.7.].;.*.4.!.7 7.>.>.>.>.7.=.>.|.>.>.>.>.>.@.!.#.#.5 =.>.|.~.0.7 7.7.a.                      ",
"      . ~.#             b.*     ) ~.|.7 4.*.;.7 =.7.|.~.7.=.4.c.7 >.>.>.|.>.7 5 4.` 4.!.* |.|.|.7.|.7.7.>                       ",
"      . #         .     d./ . A ( O {.@.2.2.e.e.b.7.7.7.7.f.g.5.[.{.=.>.{.=.3.D <.<.o e.].h.|.|.|.~.7.7.                        ",
"                > B i.      A _ 8 - f ..* ].7 b.7.|.>.=.X j.k.*.].=.].=.>.=.7 2.H  .e.7 |.3 ].{.>.7.7.b.                        ",
"                . K {.    ~ _ 1 t u { u |.|.~.|.|.|.7.!.l.E 9.=.7 ;.;.].=.>.|.{.|.|.|.|./ m.n.7.7.7.;./                         ",
"                > 7 4     i.w W 5 O 4.;.{.|.>.{.7.7.=.[.o.1.#.@.p./.[.].{.>.|.|.~.|.h.4 |.q.6 |.=.@.c.%                         ",
"                  r./     , o.<.].].].!.{.>.].].7.=.5 (.D n [.[.7.[...B + |.{.~.|.|.h.4 |.}.* / 7.3.c.$                         ",
"                >         ~ s.{.{.=.5 ~.|.=.].].7 c.!.=.4.c.7 =.O 5 v X K +.T B >.~.4 ) 4 4 |./ @.c.r.                          ",
"                          . 4 =.=.O & ].>.7.@.b.t.u.!.=.*.v.3.O u K M s K 8 o.X {.>.{.=.4 h.|.3 ;.c.                            ",
"                            > 7.].@.5 [.=.>.].w.x.y.=.=./.k.c.#.K s T K X u <.@.>.* ].].|.h.|.5 3.}.                            ",
"    .                 >       % * b.` [.=.>.=.4.w.z.=.=.y.A.*.#.o.W W W #.O ].7.>.* 7 7 * |.{.V B.                              ",
"                      $ >     # >.7 2.@.>.{.[.3.=.7.>.=.^.n !.<.^ & & *.#.f v ~.>.* ].b.b.h.{.C.D.                              ",
"                .     $       # * * 4.3.7.].<.` 5 7.>.7.=.7 !.` ` <.<.!.*.U v ~.* E.3.2.*.|.* c.F.>                             ",
"              . #     $ $ >   > ].@.@.}.].7 2.` !.=.7.|.7.@.;.!.3.3.4.;.c.c.7 |.{.0.E.E.* * G.b.h.                              ",
"              .       $ > / d.# 7 0.7 7 @.7 e.D ` 5 =.>.~.7.=.=.7 7 4.e.0.7 ;.].|.h.|.>.3 *.v.>                                 ",
"                          r.}.% * E.0.H.7 }.E.&.<.4.G O 7.7.|.>.@.[.c.;.>.7.=.].* |.3 ].b.B./                                   ",
"                          $ H.I./ E.B.G.v.H.v.V 9.C j.9.4.7.|.|.|.|.>.>.>.].].7 ;.7.* b.E.}..     .                             ",
"                          > * F.' 1.J.K.L.M.:.N.4.<.O.` F.|.4 4 |.h.4 |.>.* * c./.7.0.;.$ .                                     ",
"                            > r./ ' N.g.P.Q.R.S.t. .<.=.].].7.4 |.|.|.|.3 ' 3. .7 7 G.%     .     T.T.T.      .                 ",
"                            4 ! >   H.f.I U.Q.V.:.w.!.;.!.!.7 |.>.>.* * @.E.e.b.}.E.F..     W.X.X.X.X.X.X.Y.  .       .         ",
"                            # a.$ d./.t.M.A.'.'.6 /.2.c.c.3.4.* * * ].@.7 7 ;.;.c.v.h.  .   Z.X.X.X.X.X.X.X.Y.  .   .           ",
"                            > > $ $ z.k.g.y.y.6 v.F.0.0.c.o 4.H.7 7 7 7 ;.F.2.v.w.4 . .   `.X.X.X.X.X.X.X.X.X.      .           ",
"                              $ $ $ % z.f.f.D.D./.0.;.;.3.3.3.b.;.;.b.7 c.N.F.>            +X.X.X.X.X.X.X.X.X.Y.. .     .       ",
"        #                     > $ $ $ % I.D.6 6 /.H.;.4.*.3.4.4.0.;.b.b.B.v.h..   . .     X.X.X.X.X.X.X.X.X.X.Y.  .   .         ",
"      ) -..                 > > $ r.$ $ $ r.; ; h.>.;.;.*.b.*.c.c.;.o  .v.$     .         X.X.X.X.X.X.X.X.X.X.T.    .         . ",
"      . 4 .             .   > > $ r.r.r.$ >       > 7 e.c.7 b. .c.c.e.0.$   . .         Y.X.X.X.X.X.X.X.X.X.X.        .       # ",
"                          > > # > $ > > > > >   .   $ * G. . .F.% h.% .           .   .+X.X.X.X.X.X.X.X.X.X.T.    .   .         ",
"                          . >     >                     # $ % >           .   .       Z.X.X.X.X.X.X.X.X.X.Z.  . .               ",
"                  .   . .         # ~                     >   .     .   . .     . .   Z.X.X.X.X.X.X.X.X.T.  .                   ",
"                            .   . . .                         . . .     .         .   Z.X.X.X.X.X.X.X.X.T.W.    .               ",
"              .             .     > . @ #     . .           .   .   . .   . . .     . ++X.X.X.X.X.X.X.X.++. . .     .           ",
"                          .   .   .   # .     .       . . . . . . . .   .   @+. . .   T.T.X.X.X.X.X.X.#+$+  . . .   . .   . !   ",
"                            .   .   . .                 . . . . . .   .   . . . .   . . $+#+X.X.X.X.#+$+. .     . . # .   # (.) "};
