/* XPM */
static char *exit[] = {
/* columns rows colors chars-per-pixel */
"64 64 248 2 ",
"   c #020506",
".  c #030709",
"X  c #040A0D",
"o  c #080C0E",
"O  c #040E12",
"+  c #090F11",
"@  c #051115",
"#  c #091215",
"$  c #05151A",
"%  c #0A161A",
"&  c #07191E",
"*  c #0A191D",
"=  c #101B1E",
"-  c #061B22",
";  c #061B24",
":  c #0A1D22",
">  c #101E23",
",  c #072027",
"<  c #0B2126",
"1  c #072129",
"2  c #0B242B",
"3  c #0D282E",
"4  c #13262A",
"5  c #122B2E",
"6  c #1C352E",
"7  c #072834",
"8  c #0C2C33",
"9  c #0B2E39",
"0  c #122D32",
"q  c #172D34",
"w  c #0E3037",
"e  c #0D333C",
"r  c #0F393E",
"t  c #143235",
"y  c #1C3637",
"u  c #11343B",
"i  c #143A3D",
"p  c #1C3D3C",
"a  c #1E403F",
"s  c #26463E",
"d  c #0C3541",
"f  c #0D3A45",
"g  c #09354B",
"h  c #0C3D4A",
"j  c #123642",
"k  c #123C43",
"l  c #163D45",
"z  c #093D52",
"x  c #0D414C",
"c  c #164246",
"v  c #1C4344",
"b  c #13434C",
"n  c #1A444A",
"m  c #1B494A",
"M  c #1B4A4C",
"N  c #0D4453",
"B  c #0E4955",
"V  c #0A445B",
"C  c #0D4B5C",
"Z  c #114652",
"A  c #124A55",
"S  c #1A4C52",
"D  c #124D5A",
"F  c #1B4A59",
"G  c #0F515E",
"H  c #135156",
"J  c #1C5256",
"K  c #14535C",
"L  c #1A555C",
"P  c #1E595D",
"I  c #224946",
"U  c #244A44",
"Y  c #29534A",
"T  c #28564E",
"R  c #30554D",
"E  c #235453",
"W  c #2D5D54",
"Q  c #265B59",
"!  c #335B55",
"~  c #2A635B",
"^  c #366559",
"/  c #3D725C",
"(  c #0C4C63",
")  c #154B63",
"_  c #0D5364",
"`  c #0E596B",
"'  c #125462",
"]  c #165965",
"[  c #1B5B63",
"{  c #135B6B",
"}  c #1A5B6B",
"|  c #0C5475",
" . c #0E5C74",
".. c #115D72",
"X. c #235D64",
"o. c #395F66",
"O. c #19636A",
"+. c #1C646C",
"@. c #0E6374",
"#. c #146273",
"$. c #1B6D74",
"%. c #13657C",
"&. c #186A78",
"*. c #1A7578",
"=. c #266767",
"-. c #2A6C6B",
";. c #356B66",
":. c #2D736D",
">. c #397669",
",. c #276C74",
"<. c #336879",
"1. c #287678",
"2. c #367B74",
"3. c #3B7E72",
"4. c #337979",
"5. c #496B56",
"6. c #467864",
"7. c #49736B",
"8. c #437A74",
"9. c #118276",
"0. c #2D817A",
"q. c #368479",
"w. c #46846B",
"e. c #55846D",
"r. c #498979",
"t. c #528678",
"y. c #46917B",
"u. c #559779",
"i. c #638E79",
"p. c #71A47A",
"a. c #0B5C87",
"s. c #146A85",
"d. c #187687",
"f. c #146D92",
"g. c #187896",
"h. c #247B87",
"j. c #377984",
"k. c #247998",
"l. c #117AA2",
"z. c #17858E",
"x. c #1A8698",
"c. c #28858B",
"v. c #398986",
"b. c #38978D",
"n. c #258B97",
"m. c #378B93",
"M. c #28929B",
"N. c #38989A",
"B. c #1988A3",
"V. c #1898B9",
"C. c #2E8FA7",
"Z. c #2898A6",
"A. c #2699B4",
"S. c #1DA3BE",
"D. c #2FADB3",
"F. c #38A4B8",
"G. c #438C85",
"H. c #488F83",
"J. c #548B84",
"K. c #499887",
"L. c #569886",
"P. c #418C98",
"I. c #489897",
"U. c #559997",
"Y. c #618A8D",
"T. c #689989",
"R. c #4DA48D",
"E. c #58A489",
"W. c #45A69A",
"Q. c #59A898",
"!. c #67AA99",
"~. c #75AB9A",
"^. c #6EB391",
"/. c #77B39B",
"(. c #4B99AC",
"). c #47A7A6",
"_. c #59ABA8",
"`. c #56B5A5",
"'. c #4CABB2",
"]. c #4AB8B8",
"[. c #58B7BA",
"{. c #68ADAD",
"}. c #65BAA5",
"|. c #75B7A9",
" X c #7BB7B9",
".X c #61C39F",
"XX c #50C2B5",
"oX c #5AC5B7",
"OX c #6ECEAC",
"+X c #77C5AA",
"@X c #67C8B9",
"#X c #78C7B6",
"$X c #1EACCB",
"%X c #2AAAC4",
"&X c #27B6C7",
"*X c #33BAC8",
"=X c #47BAC7",
"-X c #67B2C0",
";X c #1CC4CD",
":X c #2DC6D6",
">X c #2DD5EB",
",X c #49C5C8",
"<X c #56C5CA",
"1X c #58CDD3",
"2X c #45D7D9",
"3X c #65C7C3",
"4X c #6FD2D1",
"5X c #6EEFD5",
"6X c #75E2D7",
"7X c #4ED9E2",
"8X c #74D6E2",
"9X c #4FE4E4",
"0X c #67E7EF",
"qX c #74EDEA",
"wX c #8BB797",
"eX c #89BEB0",
"rX c #8DC99B",
"tX c #88C7A8",
"yX c #85C9B6",
"uX c #86D7BB",
"iX c #95D0B3",
"pX c #B3DBB7",
"aX c #9DE7BB",
"sX c #87CCC8",
"dX c #92D7CC",
"fX c #83D7DA",
"gX c #ACDAC8",
"hX c #91E6D8",
"jX c #A2ECD9",
"kX c #B7EBD6",
"lX c #92D8E0",
"zX c #87EAE9",
"xX c #96E7E7",
"cX c #90F1EE",
"vX c #96F3F2",
"bX c #ADF0EC",
"nX c #BCFCF4",
"mX c #BBFAF8",
"MX c #CDE7C4",
"NX c #D2E7E4",
"BX c #C8FDF9",
"VX c #D6FDFA",
"CX c #DCFEFD",
"ZX c #E5FDF5",
"AX c #E2FFFE",
"SX c #EDFFFE",
"DX c #F5FFFE",
"FX c #FBFFFF",
/* pixels */
".       . X X X X @ @ @ X X . . O O @ $ @ $ $ O O X . O O X X X X + % + X O O X O X X O O O O X . X X X X X X . .               ",
".     . X X O O O X X X . . X @ @ $ $ @ O O X O X X . X o O X o O O q * + $ + O O O O O O O O O O O X X O X X X .     .         ",
"    . X X @ O X O O X X . @ @ @ - $ @ @ X O . X o O + + @ $ $ * ; - - $ $ $ ; ; $ * $ O @ @ @ @ $ O O O X X X . X . . .         ",
". . . X X X @ @ X X X . @ @ $ $ @ @ X X . O O O $ ; ; 2 3 ; - * * * $ $ $ $ % $ O $ * $ ; $ @ ; $ @ $ @ O O @ O O X X . .       ",
". . X X @ O X X X X X @ & $ $ @ @ X X X @ & , < < 8 e 3 < % % # o o + + + + + o o X o + + + O 9 ; $ @ $ $ @ @ @ @ O X X . . .   ",
". X X X X @ @ X X X O : 0 @ O X X X # # : 2 3 v 2 < % % = * # # # # : % # + + + # + o X O + ; ) g ; @ @ $ @ @ @ @ $ O O X X . . ",
". X @ X @ O X X . O $ O O @ O O O # , 8 f e 3 5 % + + # % * $ $ * < < 2 : : * - - * $ % + + # j : o X O O O @ O @ @ @ X X X . . ",
"X X @ @ . O . X O $ $ 4 % O X @ & 2 e e 2 & # # # % > 0 4 3 0 k 9 0 < 8 j h 3 ; - ; - * $ * & : O o . o X O @ @ @ O @ X @ O @ X ",
"X O O O O X X $ - $ @ % + ; $ ; 7 e e % # # # : k M a R ! s s t 8 3 1 e a.Z.e e 9 8 2 ; - * - * & @ X X O O X O @ O O @ X O X X ",
"X O @ O X X @ $ - @ O X X d : 8 2 * # # % 3 0 c [ Y a e i u u 8 8 8 e { $X:X' z 9 u d 3 < * & & & & # @ X X X X @ @ @ O X O @ X ",
"O O O . . X @ $ @ O O O % #.) 9 : * # * y W / ^ u 3 2 3 e e 9 g d f h h ] z.7 d 8 9 8 9 e e e : & & , # # O o X X @ O @ @ X O X ",
"O O X X X O $ $ O X X $ h S.g.3 % + , Y ;.P Y w 9 e 8 w f b Z f d d 9 f h K 3 3 < : 1 7 7 8 e 8 * & * < % @ O X X O O @ X @ @ X ",
"O O X X X ; $ $ + # : #.;X>Xk.w : y 7.:.A l 9 8 8 r b b j f A C N h u H b b t 7 8 4 < : ; 3 j k i 2 2 0 & & # O X X O @ @ X @ O ",
"O X X X O ; @ O + 2 z %X>X>XA.] *.E.~.W 5 3 e 8 k Z k x L ,.] X.} ,.K ~ Z K D h u 8 u 0 : < : < e } 8 * & & & @ @ X X X O @ X O ",
"O . . O $ $ $ X O $ ; V a.k.) l >.w.M 9 3 3 8 k +.P E 2.:.b.v.t.b.:.~ ~ :.,.=.;.T 0 : e 5 : > : 2 ' k 2 % & - # * * X X @ @ @ @ ",
"O . X O $ $ @ O # 2 9 j j F n E ~ ^ m 2 - r K A =.h.b..X#XjXMXyX+X+X#X+Xt.3.e.t.G.:.S 8 8 < ; < : < 2 2 : & & & q * @ X . X @ @ ",
"X . X $ $ $ X + & f e & % k R 2.2.R 8 2 7 e H q.I.Q.}.uX).eX XD.D.3XdX+XtXL.b.r.T.G.[ Q 0 8 2 2 : = : 3 < 1 * * & $ @ O X O O O ",
"X . X $ $ X o $ 7 f 2 & % <.!.6.^ u 3 e A S q.].`.+X|.=.Q 8.J 1.,.:.q.1.v.v.3.!.~.T.;.Q.=.e h 2 : < * 9 8 7 : * $ % $ O X X O O ",
"X . $ $ $ O o ; 9 r < * < J.eXE.I 2 3 e =.1.Q.tXu.~ c N Z ;.v N d x h v K F { v.<.T.e.E./.N.x.A : : = * 7 3 3 - $ - $ @ O $ X O ",
". X 4 : $ @ + 7 e u < % 5 ;.U.E t , h S -.Q.^.q.O.C C _ ` 2.] _ H G Z d x b P P S -.^ R.rX|.Z.[ 2 2 : = - 2 8 : & * & % @ O X . ",
". X O - $ O - 7 h 7 % > 5 :.r.n 0 8 K 1.m.|.J.Z @.s.@.s.x.Q.d.f._ d N g N B f S k A N :.~.pXK.n 0 8 ; : : : h 7 - $ - $ $ O O X ",
". X $ ; $ O ; u B w * < a _.=.v e N D R.+Xr.K _ @.@. . .c.yX|.U.P.u.m.#.9 z N n f k x #.h.I. X;.h 2 2 4 : * 3 w l % % $ $ O O O ",
". X $ $ O $ ; j r - * 4 T wXT.i d F N.OXE.s.{ ` ` *.z.W.#XnXyXN.K.Q./.!.q.>.K _ f 9 e K @.'.4X}.=.j 9 8 * * : 8 u : < y O $ O O ",
". X - - + - 2 j c > > 5 ~ ).-.d e } v.|.!.s. . .g.Z.N.oXW.dX|.g.j.&.*.U.OX.XG.@.V e h c A z.0.2.q.S Z t < : * 3 2 : : ; O $ O O ",
". # - - # & 7 N k 2 > a 6.yXX.d h K b.+Xj.%. .a.z._._.A.].vXhXM.| d.*.j.L.y.L.0.O.x ] f G #.$.0.!.2.k f 8 2 = : 8 8 - & @ # @ O ",
". $ - - # - w k w : * e W !.:.n x #.v.|.g.s.s. .).XX*X*X6XbXzX*XV.B.f.d.M.r.pXu.0.C _ C h b ` *.u.}.[ B 3 : * : 8 9 2 # @ @ @ @ ",
"X @ ; $ % - d h r 2 0 5 ;.{.q.F B d.b.I.g.s.B.D.=X2X9XqXCXVXmX8X:X%Xg.z.| -.rXyXb.1...' x N V &.+.Q.Q G Z ; * % 1 h , * @ @ @ @ ",
". # ; ; # ; j u 8 0 5 3 ;.#XE l e @.`.).d.f.g.A.6XzXBXZXDXAXSXVXfXF.&Xz.( g ,.Q._.E.[ @.x N ` %.b :.r.L d 8 * % : k 9 % @ @ $ O ",
". O q 2 # ; g D e , 2 m w.|.Y d x *.[._.l.B.B.(.jXSXVXVXBXVXVXDXDXbX:X:XB.| ) c.W.b.0.$.C f N C A ~ wX7.e 2 - * : e e % # o & @ ",
"o O ; $ + g A.z.e 3 w c ;.dXY.8 C h.,XF.l.s.*X5XmXFXAXBXBXDXAXAXFXFXlX:X*Xg.a. .`./.G.-.C G L C %.A q.v.P c - % - 2 n 5 O X % @ ",
"X o ; ; + ; } { w 2 2 t R iXG.i } d.W.#X%XB.[.jXBXAXBXVXDXFXFXFXFXFXCXfX,XF.} S oXdXN.v._ x N G A f Q >.b f < % : : k < # X # $ ",
". % ; ; # * 1 D e e 2 6 5.gX/.6.3.K.tXkXxXdXjXkXVXSXCXDXFXFXFXFXFXDXAXBXhXuXrX^.aXZXrXK.y.0.^ m.0.A b q.Q 9 1 : * 0 e 3 % O O $ ",
". * , - # & , x f 8 8 y b 7.!.q.-.,.=XeX4X1X0XzXBXAXmXVXFXDXFXFXAXAXAXlXF.k.X.E j.kXT.6.1.$.+.] O.S f y.Q V 8 ; = : u e % + @ @ ",
"X & - - # # < A b t 8 8 h M R.W.+.V s. XgX=X$X7XvXCXBXmXSXFXFXSXmXCXmX4XA.s.a.( [ kXE.y.4._ { #.x h l r.;.d 7 ; % : j < % X @ $ ",
"X * 7 , & % - v l u w t e v y.OX4.V | d.[.1X8X8X7X0XmXCXAXFXFXBXBXBXxXzX=Xl.| ( 1.uX3.y.I.G _ ] B 9 a v.! 0 7 2 : : k 8 * + O O ",
"X @ , , & % 3 I i e e e e f E uXG.X.B s.'.@XlXlXqX9X8XmXBXCXDXnXnXSXlX3XC.B.z ( n.uXE.u.0.( B ] K 2 v G.;.2 ; % % : 0 j - X + O ",
"X # , 3 & % - R ^ x 8 t e w i R.`.c.s. .9.m.'.VXBXzXzXmXCXCXZXbXqXnXqX-Xk.| d z d.3XE.q.=.z.Z ' ' 1 y 8.:.0 2 = * - 5 8 * X X O ",
". @ < 7 , & & 3 T A v t f k M ~ b.<Xm._ @.( h.4XlXbXmXBXmXAXbXxXbXnX3X[.A.V g ( N.kXR.[ d.h. .N D 7 y y.E 9 ; % * * 4 d ; o X O ",
"O X * 8 1 - $ : U a f u e f i i =.,X(.<.) V #.g.A.=X=X7X9XBXmXvX6XxXxX'.h.g ( D `.sXb.K.,.$.+.{ e 3 E 8.! e 2 = % - 8 u * . X X ",
"O . % 3 d , & - 8 a N d e e t f M =.Q._.Q.X.&...s.l.;X:X5XbXBXxX8X3X].Z.| d z F OX!.).-.K { ' k r 7 E T.! 7 4 : % 2 : 3 % o . X ",
"O X @ & 2 2 - & 7 U I D h e i n H =.b.Z.Q.}.N.m.(.(.3X1XcXVXVXfXeX_.'.g.N C ( c.@XQ.v.H C ..K 8 w w E !.I 2 y > & : & < < X . . ",
"O X O $ 3 9 ; - - y Y 1.Z e e n e N c.c.q.K.W.-X'.P.'.4XsXNXbXhX=XZ.x.h g _ x.3X#XL.=.O.( k d e w H ;.W 0 : > ; % 2 < : & X . X ",
"@ O . @ * u , * $ 3 Q I.,.d 3 l e f $.&.0.`.[.W.Q.W.4XxX{.sXxXXXx.%.` ' N P Q.iXe.Q L H Z k u k A -.L.a ; 3 : % * < < : @ o . . ",
"$ O X O & u 8 , ; ; o.[.F.X.e d 3 e f H P =.m.M.n.Q.!.[.).|.j.' B N x N _ 1.`.H.~ >.J K ' u e d { 3.J.q 2 8 : * * 2 & < % o . . ",
"$ $ O O @ & n i 1 - : j.I.I.,.d 9 h e k [ =.#.%.#.q.H.v.$.y.P f x h ` ` v.sXv.r.~ S } +.D u 8 N x.8./ , 2 4 : * < : % $ % . . X ",
"O $ O O X X 4 u 8 8 2 k j.(.W.1.H K k l b G Z H M x A A ' 2.[ g ' $.D 2.~.E.T ! I } ..h 5 7 7 x.,X^ n 2 : % % % * - O q # . X O ",
"O $ @ O X . O < w d 9 2 7 A U >.r.[ 8 7 9 e N B N z N x h =.&.B P -.`.}.t.n I b S ,.' 0 8 3 C 9XvXP.i * : = % * = # @ : # . X X ",
"O @ $ % % O X # 3 d h h 2 : 8 i / Y.~ v.j.b K C ( ( N B C ;.=.G.!.yXQ.;.l u b Z +.K e A Z } D.vX0X%Xd.V w < % * % @ O $ O . . X ",
"@ O $ - $ O X X @ 1 8 A { f 7 e r ^ ^ p.`.K.I.8.m...#.d.J /.oX}.kX^.E K l 8 x } K w 2 e 8 K U.vX0X:Xf.q > % : > % O $ O O . . X ",
"O O O O O $ O O X # * 8 N Z h c r e S F E =.t.T.tXQ.yXoX}.aX+Xt.t.X.S g.} C &.J t 5 * * 2 J t.|.F.| 1 ; # # 5 = + $ $ O X . X . ",
"X X O @ % @ $ @ X O # * 5 h j k e f x k / i c Q r.2.8.6.K.p.L.X.b L j.2X&XC.{ j w 3 5 5 n 8.5.p | 1 ; = ; % % o O $ @ O X . . X ",
". X X O @ 5 % $ % # o o # : 9 h e N ,.n A K n k n E T I Q 6.[ ' K x.A.>X&XM i 0 2 : 4 ! i.5.6 3 j - $ - % > % X % $ $ O . . . X ",
"X X X X @ : $ $ % < % O o @ # : w f k { G } A w u Z x ` C K } A b #.F x.O.1 < < 2 0 s / R 4 * 7 d $ ; # # = + X 4 ; $ .   . X . ",
". . X . X O @ $ % : 2 * @ # # # # * : 7 7 e d A x e ..&.N D D h e f , n w < * < , U ~ a 6 : * < > % % + # + X O @ @ O . . X . . ",
"X . . X X O @ @ % & 2 3 2 , & o o + * & : : 2 9 9 1 w j 8 8 : : : * % * % : 3 c l ^ U & ; - - * - % O # # + X @ @ @ X X . . . X ",
"X X . X . X X O $ @ * 3 , < < @ @ # # # # % * * < < < * * % # # : * * < e w e ^ ;.E , * * - * % - O % # + X @ @ $ $ X . . . O . ",
". X X . . X X X X @ @ - - 2 9 3 * * @ % # # # # # % # # # # % * < < 3 3 M ^ / W y - y 3 - ; % + # @ O X O X O O @ X X . . . . . ",
". X O . . . . . X O O @ % - 3 x i l : e 3 < & * - , : * & : < t 8 0 w Y w.>.W 5 : ; : : * * + O O + X O X O $ O O X . . . . . . ",
". X X O O X @ X . . X O X % 0 1 e 0 < 1 e f e h f i f c Y ^ U s I >.I I a < & & - : - $ % + O + O X . O O O O O O . X X . . .   ",
". . . X X X X X X X X X X O % X # & ; - , 2 f 3 9 e x f c S w c t i 3 2 & & , - - % % + O X O O o X X O $ O O O X . X . .   . . ",
"    . X X @ X X X O X . . X X X X O ; * ; & ; - 1 - , 2 3 3 0 2 < , $ & $ & & & - $ $ + X O O X . X X O $ O O O . . .       .   ",
"        . . X X X X X X X X X X X X o O @ O $ $ @ % % & & * y - & - & & & @ & $ $ @ O X X O . . X O O O O O O . . . .   . .     ",
".       . . . X X X X X X O O X X X X . . X O O O O @ @ # O @ @ @ @ $ $ @ @ X O O X X X O . X X O O O O O O X . . . .           ",
".         . . . . X O O X O O X X @ X X . O @ O @ X X O o . X @ O X O X o X X . X X O X . X X O O $ O O O O . . . . .         . "
};
