/* XPM */
static char * sprite7_xpm[] = {
"68 64 130 2",
"  	c None",
". 	c #000000",
"+ 	c #1A1625",
"@ 	c #1C1729",
"# 	c #1E182C",
"$ 	c #20192F",
"% 	c #201930",
"& 	c #211930",
"* 	c #211931",
"= 	c #221A33",
"- 	c #231A34",
"; 	c #231A35",
"> 	c #241B37",
", 	c #251B38",
"' 	c #261B39",
") 	c #261B3A",
"! 	c #271C3B",
"~ 	c #281C3D",
"{ 	c #291C3E",
"] 	c #291D3F",
"^ 	c #2B1D41",
"/ 	c #2B1D42",
"( 	c #2D1E45",
"_ 	c #2D1F46",
": 	c #2E1F47",
"< 	c #2E1F48",
"[ 	c #2F1F49",
"} 	c #30204A",
"| 	c #30204B",
"1 	c #32204D",
"2 	c #32214E",
"3 	c #332150",
"4 	c #342252",
"5 	c #352253",
"6 	c #352254",
"7 	c #362255",
"8 	c #372356",
"9 	c #382358",
"0 	c #39245B",
"a 	c #3A245B",
"b 	c #3A245C",
"c 	c #3B245D",
"d 	c #3B255E",
"e 	c #3F2560",
"f 	c #412561",
"g 	c #492564",
"h 	c #4A2465",
"i 	c #4B2465",
"j 	c #4C2466",
"k 	c #4D2466",
"l 	c #4E2467",
"m 	c #502467",
"n 	c #512468",
"o 	c #552469",
"p 	c #5C246C",
"q 	c #5D246D",
"r 	c #5E246D",
"s 	c #60246E",
"t 	c #672371",
"u 	c #642470",
"v 	c #692372",
"w 	c #6D2374",
"x 	c #6F2375",
"y 	c #702375",
"z 	c #742377",
"A 	c #772378",
"B 	c #7A257C",
"C 	c #7B257D",
"D 	c #7C257E",
"E 	c #7D267F",
"F 	c #7E2781",
"G 	c #802883",
"H 	c #822985",
"I 	c #872C8C",
"J 	c #8B2E92",
"K 	c #8C2E93",
"L 	c #8D2F94",
"M 	c #8E2F95",
"N 	c #903097",
"O 	c #93329C",
"P 	c #96339F",
"Q 	c #9835A2",
"R 	c #9C36A6",
"S 	c #9E38A9",
"T 	c #A23AAE",
"U 	c #A43BB1",
"V 	c #A63CB3",
"W 	c #A73DB3",
"X 	c #B248AF",
"Y 	c #B54BAF",
"Z 	c #B84EAE",
"` 	c #BD53AD",
" .	c #BF55AC",
"..	c #AC42B1",
"+.	c #B147B0",
"@.	c #C056AC",
"#.	c #C55BAA",
"$.	c #CB61A9",
"%.	c #CC62A8",
"&.	c #CF65A8",
"*.	c #D167A7",
"=.	c #D269A6",
"-.	c #D76DA5",
";.	c #DF86B4",
">.	c #E18CB8",
",.	c #E290BA",
"'.	c #E393BC",
").	c #E497BE",
"!.	c #E59AC0",
"~.	c #E8A3C6",
"{.	c #E9A9C9",
"].	c #EAACCB",
"^.	c #EBAFCD",
"/.	c #ECB2CF",
"(.	c #EEB7D2",
"_.	c #F0BDD6",
":.	c #F0C0D8",
"<.	c #F1C3DA",
"[.	c #F5CFE1",
"}.	c #F6D1E2",
"|.	c #F6D4E4",
"1.	c #F8D9E7",
"2.	c #000000",
"3.	c #000000",
"4.	c #000000",
"5.	c #000000",
"6.	c #000000",
"7.	c #000000",
"8.	c #000000",
"9.	c #000000",
". . . . . . . . . . . . . . . . . . . . . . . . . . . . . . . . . . . . . . . . . . . . . . . . . . . . . . . . . . . . . . . . . . . . ",
". . . . . . . . . . . . . . . . . . . . . . . . . . . . . . . . . . . . . . . . . . . . . . . . . . . . . . . . . . . . . . . . . . . . ",
". . . . . . . . . . . . . . . . . . . . . . . . . . . . . . . . . . . . . . . . . . . . . . . . . . . . . . . . . . . . . . . . . . . . ",
". . . . . . . . . . . . . . . . . . . . . . . . . . . . . . . . . . . . . . . . . . . . . . . . . . . . . . . . . . . . . . . . . . . . ",
". . . . . . . . . . . . . . . . . . . . . . . . . . . . . . . . . . . . . . . . . . . . . . . . . . . . . . . . . . . . . . . . . . . . ",
". . . . . . . . . . . . . . . . . . . . . . . . . . . . . . . . . . . . . . . . . . . . . . . . . . . . . . . . . . . . . . . . . . . . ",
". . . . . . . . . . . . . . . . . . . . . . . + + + + + + + + + . . . . . . . . . . . . . . . . . . . . . . . . . . . . . . . . . . . . ",
". . . . . . . . . . . . . . . . . . . . + k o O O O O O O O O O y i 1 . . . . . . . . . . . . . . . . . . . . . . . . . . . . . . . . . ",
". . . . . . . . . . . . . . . . . . m E H P O O O O O O O O O O O O K E y . . . . . . . . . . . . . . . . . . . . . . . . . . . . . . . ",
". . . . . . . . . . . . . . . + ' L O O O O O O O O O O O O O O O O O O O y - . . . . . . . . . . . . . . . . . . . . . . . . . . . . . ",
". . . . . . . . . . . . . . + E P O O O O I M M M M M M M M M O O O O O O O O o . . . . . . . . . . . . . . . . . . . . . . . . . . . . ",
". . . . . . . . . . . . . v I O O O O H H H I I I I I I I I I J J J O O O O O N I ' . . . . . . . . . . . . . . . . . . . . . . . . . . ",
". . . . . . . . . . . . + G O O N K C I E F & . . . . . . . + E E F I M O O O O O N { . . . . . . . . . . . . . . . . . . . . . . . . . ",
". . . . . . . . . . . . F O O N E H z p . . . . . . . . . . . . . . p G I L O O O O G . . . . . . . . . . . . . . . . . . . . . . . . . ",
". . . . . . . . . . . H O O G E G { + . . . . . . . + + [ I H 9 o + . & 1 I I O O O O o . . . . . . . . . . . . . . . . . . . . . . . . ",
". . . . . . . . . + F O O H B x ^ . . . . . . & i o N M M J I M M J i @ . i I J O O O O @ . . . . . . . . . . . . . . . . . . . . . . . ",
". . . . . . . . . 1 P O G B i . . . . . . . + G N J s p m 7 ( m t J N F . . C I N O O O B . . . . . . . . . . . . . . . . . . . . . . . ",
". . . . . . . . - N O G B i . . . . . . . v I I m + . . . . . . . o 1 I H + + H I O O O L . . . . . . . . . . . . . . . . . . . . . . . ",
". . . . . . . . v N H B i . . . . . . . # G y . . . . . . . . . . . . v H F # & E M O O N 9 . . . . . . . . . . . . . . . . . . . . . . ",
". . . . . . . . B M B A . . . . . . . . z 1 . . . . . . . . . . . . . @ v S 1 . t o O O O B . . . . . . . . . . . . . . . . . . . . . . ",
". . . . . . . . { B z & . . . . . . . ( y . . . . . . . . . . . . . . . + L O + # ( O O O B . . . . . . . . . . . . . . . . . . . . . . ",
". . . . . . . . w C i . . . . . . . . o . . . . . . . . . . . . . . . . . E ..F + { F O O B . . . . . . . . . . . . . . . . . . . . . . ",
". . . . . . . i B w + . . . . . . . . . . . . . . . . . . . . . . . . . . G Y S . ; o O N 1 + & k . . . . . . . . . . . . . . . . . . . ",
". . . . . . + p B p . . . . . . . . . . . . . . . . . . @ 1 v m + @ & . y Y Y J . ; o O N f . - o . . . . . . . . . . . . . . . . . . . ",
". . . . . . & D B . . . . . . . . . . . . . . . . . > ~ o g 8 + + & o ' X O Y I . . o P u 7 . - o . . . . . . . . . . . . . . . . . . . ",
". . . . . . ^ D ( . . . . . . . . . . . . . . . . ^ ( { r > @ + + @ , & o X Y 1 . I N N ( . . - A - . . . . . . . . . . . . . . . . . . ",
". . . . . . A C { . . . . . . . . . . . . . . . % B r k 1 a + . ^ { p p @ s N . . J P p ; + # - o . . . . . . . . . . . . . . . . . . . ",
". . . . . . A C { . . . . . . . . . . . . . . + I Y L * I v . + 3   , 1 @ ; + . . J m 1 ; . . v o . . . . . . . . . . . . . . . . . . . ",
". . . . . . A o . . . . . . . . . . . . . . + H Y Y P } N p . + % + + + ) + . . u I ! ! % . & y - . . . . . . . . . . . . . . . . . . . ",
". . . . . . A o . . . . . . . . . . . . . . 8 Y Y X H g I + . . . . + . . . . . = ; ~ f + . v A i . . . . . . . . . . . . . . . . . . . ",
". . . . . . A o . . . . . . . . . . . . . . 5 Y Y Y S J J ; k o ^ . . . . . . + ) ' 8 w + 7 B I . . . . . . . . . . . . . . . . . . . . ",
". . . . . . A i . . . . . . . . . . . . . . w Y S Y Y Q O B o p ( . . . . . . > > 8 y 1 i E N B . . . . . . . . . . . . . . . . . . . . ",
". . . . . . 1 . . . . . . . . . . . . . . . X Y Y Y Y B O O I w + . . . . ( o p p w u + E N w . . . . . . . . . . . . . . . . . . . . . ",
". . . . . . . . . . . . . . . . . . . . . + X Y Y Y I . L O O B @ . . . ' w x x x y   D N F + . . . . . . . . . . . . . . . . . . . . . ",
". . . . . . . . . . . . . . . . . . . . . @ X Y Y X . . - I O O L p m m w A C E   H J M O B ( . . . . . . . . . . . . . . . . . . . . . ",
". . . . . . . . . . . . . . . . . . . . . @ X Y Y X . . . ' J O O N L M I I N N N M O O i . . . . . . . . . . . . . . . . . . . . . . . ",
". . . . . . # i . . . . . . . . . . . . . + ..L ..X . . . . . 9 I O O O O O O O O I . + . . . . . . . . . . . . . . . . . . . . . . . . ",
". . . . . . . . . . . . . . . . . . . . . . B K ..J . . . . . . . s t t O I t t v + . . . . . . . . . . . . . . . . . . . . . . . . . . ",
". . . . . . . . . . . . . . . . . . . . . . + J ..v 7 . . . . . . . . . ^ & . . . . . . . . . . . . . . . . . . . . . . . . . . . . . . ",
". . . . . . . . . . . . . . . . . . . . . . . i L S p - . . . . . . . . . . . . . . . . . . . . . . . . . . . . ' i . . . . . . . . . . ",
". . . . . . . . . . . . . . . . . . . . . . . m M J z i . . . . . . . . . . . . . . . . . . . . . . . . . . . . p N + . . . . . . . . . ",
". . . . . . . . . . . . . . . . . . . . . . . . z L L x + . . . . . . . . . . . . . . . . . . . . . . . . . . ( J 9 . . . . . . . . . . ",
". . . . . . . . . . . . . . . . . . . . . . . . . J L L o # . . . . . . . . . . . . . . . . . . . . . . . . 7 K w . . . . . . . . . . . ",
". . . . . . . . . . . . . . . . . . . . . . . . . J L L H o + . . . . . . . . . . . . . . . . . . . . . + F I I ' . . . . . . . . . . . ",
". . . . . . . . . . . . . . . . . . . . . . . . . ' I L L F t m . . . . . . . . . . . . . . . . . . + ^ I L I @ . . . . . . . . . . . . ",
". . . . . . . . . . . . . . . . . . . . . . . . . . ( I L L L F p 1 . . . . . . . . . . . . . . . p z N L I { . . . . . . . . . . . . . ",
". . . . . . . . . . . . . . . . . . . . . . . . . . . ' J L L L J I o o k . . . . . . . . . + ^ I J L K I & . . . . . . . . . . . . . . ",
". . . . . . . . . . . . . . . . . . . . . . . . . . . . ' E J M L L L L x x x x x x x x i v M L L M J i . . . . . . . . . . . . . . . . ",
". . . . . . . . . . . . . . . . . . . . . . . . . . . . . . i t N L L L M M M M M M M M M M L M B m 9 . . . . . . . . . . . . . . . . . ",
". . . . . . . . . . . . . . . . . . . . . . . . . . . . . . . . + H I J L L L L L L L L K I I - + . . . . . . . . . . . . . . . . . . . ",
". . . . . . . . . . . . . . . . . . . . . . . . . . . . . . . . . . . p y y y y y y y y v . . . . . . . . . . . . . . . . . . . . . . . ",
". . . . . . . . . . . . . . . . . . . . . . . . . . . . . . . . . . . . . . . . . . . . . . . . . . . . . . . . . . . . . . . . . . . . ",
". . . . . . . . . . . . . . . . . . . . . . . . . . . . . . . . . . . . . . . . . . . . . . . . . . . . . . . . . . . . . . . . . . . . ",
". . . . . . . . . . . . . . . . . . . . . . . . . . . . . . . . . . . . . . . . . . . . . . . . . . . . . . . . . . . . . . . . . . . . ",
". . . . . . . . . . . . . . . . . . . . . . . . . . . . . . . . . . . . . . . . . . . . . . . . . . . . . . . . . . . . . . . . . . . . ",
". . . . . . . . . . . . . . . . . . . . . . . . . . . . . . . . . . . . . . . . . . . . . . . . . . . . . . . . . . . . . . . . . . . . ",
". . . . . . . . . . . . . . . . . . . . . . . . . . . . . . . . . . . . . . . . . . . . . . . . . . . . . . . . . . . . . . . . . . . . ",
". . . . . . . . . . . . . . . . . . . . . . . . . . . . . . . . . . . . . . . . . . . . . . . . . . . . . . . . . . . . . . . . . . . . ",
". . . . . . . . . . . . . . . . . . . . . . . . . . . . . . . . . . . . . . . . . . . . . . . . . . . . . . . . . . . . . . . . . . . . ",
". . . . . . . . . . . . . . . . . . . . . . . . . . . . . . . . . . . . . . . . . . . . . . . . . . . . . . . . . . . . . . . . . . . . ",
". . . . . . . . . . . . . . . . . . . . . . . . . . . . . . . . . . . . . . . . . . . . . . . . . . . . . . . . . . . . . . . . . . . . ",
". . . . . . . . . . . . . . . . . . . . . . . . . . . . . . . . . . . . . . . . . . . . . . . . . . . . . . . . . . . . . . . . . . . . ",
". . . . . . . . . . . . . . . . . . . . . . . . . . . . . . . . . . . . . . . . . . . . . . . . . . . . . . . . . . . . . . . . . . . . ",
". . . . . . . . . . . . . . . . . . . . . . . . . . . . . . . . . . . . . . . . . . . . . . . . . . . . . . . . . . . . . . . . . . . . "};
