/* XPM */
static char * sprite16_xpm[] = {
"80 64 130 2",
"  	c None",
". 	c #000000",
"+ 	c #1A1625",
"@ 	c #1C1729",
"# 	c #1E182C",
"$ 	c #20192F",
"% 	c #201930",
"& 	c #211930",
"* 	c #211931",
"= 	c #221A33",
"- 	c #231A34",
"; 	c #231A35",
"> 	c #241B37",
", 	c #251B38",
"' 	c #261B39",
") 	c #261B3A",
"! 	c #271C3B",
"~ 	c #281C3D",
"{ 	c #291C3E",
"] 	c #291D3F",
"^ 	c #2B1D41",
"/ 	c #2B1D42",
"( 	c #2D1E45",
"_ 	c #2D1F46",
": 	c #2E1F47",
"< 	c #2E1F48",
"[ 	c #2F1F49",
"} 	c #30204A",
"| 	c #30204B",
"1 	c #32204D",
"2 	c #32214E",
"3 	c #332150",
"4 	c #342252",
"5 	c #352253",
"6 	c #352254",
"7 	c #362255",
"8 	c #372356",
"9 	c #382358",
"0 	c #39245B",
"a 	c #3A245B",
"b 	c #3A245C",
"c 	c #3B245D",
"d 	c #3B255E",
"e 	c #3F2560",
"f 	c #412561",
"g 	c #492564",
"h 	c #4A2465",
"i 	c #4B2465",
"j 	c #4C2466",
"k 	c #4D2466",
"l 	c #4E2467",
"m 	c #502467",
"n 	c #512468",
"o 	c #552469",
"p 	c #5C246C",
"q 	c #5D246D",
"r 	c #5E246D",
"s 	c #60246E",
"t 	c #672371",
"u 	c #642470",
"v 	c #692372",
"w 	c #6D2374",
"x 	c #6F2375",
"y 	c #702375",
"z 	c #742377",
"A 	c #772378",
"B 	c #7A257C",
"C 	c #7B257D",
"D 	c #7C257E",
"E 	c #7D267F",
"F 	c #7E2781",
"G 	c #802883",
"H 	c #822985",
"I 	c #872C8C",
"J 	c #8B2E92",
"K 	c #8C2E93",
"L 	c #8D2F94",
"M 	c #8E2F95",
"N 	c #903097",
"O 	c #93329C",
"P 	c #96339F",
"Q 	c #9835A2",
"R 	c #9C36A6",
"S 	c #9E38A9",
"T 	c #A23AAE",
"U 	c #A43BB1",
"V 	c #A63CB3",
"W 	c #A73DB3",
"X 	c #B248AF",
"Y 	c #B54BAF",
"Z 	c #B84EAE",
"` 	c #BD53AD",
" .	c #BF55AC",
"..	c #AC42B1",
"+.	c #B147B0",
"@.	c #C056AC",
"#.	c #C55BAA",
"$.	c #CB61A9",
"%.	c #CC62A8",
"&.	c #CF65A8",
"*.	c #D167A7",
"=.	c #D269A6",
"-.	c #D76DA5",
";.	c #DF86B4",
">.	c #E18CB8",
",.	c #E290BA",
"'.	c #E393BC",
").	c #E497BE",
"!.	c #E59AC0",
"~.	c #E8A3C6",
"{.	c #E9A9C9",
"].	c #EAACCB",
"^.	c #EBAFCD",
"/.	c #ECB2CF",
"(.	c #EEB7D2",
"_.	c #F0BDD6",
":.	c #F0C0D8",
"<.	c #F1C3DA",
"[.	c #F5CFE1",
"}.	c #F6D1E2",
"|.	c #F6D4E4",
"1.	c #F8D9E7",
"2.	c #000000",
"3.	c #000000",
"4.	c #000000",
"5.	c #000000",
"6.	c #000000",
"7.	c #000000",
"8.	c #000000",
"9.	c #000000",
". . . . . . . . . . . . . . . . . . . . . . . . . . . . . . . . . . . . . . . . . . . . . . . . . . . . . . . . . . . . . . . . . . . . . . . . . . . . . . . . ",
". . . . . . . . . . . . . . . . . . . . . . . . . . . . . . . . . . . . . . . . . . . . . . . . . . . . . . . . . . . . . . . . . . . . . . . . . . . . . . . . ",
". . . . . . . . . . . . . . . . . . . . . . . . . . . . . . . . . . . . . . . . . . . . . . . . . . . . . . . . . . . . . . . . . . . . . . . . . . . . . . . . ",
". . . . . . . . . . . . . . . . . . . . . . . . . . . . . . . . . . . . . . . . . . . . . . . . . . . . . . . . . . . . . . . . . . . . . . . . . . . . . . . . ",
". . . . . . . . . . . . . . . . . . . . . . . . . . . . . . . . . . . . . . . . . . . . . . . . . . . . . . . . . . . . . . . . . . . . . . . . . . . . . . . . ",
". . . . . . . . . . . . . . . . . . . . . . . . . . . . . . . . . . . . . . . . . . . . . . . . . . . . . . . . . . . . . . . . . . . . . . . . . . . . . . . . ",
". . . . . . . . . . . . . . . . . . . . . . . . . . . . . . . . . . . . . . . . . . . . . . . . . . . . . . . . . . . . . . . . . . . . . . . . . . . . . . . . ",
". . . . . . . . . . . . . . . . . . . . . . . . . . . . . . . . . . . . . . . . . . . . . . . . . . . . . . . . . . . . . . . . . . . . . . . . . . . . . . . . ",
". . . . . . . . . . . . . . . . . . . . . . . . . . . . . . . . . . . . . . . . . . . . . . . . . . . . . . . . . . . . . . . . . . . . . . . . . . . . . . . . ",
". . . . . . . . . . . . . . . . . . . . . . . . . . . . . . . . . . . i i { . . . . . . . . . . . . . . . . . . . . . . . . . . . . . . . . . . . . . . . . . . ",
". . . . . . . . . . . . . . . . . . . . . . . . . . . . . . . . . . + C E y r r . . . . . . . . . . . . . . . . . . . . . . . . . . . . . . . . . . . . . . . . ",
". . . . . . . . . . . . . . . . . . . . . . . . . . . . . . . . . . . { ' p D C y y i . . . . . . . . . . . . . . . . . . . . . . . . . . . . . . . . . . . . . ",
". . . . . . . . . . . . . . . . . . . . . . . . . . . . . . . . . . . . . . + @ z D B B ^ + . . . . . . . . . . . . . . . . . . . . . . . . . . . . . . . . . . ",
". . . . . . . . . . . . . . . . . . . . . . . . . . . . . . . . . . . . . . . . @ v z E D A ' . . . . . . . . . . . . . . . . . . . . . . . . . . . . . . . . . ",
". . . . . . . . . . . . . . . . . . . . . . . . . . . . . . . . . . . . . . . . . . [ p B D z m & . . . . . . . . . . . . . . . . . . . . . . . . . . . . . . . ",
". . . . . . . . . . . . . . . . . . . . . . . . . . . . . . . . . . . . . . . . . . . . 1 C D E w + . . . . . . . . . . . . . . . . . . . . . . . . . . . . . . ",
". . . . . . . . . . . . . . . . . . . . . . . . . . . . . . . . . . . . . . . . . . . . . 1 D D D y + . . . . . . . . . . . . . . . . . . . . . . . . . . . . . ",
". . . . . . . . . . . . . . . . . . . . . . . . . . . . . . . + 1 + } 1 ^ - ( . . . . . . & A D D B & . . . . . . . . . . . . . . . . . . . . . . . . . . . . . ",
". . . . . . . . . . . . . . . . . . . . . . . . . . . . . . u L =.I %.=.#.Z  .B i . . . . . 1 E D D A { . . . . . . . . . . . . . . . . . . . . . . . . . . . . ",
". . . . . . . . . . . . . . . . . . . . . . . . . . . . A L =.=.=.=.=.%. .=.=.=.Z w i . . . - w E D D t . . . . . . . . . . . . . . . . . . . . . . . . . . . . ",
". . . . . . . . . . . . . . . . . . . . . . . . . . o  .%.=.=.*.&.&.&.#.f  .Q %.*.` O 7 . . . - y D D t . . . . . . . . . . . . . . . . . . . . . . . . . . . . ",
". . . . . . . . . . . . . . . . . . . . . . . . . g %.=.=.=.%.Z 5 g g 1 . ^ ' o s L Z O N + . . @ z D B i . . . . . . . . . . . . . . . . . . . . . . . . . . . ",
". . . . . . . . . . . . . . . . . . . . . . . . g %.=.&.#.#. .+ . . . . . . . . . + w Q Q 1 . . . v D E o . . . . . . . . . . . . . . . . . . . . . . . . . . . ",
". . . . . . . . . . . . . . . . . . . . . . . . %.=.=.#.o . . . . . . . . . . . . . . I R P 9 . . . B E o . . . . . . . . . . . . . . . . . . . . . . . . . . . ",
". . . . . . . . . . . . . . . . . . . . . . . A %.=.#.p . . . . . . . . . . . . . . . u Q R I . ) [ B D v - . . . . . . . . . . . . . . . . . . . . . . . . . . ",
". . . . . . . . . . . . . . . . . . . . . . A %.=.#.o . . . . . . . . . . . . . . . . + O R I . @ v D D E 1 . . . . . . . . . . . . . . . + L . . . . . . . . . ",
". . . . . . . . . . . . . . . . . . . . . . L =.%.g . . . . . . . . . . . . . . . . . . O R I . . g C D E 1 . . . . . . . . . . . . . . . + X . . . . . . . . . ",
". . . . . . . . . . . . . . . . . . . . . y =.*.#.+ . . . . . . . . . . . . . . . . . ' O R I . . e B D E 1 . . . . . . . . . . . . . . . + Q . . . . . . . . . ",
". . . . . . . . . . . . . . . . . . . . . y =.&.1 . . . . . . . . . . + ) = @ + + 1 ( M   R M ( i h B D D 1 . . . . . . . . . . . . . . . . . . . . . . . . . . ",
". . . . . . . . . . . . . . . . . . . . . y *.%.8 . . . . . . . . . B ^ % i 1 + @ i z S R R R I R q B H P m . . . . . . . . . . . . . . . . . . . . . . . . . . ",
". . . . . . . . . . . . . . . . . . . . . y *.I + . . . . . . . . F S ( f t # . . . B R R R S V O z C J V p . . . . . . . . . . . . . . . . ( I . . . . . . . . ",
". . . . . . . . . . . . . . . . . . . . . # P y . . . . . . . . y T U H 3 + . . . . t p 1 m T V G D D K I @ . . . . . . . . . . . . . . . + #.Z . . . . . . . . ",
". . . . . . . . . . . . . . . . . . . . . y %.s . . . . . . . . C T U   4 + . . + ^ x i + ! x   U I I U G . . . . . . . . . . . . . . . . @ $.Z . . . . . . . . ",
". . . . . . . . . . . . . . . . . . . . . z  .^ . . . 1 p p . - J J P   s . . . { M H [ * 0 u   U U U U H . . . . . . . . . . . . . . . . @ $.Z . . . . . . . . ",
". . . . . . . . . . . . . . . . . . . . . 1  .y . . . z S R C I T J u F u . . . + r 1 . + 9 /   U U U Q m . . . . . . . . . . . . . . . . + $.Z . . . . . . . . ",
". . . . . . . . . . . . . . . . . . . . . . 1 ^ . . i O R R R R O G i + . . . . . . . . . ; + F U U U N + . . . . . . . . . . . . . . . . Q %. .. . . . . . . . ",
". . . . . . . . . . . . . . . . . . . . . . . . . . p R R R R R L D m + + . . . . . . . . + + G U U Q ( . . . . . . . . . . . . . . . . . #.%. .. . . . . . . . ",
". . . . . . . . . . . . . . . . . . . . . . . . . ( R R R R R R N E B u B . . . . . . . + ) ; G U Q ^ . . . . . . . . . . . . . . . . . . #.%.N . . . . . . . . ",
". . . . . . . . . . . . . . . . . . . . . . . . . ( R R R R I S N F D y p ( o @ + + . + $ ! , u J 3 . . . . . . . . . . . . . . . . . . s #.%.. . . . . . . . . ",
". . . . . . . . . . . . . . . . . . . . . . . . . ( R R R Q - v 7 1 A p 9 1 s ' + + + $ ! ! ~ , + + . . . . . . . . . . . . . . . . . . Z $.%.. . . . . . . . . ",
". . . . . . . . . . . . . . . . . . . . . . . . . ( R R R Q + . . . z E t . . . + # > ) ! > + + . . . . . . . . . . . . . . . . . . . B #.*.%.. . . . . . . . . ",
". . . . . . . . . . . . . . . . . . . . . . . . . ( R R R Q + . . . # A C o . . . . . . . . . . . . . . . . . . . . . . . . . . . . . L $.*.=.Z . . . . . . . . ",
". . . . . . . . . . . . . . . . . . . . . . . . . ( R R R Q g . . . . & y A m ^ ' . . . . . . . . . . . . . . . . . . . . . . . . . w $.*.=.=. .. . . . . . . . ",
". . . . . . . . . . . . . . . . . . . . . . . . . ( R R R R G . . . . . . 1 s s A i { [ + . . . . . . . . . . . . . . . . . . . . @ N %.*.=.=. .. . . . . . . . ",
". . . . . . . . . . . . . . . . . . . . . . . . . ( R R R Q 5 . . . . . . . . . i i o A - . . . . . . . . . . . . . . . . . . . + Q $.&.=.=.%.v . . . . . . . . ",
". . . . . . . . . . . . . . . . . . . . . . . . . ( R R R Q 8 . . . . . . . . . . . # ^ . . . . . . . . . . . . . . . . . . . . & $.%.*.=.=.%.. . . . . . . . . ",
". . . . . . . . . . . . . . . . . . . . . . . . . . r R R R N ) . . . . . . . . . . . . . . . . . . . . . . . . . . . . . . . &  .%.=.=.=.%.} . . . . . . . . . ",
". . . . . . . . . . . . . . . . . . . . . . . . . . o S R R O . . . . . . . . . . . . . . . . . . . . . . . . . . . . . . . ^  .%.=.=.=.=.g . . . . . . . . . . ",
". . . . . . . . . . . . . . . . . . . . . . . . . . 1 M R R O . . . . . . . . . . . . . . . . . . . . . . . . . . . . . . } Z &.=.=.=.=. .^ . . . . . . . . . . ",
". . . . . . . . . . . . . . . . . . . . . . . . . . . z R R Q v . . . . . . . . . . . . . . . . . . . . . . . . . . . . N Z &.*.=.=.=. .( . . . . . . . . . . . ",
". . . . . . . . . . . . . . . . . . . . . . . . . . . - J R R Q t 1 1 . . . . . . . . . . . . . . . . . . . . . . . . Z $.%.*.=.=.=.#.{ . . . . . . . . . . . . ",
". . . . . . . . . . . . . . . . . . . . . . . . . . . . + L R R Z   u 8 ( . . . . . . . . . . . . . . . . . . + ^ I #.$.%.=.=.=.=.#.@ . . . . . . . . . . . . . ",
". . . . . . . . . . . . . . . . . . . . . . . . . . . . . + J R Z *.*.H y p v ' o . . . . . . . . . . . . g s A $.$.%.%.=.=.=.=.#.+ . . . . . . . . . . . . . . ",
". . . . . . . . . . . . . . . . . . . . . . . . . . . . . . # I R #.=.=.%. . .N #.g p . . . . . . . . 1 H  .$.$.%.&.*.=.=.=.=. .' . . . . . . . . . . . . . . . ",
". . . . . . . . . . . . . . . . . . . . . . . . . . . . . . . ' I X &.=.=.=.#.%.I H #.Q Q Q Q Q Q Q Q  .$.$.$.&.*.=.=.=.=.=. .^ . . . . . . . . . . . . . . . . ",
". . . . . . . . . . . . . . . . . . . . . . . . . . . . . . . . ' 1 R *.*.=.=.=.%.%.Z B #.$.$.$.$.$.$.%.*.*.*.=.=.=.=.=.=.#.' . . . . . . . . . . . . . . . . . ",
". . . . . . . . . . . . . . . . . . . . . . . . . . . . . . . . . . J Q X *.=.=.=.=.*.&.*.=.=.=.=.=.=.=.=.=.=.=.=.=.%.%.^ @ . . . . . . . . . . . . . . . . . . ",
". . . . . . . . . . . . . . . . . . . . . . . . . . . . . . . . . . . { I X #.*.=.=.=.=.=.=.=.=.=.=.=.=.=.=.=.=.%.#.p . . . . . . . . . . . . . . . . . . . . . ",
". . . . . . . . . . . . . . . . . . . . . . . . . . . . . . . . . . . . . m ( I `  .=.=.=.=.=.=.=.=.=.=.=.=.Z N B . . . . . . . . . . . . . . . . . . . . . . . ",
". . . . . . . . . . . . . . . . . . . . . . . . . . . . . . . . . . . . . . . . k ^ A A A A A A #.=.B A A A + . . . . . . . . . . . . . . . . . . . . . . . . . ",
". . . . . . . . . . . . . . . . . . . . . . . . . . . . . . . . . . . . . . . . . . . . . . . . 1 g . . . . . . . . . . . . . . . . . . . . . . . . . . . . . . ",
". . . . . . . . . . . . . . . . . . . . . . . . . . . . . . . . . . . . . . . . . . . . . . . . . . . . . . . . . . . . . . . . . . . . . . . . . . . . . . . . ",
". . . . . . . . . . . . . . . . . . . . . . . . . . . . . . . . . . . . . . . . . . . . . . . . . . . . . . . . . . . . . . . . . . . . . . . . . . . . . . . . ",
". . . . . . . . . . . . . . . . . . . . . . . . . . . . . . . . . . . . . . . . . . . . . . . . . . . . . . . . . . . . . . . . . . . . . . . . . . . . . . .   "};
