/* XPM */
static char *sprite3[] = {
/* columns rows colors chars-per-pixel */
"64 60 219 2 ",
"   c #000000",
".  c #06050A",
"X  c #0A050C",
"o  c #0A080E",
"O  c #06080B",
"+  c #0D0611",
"@  c #0D0A14",
"#  c #0E0B1A",
"$  c #130615",
"%  c #140B14",
"&  c #190C15",
"*  c #160619",
"=  c #120C1A",
"-  c #1C0B1B",
";  c #1D071E",
":  c #14111D",
">  c #1C1019",
",  c #12090E",
"<  c #220E1E",
"1  c #24121F",
"2  c #150D22",
"3  c #1B0C23",
"4  c #1E0C29",
"5  c #171322",
"6  c #1A1425",
"7  c #1C1729",
"8  c #1E182C",
"9  c #1E1231",
"0  c #1F1833",
"q  c #230D2B",
"w  c #250D29",
"e  c #23192F",
"r  c #28142B",
"t  c #31152C",
"y  c #2E0E32",
"u  c #320F32",
"i  c #231431",
"p  c #2E1334",
"a  c #221934",
"s  c #261B39",
"d  c #291C3D",
"f  c #2B1B35",
"g  c #341335",
"h  c #3C1D31",
"j  c #36133A",
"k  c #3B123E",
"l  c #341E36",
"z  c #34203F",
"x  c #4A2D3C",
"c  c #2C1D44",
"v  c #2F1F48",
"b  c #3D1441",
"n  c #311D43",
"m  c #3B1C44",
"M  c #341F4C",
"N  c #3D1D4B",
"B  c #311742",
"V  c #391F50",
"C  c #2F204A",
"Z  c #33214D",
"A  c #39224C",
"S  c #3C2743",
"D  c #342252",
"F  c #3B2154",
"G  c #3C245B",
"H  c #421B46",
"J  c #441B4A",
"K  c #4B1C4C",
"L  c #49174D",
"P  c #4C1A52",
"I  c #4E1F58",
"U  c #531C56",
"Y  c #581E5E",
"T  c #41204D",
"R  c #492748",
"E  c #552A4D",
"W  c #4C2355",
"Q  c #44235C",
"!  c #472856",
"~  c #53245B",
"^  c #572859",
"/  c #52305B",
"(  c #612C58",
")  c #6E375A",
"_  c #5F1D62",
"`  c #651F66",
"'  c #442562",
"]  c #492564",
"[  c #522465",
"{  c #5B2768",
"}  c #5D3569",
"|  c #5C3667",
" . c #622463",
".. c #642C65",
"X. c #64246E",
"o. c #6D2B6A",
"O. c #783866",
"+. c #662A75",
"@. c #6F2C74",
"#. c #662B7A",
"$. c #6A2C7B",
"%. c #682773",
"&. c #722B7E",
"*. c #7A2A79",
"=. c #683A74",
"-. c #7B3879",
";. c #6D2F69",
":. c #70435A",
">. c #76466F",
",. c #843C7D",
"<. c #833578",
"1. c #85436D",
"2. c #87516D",
"3. c #874875",
"4. c #914A78",
"5. c #96557C",
"6. c #92667C",
"7. c #6E2D81",
"8. c #742D83",
"9. c #7D2E8B",
"0. c #7A2F87",
"q. c #7E318C",
"w. c #6F3383",
"e. c #832D8A",
"r. c #852C86",
"t. c #8A328D",
"y. c #823289",
"u. c #903F8E",
"i. c #8C3393",
"p. c #893395",
"a. c #923396",
"s. c #93349A",
"d. c #98389E",
"f. c #8A2E91",
"g. c #9B36A4",
"h. c #9C39A3",
"j. c #9C38A8",
"k. c #A33CAB",
"l. c #A138A8",
"z. c #A93FB1",
"x. c #8D4684",
"c. c #974A88",
"v. c #8B5288",
"b. c #975684",
"n. c #9A4A93",
"m. c #9A5590",
"M. c #A4479B",
"N. c #AA5896",
"B. c #B65B99",
"V. c #A3528E",
"C. c #9C628B",
"Z. c #9F6097",
"A. c #A86497",
"S. c #B66599",
"D. c #BB749B",
"F. c #A2678E",
"G. c #A941AE",
"H. c #A545A4",
"J. c #AB52A2",
"K. c #BB5FA9",
"L. c #B755A8",
"P. c #AD42B2",
"I. c #B144B6",
"U. c #B747B9",
"Y. c #BA52AB",
"T. c #AD61A1",
"R. c #BC62A4",
"E. c #BB6CA5",
"W. c #BA77A7",
"Q. c #C4649A",
"!. c #C35AA1",
"~. c #C057A0",
"^. c #C454B6",
"/. c #C362A4",
"(. c #C56AA4",
"). c #C16BAB",
"_. c #CC6CAB",
"`. c #CB66AA",
"'. c #D46BA9",
"]. c #C570AB",
"[. c #C977A8",
"{. c #D573AB",
"}. c #D67AAE",
"|. c #CC64B3",
" X c #CB6CB4",
".X c #CA74B1",
"XX c #DD74B3",
"oX c #D37AB6",
"OX c #DB7CB2",
"+X c #DC7EBA",
"@X c #D573B7",
"#X c #D66FB6",
"$X c #E17CB4",
"%X c #B381A8",
"&X c #C987B3",
"*X c #DC82B4",
"=X c #DD8AB6",
"-X c #D888B8",
";X c #DD92BD",
":X c #D696BB",
">X c #CD91B6",
",X c #E184B5",
"<X c #E18BB7",
"1X c #E38DBA",
"2X c #E488BA",
"3X c #E493BC",
"4X c #E996BE",
"5X c #DE9AC2",
"6X c #D78EC0",
"7X c #E08FC0",
"8X c #E59CC3",
"9X c #E99EC3",
"0X c #E695C1",
"qX c #DFA0C4",
"wX c #E9A4C6",
"eX c #E9A6C8",
"rX c #ECAACB",
"tX c #E7A3C6",
"yX c None",
/* pixels */
"                                                                                                                                ",
"                                                                                                                                ",
"                                                                                                                                ",
"                                                                                                                                ",
"                                                                                                                                ",
"                                                                                                                                ",
"                                              * k k k b k k j                                                                   ",
"                                    # 3 L ( :.4.K.K.K.H.l.l.h.~ U J @ X                                                         ",
"                                = J b.C. X-X0X4X3X4X3X*XY.Y.I.I.P.k.$.~ w                                                       ",
"                              ;.c.(.3X8X3X0X0X0X.XJ.J.J.k.M.a.t.k.P.I.h.0.p                                                     ",
"                          U 5.*X<X3X3X3X-XL..X1X_.!.~.~.L.*.m q [ k.P.P.P.r.j O                                                 ",
"                        L ).3X3X3X<X*X'.OX!.'.N.=.| } } } Q v N d p 8.l.P.G.d.X.3                                               ",
"                      U ).3X3X=X{.{.OX`.M.R z - + X + O + @ + a 6   $ g i.P.I.z.$.3                                             ",
"                  . U ).3X3X|.*X*X_.-.W % .           .       O .     . y t.G.I.k.#.-                                           ",
"                . L E.3X3X{.'.*XQ.o.X O         . $ X U *.{ { A c         u i.G.P.P.W O                                         ",
"              X U ).3X3X1X*X}.V.& .         o & ) /.B.-X5XqX8XR.} X 5 =     u i.P.P.t.;                                         ",
"            . ( oX3X3X3X,XS. .o         X p N.;X;X:XyXyXy.yXyX>X>X! X       . g a.I.k.b .                                       ",
"            g K.3X3X1X*XB.l .         6 | m.9X>XS./ 5 : 5 5 8 Z yXS...        = $.z.I.a.;                                       ",
"          & 1.*X3X1X*XB.1           - v.tX;XS...@ + O       = : a F O.          j s.P.d.p                                       ",
"          R ,X3X3X2X`.R           . / 3X=Xx.4                   : s + O         # $.z.z.#.+                                     ",
"        > 5.4X3X1X,X,.*           p m.*X,.3                       : s 8 O         Y z.P.&.$                                     ",
"        z $X3X3X1Xm.<           X n.3XN.q                           s C 6 O       P k.P.8.+                                     ",
"        h $X3X<X(.h             R OX.X^                           : F Z 8 5 O     - y.I.&.q E X                                 ",
"        < 2.3X3Xm.q           . r.*X| +             o : @ @     @ 0 G D d s 5       @.I.*.N N.$                                 ",
"          x 2X,X3.#           X t.[.a           # 9 n F [ N 5 : C C ' F C [ W +     @.I.&.F N.,                                 ",
"          x 1X`.P .           X y.Q.a         = V ' ' 8.f.V @ + e C ' D d ] A 0 I @.d.P.&.F E.( .                               ",
"        t S.2XO.X             . A R o       # M ] ] [ s.a.l .   O @ C G ' [ X.y.k.P.I.l.+.N.(.t                                 ",
"        h $X$X)               . X.Y       X a ' ] ' 9.k.G.Q .     : d ' Q i P P.P.P.a.j $ D.}.~ .                               ",
"        h XXS.p               X *._       @ D ] [ 9.j.j.i.{ B . : 7 c v c { s.P.P.P.~ .   D.1Xy..                   b _ $       ",
"        h XX2..                 3 X       3 ] A V p.e.I %.[ #       . X a 7.I.z.s.W @ . 3.=X1X*..                 . P *.;       ",
"        h XX2.                            3 F a n 9.e.Q G M d .       X v 7.k.j.&.3   S B.2X(.&                     U r.;       ",
"        h #X:.                            = a 8 c #.g.#.Q Q V .     . . V g.j.7.q   f B.,X1X..X                   2 c.<.$       ",
"        t ,.i                           O 8 7 s D { h.9.A a 7           T j.9.i X $ 5.1X1X[.>                     m M.g         ",
"                                        O : 7 s D C 8.P.e.f 5 O + @ + o f ` L # H u.!.1X(.l .                     O.^.t         ",
"                                          # 7 s D D $.k.k.yXa : 7 c s 5 . . > E V.,X3X2X<.o                     - 4.$XE X       ",
"                                        O 7 7 s D D G #.h.P.$.w 3 a 0 0 Z >.b.#XOX,X2Xb.r                     O ;.@X1XM.;       ",
"                                        o 7 7 8 v D C 6 J 9.P.i.p.w.0.>.A.8X2XoX@XN.O.-                       q n.7X1Xx.*       ",
"                                          # : 7 c D 5 .   q $.a.U.U.^.|.@X XT.v.^ i O                       X  ._.0X$XE .       ",
"                                            + 7 a c 5 .     @ p K T K K K H y 2 .                         @ ^ R.1X2X1.&         ",
"                                              = 7 d c .                       .                           g K.1X9Xb.-           ",
"                                              O : 8 c s .                                               * -.*XeX.X~ O           ",
"                                                . = s D s .                                           $ *._.8X4XN.p             ",
"                                                  O : d M s 5                                       $ <.(.4X8XR.J .             ",
"                                                q b.yX8 a v 9 a 7                               X { N.=XtXwXE.b .               ",
"                                                @ -.3XyX6 8 8 a a 5   .             .   .   6 z ..(.3XeXeXD.m .                 ",
"                                                  = C.eXyXyX8 8 7 d 6 6 6 6 7 5 6 7 5 7 a l *.(.-XtXeXtX].L .                   ",
"                                                    b W.eXeXyXyXyXyX7 7 7 8 7 7 8 9 a ..J._.3XtXeXeX;Xc.L                       ",
"                                                      m F.;XeXeXyXyXyXyX6 6 5 7 / >.A.*X9XeXeXeX4XD.-..                         ",
"                                                          O.&X9XrXyXyXyXyXyXyXyXrXeXrXeXrX8X6XW.2..                             ",
"                                                            U c.%X>XrXrXrXrXrXrXrXrXrX&X%Xx. .B                                 ",
"                                                              # 9 T 6.6.C.6.6.6.6.6.6.S 9 .                                     ",
"                                                                                                                                ",
"                                                                                                                                ",
"                                                                                                                                ",
"                                                                                                                                ",
"                                                                                                                                ",
"                                                                                                                                ",
"                                                                                                                                ",
"                                                                                                                                ",
"                                                                                                                                "
};
