/* XPM */
static char *sprite0[] = {
/* columns rows colors chars-per-pixel */
"64 58 179 2 ",
"   c #000000",
".  c #080407",
"X  c #060509",
"o  c #0A050D",
"O  c #0A080E",
"+  c #0C0611",
"@  c #0D0A13",
"#  c #0E0A18",
"$  c #140615",
"%  c #120A14",
"&  c #18051A",
"*  c #120C1B",
"=  c #1A0B1E",
"-  c #17121F",
";  c #24151E",
":  c #160E21",
">  c #1B0D21",
",  c #171222",
"<  c #1A1225",
"1  c #1C142A",
"2  c #1E182D",
"3  c #220D25",
"4  c #240F2A",
"5  c #261221",
"6  c #261824",
"7  c #23132D",
"8  c #2D132A",
"9  c #241432",
"0  c #2B1534",
"q  c #231A34",
"w  c #2A1A33",
"e  c #221738",
"r  c #2E163B",
"t  c #261A3A",
"y  c #2D193B",
"u  c #311136",
"i  c #371E36",
"p  c #391D37",
"a  c #34153C",
"s  c #311A3D",
"d  c #2E2035",
"f  c #352637",
"g  c #432135",
"h  c #4B2F3F",
"j  c #2D1C43",
"k  c #2F1F48",
"l  c #381543",
"z  c #341B43",
"x  c #3A1B44",
"c  c #341F4C",
"v  c #3B1D4B",
"b  c #3F1F53",
"n  c #3B1C58",
"m  c #362340",
"M  c #3E2546",
"N  c #32204E",
"B  c #362253",
"V  c #3D2257",
"C  c #3D245E",
"Z  c #401740",
"A  c #471748",
"S  c #481A4E",
"D  c #451E54",
"F  c #481E55",
"G  c #431F5C",
"H  c #4D1F5A",
"J  c #561D58",
"K  c #4A2844",
"L  c #472849",
"P  c #56294C",
"I  c #432156",
"U  c #442E53",
"Y  c #47225E",
"T  c #49215A",
"R  c #51225F",
"E  c #4A3452",
"W  c #5B3551",
"Q  c #5F375B",
"!  c #693557",
"~  c #603D59",
"^  c #773D5E",
"/  c #541F65",
"(  c #462460",
")  c #4D2362",
"_  c #532264",
"`  c #592265",
"'  c #56246A",
"]  c #5C246C",
"[  c #5C3262",
"{  c #5C2670",
"}  c #612266",
"|  c #62226C",
" . c #6B266B",
".. c #712B6F",
"X. c #6D3A69",
"o. c #743D6A",
"O. c #79396C",
"+. c #632571",
"@. c #6C2474",
"#. c #722476",
"$. c #75257A",
"%. c #7A267D",
"&. c #79287F",
"*. c #6F3B70",
"=. c #743271",
"-. c #7B3D79",
";. c #654063",
":. c #6F4573",
">. c #7F4173",
",. c #813E7A",
"<. c #874079",
"1. c #874E7C",
"2. c #925F7E",
"3. c #7E2781",
"4. c #7E2882",
"5. c #802782",
"6. c #822985",
"7. c #823E82",
"8. c #803088",
"9. c #824785",
"0. c #8F4786",
"q. c #9C498F",
"w. c #885183",
"e. c #955C82",
"r. c #A75581",
"t. c #A75F86",
"y. c #AC5A86",
"u. c #A8578E",
"i. c #A45B94",
"p. c #A75599",
"a. c #AE5D9B",
"s. c #8F6181",
"d. c #A2688C",
"f. c #AC738F",
"g. c #A16192",
"h. c #AA669B",
"j. c #BE6397",
"k. c #B9619F",
"l. c #B46A98",
"z. c #B3739C",
"x. c #BC759E",
"c. c #B65BA5",
"v. c #BB67A2",
"b. c #BB68A5",
"n. c #AF76A1",
"m. c #B076A0",
"M. c #B778A4",
"N. c #B87FA3",
"B. c #BF7BAB",
"V. c #C1659B",
"C. c #C46DA0",
"Z. c #C57AA2",
"A. c #CF7FA8",
"S. c #D57BB4",
"D. c #C68BAE",
"F. c #D082AF",
"G. c #C783B0",
"H. c #C588B1",
"J. c #CB8CB2",
"K. c #D586B5",
"L. c #DB8BB5",
"P. c #D584B9",
"I. c #DB84B9",
"U. c #D68ABC",
"Y. c #DB8BBD",
"T. c #D291B5",
"R. c #DC92BB",
"E. c #E08ABC",
"W. c #E695BE",
"Q. c #E994BF",
"!. c #E295C3",
"~. c #EA94C4",
"^. c #E69BC1",
"/. c #EA9DC4",
"(. c #F19BC4",
"). c #E7A0C4",
"_. c #EAA3C6",
"`. c #EDA5C8",
"'. c #F0A8CB",
/* pixels */
"                                                                                                                                ",
"                                                                                                                                ",
"                                                                                                                                ",
"                                                                                                                                ",
"                                                                                                                                ",
"                                                                                                                                ",
"                                                                                                                                ",
"                                      , 1 K d.f.,.r ,                                                                           ",
"                                . O  .x.D.T.).`.!.J.x...J . .                                                                   ",
"                              v u.V.W.)._._.).).^.^.^.R.K.j.V.^ O .                                                             ",
"                          < U M.).)._.).W.W.W.W.W.!.!.W.^.W.!.L.L.w.7 .                                                         ",
"                      . f e.^._.`.!.P.v.r.r.r.r.y.2.r.y.F.P.Y.^.^.W.p.[ O                                                       ",
"                    o ! E.^.`.H.n.0.` a         .     o J } -.B.Y./.^.L.~ X                                                     ",
"                  $ o.!./.Y.t.L 1 #                         + l X.Z.Q./.L.W                                                     ",
"                  w P./.l.P &                       = u u 0 #     g 1.L.^.C.7                                                   ",
"                - 2.^.v.p                   X 1 Z S ` %.4.$./ A 7   @ ;.L.I.`                                                   ",
"              < e.A.h 8                 X 1 T  .4.4.4.$.4.5.6.6.@.D + + ;.K.i.*                                                 ",
"            @ e.W.*.                  X 7 @.%.$.@._ I b +.+.#.@.6.4.H O O :.z.7                                                 ",
"            z G.b.w                   X v $.| v q $ . O 5 * x +.%.4.4.v   @ ~ ^                                                 ",
"            e.k.5                   X y  .T <                 = F %.6.| O   . o                                                 ",
"          S 6.5                     @ ) H *                     * / 5.&.0                                                       ",
"          * , X                     z T :             O @ O X     a $.6.#..                                                     ",
"                                  @ Y t           X > v Y I 7 O . @ } 6.#..                                                     ",
"                                  s _ #           9 ) T ` #.` v 7 u $.5._                                                       ",
"                                * _ b           O y V N c +.{ +.| ..8.&.F                                       * O             ",
"                                < ) >         @ 1 q N j * > > 9 I ( ' T s                                     X j ,             ",
"                                j z         O 7 d q q O X 1 *   X 9 j 1 O                                     @ V 1             ",
"                                v N X     O 2 q q q O   X k n c t B k @                   .                   9 _ <             ",
"                                > q     X s | @.+.z X     @ v | _ b 2 X                 j <..                 y ` <             ",
"                                        @ ) 6.6.6.%.%       . .     O . O , # y 1     o R w                   y ` 1             ",
"                                        * ' 6.6.6.4.=   X $ q O $ $ D N B V N N *   o =.q.%                   Y _ *             ",
"                                      X z 5.6.5.5.@.y L w q Y ) ] $.%.' C C B <   + =.Y.E                   > ] b               ",
"                                      + ` 6.6.4.%.z - O.0.a 7 +.$.$.%._ C B e e 0 O.P.Z.d X               @ _ ] z               ",
"                                      & 5.6.6.%.$.i   % a.u.W n / | $.) n e d 1.b.~.M.M X                 t ] _ *               ",
"                                      $ %.6.6.%.#.a     l b.~.N.g.h.7.i.h.s.d./.(.m.m .                 @ G ] s                 ",
"                                      $ @.6.6.4.%.w X     A c.S.Q././.`.`.`.'.U.>.6                     y ] _ @                 ",
"                                      X L 4.6.4.%.J $     . 3 K :.4.9.9.R.F.9.Q o                     7 ` | z                   ",
"                                      X a &.6.6.%.@.0           X $ o # f ; + X                     # I +.V +                   ",
"                                        $ ' 6.6.4.#.` +                                           @ v +.I @                     ",
"                                        + T 6.6.6.%.@.v X                                       @ v | ] =                       ",
"                                          3 #.6.6.5...+.v # X                                 * v +.] y X                       ",
"                                          + T 6.6.6.@.+.@.` 0                             X 7 ' | | z O                         ",
"                                            4 #.6.6.6.#.$.@.| a > * X               X @ : x ] @.@.v X                           ",
"                                            X 0 @.6.6.6.4.@.#.#.] T a 0 0 9 * > 0 9 z I ) +.#.%.| ,                             ",
"                                              X u $.6.6.6.6.4.%.$.#.+.+.+.] H H +.] ] +.#.3.5.#.0 X                             ",
"                                                  > I &.6.6.6.6.4.%.%.@.@.@.@.@.@.@.%.%.4.4.H > X                               ",
"                                                    O v 4.4.6.6.6.6.6.4.4.4.4.4.4.4.6.6.+._ 1                                   ",
"                                                      O 9 x @.%.5.6.6.6.6.6.6.6.4.%.%.' : o X                                   ",
"                                                            O > H } } } } } } | H > o .                                         ",
"                                                                  X . .   o                                                     ",
"                                                                                                                                ",
"                                                                                                                                ",
"                                                                                                                                ",
"                                                                                                                                ",
"                                                                                                                                ",
"                                                                                                                                ",
"                                                                                                                                ",
"                                                                                                                                "
};
