/* XPM */
static char * two_xpm[] = {
"64 48 226 2",
"  	c #000000",
". 	c #090608",
"+ 	c #010101",
"@ 	c #020202",
"# 	c #0C090B",
"$ 	c #161114",
"% 	c #030203",
"& 	c #060506",
"* 	c #0A0709",
"= 	c #0F0B0D",
"- 	c #040303",
"; 	c #010001",
"> 	c #010000",
", 	c #050304",
"' 	c #100D0F",
") 	c #151013",
"! 	c #161113",
"~ 	c #0D0A0C",
"{ 	c #030202",
"] 	c #181316",
"^ 	c #000100",
"/ 	c #080507",
"( 	c #0D090B",
"_ 	c #050404",
": 	c #0B0809",
"< 	c #0B080A",
"[ 	c #080607",
"} 	c #100C0E",
"| 	c #171215",
"1 	c #342A30",
"2 	c #110D0F",
"3 	c #1E181B",
"4 	c #140F12",
"5 	c #292125",
"6 	c #0A0809",
"7 	c #050405",
"8 	c #070506",
"9 	c #020102",
"0 	c #B4840E",
"a 	c #130700",
"b 	c #141012",
"c 	c #DCA95D",
"d 	c #DEAA5F",
"e 	c #DDAA5F",
"f 	c #321E03",
"g 	c #DCAA5E",
"h 	c #DCA95E",
"i 	c #DCA85E",
"j 	c #DCA85D",
"k 	c #332003",
"l 	c #D19F55",
"m 	c #D09F55",
"n 	c #CF9F55",
"o 	c #D1A056",
"p 	c #CC9D54",
"q 	c #CD9D54",
"r 	c #CC9C54",
"s 	c #CF9E54",
"t 	c #3B2405",
"u 	c #030303",
"v 	c #191417",
"w 	c #DDAA5E",
"x 	c #412A07",
"y 	c #2B1A03",
"z 	c #241E21",
"A 	c #040304",
"B 	c #DAA85D",
"C 	c #DBA85D",
"D 	c #583A10",
"E 	c #52360C",
"F 	c #4B3109",
"G 	c #492E09",
"H 	c #493009",
"I 	c #4D300C",
"J 	c #462A07",
"K 	c #311E03",
"L 	c #120E10",
"M 	c #231D20",
"N 	c #060405",
"O 	c #CF9E55",
"P 	c #CE9E55",
"Q 	c #54371D",
"R 	c #4A321D",
"S 	c #3C2606",
"T 	c #372206",
"U 	c #392206",
"V 	c #3F2808",
"W 	c #462C0A",
"X 	c #472D0C",
"Y 	c #39260A",
"Z 	c #2E1E04",
"` 	c #2A1804",
" .	c #2F1B03",
"..	c #DFAC60",
"+.	c #DEAC60",
"@.	c #080300",
"#.	c #402808",
"$.	c #362003",
"%.	c #301B03",
"&.	c #2D1C04",
"*.	c #E0AF61",
"=.	c #E2B062",
"-.	c #D5A45A",
";.	c #D2A258",
">.	c #211203",
",.	c #3E2605",
"'.	c #E7B665",
").	c #E6B565",
"!.	c #E3B263",
"~.	c #D7A85C",
"{.	c #D6A65B",
"].	c #1D1001",
"^.	c #E9B866",
"/.	c #EAB968",
"(.	c #EAB967",
"_.	c #E9B867",
":.	c #DCAD5F",
"<.	c #DAAB5D",
"[.	c #48300A",
"}.	c #EDBD6A",
"|.	c #EDBC69",
"1.	c #EBBA68",
"2.	c #EABB67",
"3.	c #EABB68",
"4.	c #EABA67",
"5.	c #DAAC5E",
"6.	c #4F340F",
"7.	c #412A08",
"8.	c #EEBE6A",
"9.	c #EFBF6C",
"0.	c #F0C06D",
"a.	c #E1B363",
"b.	c #DFB061",
"c.	c #E0B161",
"d.	c #4E320B",
"e.	c #422C07",
"f.	c #321F03",
"g.	c #F5C670",
"h.	c #F3C46F",
"i.	c #F0C26B",
"j.	c #E3B664",
"k.	c #E0B463",
"l.	c #E1B463",
"m.	c #4E330C",
"n.	c #351F06",
"o.	c #010100",
"p.	c #F5C770",
"q.	c #F8C972",
"r.	c #F7C971",
"s.	c #F6C771",
"t.	c #E8BB67",
"u.	c #E5B865",
"v.	c #F7CA72",
"w.	c #FACC74",
"x.	c #F7CA71",
"y.	c #E9BC67",
"z.	c #E5B965",
"A.	c #57390D",
"B.	c #50330B",
"C.	c #472E0A",
"D.	c #442B07",
"E.	c #160C00",
"F.	c #221C1F",
"G.	c #020101",
"H.	c #FACD74",
"I.	c #FDCF76",
"J.	c #FCCE75",
"K.	c #FBCE75",
"L.	c #57390C",
"M.	c #50340C",
"N.	c #482E0A",
"O.	c #422908",
"P.	c #3D2805",
"Q.	c #2E1E03",
"R.	c #080506",
"S.	c #FDCF75",
"T.	c #FFD277",
"U.	c #FFD378",
"V.	c #2D2429",
"W.	c #2B2327",
"X.	c #FED277",
"Y.	c #FFD278",
"Z.	c #FCCF75",
"`.	c #090708",
" +	c #FBCE74",
".+	c #FDD076",
"++	c #351F03",
"@+	c #ECC06A",
"#+	c #ECC16A",
"$+	c #EDC16A",
"%+	c #EDC26C",
"&+	c #3B2509",
"*+	c #201306",
"=+	c #EABE68",
"-+	c #EABF69",
";+	c #E9BE68",
">+	c #EABE69",
",+	c #3A2305",
"'+	c #110D10",
")+	c #251E22",
"!+	c #422907",
"~+	c #442B09",
"{+	c #462F0A",
"]+	c #432B07",
"^+	c #2C2428",
"/+	c #281803",
"(+	c #1C1619",
"_+	c #30272B",
":+	c #1D171A",
"<+	c #130E10",
"[+	c #090607",
"}+	c #000101",
"|+	c #0A0708",
"1+	c #0F0C0E",
"2+	c #2F272C",
"3+	c #040203",
"4+	c #382E34",
"5+	c #292226",
"6+	c #271F24",
"7+	c #060404",
"8+	c #0E0B0C",
"9+	c #282025",
"0+	c #211B1E",
"a+	c #211A1E",
"b+	c #261F23",
"c+	c #100C0F",
"                        . .                                                                             + @                   + ",
"                        # $ +                                                                           % &                     ",
"  * =                     +                                                                                                 - % ",
"  + +         ;                         > ,                                     @ %   * ' +                                 ) ) ",
"                              + ! ~     { ] ^                                   / *   + {             (                 +       ",
"                              ; * _     > &                 + : < @ +             >                   [               } :       ",
"    +                         +                               | 1 }                   +           @                             ",
"  _ 2 >                       3 <                           + 4 5 6                                                             ",
"  + 7                         } 8                             + +                                                               ",
"        ;                               -                                                                                   +   ",
"        9 +                             &                         { *                                                           ",
"                +                                 0 0 0 0 0 0 0 0 0 0 0 0 a     = b                                             ",
"                                                0 c d d d d d d d e d d c 0 f   + +                                             ",
"                                              0 0 d d g h i h j h h g e d 0 0 k                                                 ",
"                                            0 i d e g l m m m m n m o g d d i 0 f                                               ",
"                                            0 h d d h m p p q r q p s h e d h 0 t a                                             ",
"              u v 9             9           0 h w e h 0 0 0 0 0 0 0 0 h d w h 0 x y         + @ >                               ",
"              % z A                         0 B h i C 0 D E F G H I 0 h e d h 0 J K         L M N                               ",
"                %                       >   0 O m m P 0 Q R S T U V 0 g d d h 0 W k         + u                                 ",
"                                            0 P P O P 0 X Y Z `  .0 0 ....+.g 0 W k                                             ",
"                    + ;                     @.0 0 0 0 W #.$.%.&.0 *.=.=.*.-.;.0 J K                                             ",
"                    8 -                       >.T ,.x 0 0 0 0 0 0 '.'.).!.~.{.0 x y                                             ",
"                                                ].k 0 ^././.(././.(._.:.<.0 0 [.t a                                             ",
"              +                                   0 0 }.|.1.2.3.4.2.^.:.5.0 6.7.f                                               ",
"    - N                               ;         0 8.9.0.8.a.b.b.b.c.b.0 0 d.e.f.                                                ",
"    : ~               +             9 @       0 0 g.g.h.i.j.k.l.l.l.k.0 m.e.n.a                                                 ",
"                    o.: >                   0 p.q.r.s.t.u.0 0 0 0 0 0 [.7.f.a                       ; @ ;                       ",
"                                            0 v.w.w.x.y.z.0 A.B.F C.D.,.f.E.                        u F.G.                      ",
"          < 2                         + +   0 H.I.J.K.0 0 L.M.N.O.P.t n.Q.E.                                                > + ",
"          , [                         < R.  0 S.T.T.U.0 0 0 0 0 0 0 0 0 0 0 0 a                                                 ",
"                                      V.W.@ 0 S.U.T.T.X.Y.T.U.U.T.T.U.T.U.U.Z.0 >.                                              ",
"                                      A `.+ 0  +I..+S.S.S.S.I.Z..+S.Z.S.S.S.K.0 ++@.                                            ",
"                            + <       ; ;   0 @+#+$+%+#+$+%+$+$+$+%+$+%+$+#+@+0 &+*+                                            ",
"                              9     + +     0 =+-+=+=+-+=+-+;+-+=+;+=+>+=+-+>+0 ,+].                                            ",
"                                    '+)+    @.0 0 0 0 0 0 0 0 0 0 0 0 0 0 0 0 !+++@.  >                                         ",
"                                    [ !       >.T #.~+W {+{+{+{+{+{+{+{+W ]+#.T >.@ ^+@                             u } A       ",
"                                      >         @./+K k k k k k k k k k k K /+@.  @ (+                              8 )+=       ",
"                                                                                                & +                   < _       ",
"                                                                                            < _+:+                    8 %       ",
"                                                                      A ;                   * <+u             A               [+",
"                                                                                                              *               } ",
"                                            % 2 +                                                                               ",
"                  + A                       % ) 9   N ;                                                                         ",
"              + @   }+        @ |++                 1+G.                                                                        ",
"              @ 2+'           + 3+                                                                                              ",
"              G.4+|                                                           + { +                                             ",
"                ^ - +       ^                                                 7 5+6+              9 %                     7+| N ",
"                            8+9+                                              @ 0+a+%             > +                     . b+c+"};
