/* XPM */
static char * three_xpm[] = {
"64 48 211 2",
"  	c #000000",
". 	c #090608",
"+ 	c #010101",
"@ 	c #020202",
"# 	c #0C090B",
"$ 	c #161114",
"% 	c #030203",
"& 	c #060506",
"* 	c #0A0709",
"= 	c #0F0B0D",
"- 	c #040303",
"; 	c #010001",
"> 	c #010000",
", 	c #050304",
"' 	c #100D0F",
") 	c #151013",
"! 	c #161113",
"~ 	c #0D0A0C",
"{ 	c #030202",
"] 	c #181316",
"^ 	c #000100",
"/ 	c #080507",
"( 	c #0D090B",
"_ 	c #050404",
": 	c #0B0809",
"< 	c #0B080A",
"[ 	c #080607",
"} 	c #100C0E",
"| 	c #171215",
"1 	c #342A30",
"2 	c #110D0F",
"3 	c #1E181B",
"4 	c #140F12",
"5 	c #292125",
"6 	c #0A0809",
"7 	c #050405",
"8 	c #070506",
"9 	c #020102",
"0 	c #B4840E",
"a 	c #130700",
"b 	c #141012",
"c 	c #DCA95D",
"d 	c #DEAA5F",
"e 	c #DDAA5F",
"f 	c #DCAA5E",
"g 	c #321E03",
"h 	c #DCA95E",
"i 	c #DCA85E",
"j 	c #DCA85D",
"k 	c #332003",
"l 	c #D19F55",
"m 	c #D09F55",
"n 	c #D1A056",
"o 	c #DBA85D",
"p 	c #CF9E55",
"q 	c #CC9D54",
"r 	c #CD9D54",
"s 	c #CC9C54",
"t 	c #DDAA5E",
"u 	c #3B2405",
"v 	c #030303",
"w 	c #191417",
"x 	c #CF9E54",
"y 	c #CF9F55",
"z 	c #412A07",
"A 	c #2B1A03",
"B 	c #241E21",
"C 	c #040304",
"D 	c #55370F",
"E 	c #50340D",
"F 	c #4D330C",
"G 	c #4E320B",
"H 	c #462A07",
"I 	c #311E03",
"J 	c #120E10",
"K 	c #231D20",
"L 	c #060405",
"M 	c #080300",
"N 	c #4A2F09",
"O 	c #4C331D",
"P 	c #47311D",
"Q 	c #412A08",
"R 	c #432B07",
"S 	c #462C0A",
"T 	c #211203",
"U 	c #351F06",
"V 	c #3C2605",
"W 	c #3E2605",
"X 	c #382507",
"Y 	c #DFAC60",
"Z 	c #E0AC60",
"` 	c #472E0A",
" .	c #351F03",
"..	c #1D1001",
"+.	c #281803",
"@.	c #E1AE61",
"#.	c #E2B062",
"$.	c #E1AF61",
"%.	c #E0AF61",
"&.	c #4A2F0A",
"*.	c #392206",
"=.	c #E3B263",
"-.	c #E6B465",
";.	c #E5B464",
">.	c #E7B665",
",.	c #E8B766",
"'.	c #3E2606",
").	c #DAAB5E",
"!.	c #DBAB5D",
"~.	c #DBAB5E",
"{.	c #DCAD5F",
"].	c #E9B866",
"^.	c #EAB968",
"/.	c #EAB967",
"(.	c #E8B765",
"_.	c #DAAC5E",
":.	c #E9B966",
"<.	c #EBBA68",
"[.	c #EDBC69",
"}.	c #EDBD69",
"|.	c #EABB67",
"1.	c #3A2305",
"2.	c #160C00",
"3.	c #DFB061",
"4.	c #E1B363",
"5.	c #EEBE6A",
"6.	c #F0BF6C",
"7.	c #EFBF6C",
"8.	c #2F1A03",
"9.	c #301C03",
"0.	c #442B07",
"a.	c #E1B463",
"b.	c #E3B664",
"c.	c #F2C46E",
"d.	c #F5C570",
"e.	c #F5C670",
"f.	c #010100",
"g.	c #F5C770",
"h.	c #F8C972",
"i.	c #F7C971",
"j.	c #2C1B03",
"k.	c #2F1B03",
"l.	c #402808",
"m.	c #F6C871",
"n.	c #F7C972",
"o.	c #F8CA73",
"p.	c #FACC74",
"q.	c #F7CA71",
"r.	c #2E1E03",
"s.	c #2B1901",
"t.	c #2D1C04",
"u.	c #FACC73",
"v.	c #F8CA72",
"w.	c #F6C870",
"x.	c #221C1F",
"y.	c #020101",
"z.	c #EABE69",
"A.	c #EDC16A",
"B.	c #FACD74",
"C.	c #FBCE75",
"D.	c #FDCF76",
"E.	c #080506",
"F.	c #EABE68",
"G.	c #ECC06A",
"H.	c #FBCE74",
"I.	c #FDD076",
"J.	c #FFD378",
"K.	c #FFD277",
"L.	c #FED076",
"M.	c #2D2429",
"N.	c #2B2327",
"O.	c #EFC36B",
"P.	c #FFD278",
"Q.	c #FED177",
"R.	c #ECC16C",
"S.	c #48300A",
"T.	c #090708",
"U.	c #EABF69",
"V.	c #FDCF75",
"W.	c #FCCF75",
"X.	c #FACE74",
"Y.	c #4E330C",
"Z.	c #EBC06A",
"`.	c #EDC26C",
" +	c #422C07",
".+	c #321F03",
"++	c #E9BE68",
"@+	c #110D10",
"#+	c #251E22",
"$+	c #35230C",
"%+	c #2C2428",
"&+	c #1C1619",
"*+	c #30272B",
"=+	c #1D171A",
"-+	c #130E10",
";+	c #090607",
">+	c #000101",
",+	c #0A0708",
"'+	c #0F0C0E",
")+	c #2F272C",
"!+	c #040203",
"~+	c #382E34",
"{+	c #292226",
"]+	c #271F24",
"^+	c #060404",
"/+	c #0E0B0C",
"(+	c #282025",
"_+	c #211B1E",
":+	c #211A1E",
"<+	c #261F23",
"[+	c #100C0F",
"                        . .                                                                             + @                   + ",
"                        # $ +                                                                           % &                     ",
"  * =                     +                                                                                                 - % ",
"  + +         ;                         > ,                                     @ %   * ' +                                 ) ) ",
"                              + ! ~     { ] ^                                   / *   + {             (                 +       ",
"                              ; * _     > &                 + : < @ +             >                   [               } :       ",
"    +                         +                               | 1 }                   +           @                             ",
"  _ 2 >                       3 <                           + 4 5 6                                                             ",
"  + 7                         } 8                             + +                                                               ",
"        ;                               -                                                                                   +   ",
"        9 +                             &                         { *                                                           ",
"                +                                 0 0 0 0 0 0 0 0 0 0 a         = b                                             ",
"                                                0 c d d d d d d d e f 0 g       + +                                             ",
"                                              0 0 d d f h i h j f d d 0 0 k                                                     ",
"                                            0 i d e f l m m m m n f d e h 0 g                                                   ",
"                                            0 o h h o p q q r s m h t d h 0 u a                                                 ",
"              v w 9             9           0 p x y p 0 0 0 0 0 0 h d d h 0 z A             + @ >                               ",
"              % B C                         0 q r s r 0 D E F G 0 j e d i 0 H I             J K L                               ",
"                %                       >   M 0 0 0 0 N O P Q R 0 f e d h 0 S k             + v                                 ",
"                                              T U V W V X 0 0 0 0 Y Z Y e 0 `  .                                                ",
"                    + ;                         M ..+.A 0 @.#.$.#.#.#.#.%.0 &.*.                                                ",
"                    8 -                                 0 =.-.;.-.>.>.,.>.0 0 '.T                                               ",
"                                                        0 ).!.~.{.].^.^./.^.(.0 k                                               ",
"              +                                         0 )._._.{.:.<.[.}.[.|.0 1.2.                                            ",
"    - L                               ;                 T 0 0 0 0 3.4.5.6.7.5.0 z 8.                                            ",
"    : ~               +             9 @       0 0 0 0 T A 9.u 0.0 a.b.c.d.e.c.0 H I                                             ",
"                    f.: >                   0 g.h.i.g.0 9.j.k. .l.0 0 m.n.n.g.0 S k                 ; @ ;                       ",
"                                            0 m.o.p.q.0 1.r.s.t.U 0 0 u.p.v.w.0 S k                 v x.y.                      ",
"          < 2                         + +   0 z.A.B.C.0 R *.r.k.0 B.D.D.B.A.z.0 H I                                         > + ",
"          , [                         < E.  0 F.G.H.I.0 0 0 0 0 0 J.K.L.C.G.F.0 z A                                             ",
"                                      M.N.@ a 0 0 G.O.I.P.K.J.J.K.K.Q.O.R.0 0 S.u a                                             ",
"                                      C T.+   g 0 U.G.H.V.V.D.W.I.V.X.G.F.0 Y.Q g                                               ",
"                            + <       ; ;       k 0 0 Z.A.`.A.A.A.`.G.0 0 G  +.+_ 8                                             ",
"                              9     + +         M .+0 U.F.U.++U.F.++F.0 Y. +U a                                                 ",
"                                    @+#+          M $+0 0 0 0 0 0 0 0 S.Q .+a         >                                         ",
"                                    [ !             9 g u z H S S H z u g         @ %+@                             v } C       ",
"                                      >                 a 8.I k k I 8.a           @ &+                              8 #+=       ",
"                                                                                                & +                   < _       ",
"                                                                                            < *+=+                    8 %       ",
"                                                                      C ;                   * -+v             C               ;+",
"                                                                                                              *               } ",
"                                            % 2 +                                                                               ",
"                  + C                       % ) 9   L ;                                                                         ",
"              + @   >+        @ ,++                 '+y.                                                                        ",
"              @ )+'           + !+                                                                                              ",
"              y.~+|                                                           + { +                                             ",
"                ^ - +       ^                                                 7 {+]+              9 %                     ^+| L ",
"                            /+(+                                              @ _+:+%             > +                     . <+[+"};
