/* XPM */
static char * five_xpm[] = {
"64 48 217 2",
"  	c #000000",
". 	c #090608",
"+ 	c #010101",
"@ 	c #020202",
"# 	c #0C090B",
"$ 	c #161114",
"% 	c #030203",
"& 	c #060506",
"* 	c #0A0709",
"= 	c #0F0B0D",
"- 	c #040303",
"; 	c #010001",
"> 	c #010000",
", 	c #050304",
"' 	c #100D0F",
") 	c #151013",
"! 	c #161113",
"~ 	c #0D0A0C",
"{ 	c #030202",
"] 	c #181316",
"^ 	c #000100",
"/ 	c #080507",
"( 	c #0D090B",
"_ 	c #050404",
": 	c #0B0809",
"< 	c #0B080A",
"[ 	c #080607",
"} 	c #100C0E",
"| 	c #171215",
"1 	c #342A30",
"2 	c #110D0F",
"3 	c #1E181B",
"4 	c #140F12",
"5 	c #292125",
"6 	c #0A0809",
"7 	c #050405",
"8 	c #070506",
"9 	c #020102",
"0 	c #B4840E",
"a 	c #080300",
"b 	c #141012",
"c 	c #DCA95E",
"d 	c #DEAA5F",
"e 	c #DDAA5E",
"f 	c #DDAA5F",
"g 	c #211204",
"h 	c #DCAA5E",
"i 	c #DCA85E",
"j 	c #DCA85D",
"k 	c #DAA85D",
"l 	c #351F03",
"m 	c #D19F55",
"n 	c #D09F55",
"o 	c #CF9F55",
"p 	c #CE9D55",
"q 	c #3A2305",
"r 	c #1D1001",
"s 	c #CC9D54",
"t 	c #CD9D54",
"u 	c #CC9C54",
"v 	c #CC9C53",
"w 	c #030303",
"x 	c #191417",
"y 	c #422907",
"z 	c #241E21",
"A 	c #040304",
"B 	c #5B3B10",
"C 	c #54370F",
"D 	c #4E320B",
"E 	c #4A2F09",
"F 	c #48300A",
"G 	c #472E0A",
"H 	c #452D06",
"I 	c #3F2708",
"J 	c #372206",
"K 	c #211203",
"L 	c #120E10",
"M 	c #231D20",
"N 	c #060405",
"O 	c #5A3E1D",
"P 	c #53371D",
"Q 	c #452D07",
"R 	c #412A07",
"S 	c #402808",
"T 	c #3E2605",
"U 	c #3C2605",
"V 	c #392206",
"W 	c #341D03",
"X 	c #DFAC60",
"Y 	c #E0AC60",
"Z 	c #362003",
"` 	c #281803",
" .	c #E1AE61",
"..	c #E2B062",
"+.	c #E2AF62",
"@.	c #E1AF61",
"#.	c #E0AF61",
"$.	c #332104",
"%.	c #130700",
"&.	c #E3B263",
"*.	c #E6B465",
"=.	c #E5B464",
"-.	c #E6B565",
";.	c #E8B766",
">.	c #E7B665",
",.	c #DAAB5D",
"'.	c #DBAB5E",
").	c #DBAB5D",
"!.	c #DCAD5F",
"~.	c #E9B867",
"{.	c #EAB967",
"].	c #EAB968",
"^.	c #E8B765",
"/.	c #321E03",
"(.	c #DAAC5E",
"_.	c #DAAB5E",
":.	c #DCAE5F",
"<.	c #EABA67",
"[.	c #EDBD69",
"}.	c #EDBC69",
"|.	c #EABB67",
"1.	c #3B2405",
"2.	c #EDBE69",
"3.	c #F0BF6C",
"4.	c #EFBF6C",
"5.	c #EEBE6A",
"6.	c #2B1A03",
"7.	c #50330B",
"8.	c #4C3209",
"9.	c #493009",
"0.	c #482E0A",
"a.	c #492E09",
"b.	c #4B3109",
"c.	c #F2C46E",
"d.	c #F5C570",
"e.	c #F5C670",
"f.	c #462A07",
"g.	c #311E03",
"h.	c #010100",
"i.	c #F5C770",
"j.	c #F8C972",
"k.	c #F7C971",
"l.	c #3B2605",
"m.	c #F6C870",
"n.	c #F7C972",
"o.	c #462C0A",
"p.	c #332003",
"q.	c #F7CA72",
"r.	c #FACC74",
"s.	c #F7CA71",
"t.	c #422C07",
"u.	c #301B03",
"v.	c #281501",
"w.	c #271901",
"x.	c #301C03",
"y.	c #FACC73",
"z.	c #462F0A",
"A.	c #221C1F",
"B.	c #020101",
"C.	c #FACD74",
"D.	c #FDCF76",
"E.	c #FCCE75",
"F.	c #FBCE75",
"G.	c #2F1B03",
"H.	c #080506",
"I.	c #FBCE74",
"J.	c #FED076",
"K.	c #FFD277",
"L.	c #FFD378",
"M.	c #FFD278",
"N.	c #2D2429",
"O.	c #2B2327",
"P.	c #ECC06A",
"Q.	c #EFC36D",
"R.	c #FED277",
"S.	c #FED177",
"T.	c #EBC06A",
"U.	c #090708",
"V.	c #EABE68",
"W.	c #ECC06C",
"X.	c #FDCF75",
"Y.	c #FCCF75",
"Z.	c #FDD076",
"`.	c #EABF69",
" +	c #EDC26C",
".+	c #ECC16A",
"++	c #EDC16A",
"@+	c #3B2509",
"#+	c #170C06",
"$+	c #E9BE68",
"%+	c #EABE69",
"&+	c #3F2808",
"*+	c #110D10",
"=+	c #251E22",
"-+	c #3B2407",
";+	c #2C2428",
">+	c #2F1A03",
",+	c #1C1619",
"'+	c #30272B",
")+	c #1D171A",
"!+	c #130E10",
"~+	c #090607",
"{+	c #000101",
"]+	c #0A0708",
"^+	c #0F0C0E",
"/+	c #2F272C",
"(+	c #040203",
"_+	c #382E34",
":+	c #292226",
"<+	c #271F24",
"[+	c #060404",
"}+	c #0E0B0C",
"|+	c #282025",
"1+	c #211B1E",
"2+	c #211A1E",
"3+	c #261F23",
"4+	c #100C0F",
"                        . .                                                                             + @                   + ",
"                        # $ +                                                                           % &                     ",
"  * =                     +                                                                                                 - % ",
"  + +         ;                         > ,                                     @ %   * ' +                                 ) ) ",
"                              + ! ~     { ] ^                                   / *   + {             (                 +       ",
"                              ; * _     > &                 + : < @ +             >                   [               } :       ",
"    +                         +                               | 1 }                   +           @                             ",
"  _ 2 >                       3 <                           + 4 5 6                                                             ",
"  + 7                         } 8                             + +                                                               ",
"        ;                               -                                                                                   +   ",
"        9 +                             &                         { *                                                           ",
"                +                             0 0 0 0 0 0 0 0 0 0 0 0 0 0 0 0 a = b                                             ",
"                                            0 c d e d d d d d d d f d d e d c 0 g +                                             ",
"                                            0 c f d d h c i c j c c c i c c k 0 l a                                             ",
"                                            0 i d f h m n n n n o n n o n n p 0 q r                                             ",
"                                            0 c d d c n s s t u t s v t s t t 0 q r                                             ",
"              w x 9             9           0 c e f c 0 0 0 0 0 0 0 0 0 0 0 0 y l a         + @ >                               ",
"              % z A                         0 c d f c 0 B C D E F F F F G H I J K           L M N                               ",
"                %                       >   0 c d d h 0 O P Q R S S S T U V W r             + w                                 ",
"                                            0 f X Y X 0 0 0 0 0 0 0 0 0 0 Z `                                                   ",
"                    + ;                     0  .........+.....@.........#.0 $.%.                                                ",
"                    8 -                     0 &.*.=.=.*.-.=.*.=.*.=.=.;.>.0 0 $.                                                ",
"                                            0 ,.'.).'.).'.'.).'.'.).!.~.{.].^.0 /.                                              ",
"              +                             0 (._.(._.(._._.(.(._.(.:.<.[.}.|.0 1.%.                                            ",
"    - N                               ;     r 0 0 0 0 0 0 0 0 0 0 0 0 2.3.4.5.0 R 6.                                            ",
"    : ~               +             9 @     %.0 0 0 0 7.D 8.9.0.a.b.0 c.d.e.c.0 f.g.                                            ",
"                    h.: >                   0 i.j.k.i.0 H T V l J l.0 m.n.n.i.0 o.p.                ; @ ;                       ",
"                                            0 q.r.r.s.0 t.J u.v.w.x.0 s.r.y.s.0 z.p.                w A.B.                      ",
"          < 2                         + +   0 C.D.E.F.0 o.1.G.w.w.x.0 F.E.D.C.0 z.p.                                        > + ",
"          , [                         < H.  0 I.J.K.L.0 0 0 0 0 0 0 0 K.M.J.I.0 o.p.                                            ",
"                                      N.O.@ 0 P.Q.J.K.R.M.K.L.L.K.K.L.K.S.Q.T.0 f.g.                                            ",
"                                      A U.+ 0 V.W.F.X.X.X.X.D.Y.Z.X.Y.X.I.P.`.0 R 6.                                            ",
"                            + <       ; ;   %.0 0 P. +.+++ +++++++ +++ +P.0 0 9.@+#+                                            ",
"                              9     + +       /.0 V.V.`.V.`.$+`.V.$+V.%+V.0 b.&+/.                                              ",
"                                    *+=+        p.0 0 0 0 0 0 0 0 0 0 0 0 F &+p.      >                                         ",
"                                    [ !           /.-+R f.o.z.z.z.z.o.f.R 1./.    @ ;+@                             w } A       ",
"                                      >             %.>+g.p.p.p.p.p.p.g.>+%.      @ ,+                              8 =+=       ",
"                                                                                                & +                   < _       ",
"                                                                                            < '+)+                    8 %       ",
"                                                                      A ;                   * !+w             A               ~+",
"                                                                                                              *               } ",
"                                            % 2 +                                                                               ",
"                  + A                       % ) 9   N ;                                                                         ",
"              + @   {+        @ ]++                 ^+B.                                                                        ",
"              @ /+'           + (+                                                                                              ",
"              B._+|                                                           + { +                                             ",
"                ^ - +       ^                                                 7 :+<+              9 %                     [+| N ",
"                            }+|+                                              @ 1+2+%             > +                     . 3+4+"};
