/* XPM */
static char * eigh_xpm[] = {
"64 48 201 2",
"  	c #000000",
". 	c #090608",
"+ 	c #010101",
"@ 	c #020202",
"# 	c #0C090B",
"$ 	c #161114",
"% 	c #030203",
"& 	c #060506",
"* 	c #0A0709",
"= 	c #0F0B0D",
"- 	c #040303",
"; 	c #010001",
"> 	c #010000",
", 	c #050304",
"' 	c #100D0F",
") 	c #151013",
"! 	c #161113",
"~ 	c #0D0A0C",
"{ 	c #030202",
"] 	c #181316",
"^ 	c #000100",
"/ 	c #080507",
"( 	c #0D090B",
"_ 	c #050404",
": 	c #0B0809",
"< 	c #0B080A",
"[ 	c #080607",
"} 	c #100C0E",
"| 	c #171215",
"1 	c #342A30",
"2 	c #110D0F",
"3 	c #1E181B",
"4 	c #140F12",
"5 	c #292125",
"6 	c #0A0809",
"7 	c #050405",
"8 	c #070506",
"9 	c #020102",
"0 	c #141012",
"a 	c #C2950D",
"b 	c #160B00",
"c 	c #E4B770",
"d 	c #E5B872",
"e 	c #E4B871",
"f 	c #E4B771",
"g 	c #382505",
"h 	c #E3B670",
"i 	c #DAAE69",
"j 	c #DAAE67",
"k 	c #D9AD66",
"l 	c #DAAF69",
"m 	c #392804",
"n 	c #E4B671",
"o 	c #DBAE67",
"p 	c #D9AD67",
"q 	c #DBAF69",
"r 	c #030303",
"s 	c #191417",
"t 	c #D6AC66",
"u 	c #593C11",
"v 	c #543A0E",
"w 	c #422C09",
"x 	c #241E21",
"y 	c #040304",
"z 	c #E5B871",
"A 	c #5A3E10",
"B 	c #4F360F",
"C 	c #47300C",
"D 	c #49330B",
"E 	c #312105",
"F 	c #120E10",
"G 	c #231D20",
"H 	c #060405",
"I 	c #634721",
"J 	c #52380F",
"K 	c #432E07",
"L 	c #4E340B",
"M 	c #5C4112",
"N 	c #4A320C",
"O 	c #2E1B01",
"P 	c #E7B973",
"Q 	c #E6B973",
"R 	c #4A320B",
"S 	c #E5B973",
"T 	c #DBB16B",
"U 	c #DEB26D",
"V 	c #E7BC74",
"W 	c #E9BD75",
"X 	c #E8BB74",
"Y 	c #DEB46D",
"Z 	c #E0B76F",
"` 	c #EBC077",
" .	c #EDC278",
"..	c #EDC279",
"+.	c #EDC379",
"@.	c #DFB46E",
"#.	c #48320C",
"$.	c #352205",
"%.	c #261704",
"&.	c #EEC479",
"*.	c #EFC47B",
"=.	c #EFC47A",
"-.	c #EEC47A",
";.	c #E4BA72",
">.	c #E3B870",
",.	c #E3B871",
"'.	c #573D11",
").	c #453107",
"!.	c #1A1000",
"~.	c #F1C87D",
"{.	c #F1C77C",
"].	c #F0C67C",
"^.	c #E2B971",
"/.	c #F0C57B",
"(.	c #F1C87C",
"_.	c #553B0D",
":.	c #422C08",
"<.	c #F1C97C",
"[.	c #F3CA7F",
"}.	c #F2C97D",
"|.	c #E8BF76",
"1.	c #E5BD73",
"2.	c #E6BD74",
"3.	c #F4CA7F",
"4.	c #010100",
"5.	c #F5CD80",
"6.	c #F8CF83",
"7.	c #F5CE81",
"8.	c #EAC277",
"9.	c #E7C075",
"0.	c #5B4010",
"a.	c #563B0D",
"b.	c #E8C076",
"c.	c #E9C277",
"d.	c #F8D083",
"e.	c #FAD285",
"f.	c #F9D284",
"g.	c #51380F",
"h.	c #F9D183",
"i.	c #F9D285",
"j.	c #221C1F",
"k.	c #020101",
"l.	c #F9D385",
"m.	c #FCD486",
"n.	c #F9D384",
"o.	c #5F4312",
"p.	c #52380E",
"q.	c #080506",
"r.	c #FCD586",
"s.	c #FED788",
"t.	c #FDD687",
"u.	c #2D2429",
"v.	c #2B2327",
"w.	c #FDD686",
"x.	c #FFD888",
"y.	c #FFD989",
"z.	c #FFDA8A",
"A.	c #FFD98A",
"B.	c #090708",
"C.	c #F1CA7D",
"D.	c #F3CD80",
"E.	c #FFD889",
"F.	c #F0CA7D",
"G.	c #EFC97B",
"H.	c #F1CA7F",
"I.	c #FED787",
"J.	c #FED887",
"K.	c #FDD787",
"L.	c #EFC97C",
"M.	c #4A3410",
"N.	c #F1CC7F",
"O.	c #F1CB7D",
"P.	c #523A0E",
"Q.	c #110D10",
"R.	c #251E22",
"S.	c #EEC97B",
"T.	c #543B0D",
"U.	c #47300D",
"V.	c #2C2428",
"W.	c #4A350B",
"X.	c #4C340B",
"Y.	c #1C1619",
"Z.	c #30272B",
"`.	c #1D171A",
" +	c #130E10",
".+	c #090607",
"++	c #000101",
"@+	c #0A0708",
"#+	c #0F0C0E",
"$+	c #2F272C",
"%+	c #040203",
"&+	c #382E34",
"*+	c #292226",
"=+	c #271F24",
"-+	c #060404",
";+	c #0E0B0C",
">+	c #282025",
",+	c #211B1E",
"'+	c #211A1E",
")+	c #261F23",
"!+	c #100C0F",
"                        . .                                                                             + @                   + ",
"                        # $ +                                                                           % &                     ",
"  * =                     +                                                                                                 - % ",
"  + +         ;                         > ,                                     @ %   * ' +                                 ) ) ",
"                              + ! ~     { ] ^                                   / *   + {             (                 +       ",
"                              ; * _     > &                 + : < @ +             >                   [               } :       ",
"    +                         +                               | 1 }                   +           @                             ",
"  _ 2 >                       3 <                           + 4 5 6                                                             ",
"  + 7                         } 8                             + +                                                               ",
"        ;                               -                                                                                   +   ",
"        9 +                             &                         { *                                                           ",
"                +                                             +   + -           = 0                                             ",
"                                                    a a a a a a a a a a a a b   + +                                             ",
"                                                  a c d d d e f f e d d d c a g                                                 ",
"                                                a a d d e h i j k l h e d d a a m                                               ",
"                                              a n d d e o p a a a a p q e d d n a g                                             ",
"              r s 9             9             a f d d f j t a u v a t k f d d f a w b       + @ >                               ",
"              % x y                           a f z d f a a A B C C a a f d z f a D E       F G H                               ",
"                %                       >     a f d d f a I J K m m K a f d d f a L g       + r                                 ",
"                                              a f d d e a M N m O O m a e d d f a B m                                           ",
"                    + ;                       a e d P Q a a R m O O a a Q Q S e a B m                                           ",
"                    8 -                       a T U V W W X a K m a V W W V U T a L g                                           ",
"                                              a Y Z `  ...+.a a a a  . .+.` Z @.a #.$.                                          ",
"              +                               %.a a &.*.=.-.;.>.,.;.&.*.*.&.a a '.).%.                                          ",
"    - H                               ;       !.a a ~.{.].&.;.^.^.;.&./.{.(.a a _.:.!.                                          ",
"    : ~               +             9 @       a <.[.[.}.|.1.a a a a 2.|.}.3.[.}.a :.!.                                          ",
"                    4.: >                     a 5.6.6.7.8.9.a 0.a.a b.c.7.6.6.7.a ).%.              ; @ ;                       ",
"                                              a d.e.f.d.a a 0.g.D D a a h.i.i.d.a #.$.              r j.k.                      ",
"          < 2                         + +     a l.m.m.n.a o.p.K m m K a n.m.m.n.a L g                                       > + ",
"          , [                         < q.    a r.s.t.t.a 0.R m O O m a t.t.s.r.a B m                                           ",
"                                      u.v.@   a w.x.y.z.a a R m O O a a y.A.x.w.a B m                                           ",
"                                      y B.+   a C.D.x.y.y.E.a K m a x.z.y.E.D.F.a L g                                           ",
"                            + <       ; ;     a G.H.t.I.I.J.a a a a J.K.I.w.C.L.a M.E                                           ",
"                              9     + +       b a a C.N.O.O.N.O.O.O.N.O.N.C.a a P.w b                                           ",
"                                    Q.R.        g a G.G.L.G.L.S.L.G.S.G.L.G.a T.U.g   >                                         ",
"                                    [ !           m a a a a a a a a a a a a p.U.m @ V.@                             r } y       ",
"                                      >             g w U.W.X.R D D R X.W.U.w g   @ Y.                              8 R.=       ",
"                                                      b E g g g g g g g g E b                   & +                   < _       ",
"                                                                                            < Z.`.                    8 %       ",
"                                                                      y ;                   *  +r             y               .+",
"                                                                                                              *               } ",
"                                            % 2 +                                                                               ",
"                  + y                       % ) 9   H ;                                                                         ",
"              + @   ++        @ @++                 #+k.                                                                        ",
"              @ $+'           + %+                                                                                              ",
"              k.&+|                                                           + { +                                             ",
"                ^ - +       ^                                                 7 *+=+              9 %                     -+| H ",
"                            ;+>+                                              @ ,+'+%             > +                     . )+!+"};
