/* XPM */
static char * four_xpm[] = {
"64 48 203 2",
"  	c #000000",
". 	c #090608",
"+ 	c #010101",
"@ 	c #020202",
"# 	c #0C090B",
"$ 	c #161114",
"% 	c #030203",
"& 	c #060506",
"* 	c #0A0709",
"= 	c #0F0B0D",
"- 	c #040303",
"; 	c #010001",
"> 	c #010000",
", 	c #050304",
"' 	c #100D0F",
") 	c #151013",
"! 	c #161113",
"~ 	c #0D0A0C",
"{ 	c #030202",
"] 	c #181316",
"^ 	c #000100",
"/ 	c #080507",
"( 	c #0D090B",
"_ 	c #050404",
": 	c #0B0809",
"< 	c #0B080A",
"[ 	c #080607",
"} 	c #100C0E",
"| 	c #171215",
"1 	c #342A30",
"2 	c #110D0F",
"3 	c #1E181B",
"4 	c #140F12",
"5 	c #292125",
"6 	c #0A0809",
"7 	c #050405",
"8 	c #070506",
"9 	c #020102",
"0 	c #B4840E",
"a 	c #080300",
"b 	c #141012",
"c 	c #DCAA5E",
"d 	c #DEAA5F",
"e 	c #DDAA5F",
"f 	c #DCA85D",
"g 	c #211203",
"h 	c #DDAA5E",
"i 	c #DCA95E",
"j 	c #372206",
"k 	c #402808",
"l 	c #281803",
"m 	c #442B07",
"n 	c #311E03",
"o 	c #030303",
"p 	c #191417",
"q 	c #462C0A",
"r 	c #341D03",
"s 	c #241E21",
"t 	c #040304",
"u 	c #DCA85E",
"v 	c #462F0A",
"w 	c #332003",
"x 	c #120E10",
"y 	c #231D20",
"z 	c #060405",
"A 	c #D19F56",
"B 	c #D1A056",
"C 	c #E0AC60",
"D 	c #DDAB5F",
"E 	c #D0A056",
"F 	c #DFAC60",
"G 	c #E1AE61",
"H 	c #E2B062",
"I 	c #D5A45A",
"J 	c #BE924F",
"K 	c #775507",
"L 	c #CC9D57",
"M 	c #462F0B",
"N 	c #E5B464",
"O 	c #E7B665",
"P 	c #E8B666",
"Q 	c #E6B565",
"R 	c #B38C4A",
"S 	c #25180A",
"T 	c #0C0202",
"U 	c #0F0402",
"V 	c #987540",
"W 	c #E8B766",
"X 	c #4A3115",
"Y 	c #352004",
"Z 	c #E9B866",
"` 	c #EAB968",
" .	c #EAB967",
"..	c #E9B867",
"+.	c #624505",
"@.	c #0C0101",
"#.	c #040000",
"$.	c #866837",
"%.	c #4C3110",
"&.	c #392206",
"*.	c #EDBD6A",
"=.	c #EDBC69",
"-.	c #6B4D06",
";.	c #0E0202",
">.	c #100402",
",.	c #AB874A",
"'.	c #EDBD69",
").	c #3E2605",
"!.	c #EDBE69",
"~.	c #EFBF6C",
"{.	c #F0C06D",
"].	c #D9AD61",
"^.	c #9D7C44",
"/.	c #8A6D3B",
"(.	c #AE894D",
"_.	c #E1B465",
":.	c #F0BF6C",
"<.	c #EEBE6A",
"[.	c #F0C26B",
"}.	c #F2C46E",
"|.	c #F2C36D",
"1.	c #F2C36E",
"2.	c #F3C46F",
"3.	c #F5C670",
"4.	c #F4C570",
"5.	c #F5C570",
"6.	c #F1C26D",
"7.	c #3B2405",
"8.	c #130700",
"9.	c #010100",
"0.	c #E5B865",
"a.	c #E6B966",
"b.	c #E5B965",
"c.	c #E5B966",
"d.	c #E8BB67",
"e.	c #F6C871",
"f.	c #F7C972",
"g.	c #F8C972",
"h.	c #F6C771",
"i.	c #E9BC67",
"j.	c #F7CA71",
"k.	c #FACC74",
"l.	c #FACC73",
"m.	c #F8CA72",
"n.	c #E8BC67",
"o.	c #221C1F",
"p.	c #020101",
"q.	c #FDCF76",
"r.	c #4A2F09",
"s.	c #080506",
"t.	c #432B07",
"u.	c #492E09",
"v.	c #4B3109",
"w.	c #FDD076",
"x.	c #FFD277",
"y.	c #54360E",
"z.	c #462A07",
"A.	c #2D2429",
"B.	c #2B2327",
"C.	c #3B2605",
"D.	c #FDCF75",
"E.	c #FFD378",
"F.	c #4E320B",
"G.	c #090708",
"H.	c #2F1A03",
"I.	c #FBCE74",
"J.	c #FCCF75",
"K.	c #493009",
"L.	c #ECC16C",
"M.	c #EDC16A",
"N.	c #EDC26C",
"O.	c #ECC06A",
"P.	c #E9BE68",
"Q.	c #EABE68",
"R.	c #EABE69",
"S.	c #110D10",
"T.	c #251E22",
"U.	c #0C080A",
"V.	c #422907",
"W.	c #351F03",
"X.	c #3A2305",
"Y.	c #2C2428",
"Z.	c #1D1001",
"`.	c #1C1619",
" +	c #30272B",
".+	c #1D171A",
"++	c #130E10",
"@+	c #090607",
"#+	c #000101",
"$+	c #0A0708",
"%+	c #0F0C0E",
"&+	c #2F272C",
"*+	c #040203",
"=+	c #382E34",
"-+	c #292226",
";+	c #271F24",
">+	c #060404",
",+	c #0E0B0C",
"'+	c #282025",
")+	c #211B1E",
"!+	c #211A1E",
"~+	c #261F23",
"{+	c #100C0F",
"                        . .                                                                             + @                   + ",
"                        # $ +                                                                           % &                     ",
"  * =                     +                                                                                                 - % ",
"  + +         ;                         > ,                                     @ %   * ' +                                 ) ) ",
"                              + ! ~     { ] ^                                   / *   + {             (                 +       ",
"                              ; * _     > &                 + : < @ +             >                   [               } :       ",
"    +                         +                               | 1 }                   +           @                             ",
"  _ 2 >                       3 <                           + 4 5 6                                                             ",
"  + 7                         } 8                             + +                                                               ",
"        ;                               -                                                                                   +   ",
"        9 +                             &                         { *                                                           ",
"                +                                             0 0 0 0 0 0 a     = b                                             ",
"                                                            0 c d e d d f 0 g   + +                                             ",
"                                                          0 0 h e d d e i 0 j a                                                 ",
"                                                        0 i d d e d d e i 0 k l                                                 ",
"                                                        0 i d e d e h d i 0 m n                                                 ",
"              o p 9             9                       0 c d e d d d d i 0 q r             + @ >                               ",
"              % s t                                   0 0 d h c c h e d u 0 v w             x y z                               ",
"                %                       >           0 c d d c A B c e d i 0 v w             + o                                 ",
"                                                  0 0 C C D c E B e C F e 0 v w                                                 ",
"                    + ;                         0 G H H G I J K K L H H G 0 M w                                                 ",
"                    8 -                         0 N O P Q R S T U V O W N 0 X Y                                                 ",
"                                                0 Z `  ...+.@.#.@.$.` ` Z 0 %.&.                                                ",
"              +                               0 0 *.=.*.=.-.;.T >.,.=.=.'.0 0 ).g                                               ",
"    - z                               ;     0 !.~.~.~.{.~.].^./.(._.{.~.:.~.<.0 w                                               ",
"    : ~               +             9 @     0 [.}.}.}.}.|.}.1.}.2.3.4.3.5.2.6.0 7.8.                                            ",
"                    9.: >                   0 0.a.b.c.c.c.c.a.c.d.e.f.g.h.d.0.0 ).g                 ; @ ;                       ",
"                                            0 c.c.a.b.a.b.c.b.b.i.j.k.l.m.n.b.0 ).g                 o o.p.                      ",
"          < 2                         + +   a 0 0 0 0 0 0 0 0 0 0 l.q.q.l.0 0 r.7.8.                                        > + ",
"          , [                         < s.    g j k t.q v v u.v.0 w.x.x.q.0 y.z.w                                               ",
"                                      A.B.@     a l n w w w j C.0 D.E.x.w.0 F.).g                                               ",
"                                      t G.+                   H.0 I.J.D.I.0 K.j                                                 ",
"                            + <       ; ;                       0 L.M.N.O.0 z.r _ 8                                             ",
"                              9     + +             @           0 P.Q.R.Q.0 k l                                                 ",
"                                    S.T.            U.p.        a 0 0 0 0 V.j a       >                                         ",
"                                    [ !             9             g W.X.X.W.g     @ Y.@                             o } t       ",
"                                      >                             a Z.Z.a       @ `.                              8 T.=       ",
"                                                                                                & +                   < _       ",
"                                                                                            <  +.+                    8 %       ",
"                                                                      t ;                   * ++o             t               @+",
"                                                                                                              *               } ",
"                                            % 2 +                                                                               ",
"                  + t                       % ) 9   z ;                                                                         ",
"              + @   #+        @ $++                 %+p.                                                                        ",
"              @ &+'           + *+                                                                                              ",
"              p.=+|                                                           + { +                                             ",
"                ^ - +       ^                                                 7 -+;+              9 %                     >+| z ",
"                            ,+'+                                              @ )+!+%             > +                     . ~+{+"};
