/* XPM */
static char * nine_xpm[] = {
"64 48 217 2",
"  	c #000000",
". 	c #090608",
"+ 	c #010101",
"@ 	c #020202",
"# 	c #0C090B",
"$ 	c #161114",
"% 	c #030203",
"& 	c #060506",
"* 	c #0A0709",
"= 	c #0F0B0D",
"- 	c #040303",
"; 	c #010001",
"> 	c #010000",
", 	c #050304",
"' 	c #100D0F",
") 	c #151013",
"! 	c #161113",
"~ 	c #0D0A0C",
"{ 	c #030202",
"] 	c #181316",
"^ 	c #000100",
"/ 	c #080507",
"( 	c #0D090B",
"_ 	c #050404",
": 	c #0B0809",
"< 	c #0B080A",
"[ 	c #080607",
"} 	c #100C0E",
"| 	c #171215",
"1 	c #342A30",
"2 	c #110D0F",
"3 	c #1E181B",
"4 	c #140F12",
"5 	c #292125",
"6 	c #0A0809",
"7 	c #050405",
"8 	c #070506",
"9 	c #020102",
"0 	c #141012",
"a 	c #C2950D",
"b 	c #1C120B",
"c 	c #030303",
"d 	c #E4B871",
"e 	c #E5B872",
"f 	c #392608",
"g 	c #E4B771",
"h 	c #E4B670",
"i 	c #392704",
"j 	c #160B00",
"k 	c #E5B871",
"l 	c #DBAF69",
"m 	c #DAAE67",
"n 	c #3C270A",
"o 	c #191417",
"p 	c #E2B670",
"q 	c #D8AD67",
"r 	c #D7AC66",
"s 	c #D6AB66",
"t 	c #D9AD67",
"u 	c #E4B770",
"v 	c #241E21",
"w 	c #040304",
"x 	c #DBAE67",
"y 	c #382505",
"z 	c #120E10",
"A 	c #231D20",
"B 	c #060405",
"C 	c #624720",
"D 	c #604520",
"E 	c #D6AB65",
"F 	c #D9AE67",
"G 	c #422C09",
"H 	c #5B4010",
"I 	c #52380F",
"J 	c #4B330F",
"K 	c #4A320C",
"L 	c #49330B",
"M 	c #312105",
"N 	c #E6B973",
"O 	c #E7B973",
"P 	c #5F4312",
"Q 	c #52380E",
"R 	c #432E07",
"S 	c #392804",
"T 	c #E7BA74",
"U 	c #4E340B",
"V 	c #E8BB74",
"W 	c #E9BD75",
"X 	c #E7BC74",
"Y 	c #4A320B",
"Z 	c #2F1C03",
"` 	c #2E1B01",
" .	c #523918",
"..	c #3A2805",
"+.	c #E9BE76",
"@.	c #ECC078",
"#.	c #EDC278",
"$.	c #EDC379",
"%.	c #EDC279",
"&.	c #503A15",
"*.	c #E2B870",
"=.	c #E4BA72",
"-.	c #EEC479",
";.	c #EFC47B",
">.	c #EFC47A",
",.	c #EEC47A",
"'.	c #EDC378",
").	c #503912",
"!.	c #E2B971",
"~.	c #EFC57A",
"{.	c #EFC67B",
"].	c #F0C57A",
"^.	c #F0C67A",
"/.	c #F0C57B",
"(.	c #F1C77C",
"_.	c #F1C87C",
":.	c #EFC67A",
"<.	c #4F380F",
"[.	c #E5BD73",
"}.	c #E6BD74",
"|.	c #E7BE74",
"1.	c #E8BF76",
"2.	c #F2C97D",
"3.	c #F4CA7F",
"4.	c #F3CA7F",
"5.	c #010100",
"6.	c #E8C076",
"7.	c #E7C075",
"8.	c #E7C076",
"9.	c #E9C277",
"0.	c #F5CE81",
"a.	c #F8CF83",
"b.	c #0A0500",
"c.	c #261704",
"d.	c #312102",
"e.	c #433003",
"f.	c #402D03",
"g.	c #463203",
"h.	c #674C04",
"i.	c #584104",
"j.	c #8C6A07",
"k.	c #5D4504",
"l.	c #B2890B",
"m.	c #C0930D",
"n.	c #F9D184",
"o.	c #F9D285",
"p.	c #F8D083",
"q.	c #221C1F",
"r.	c #020101",
"s.	c #030100",
"t.	c #352402",
"u.	c #3B2A03",
"v.	c #302102",
"w.	c #0A0301",
"x.	c #302004",
"y.	c #281904",
"z.	c #53390D",
"A.	c #7C5D06",
"B.	c #FCD486",
"C.	c #FAD385",
"D.	c #F9D183",
"E.	c #4F360F",
"F.	c #080506",
"G.	c #FED788",
"H.	c #FED787",
"I.	c #FDD687",
"J.	c #513A0E",
"K.	c #FCD586",
"L.	c #F1CB7D",
"M.	c #EFC97C",
"N.	c #2D2429",
"O.	c #2B2327",
"P.	c #FDD686",
"Q.	c #FFD889",
"R.	c #FFDA8A",
"S.	c #FFD989",
"T.	c #FFD888",
"U.	c #F1CA7D",
"V.	c #EFC97B",
"W.	c #090708",
"X.	c #F3CD7E",
"Y.	c #FED888",
"Z.	c #FFD98A",
"`.	c #F1CB7F",
" +	c #FDD787",
".+	c #FCD686",
"++	c #583D12",
"@+	c #49330C",
"#+	c #F0CA7D",
"$+	c #F1CC7F",
"%+	c #573D11",
"&+	c #4A350B",
"*+	c #110D10",
"=+	c #251E22",
"-+	c #EEC97B",
";+	c #2C2428",
">+	c #1C1619",
",+	c #352105",
"'+	c #30272B",
")+	c #1D171A",
"!+	c #130E10",
"~+	c #090607",
"{+	c #000101",
"]+	c #0A0708",
"^+	c #0F0C0E",
"/+	c #2F272C",
"(+	c #040203",
"_+	c #382E34",
":+	c #292226",
"<+	c #271F24",
"[+	c #060404",
"}+	c #0E0B0C",
"|+	c #282025",
"1+	c #211B1E",
"2+	c #211A1E",
"3+	c #261F23",
"4+	c #100C0F",
"                        . .                                                                             + @                   + ",
"                        # $ +                                                                           % &                     ",
"  * =                     +                                                                                                 - % ",
"  + +         ;                         > ,                                     @ %   * ' +                                 ) ) ",
"                              + ! ~     { ] ^                                   / *   + {             (                 +       ",
"                              ; * _     > &                 + : < @ +             >                   [               } :       ",
"    +                         +                               | 1 }                   +           @                             ",
"  _ 2 >                       3 <                           + 4 5 6                                                             ",
"  + 7                         } 8                             + +                                                               ",
"        ;                               -                                                                                   +   ",
"        9 +                             &                         { *                                                           ",
"                +                                             +   + -           = 0                                             ",
"                                                  a a a a a a a a b c           + +                                             ",
"                                                a d e e e e e e d a f                                                           ",
"                                              a a e e g g h d e e a a i j                                                       ",
"                                            a d e k d l m m l d e e d a n j                                                     ",
"              c o 9             9         a a e e d p q r s t p u e e a a i                 + @ >                               ",
"              % v w                     a g k e d x t a a a a t l d e k g a y               z A B                               ",
"                %                       a g e e g m s a C D a E F g e e g a G j             + c                                 ",
"                                        a g e e g a a H I J K a a g e e g a L M                                                 ",
"                    + ;                 a e N O e a P Q R S S R a e N T e a U y                                                 ",
"                    8 -                 a V W W X a H Y S Z ` S a X W W V a  ...                                                ",
"                                        a +.@.#.#.a a Y S ` ` a a $.#.%.@.a &.S                                                 ",
"              +                         a *.=.-.;.>.,.a R S a -.;.;.>.;.'.a ).S                                                 ",
"    - B                               ; a !.=.,.~.{.].a a a a ^./.(._.(.:.a <.S                                                 ",
"    : ~               +             9 @ j a a [.}.|.}.|.}.}.}.|.1.2.3.4.2.a <.S                                                 ",
"                    5.: >                 y a 6.6.6.7.6.8.6.6.6.9.0.a.a.0.a <.S                     ; @ ;                       ",
"                                          b.c.d.e.f.g.h.i.j.k.l.m.n.o.o.p.a <.S                     c q.r.                      ",
"          < 2                         + +   s.t.e.u.v.w.x.y.z.A.l.B.B.C.D.a E.S                                             > + ",
"          , [                         < F.  a B.G.H.I.a J.E.a K.G.G.K.L.M.a U y                                                 ",
"                                      N.O.@ a P.Q.R.S.a a a a R.S.T.I.U.V.a L M                                                 ",
"                                      w W.+ a U.X.Y.Z.S.R.R.S.S.Q.X.`.a a J.G j                                                 ",
"                            + <       ; ;   a M.U.P.H.H.G. +Y.H..+U.V.a ++@+y   _ 8                                             ",
"                              9     + +     j a a #+L.$+L.L.L.$+U.a a %+&+i                                                     ",
"                                    *+=+      y a M.V.M.-+M.V.-+V.a ++&+n j           >                                         ",
"                                    [ !         S a a a a a a a a J.@+i j         @ ;+@                             c } w       ",
"                                      >           y G L U E.E.U L G y             @ >+                              8 =+=       ",
"                                                    j ,+y S S y ,+j                             & +                   < _       ",
"                                                                                            < '+)+                    8 %       ",
"                                                                      w ;                   * !+c             w               ~+",
"                                                                                                              *               } ",
"                                            % 2 +                                                                               ",
"                  + w                       % ) 9   B ;                                                                         ",
"              + @   {+        @ ]++                 ^+r.                                                                        ",
"              @ /+'           + (+                                                                                              ",
"              r._+|                                                           + { +                                             ",
"                ^ - +       ^                                                 7 :+<+              9 %                     [+| B ",
"                            }+|+                                              @ 1+2+%             > +                     . 3+4+"};
