/* XPM */
static char * one_xpm[] = {
"64 48 169 2",
"  	c #000000",
". 	c #090608",
"+ 	c #010101",
"@ 	c #020202",
"# 	c #0C090B",
"$ 	c #161114",
"% 	c #030203",
"& 	c #060506",
"* 	c #0A0709",
"= 	c #0F0B0D",
"- 	c #040303",
"; 	c #010001",
"> 	c #010000",
", 	c #050304",
"' 	c #100D0F",
") 	c #151013",
"! 	c #161113",
"~ 	c #0D0A0C",
"{ 	c #030202",
"] 	c #181316",
"^ 	c #000100",
"/ 	c #080507",
"( 	c #0D090B",
"_ 	c #050404",
": 	c #0B0809",
"< 	c #0B080A",
"[ 	c #080607",
"} 	c #100C0E",
"| 	c #171215",
"1 	c #342A30",
"2 	c #110D0F",
"3 	c #1E181B",
"4 	c #140F12",
"5 	c #292125",
"6 	c #0A0809",
"7 	c #050405",
"8 	c #070506",
"9 	c #020102",
"0 	c #B4840E",
"a 	c #090401",
"b 	c #141012",
"c 	c #DCAA5E",
"d 	c #DEAA5F",
"e 	c #DCA95E",
"f 	c #221406",
"g 	c #DDAA5F",
"h 	c #DDAA5E",
"i 	c #38230A",
"j 	c #080300",
"k 	c #DCA95D",
"l 	c #402808",
"m 	c #281803",
"n 	c #442B07",
"o 	c #311E03",
"p 	c #030303",
"q 	c #191417",
"r 	c #462C0A",
"s 	c #341D03",
"t 	c #241E21",
"u 	c #040304",
"v 	c #462F0A",
"w 	c #332003",
"x 	c #120E10",
"y 	c #231D20",
"z 	c #060405",
"A 	c #D1A056",
"B 	c #E0AC60",
"C 	c #DFAC60",
"D 	c #D2A258",
"E 	c #D3A358",
"F 	c #E1AE61",
"G 	c #E2B062",
"H 	c #E1AF61",
"I 	c #D5A65A",
"J 	c #D6A65B",
"K 	c #E5B464",
"L 	c #E8B666",
"M 	c #E7B665",
"N 	c #E6B465",
"O 	c #0E0A0D",
"P 	c #130E11",
"Q 	c #4F340B",
"R 	c #E9B866",
"S 	c #EAB967",
"T 	c #EAB968",
"U 	c #211203",
"V 	c #351F06",
"W 	c #3C2605",
"X 	c #3F2808",
"Y 	c #422C07",
"Z 	c #EABA67",
"` 	c #EDBD69",
" .	c #EDBD6A",
"..	c #060505",
"+.	c #1D1001",
"@.	c #2F1B03",
"#.	c #351F03",
"$.	c #EEBE6A",
"%.	c #EFBF6C",
"&.	c #EDBE69",
"*.	c #F2C46E",
"=.	c #F4C570",
"-.	c #F5C670",
";.	c #010100",
">.	c #F5C870",
",.	c #F8C972",
"'.	c #F7C972",
").	c #F5C770",
"!.	c #F7CA72",
"~.	c #FACC73",
"{.	c #F8CA72",
"].	c #4A2E0A",
"^.	c #372206",
"/.	c #221C1F",
"(.	c #020101",
"_.	c #2F1A03",
":.	c #FBCE75",
"<.	c #FDCF76",
"[.	c #FDCF75",
"}.	c #4B3109",
"|.	c #3B2605",
"1.	c #080506",
"2.	c #FED277",
"3.	c #FFD277",
"4.	c #2D2429",
"5.	c #2B2327",
"6.	c #FFD378",
"7.	c #FFD278",
"8.	c #FCCF75",
"9.	c #090708",
"0.	c #FBCE74",
"a.	c #FDD076",
"b.	c #ECC06A",
"c.	c #ECC16A",
"d.	c #EDC16A",
"e.	c #EDC26C",
"f.	c #3B2509",
"g.	c #201306",
"h.	c #EABE68",
"i.	c #EABF69",
"j.	c #E9BE68",
"k.	c #EABE69",
"l.	c #3A2305",
"m.	c #110D10",
"n.	c #251E22",
"o.	c #422907",
"p.	c #442B09",
"q.	c #432B07",
"r.	c #2C2428",
"s.	c #1C1619",
"t.	c #30272B",
"u.	c #1D171A",
"v.	c #130E10",
"w.	c #090607",
"x.	c #000101",
"y.	c #0A0708",
"z.	c #0F0C0E",
"A.	c #2F272C",
"B.	c #040203",
"C.	c #382E34",
"D.	c #292226",
"E.	c #271F24",
"F.	c #060404",
"G.	c #0E0B0C",
"H.	c #282025",
"I.	c #211B1E",
"J.	c #211A1E",
"K.	c #261F23",
"L.	c #100C0F",
"                        . .                                                                             + @                   + ",
"                        # $ +                                                                           % &                     ",
"  * =                     +                                                                                                 - % ",
"  + +         ;                         > ,                                     @ %   * ' +                                 ) ) ",
"                              + ! ~     { ] ^                                   / *   + {             (                 +       ",
"                              ; * _     > &                 + : < @ +             >                   [               } :       ",
"    +                         +                               | 1 }                   +           @                             ",
"  _ 2 >                       3 <                           + 4 5 6                                                             ",
"  + 7                         } 8                             + +                                                               ",
"        ;                               -                                                                                   +   ",
"        9 +                             &                         { *                                                           ",
"                +                                         0 0 0 0 a -           = b                                             ",
"                                                        0 c d d e 0 f           + +                                             ",
"                                                      0 0 g d h e 0 i j                                                         ",
"                                                    0 k d d d d e 0 l m                                                         ",
"                                                  0 0 d g g d g e 0 n o                                                         ",
"              p q 9             9               0 c d h d d d g e 0 r s                     + @ >                               ",
"              % t u                           0 0 g d c e d h d e 0 v w                     x y z                               ",
"                %                       >   0 e d d c A A c d g e 0 v w                     + p                                 ",
"                                            0 c g d c A A g B C d 0 v w                                                         ",
"                    + ;                     0 D E E D 0 0 F G H F 0 v w   + +                                                   ",
"                    8 -                     0 I J I I 0 0 K L M N 0 v w   O P +                                                 ",
"                                            j 0 0 0 0 Q 0 R S T R 0 v w   ( #                                                   ",
"              +                               U V W X Y 0 Z `  .Z 0 v w   8 ..                                                  ",
"    - z                               ;         j +.@.#.0 $.%.%.&.0 v w                                                         ",
"    : ~               +             9 @               +.0 *.=.-.*.0 v w                                                         ",
"                    ;.: >                               0 >.,.'.).0 v w                             ; @ ;                       ",
"                                                        0 !.~.~.{.0 ].^.                            p /.(.                      ",
"          < 2                         + +             _.0 :.<.[.:.0 }.|._.                                                  > + ",
"          , [                         < 1.    0 0 0 0 0 0 2.3.2.3.0 0 0 0 0 0 j                                                 ",
"                                      4.5.@ 0 [.6.3.3.2.7.3.6.6.3.3.6.3.6.6.8.0 U                                               ",
"                                      u 9.+ 0 0.<.a.[.[.[.[.<.8.a.[.8.[.[.[.:.0 #.j                                             ",
"                            + <       ; ;   0 b.c.d.e.c.d.e.d.d.d.e.d.e.d.c.b.0 f.g.                                            ",
"                              9     + +     0 h.i.h.h.i.h.i.j.i.h.j.h.k.h.i.k.0 l.+.                                            ",
"                                    m.n.    j 0 0 0 0 0 0 0 0 0 0 0 0 0 0 0 0 o.#.j   >                                         ",
"                                    [ !       U ^.l p.r v v v v v v v v r q.l ^.U @ r.@                             p } u       ",
"                                      >         j m o w w w w w w w w w w o m j   @ s.                              8 n.=       ",
"                                                                                                & +                   < _       ",
"                                                                                            < t.u.                    8 %       ",
"                                                                      u ;                   * v.p             u               w.",
"                                                                                                              *               } ",
"                                            % 2 +                                                                               ",
"                  + u                       % ) 9   z ;                                                                         ",
"              + @   x.        @ y.+                 z.(.                                                                        ",
"              @ A.'           + B.                                                                                              ",
"              (.C.|                                                           + { +                                             ",
"                ^ - +       ^                                                 7 D.E.              9 %                     F.| z ",
"                            G.H.                                              @ I.J.%             > +                     . K.L."};
