/* XPM */
static char * seven_xpm[] = {
"64 48 192 2",
"  	c #000000",
". 	c #090608",
"+ 	c #010101",
"@ 	c #020202",
"# 	c #0C090B",
"$ 	c #161114",
"% 	c #030203",
"& 	c #060506",
"* 	c #0A0709",
"= 	c #0F0B0D",
"- 	c #040303",
"; 	c #010001",
"> 	c #010000",
", 	c #050304",
"' 	c #100D0F",
") 	c #151013",
"! 	c #161113",
"~ 	c #0D0A0C",
"{ 	c #030202",
"] 	c #181316",
"^ 	c #000100",
"/ 	c #080507",
"( 	c #0D090B",
"_ 	c #050404",
": 	c #0B0809",
"< 	c #0B080A",
"[ 	c #080607",
"} 	c #100C0E",
"| 	c #171215",
"1 	c #342A30",
"2 	c #110D0F",
"3 	c #1E181B",
"4 	c #140F12",
"5 	c #292125",
"6 	c #0A0809",
"7 	c #050405",
"8 	c #070506",
"9 	c #020102",
"0 	c #C2950D",
"a 	c #0A0500",
"b 	c #141012",
"c 	c #E4B771",
"d 	c #E5B872",
"e 	c #E5B871",
"f 	c #261805",
"g 	c #E3B670",
"h 	c #E4B671",
"i 	c #E4B670",
"j 	c #E4B871",
"k 	c #3E2A0A",
"l 	c #D8AC67",
"m 	c #DAAE67",
"n 	c #D9AE67",
"o 	c #D9AD66",
"p 	c #DBAF69",
"q 	c #48310D",
"r 	c #2E1E05",
"s 	c #D7AC66",
"t 	c #D6AC66",
"u 	c #D6AB66",
"v 	c #4C340B",
"w 	c #382505",
"x 	c #030303",
"y 	c #191417",
"z 	c #4F360F",
"A 	c #3A2405",
"B 	c #241E21",
"C 	c #040304",
"D 	c #261704",
"E 	c #4C340A",
"F 	c #513810",
"G 	c #50380F",
"H 	c #543A0E",
"I 	c #563D12",
"J 	c #392804",
"K 	c #120E10",
"L 	c #231D20",
"M 	c #060405",
"N 	c #412F1C",
"O 	c #44301D",
"P 	c #442F07",
"Q 	c #D8AD67",
"R 	c #4E340B",
"S 	c #221501",
"T 	c #E6B973",
"U 	c #E7B973",
"V 	c #DBB06A",
"W 	c #D9AD67",
"X 	c #49330B",
"Y 	c #312105",
"Z 	c #E7BA73",
"` 	c #E9BD75",
" .	c #E7BC74",
"..	c #DEB26D",
"+.	c #DBB16B",
"@.	c #513A0E",
"#.	c #422C09",
"$.	c #160B00",
"%.	c #EBC077",
"&.	c #EDC279",
"*.	c #E9BE76",
"=.	c #E0B76F",
"-.	c #DEB46D",
";.	c #5A3F1A",
">.	c #49330D",
",.	c #EEC47A",
"'.	c #E4BA71",
").	c #E2B871",
"!.	c #5A3E16",
"~.	c #4C3712",
"{.	c #392704",
"].	c #F1C87D",
"^.	c #EFC57A",
"/.	c #E4BC72",
"(.	c #593E10",
"_.	c #4D350F",
":.	c #3D280E",
"<.	c #F2C97F",
"[.	c #F3CA7F",
"}.	c #F1C97C",
"|.	c #3C270A",
"1.	c #F8CF83",
"2.	c #F7CF83",
"3.	c #F6CE82",
"4.	c #F5CD80",
"5.	c #5B4010",
"6.	c #4D3609",
"7.	c #3E2A09",
"8.	c #010100",
"9.	c #F8D083",
"0.	c #F9D285",
"a.	c #F9D184",
"b.	c #EDC67A",
"c.	c #EBC378",
"d.	c #53390D",
"e.	c #FAD385",
"f.	c #FCD486",
"g.	c #FAD386",
"h.	c #F9D183",
"i.	c #EDC679",
"j.	c #ECC479",
"k.	c #221C1F",
"l.	c #020101",
"m.	c #FDD686",
"n.	c #FDD687",
"o.	c #F1CB7D",
"p.	c #EFC97C",
"q.	c #422C08",
"r.	c #221400",
"s.	c #080506",
"t.	c #FFDA8A",
"u.	c #FED787",
"v.	c #EFC97B",
"w.	c #583D12",
"x.	c #49330C",
"y.	c #2D2429",
"z.	c #2B2327",
"A.	c #FFD989",
"B.	c #FED788",
"C.	c #593F11",
"D.	c #3C2704",
"E.	c #090708",
"F.	c #F1CA7D",
"G.	c #F1CC7F",
"H.	c #48320C",
"I.	c #372405",
"J.	c #110D10",
"K.	c #251E22",
"L.	c #4A350B",
"M.	c #1A1000",
"N.	c #3C2706",
"O.	c #2C2428",
"P.	c #1C1619",
"Q.	c #30272B",
"R.	c #1D171A",
"S.	c #130E10",
"T.	c #090607",
"U.	c #000101",
"V.	c #0A0708",
"W.	c #0F0C0E",
"X.	c #2F272C",
"Y.	c #040203",
"Z.	c #382E34",
"`.	c #292226",
" +	c #271F24",
".+	c #060404",
"++	c #0E0B0C",
"@+	c #282025",
"#+	c #211B1E",
"$+	c #211A1E",
"%+	c #261F23",
"&+	c #100C0F",
"                        . .                                                                             + @                   + ",
"                        # $ +                                                                           % &                     ",
"  * =                     +                                                                                                 - % ",
"  + +         ;                         > ,                                     @ %   * ' +                                 ) ) ",
"                              + ! ~     { ] ^                                   / *   + {             (                 +       ",
"                              ; * _     > &                 + : < @ +             >                   [               } :       ",
"    +                         +                               | 1 }                   +           @                             ",
"  _ 2 >                       3 <                           + 4 5 6                                                             ",
"  + 7                         } 8                             + +                                                               ",
"        ;                               -                                                                                   +   ",
"        9 +                             &                         { *                                                           ",
"                +                             0 0 0 0 0 0 0 0 0 0 0 0 0 0 0 0 a = b                                             ",
"                                            0 c d e d d d d d d d d d d e d c 0 f +                                             ",
"                                            0 g c c c c c h c i c c j d d d c 0 k a                                             ",
"                                            0 l m n n o m m m m n m p j d d h 0 q r                                             ",
"                                            0 s s s s s t t s u s t o c d d c 0 v w                                             ",
"              x y 9             9           a 0 0 0 0 0 0 0 0 0 0 0 0 j d e c 0 z A         + @ >                               ",
"              % B C                           D k q E z F F G H I 0 0 d d j g 0 z J         K L M                               ",
"                %                       >       a r w J N O k P 0 j d d j p Q 0 R w         + x                                 ",
"                                                        9 7 S 0 0 T U d j V W 0 X Y                                             ",
"                    + ;                                     0 Z ` `  ...+.0 0 @.#.$.                                            ",
"                    8 -                                   { 0 %.&.%.*.=.-.0 ;.>.w                                               ",
"                                                            0 ,.,.'.).0 0 !.~.{.                                                ",
"              +                                           0 0 ].^./.).0 (._.:.$.                                                ",
"    - M                               ;                 0 <.[.[.}.0 0 (.E |.$.                                                  ",
"    : ~               +             9 @               0 0 1.2.3.4.0 5.6.7.$.                                                    ",
"                    8.: >                           0 9.0.0.a.b.c.0 d.P D                           ; @ ;                       ",
"                                                    0 e.f.g.h.i.j.0 v A                             x k.l.                      ",
"          < 2                         + +           0 m.n.o.p.0 0 H q.r.                                                    > + ",
"          , [                         < s.        0 0 t.u.o.v.0 w.x.w                                                           ",
"                                      y.z.@     0 u.A.A.B.0 0 C.v D.                                                            ",
"                                      C E.+     0 n.u.u.m.0 5.6.7.$.                                                            ",
"                            + <       ; ;       0 F.G.o.F.0 H P D               _ 8                                             ",
"                              9     + +         0 v.v.p.v.0 H.I.                                                                ",
"                                    J.K.        a 0 0 0 0 L.7.M.                      >                                         ",
"                                    [ !           D N.q.q.D.D                     @ O.@                             x } C       ",
"                                      >             a r.r.a                       @ P.                              8 K.=       ",
"                                                                                                & +                   < _       ",
"                                                                                            < Q.R.                    8 %       ",
"                                                                      C ;                   * S.x             C               T.",
"                                                                                                              *               } ",
"                                            % 2 +                                                                               ",
"                  + C                       % ) 9   M ;                                                                         ",
"              + @   U.        @ V.+                 W.l.                                                                        ",
"              @ X.'           + Y.                                                                                              ",
"              l.Z.|                                                           + { +                                             ",
"                ^ - +       ^                                                 7 `. +              9 %                     .+| M ",
"                            ++@+                                              @ #+$+%             > +                     . %+&+"};
