/* XPM */
static char *sand[] = {
/* columns rows colors chars-per-pixel */
"64 64 31 1 ",
"  c #CE9151",
". c #D29555",
"X c #D49857",
"o c #D69B5A",
"O c #D99E5D",
"+ c #DAA15F",
"@ c #DDA562",
"# c #DFA865",
"$ c #DBA768",
"% c #DFA969",
"& c #E0A765",
"* c #E0A966",
"= c #E3AD6A",
"- c #E6B16E",
"; c #E7B370",
": c #E9B673",
"> c #E6B877",
", c #EBB976",
"< c #EDBC7A",
"1 c #F0BF7C",
"2 c #EFC07E",
"3 c #F0C17E",
"4 c #EBBF80",
"5 c #EFC280",
"6 c #F2C583",
"7 c #F5C886",
"8 c #F6CB8A",
"9 c #F8CE8C",
"0 c #F9D08F",
"q c #F6D193",
"w c #FAD291",
/* pixels */
";-=-;,,><<<4641<1:=====-;:<14777777666664441,;==-::1111,,,1111,<",
"2<,:>,,,,<<<666611<:--=-:<1444474446666664641,:;:,:1111114644641",
"652<<,>>,<6666664111;-=--,<1444444667777667411,,,114366444411676",
"6665222<<166777741<,----:,,144444766<,::,1141,1<,,11166677644616",
"66668766666677764441,,,,,,4,,,4444:*+&-,<44411:;;:<1146779989766",
",,68878888q778888444,<,,1-+XXXO++oXo@%,4111,:;;-:,14441464477766",
"3788876666666776444<4411&. .XooOO@*-,,,:;;-====&-;:1667776<,,111",
"3662<,;-;;--%%-;,,,<144=oO@&%%==--:;;--=====&&&@&@-:1177997;&&;1",
";:::-=&&+++++++$*=;,444&&-,<,:::--=--==-&-&&====*&oO&17367996<;=",
"441,;-=&$$++@@*%=-;,141<<14444<4:;-%==&&&&&&======&O o1116367773",
"11411,:;=%$=%%---::,,,<444494844,,:-=&&&&&&====-;;=&o.=,1<,<,,,,",
"--;,,,,:;;--;-;::,,,,14499909988444:--==&=&=%---;;;;=&=-::;---==",
"===-::,,,,,:,,:,:,,<4448990999089441,:---;-======;,;----------==",
"*==-;::1441,,,,,,,<,4488998q990888441,,,:;--==&=====--===--=*=-*",
"====;:179841,,,:,<1144489949999988471<,,,,:;=&&&*=====*&*=&&@@@&",
"&&=-4477774<<,444799998844444744484411<<,,:;=&@&&====*&&&@&+++++",
"@=1476777777990wwwwww0099444444444444<,<<<>-=%&&=====-==$&&@@@++",
"1147716777790000ww090988847411,114141,,,>,::====-;,,,:-%%***&=:4",
",-=;,,,144477779887764414=$$=-:,,11<,,,,>::---=,60ww067448447944",
"-@OXXO&=;:1146744644,,,;+.O@;:<<1,,,::,:<44,,499ww00w9w0www09414",
"&++&&&&-:::,,111,<<,,,-X.O=>,,:,:::,:4790ww9699907799796484<41:;",
"+&=;;::::<:<1,::,,>>:-X.+*-;--:::,,:1467777777777444<1444;&&-&&@",
"=;:<1144411,,,-:,:;--@X+$=-::,,::,:,,<,11111:--===&&&&&&+OoOO++&",
":,1444774441,:;:--===+@=;:>,,,,;--:,,<,,:-=&++O+++++OO++++&**=-;",
"467777777741<;-:-==&&&=;:,,,1,,::--::;-%=&@@&*=-==&&&&&&==--::,1",
"77777777741,:-;--*&&=-:,,4,,:::::--%=&@++&&=;::<:;--=&==--:,,444",
"74144444441:--==&&&=-:,<<14441,;=-=&+Oo+&=:::<<,::;--=--;::,4444",
"47747777441,-=&@&&%-:,<<484474,-=&@OOoO=:1166611<<:;--;-;,<,1144",
"11147777761,:;=&&%;:,<<4444441-&+@@Ooo+-14717414<,:;;---;=XX+=-:",
"1147777777744,:-;:;::,,<11,:;&+&+@@++++@-:,,:::1<,:;-;:::&oO=-;<",
"11444661,177771:;;;;;;-;;;,<,::;=&*&+++$&==;;;;:1,:;---=-;;:::<1",
";:,:<-=&&:44441:;=-:,,,,,1477774,:%&@@&*-;;:::,<1,1,;--&&&-;;=--",
"****@OXXO2332222----:22333333w3341;=&&&=:,3,33373333,,;=&+++++&&",
"++@*@O@=;223-2-222322:2333w3w33344:=&&&-:1133337999763<,-=*@&+++",
"**-=*=2;;=***=----:2:33:3w3333::::::--=-:,337977093988762,,,-*++",
":--:-----=*@+++#@@=--233332-2:::;;::::<:,13376776979q09973,,,,,:",
"::::-==*@@#@@+++@@**-:323:2-----=-----==-:,,::,367999999933,,,,,",
":,::-=*=*****#*#@***=---2::::---=---==&=-:,,:,377388988873,33,,,",
"3-3:2-2-2--====***==--::--::-----==---:<,1,3,,3366777776333,,,,3",
"3333-2--=-==****====-::-22-2:--3---<,,<<,1,,,3,11136632<,:::::13",
"*=------====******==---33333333317733,,,,:,:,:,,,3,,,--**=*==*==",
"+***=*=*=*==***==*==-3-33333w3339999933::,,,,31:-**@&@++oooO++++",
"++++++**+***=***===-3333333333337773333133333,:=*@+OOXXOOOOOOO++",
"+O+****=22-***##*=--3333333=-#=3;**==,111,13:;-=&++X+XX+++&&&+++",
"-,33333w3333-+@@@@*=333:+XX....X.    .&=-::--=;-**@+OO++&*=--::;",
",33333332-2-22@+@@@:33:X  ...XXXX..    .@=-=--::--*@@@+@&==---::",
"-=----1*++OOX*--=-33,*+XXXO+O++++ooo..   O*--:,,:---*&@&&*===-=-",
"===*@OOOXXXX..O=---*@XXXX+++****&&&++oo. .+@*-;;2,,::=*&**==--=-",
"=**+OXOOOOOXXXX+++XXXXXO+@#=-----==-*++OO*:3:1332:3332-*****====",
"*+XOO++@+++++XXXXXXXXOO+@#=-:,:33333**+@*=33113323333332-=***@*@",
"OO++##**@@@++++XXXXX+O+@#=--333333w33-:*+@3333333333933332;-=@+O",
"++@**=**==*#@@@+++++++@@*--:333333w333w33:33333333333933332--@++",
"**==---:-:>>==**@@@@++@@#=-233333w333w333www3333333333333222-=*@",
"==---:,,:>33,,:-==*@@@@@*=-:2233333333www3w33331333333332-*****=",
"---:::133333333,---=#@@@#=---,2233333w3ww3333-+O*+**:=@+..o+@*==",
"==*=:13333333333222:-*#$@*=-=--:3333www3w333*XXXOXXXoXXXXXo++@**",
"#=-<33333333ww3w33332>=*@*===-::333333w333-@++++O+O+++++&&@@@OO+",
"=>>>2333330wwww3w033<>-=@@=--:,,:33333333-**@+@*++***===--232*@*",
"32>22>23ww0wwwwww333<3<3,3333,==:,333333--=********=---333333333",
"332333333333w3w33w3033333333-@+*-3333333---=**=**--3-3:333330333",
"23222<<-=$>833033w03333,3,:=+@=-33333333:-=******-3:3:33333332=2",
">:-=-*+Xo>233w3w3333333*OO+@=:,333333333,--===-----::::33-++*2=2",
":-=*$X.X$238303033333-@+@#=-333333w3w33333,,:::-::3:::3:=*++*;2;",
"-*#Ooo+>>2333333333:***==-:,33333w3w3w33333,::--:-3:3:-:---=-:;="
};
