/* XPM */
static char *see[] = {
/* columns rows colors chars-per-pixel */
"64 64 226 2 ",
"   c #2FA3C1",
".  c #32A5C2",
"X  c #35AAC6",
"o  c #3AAAC5",
"O  c #35AEC8",
"+  c #3BAEC9",
"@  c #3AA7C4",
"#  c #36B4CD",
"$  c #3BB5CD",
"%  c #3CB9CF",
"&  c #3DBCD2",
"*  c #38B8D0",
"=  c #45AEC8",
"-  c #42B3CC",
";  c #45B8CF",
":  c #49B4CC",
">  c #54B6CE",
",  c #59B6CE",
"<  c #52B9CF",
"1  c #43BDD3",
"2  c #4BBDD4",
"3  c #48B6D0",
"4  c #53BDD3",
"5  c #5BBED3",
"6  c #5BB7D0",
"7  c #66BECA",
"8  c #64BCD2",
"9  c #76BAC4",
"0  c #3EC1D5",
"q  c #43C2D6",
"w  c #4BC3D6",
"e  c #45C4D9",
"r  c #4CC5D9",
"t  c #46C9DE",
"y  c #4CC9DB",
"u  c #53C4D7",
"i  c #5CC1D5",
"p  c #5CC9D7",
"a  c #52C6D9",
"s  c #5BC5D9",
"d  c #53CADB",
"f  c #5BCCDC",
"g  c #5CD0DE",
"h  c #63C4D5",
"j  c #6BC3D5",
"k  c #63C6DA",
"l  c #63CDDC",
"z  c #6BCCDC",
"x  c #6AC7D9",
"c  c #72C5D3",
"v  c #75C8D5",
"b  c #7CCBD6",
"n  c #7AC7DA",
"m  c #73CDDB",
"M  c #7CCCDB",
"N  c #73C6D8",
"B  c #64D1DE",
"V  c #6DD2DE",
"C  c #74D2DD",
"Z  c #7CD4DD",
"A  c #7CD8DF",
"S  c #61C3CD",
"D  c #4CCCE0",
"F  c #55CFE0",
"G  c #5DCEE1",
"H  c #4ED2E4",
"J  c #54D2E3",
"K  c #5DD1E1",
"L  c #53D8E8",
"P  c #5EDBEA",
"I  c #63CDE1",
"U  c #6ECFE0",
"Y  c #75CFE5",
"T  c #64D4E3",
"R  c #6CD5E3",
"E  c #6BD9E5",
"W  c #6BDBE9",
"Q  c #66DAE8",
"!  c #73D4E2",
"~  c #7CD4E2",
"^  c #74DAE4",
"/  c #7BDBE3",
"(  c #7DD5E8",
")  c #73DDE9",
"_  c #7ADDEA",
"`  c #7FE0E5",
"'  c #75E1EC",
"]  c #7CE3EC",
"[  c #6FE0EB",
"{  c #8CB9B6",
"}  c #ABBCB2",
"|  c #B0BCAD",
" . c #C0BBA5",
".. c #A3C2B9",
"X. c #CBC8B2",
"o. c #8FBEC1",
"O. c #97CBCA",
"+. c #82CDD6",
"@. c #83CCDA",
"#. c #8ACEDC",
"$. c #83D4DC",
"%. c #8AD6DC",
"&. c #84D9DE",
"*. c #8CDADE",
"=. c #92D3DD",
"-. c #9BD6DF",
";. c #94DBDD",
":. c #9ADDDE",
">. c #99D1CF",
",. c #AACBC3",
"<. c #A5D2CC",
"1. c #B8D4CA",
"2. c #ABDEDB",
"3. c #A7DBD8",
"4. c #B3DBD4",
"5. c #B0DEDA",
"6. c #B3CAC1",
"7. c #9CE1DF",
"8. c #97E0DF",
"9. c #A4E3DF",
"0. c #ADE2DC",
"q. c #B3E3DC",
"w. c #BBE3DC",
"e. c #B8E1D7",
"r. c #83D6E3",
"t. c #8AD6E3",
"y. c #84DBE3",
"u. c #8CDCE3",
"i. c #83DDE9",
"p. c #8DDDE9",
"a. c #85D7E8",
"s. c #93D5E2",
"d. c #9CD6E3",
"f. c #93DDE4",
"g. c #9ADCE3",
"h. c #93DDEA",
"j. c #9BDEE9",
"k. c #9FDFF0",
"l. c #A3DDE5",
"z. c #ACDDE6",
"x. c #A4DEE8",
"c. c #A9DDE7",
"v. c #B3DFE5",
"b. c #B4DFE9",
"n. c #83E1E6",
"m. c #8DE1E5",
"M. c #84E3EA",
"N. c #8BE4EB",
"B. c #8CE9EC",
"V. c #85E9EB",
"C. c #94E2E4",
"Z. c #9CE3E4",
"A. c #94E4EA",
"S. c #9CE4EA",
"D. c #94E9ED",
"F. c #9BE9EB",
"G. c #8BEAF2",
"H. c #86E7F0",
"J. c #9CE5F0",
"K. c #96EBF1",
"L. c #9BECF3",
"P. c #91E6F0",
"I. c #9CF2F6",
"U. c #A3E4E4",
"Y. c #ABE5E4",
"T. c #A4E8E7",
"R. c #ADE8E6",
"E. c #A3E5EA",
"W. c #ABE5EB",
"Q. c #A5EAEB",
"!. c #ACEAEC",
"~. c #B3E5E3",
"^. c #BBE6E4",
"/. c #B2E9E6",
"(. c #BCEAE6",
"). c #B3E5EC",
"_. c #BBE5EC",
"`. c #B3EBED",
"'. c #BBECED",
"]. c #AFF0EF",
"[. c #BBF0EF",
"{. c #AAE6F2",
"}. c #A4EDF2",
"|. c #ACECF2",
" X c #A2E4F1",
".X c #B3ECF1",
"XX c #BCEDF2",
"oX c #B6E7F1",
"OX c #A3F0F3",
"+X c #ABF3F6",
"@X c #ABF6F9",
"#X c #B4F2F4",
"$X c #BCF1F2",
"%X c #B8F6FA",
"&X c #D3D8C7",
"*X c #C9DED2",
"=X c #C3DCD2",
"-X c #CAD6C5",
";X c #C3E1D9",
":X c #C2E6EE",
">X c #C4ECED",
",X c #CBECEE",
"<X c #C4E8E5",
"1X c #D8EBEC",
"2X c #C3F0EF",
"3X c #C4EDF2",
"4X c #CAEDF2",
"5X c #D3EEF2",
"6X c #D9EFF3",
"7X c #C4F2F4",
"8X c #CCF2F4",
"9X c #CCF7FA",
"0X c #D3F3F5",
"qX c #DBF3F5",
"wX c #D4F4F8",
"eX c #DCF5F9",
"rX c #D3F9FA",
"tX c #DBF9FA",
"yX c #E3F4F7",
"uX c #E4F7F9",
"iX c #EAF6F8",
"pX c #E4F8FA",
"aX c #EBFAFB",
"sX c #E8F6F6",
"dX c #F4FBFC",
"fX c #FBFDFD",
/* pixels */
"8XeX4Xn S v $.t.C.Z.t.$.E.m.*.m.:.| ..E.OX#X`.C.f.>X0X7X3X7XfXdX,X@.< < h C C x h p C $.N @.%.l.z.6XuXiXfX6XW.Z.A.C.Z.Q.7X'.R.).",
"=.%.+.M %.f.f.C.S.!.!.7X7XA.A.C.C.m.C.A.E.`.'.E.3X0XdXfXdXdXiXd.j 8 x m ~ r.C C C C &.~ V x j n j #.:XiXfXdXqX'.!.Q.!.tXtX'.f.s.",
"U.l.U.).`.8X2X`.E.Z.E.7XrXQ.T.F.S.Z.F.7XtX3X'.7XaXuXqX,Xb.c.@.h m j.j.Z.f.f.u.y.~ t.S.f.r.$.C f.c j c @.,XiXdXqX3X8X0XaX0X'.Y.U.",
"8X_./.0XyX,X8X>X0XiXeX2X9X8X7X$X8X8X!.!.`.Z.f.f.W.l.%.t.$.m $.f.j.%.$.u.u.u.C.W.f.r.$.*.f.g.R.l.b v c c +.#.v.iXiXdXfXfXsX7XXX9X",
"qXsX,X(.Y.'.8X0XyXdXdXuXtX$XE.C.S.`.E.r.u.t.*.t.d.W.Z.f.t.&.u.S.E.!.!.!.!.Q.).S.C.Z.F.7X7XZ.;.%.;.*.%.=.b c c +.#.b.dXfXfXaX0X2X",
"fXfXyX>X,X>XqXfXfXsXdXfXaXU.$.m.m.m.Q.).f.$.C Z Z d.d.l.Y.E.S.Z.`.).E.!.f.f.f.F.!.#X#X`.C.C.C.T.8X!.R.R.:.+.b c c c =.,XyXqX0X,X",
",X6XdXiXqX0X,X(.qXaXaXaXqX0X`.`.).XX3XqXf.r.C $.t.f.U.l./.>X'.).!.Z.Z.D.Q.+XQ.].#X$X!.`.T.E.T.].!.`.R.U.R.U.f.C.:.l.z.=.+.c c v ",
"v b d.%.M M M m $.=.4XsX8X3X!..XQ..XQ./.E.u.r.C *.t.E.8XW.W.'.3X8X7XQ.F.Q.].!.[.`.E.U.!.!.[.$X].U.`.'.(.R.g.Y.'.0X,XY.:.$.b c c ",
"2.9.U.F.C.C.S.f.s.t.l.6XfX8XW.Z.m.m.u.W.E.Z.E.f.).8X'.l.f.f.$.&.*.W.rXrXrXXX`.>XZ.f.Z.F.F.T.R.R.(.'.Y.U.Y.Y./.8X>XY.U.U.7.7.7.9.",
"W.Z.C.C.F.E.t.&.Z m h v yXfXiXeX`.m.y.y.).8Xl.$.M @.Z C &.F.U.7.U.E.7X/.U.j.f.g.t.Z.E.Q.R.U.9.R.'.>X5X5X4XU.g.;.*.Z.9.7.U.R./.'.",
"m.m.C.F.u.y.&.n.A A C M W.,XsXfXdX3X`.$X8X$.Z r.u.f.*.m.C.Z.].[.[.`.!.W.Y.U.`.Z.Z.A.Q.$X#X#X`.qXdXaXfX0X%.d.Z.;.U.U.9.U.U.R.'.T.",
"C.Z.!.m.m.m.y.y.A A A A Z S.j.S.XX0X`.9XE.n.C.C.U.1.U.].!.!.].7X8X4X0X8XeXiXqX].7X$X7XtX7X$XrXaXfXiX).;.@.v %.R.R.'.'.U.7.U.R.Z.",
"C.U.$XF.!.A.y.A u.S.E.C.W.E.Z f.|.|.n.Z.T.D.D.D.:. .e.].$X7X$XF.$.d._.).,XdXfXdXaXrX7X7X7XrXdXqXz.-.b +.*.;.7.9.9.Z.`.R.9.7.Z.U.",
"T.7X8X!..XXXC.&.W.8Xf.Z Z A !.rXrXQ.n.m.!.8X!.Q.!.^.R.Q.$X2X].T.U.U.R.:.-.v._.:X0X0X>X`.'.>X_.+.c $.%.8.7.7.7.U.7.Z.3.Y.R.9.R.U.",
"_.E.a.A a.!.XXZ.XX8Xu.t.&.u.XX{.#X!.N.Q.7X$XQ.].8XtXrX8X].!.R.].[.8X2X/.Z.;.b v b b b v b =.-.n b +.:.U.R.R.Y.'./.9.9.U.U.E.`.`.",
"y./ u.S.%X7X$XS.E.!.E..X.X|.E.u.Q.$X7X$X$X!.F.!.].`.`.7X$X#X].`.7XrX/.U.7.Z.8.*.*.*.*.$.$.%.U.~.R.8.:.8.Y./.9.^.>X'.~.U.Y.0.2.Z.",
"7X).!..X#X%X.XE.m.y.A / u.m.u.u.C.A.R.F.A.!.Q.T.F.T.!.8X2X;Xw.U.Z.!.[./.7.7.U.U.U.'.!.`.6XqXqX5X=.;.:.9.9.0.9.9.q.U.9.~.^.Y.0.Y.",
"7X8XrX+X@X9XdXrX#XF.D.E.).S.A.C.8.3.4./.9.9.R.9X7X[.2X[.R.,.<.Z.Z.Z.T.0X8X2XuXaX8XyXsXeX<X:.+.+.v b ;.R.R.R.0.R.0.9.;.=.W.R.`._.",
"Q.0XpXrXtXfXfX9X8X8X0XqX_.f.S.#XU.1.1.<XR.7.T.R.2X0X'.(.T.Z.Z.U.7.R.>X<XqXsX1X1X1Xz.3.g.&.+.$.b $.:.R.8.7.U.R.,XY.Z.8.'.W.Z.'.W.",
"dXdXiXqXyXqX:X5XqXyX>XY.A y.!.7X[./.`.2X[.[.[.[.`.,X,X,X8X2X[.2X`./.q.9.4.*X1.-X<.+.&.8.Z.7.Z.7.Y.q.-X1.7.0.0.9.;.~.qX'.Z.C.!.iX",
"6Xz.-.=.=.=.+.b %.:.;.&.&.:.5.5.9.].2Xq.0.^.0X8X8X/.4.1.<X,X>X,X8XR.T.U.q.*X;X;X*X;Xq.9.9.9.9.0.q.1.} <.0.q.(.w.2.^.aX6X0X4X8XiX",
"z.3.+.b +.-.:.%.&.&.;.8.8.0.4.^./.T.(.0.e.q.0.e.q.w.0.0./.q.0.0.Y.R.R.].`.(.<X<X^.0.0.0.e.e.w.w.q.q.q.q.w.4.X.w.q.w.v.2.~.b.3.l.",
"_._.*.8.8.0.e.0.7.8.Z.Z.U././.Y.Z.9./.0.(.q.e.0.0.0.0.0.^.q.0.0.R.`.R.].!.U.Z.8X`.T.R.T./.^.q.w.q.0.q.q.^.5...e.Y.Y.Y.R.U.8.;.%.",
"g.7XR.9.9.e.0.9.Z.U.R.U.Z.'./.8.7.q.R.9.T.0.q.9.0.0.^.^././.Y./.'.`.R.[.`.!.Y.W.Q.Z.Z.F.T.R.`./.!././.Y.9.7.0.R.9.U.7.7.U.7.8.f.",
"g.%.:.g.U.T.R.T.U.j.f.*.*.m.U.Z.8.7.R./.R./.^.R.R.<X(./.Z.3XrX2XR.C.U.qX>X`.Q.A m.3XE.C.Z.Z.Z.T.T.T.Z.Z.8.Z.Z.U.U.7.Z.U.Z.!.`.Q.",
"&.*.m.*.&.u.y.`..Xm.m.m.C.C.C.C.C.C.Z.R.T.U.Z.Q.!.[.[.].Z.'.0XE.*.C.C.C.Z.'.E.Z._.).S.'.!.E.F.Z.T.Z.T.`.!.Z.Z.Z.8.C.Z.Q..XZ.f.f.",
"m.y.u.C.u.u.m.t.M S.F.m.m.m.u.&.m.C.m.R.3XA.S.4XtXtXtX8X).W.*.f.C.m.m.C.t.Y.f.Z &.*.Z.W.`.).!.!.`.F.Q.`.Q.Z.S.E.C.u.C.|.#Xu.t.&.",
"A t.!.E.S.f.r.C C |.S.u.C.y.$.y.m.D.Q.!.XX3XuXdXeXfXfX4Xx.).'.8X[.Q.E.m.C.Z.&.*.m.y.u.m./ &.!.eXyX!.u.n.Z.F.C.f._.F.y.E.7XE.y.A ",
"f.XXr.z z z m C A. Xx ~ p.Z C h.|.8XeXeXiXaXpXaXdXfXfXdXwX3X4XaXiXW.A.u.A.C.f.S.A.m.u.C.C.x.f.3XyXS.y.!.3X{.M ~ h.S.r.r. X+Xh.S.",
"a.$Xt.z z C {. Xr.x x h.j.p.h. XW.W.j.:XwX4XXX3Xd.4XfXfXaXeX{.oXeXuXeXXXW.y.u.E.j.u./ r.u.qXXX4XE.A ).fXyXx.r.~ z z m ! {.h.~ a.",
"C E.j.Y z j.W.a.r.a.a.r.r.oXW.t._.d.h.oX4Xs.n 8 - 8 :XfXfXaXeXeXeXwXeXaXuXW.! z k r.x.).j.t.h._.qX).qXyXuXfXW.r.C z r.s.t.Y U z ",
"E.a.Y ! f._.~ s.{.3XwXeXwXuX_.l.4Xc.#.6 , X + + $ - : n d.d.#.s.@.6 4 s._.4XoXs.s.k s z t.oX_.uXfX:Xn 5 6 _.iX).>Xf.h.yX4Xj.p.E.",
"wX3Xk.h. X5X5XoXXXwXeXpXaXaXpXb.6 @   X @ + $ + $ 1 * O O # O O O # + + + 3 ~ z.eX4Xs.~ r.b.b.l.b.> X + O - v.yXaXdXdXfXfX4XoXwX",
"iXpXoXoXXXpXdXdXiXyXdXfXpX5X).,   . 3 3 3 # # * * a 1 a a.s 2 * # - O . O 3 3 3 N n @.n 6 = - + 6 2 & % % % ; 5 j v.d.d.0XpXeXeX",
"eXwX4XoX{.{.oX:Xb.#.@.8 , > = .   $ a 2 * * * 3 & $ * 2 ( ( Y ( G # # # D I 3 + O $ $ $ O ; & 1 I k & 1 w w u d 2 : X = 8 s.3XaX",
"8 n 8 Y 6 = o o @   . o + X   X 3 3 a * 3 * * * & & * * * * 1 t 1 * G I 3 - # # * w u a a r 1 w r d d K g d d r r 1 $ O + + 4 n ",
"X @   @ @   .     X + + X X O % * 1 1 * * e e 1 e e r r e 1 1 3 * * 1 4 F G 1 & & & % a g u 1 q q w K f q & 0 0 y w w a ; O + . ",
"+ + X X o - X X + + # + # * * & 1 3 * * a e * # # * F F & * & e 1 1 1 1 G ( D r r w a d w q % & 0 & w y & q q w e d g q & & 2 3 ",
"2 D 2 2 % $ % 3 - # & & & & q r 3 * 1 e G I r 2 e e 3 # * e ) Q G T _ _ G 3 $ a a r w 1 w w q q 0 & w q q w q q & q y e 0 0 F r ",
"e 1 e & 1 & 2 o.o.1 & e D e r r t t a t I I 1 e 2 & * e D D G $ * 1 ) %Xa.1 & 1 f I f T _ _ R f q y r 0 e y e e q d f K y e e f ",
"D r e e 0 q 2 9 8 1 & e q $ 2 4 * * $ 3 * # & & & & D D 1 r G e D & Q L.+XT e e ! ) m O.h q w q y g 0 0 q r f T f V V u q y E W ",
"r r r q y w % & & * * 1 a u w U s s I 5 G a.U U k.a.Q F 2 2 D 0 t D D _ E e K L.P.r 7 { S 0 q 0 y w 0 0 0 e d f w f z r r f d w ",
"e e e d R r % * # 1 a G i.4X X{.4XoXk.Y ( I p.4Xa.( _ 4 # * & & & 1 e D q w p.J.R p.f e H D y e w % 0 0 q r g d r d r d d w $ % ",
"e 2 K T u ; $ q w z t.h.x.c.4XwXyX5X{.a.j.s.k.8 X * r p.J.W D D D D 1 r k R G r _ %XW H L J H J y g K y d g E g B f u g R R f y ",
"r q G U l 2 2 4 u 4 - @ X o 5 x U I Y I F 2 1 2 r.U u G d ^ M.W Q _ J.! r D H L L _ +X' F G d r r y f R M.D.V u w y d J K T g y ",
"G G I _ ; $ 2 1 % O X % $ 1 F q 1 2 a D D I r 1 U G & 0 q 0 r d D L L.( e F J L F ^ +XL.y ( W.R d d y r p B a w w y d K ' ' T B ",
"r 1 1 w w k f G d q d r r d r r r 1 & & * & r W E q e 0 0 0 y W _ W ( J.R G J J y T Q T T  X8XpX0X`.z y y y g E E E E ] G.R f u ",
"f ! A.S.x w r a q q y d d F & * % & & 1 & & * r W Q Q T Q ) H.^ R F r 2 s T E E _ D.S.j.|.eXiX3Xf.h u g B g V E B ! ^ ^ ! R B f ",
"l V z ~ ~ d f u w w w w d p q q q q q w & q 0 0 e q y d T W g d J J f d y d y T %X|. X).).%.x < 5 5 4 G R M.M.f p V z p l l p p ",
"f p f z C f d d g B d d u w q f T d w q 1 0 0 0 J y e w y r B |.G.Q ' G.B.^ E / R u w u 2 1 3 1 u x 5 - 2 r. X/ V V B R / B B B ",
"V V V y.u.^ R E V E ! B f R ! d r r / ! q q e y P Q g d d g n.$XB.G.I.] ' ] ' P g d d y f I s f I x 5 s s ( B ! ` / / / y./ n./ ",
"r.i.A.u.V z V ~ C B ` V h V m.V r d ! p e w g P W E T T W T R E G.%XK.[ ' ' W Q P g f I Y Y ( ( Y Y x ( r.~ E.E.y.D.p.C C ! m.y.",
"m./ / C V C y.N.~ C C p l C  Xr.u d u d T d T R T l g d E E T E M.}.@XG.K.OX] ' E ) a.I u u k k Y a.f V ).qXfXyX3XXXy.j.E.u.y.~ ",
"|.u.u.t.f.E.f.m C ..O.R E A.XXm p d d p I U z.h.^ ' g g g B Q T E E _ K.9XrXI.] [ S. Xf f T R Y  Xa.f B a.4XyXdXfXyX3XwX`.S.W.C.",
"~ j m C r.U.t./ A | X./ ~ T S.j.C ^ B f u u ! D.R f g B E ] G.H.G.] W ' K.L.' ' W N.|._ R ! ( ! r.U p.}..X).W.z.z.4XuX4Xg.t.R.oX",
"5 i ~ ` C C m.N./ &.*.n.^ ^ E.j.A i.N.! g E G.( f g B T V.I.I.I.@XI.G.G.] G.G.L.G.M.r.( z z l l I N. XA.i.i.y.z i j M M n 5 5 5 ",
"z / n.A.m.m.!..Xn.n.n.n.n.n.~ k B B C V T B / ! B E ^ M.N.M.i./ V.I.V.B.OXK.B.n./ V E ^ n.M.M.M.P.m./ / / M./ A C.h.m j M t.m h ",
"!.#X).Q.Q.Q.oXXXV.n.V.B.M.^ C / / ` ` ^ [ ` ^ B.D.@X%XD.R M.B.B.B./ ^ ^ ^ / OXL.B.K.OX@XK.` / / / y./ / y.D.C.}.+Xy.&.&.r.t.p.f.",
"C._.S.S.S.m.C.E.n.N.D.N.n.m.m.N.D.D.B.V.V.L.+XF.~ / A.|.J.D.|.|./ _ M.M.M.B.L.+XD.i.m.D.D.n.n.D.B.y.n.m.m.m.C.|.C.*.:.:.8.8.:.*.",
"C.S.Z.C.S.Z.C.C.D.D.n.n.m.D.C.+X+XF.n.A / y.m.C ^ ` ^ / E.!.!.S.V.B.B.D.#XD.~ / A.N.^ i.A. X#X+XD.Q.}.A.C.Z.Z.C.Z.Z.8.Z.7.U.7.Z.",
"U.Z.C.*.S.F.U.y.I.D.i.E.$XS.y.E.m.D.I.D.m.*.A n.V.V.V.n.!.W.p.N.F.|..XD.N.N.D.m.N.M.M.V.B.A.|.S.m.F.!.#X[.Y.U.9.T.7.8.8.T.U.7.Z.",
"T.u.m.m.C.A.y.y.D.n.N.S.pX8XXX$X(./.D.L.L.F.A.D.D.V.V.V.m.3X4X_.u.h.W.qX7X|.A.B./ n.M.D.N.F.S.u.t.*.;.Z.:.7.Y./.R.7.8.R.`.[.].T.",
"Z.y.m.F.E.m.m.m.E.A.F.7XW.m Z Z ..&X9.B.D.OXOXQ.Q.$X7X`.Z.t.u.u.)..X4XaX6Xs.s.p.i.Q.D.B..X7X7X.XZ.Z.R.U.8.U.R.U.7.7.R.8X&X..R.$X",
"&.U.2X8Xl.f.E.E.R.7XW.;.j y.u./ >.X.-XF.F.@XQ.F.Z.XX`.'.'.!.7X'.yXfX5X@.5 j m Y t._.3XtXaXaXsXdXuXeXeX5X/.T.7.m.8.Z.R.,X..O.T.E."
};
