/* XPM */
static char *test_resized[] = {
/* columns rows colors chars-per-pixel */
"64 64 174 2 ",
"   c #CF9151",
".  c #D29554",
"X  c #D49857",
"o  c #D69B59",
"O  c #D89E5D",
"+  c #DAA15F",
"@  c #DDA562",
"#  c #DFA865",
"$  c #DFA969",
"%  c #E0A765",
"&  c #E0A966",
"*  c #E3AD6A",
"=  c #E6B16E",
"-  c #E7B371",
";  c #E9B673",
":  c #EBB976",
">  c #EDBD7B",
",  c #F0BF7C",
"<  c #EFC07E",
"1  c #F0C17E",
"2  c #3BB4CD",
"3  c #3EBDD4",
"4  c #45B2CC",
"5  c #4AB9CE",
"6  c #49B2CB",
"7  c #43BCD3",
"8  c #4ABED3",
"9  c #50BAD2",
"0  c #45C1D6",
"q  c #4AC1D6",
"w  c #47C3D8",
"e  c #4BC6DA",
"r  c #4FCADD",
"t  c #51C0D5",
"y  c #52C5DA",
"u  c #59C2D8",
"i  c #53CADB",
"p  c #5BCBDC",
"a  c #6AC6D9",
"s  c #61CCDC",
"d  c #6ECADB",
"f  c #71C3D6",
"g  c #74CDDE",
"h  c #7ECCDC",
"j  c #65D0DE",
"k  c #6BD1DE",
"l  c #71D2DD",
"z  c #5ECFE0",
"x  c #5CD2E1",
"c  c #62CFE1",
"v  c #6BCCE0",
"b  c #71CEE0",
"n  c #64D4E3",
"m  c #6CD4E2",
"M  c #6DD8E5",
"N  c #72D5E2",
"B  c #7AD6E4",
"V  c #71D9E5",
"C  c #7DDBE5",
"Z  c #70DDE8",
"A  c #7DE1EB",
"S  c #80BEB5",
"D  c #8DBDB4",
"F  c #EBBF80",
"G  c #82C1B6",
"H  c #88C1B6",
"J  c #8BC6BA",
"K  c #9CC6B7",
"L  c #93C8B9",
"P  c #9DC8B8",
"I  c #92C4B6",
"U  c #A7C6B7",
"Y  c #AAC4B3",
"T  c #A2C9B9",
"R  c #ACCDBC",
"E  c #B2CAB6",
"W  c #B9CEB7",
"Q  c #B3CFBC",
"!  c #B8CFBB",
"~  c #A8D0BE",
"^  c #B6D1BC",
"/  c #BBD3BC",
"(  c #BFD8BF",
")  c #EDC181",
"_  c #F2C583",
"`  c #F5C886",
"'  c #F6CB8A",
"]  c #F8CE8D",
"[  c #F9D08F",
"{  c #FAD190",
"}  c #CFC7A3",
"|  c #CACEA9",
" . c #D2CFA8",
".. c #C3D2B7",
"X. c #C4D4BB",
"o. c #CFD2BC",
"O. c #D5D5B1",
"+. c #85D5DF",
"@. c #88D4DF",
"#. c #8CD3D5",
"$. c #95D8DE",
"%. c #98D8DB",
"&. c #B7D4C1",
"*. c #BCD2C0",
"=. c #BDD9C3",
"-. c #A3DDDC",
";. c #B2DED7",
":. c #ABE3DF",
">. c #B2E2DB",
",. c #83D5E3",
"<. c #8BD4E2",
"1. c #83DAE5",
"2. c #8CDBE4",
"3. c #81DCE8",
"4. c #8CDEE9",
"5. c #92D5E1",
"6. c #93DDE5",
"7. c #9BDDE2",
"8. c #96DCE8",
"9. c #9BDFEA",
"0. c #A4DFE4",
"q. c #A6DDEA",
"w. c #ACDFE8",
"e. c #85E0E7",
"r. c #8BE0E6",
"t. c #87E5ED",
"y. c #8BE4EB",
"u. c #8DE8EF",
"i. c #93E1E6",
"p. c #9BE2E4",
"a. c #93E4EB",
"s. c #9BE5EA",
"d. c #96E8EB",
"f. c #9CE8EF",
"g. c #94EAF1",
"h. c #A4E4E5",
"j. c #ABE5E4",
"k. c #AEE8E7",
"l. c #A4E4EA",
"z. c #ABE4EB",
"x. c #A5E8EC",
"c. c #ACEAEC",
"v. c #B4E5E2",
"b. c #B9E4E0",
"n. c #B2E8E7",
"m. c #B8E8E5",
"M. c #B5E5EB",
"N. c #BAE7ED",
"B. c #B3EBEB",
"V. c #BCEBED",
"C. c #A3E9F0",
"Z. c #B2ECF0",
"A. c #BDECF0",
"S. c #CBD5C0",
"D. c #C4D9C3",
"F. c #CCDAC5",
"G. c #CFDAC8",
"H. c #D4DBC6",
"J. c #DEDDC7",
"K. c #D4DDC8",
"L. c #C8E0CA",
"P. c #D7E3CE",
"I. c #E0E0CC",
"U. c #C8E6E3",
"Y. c #C2E9E6",
"T. c #C8EFEF",
"R. c #C4EEF1",
"E. c #C8ECF2",
"W. c #D2EFF2",
"Q. c #C5F3F6",
"!. c #CCF2F6",
"~. c #D5F3F5",
"^. c #DCF5F7",
"/. c #D9F6FA",
/* pixels */
"; - * - - : : : > > > ) _ F > > , ; = * * * * = ; : > , F F F ` ` F ` F ` ` ` F F F F , > ; = * = : : : , , , : : : , , , , , , ",
"> > : ; : : : : : : > > _ _ _ _ , > > ; = = * = ; : > , F F F ' F F F ` ` F ` ` F F ` , , : - = : : : , , , , , , , F , F F , , ",
"_ ) > > > ; : : : > ) _ _ _ _ _ F , , > ; = * = - > > , F F F F F F ` ` ` , F ` F ` F , , > : : : , , , , ` ` , F F F , , F ` F ",
"_ _ _ _ _ F F > > ) _ _ ` ` ` _ F , , ; ; = = = ; ; : , F F F F F ` F F : : : : , , F , , > > : : : , , , ` F F ` ` ` F F ` , ` ",
"1 _ _ _ ` ` _ _ _ ` _ ` ` ` ` ` F F F , : : ; : ; > > ; ; ; : F > : ; * % * = : : , , , , : : : ; : > , , , ` ` ` ` ` ` ' ` ` , ",
"> > _ ` ' ` ` ` ` ` ' ` ` ` ` ` ` F F F : > : : : * + O O O + % % + O + % * : > , , , : : - = * ; - , , F F , F ` _ F ` ` ` , ` ",
", _ ` ` ` ` _ _ _ _ _ F F _ _ _ F F F F F F F : % O X X X O O O + % % * ; ; ; ; ; ; - * * * * * * = : , F F ` ` ` _ , : ; , , , ",
", _ _ > > : - - - = - = * * - ; : ; : : , F > = + + + % % % * * * * = ; = ; = * * * * * % % % % % * * = , , ` ` ` ` _ : = * ; , ",
": : : : ; * & % @ @ @ @ + @ @ $ & = - : F F > * $ * : : : - ; ; - = * = = = * * * * % % * * * * % % O @ * : 1 1 ` ` ' ` , : ; = ",
"> > > : ; = * & $ @ + @ @ @ $ $ * = - : , F F : : F F F F F F > ; ; = * * * % % % % % % * * * * * * % O X @ : , , F 1 F ` ` , , ",
"> > > , > : ; - * $ $ $ $ * * = - ; : : : : , F F F F ` _ _ ) F : : ; = * % % % % % % = * * * = = = * % o O * : , , : , , : : : ",
"- = - : : : : ; - - = = = = - ; ; : : : : , F F ' ] ] ] ' ] ' ' F F > : = = * * % * % * * * = * = ; = = * % * = : ; ; = = = = = ",
"* * = = ; ; : : : : : ; : ; : ; ; : : : F F F ` ] ] ] ] ] ] ] ' ' F F F > ; = = = - = = % = * * * ; ; = = = = = = = = = * = * * ",
"& * * = - ; : , F > , > : : : : : : : , F F ` ' ] ] ] ] [ [ ] ' ' ' F F , : : : : - = = * % % * * * = * = = * * * = * * % * * * ",
"& * * * - : , ` ' ` F , > : : : > , F F F F F ' ' ] F ' ] ' ' ` ' ' F F , , : : : : - - = % % % & & * * * * % % % * % % % % % % ",
"& & = ; > , _ ` ` ` F > > , F F F ` ] ' ] ] ' ' _ F F F ) ` ) ) F ` F F F , , : : : : = * % % % % * * * * * % % % % % @ + + + + ",
"& = > F _ _ ` ` ` ` ` ` ` ' ] ] { { { { { { ] ] ' F F F F F F F F ) F ) > > : : : > ; - * & & & * * * = * * * & $ @ @ @ @ @ @ @ ",
": : > _ _ F F _ _ _ ` ' ' [ ] { { { ] ] ] ] ` ` ` F F F > > : > F > F > > > : : : : ; - = * & * ; ; : : > : ; = * * * * * = - F ",
": = = = ; ; : , , F , ` ` ` ' ' ` ] ` ` ` F F F > * * $ * - : : > > > > : : : : : ; ; - = = = > 1 ] ] ] ' _ _ F F ` F F F _ F F ",
"* & + O + % & = - : , , F _ ` F F F F F : : : = @ o + & - ; : > > : : : : : : > F ) > > > 1 ` ' [ [ [ [ [ ' [ ' ] [ ] ` ' F F F ",
"% % + % % % % = ; : : : : , , , > : > > : : * O o O * - ; : ; : : ; ; : ; > _ ' ' ] ] ' ` ` ' ] ] ' ` ' ' ` ' ` ` _ F F F , ; - ",
"+ % * - - ; ; ; : : : : , : ; ; : : : ; ; } Y Y E ^ E ! D.S.J.H.U K K T T ! I.I.L.P.O.) ` ` ` 1 _ , > , > > > > : - & & * & % % ",
"* = : : , F F , , , , : : : ; ; ; ; - - = S.R.R.!.Q.x.x.l.z.z.6.4.i.i.i.6.@.$.w.E./.G.> ; = = = * * & & & % * % @ + O + + % % % ",
"; , , F F F _ _ F , , , : ; ; ; - = * * & o.N.M.W.~.c.z.2.2.h.z.z.x.c.c.x.z.h.7.0.l.E $ @ @ @ @ % @ @ + + @ + @ + @ % & & & * - ",
", F ` ` ` ` ` ` ` ` , , : ; = ; = * * & % E i.1.+.V.R.x.p.6.p.l.B.A.x.x.B.T.N.h.h.p.W % & & * * * & % % % % % % & * = = - - : > ",
"_ ` _ ` ` ` _ ` F F , : ; = = = * & % & * ! x.i.6.6.B.c.x.h.n.c.n.V.R.A.V.M.7.%.j.h./ * = ; ; : ; = = = * % * * = - - : > F F F ",
"` F , F F F F , F F , : = = * * % % % * = D.C.B.s.8.s.c.c.B.A.n.B.j.p.0.h.$.p.j.j.j.X.; : > > : : ; ; = = * = = - ; : : F F F F ",
"F _ ` F _ ` ` _ F , , : = = % % % % * - : K.!.!.B.l.h.v.n.V.V.j.z.Y.U.v.0.%.-.>.k.z.F._ 1 1 1 > , : ; - = = = = - ; - : : > > F ",
", , F F ` ` ` ` ` _ , > ; = * % & * = ; : S.0.%.p.:.j.n.b.b.b.m.B.v.>.:.:.>.;.;.v.M.D.) F , , F > : ; ; = - = = ; * + + @ * - : ",
", , , ` ` ` ` ` _ ` _ F , , ; = = - - ; ; Q i.h.p.i.7.h.j.n.m.M.h.c.l.x.h.j.h.h.h.s.^ : : : ; , > ; ; - = - ; ; = % + + * = ; : ",
", , , F F F , , : , ` ` F ` , ; - - - ; ; Q 2.,.2.2.4.B.Q.~.~.N.c.p.6.6.x.B.c.p.6.s.Q ; ; - ; : , : ; ; = = = = = = = = ; ; : > ",
"; ; ; ; ; - = % & : F F F F , : - * = ; ; &.1.8.9.z.l.7.@.+.M.M.w.l.2.2.q.N.0.q.8.q.Q ; ; ; : : , : , : ; = = % % % * = = * = = ",
"& & & & & + O o + ; 1 1 < < < 1 ; - - - ; G.z.M.M.v.f 4 2 2 t i 7 8 a d a a 8 d 5.q.F., , , 1 _ 1 1 1 1 1 : ; * & + @ @ @ @ # # ",
"@ @ # & @ @ @ & = < < < = < = 1 > > > > > D 9 6 4 2 2 7 0 3 0 0 8 t 7 8 7 w e w w 7 H 1 1 1 1 ` ' ' ' ` 1 1 < : - * & # # + + + ",
"& & = * & * < = = = * * # & = = = = ; > : S 3 5 4 0 0 0 e e 0 e z m i s i w w e i e J 1 ` ` ` ` ' ' ` ' ' ` ` 1 1 1 : - = & # + ",
"= = = = = = = = = & & # + + + & % % * - ; S i 8 q d $.+.l l x e r z V b i w e p i i J 1 1 ` _ _ ' ' ' ' [ [ [ ' 1 1 < ; : : ; ; ",
"< = = - = = & & # # # @ + + + + @ @ & & = H p q 8 9 p p i i i x M c x C 3.B p z x M J : : : < 1 ` _ ' [ [ ' ' ' 1 1 1 : : : : : ",
"= < = < = & * * & # & # & & * # @ & & & * I k p i i q q 0 r x l M n Z 1.2.g p k k m L : ; ; 1 1 _ 1 ' ' ' ' [ ` 1 1 1 1 1 : : : ",
"1 = 1 < < = < ; < = = * * * & & % * * * = T C l l k k p i x x Z u.t.Z c s v l z.i.1.R 1 : < 1 1 _ 1 ` ' _ ` _ 1 1 1 1 : : : 1 1 ",
"< < 1 ; = < * * * = * * & & & & * * * * = T C 2.#.C ,.j l l M A t.g.t.1.N B r.z.k.6.E : ; < : 1 1 1 1 _ 1 1 1 1 ; : ; ; ; ; : : ",
"% * = = = = = = * * * * & & & & % & * * = ~ s.p.y.A e.C C A y.d.t.t.u.y.e.e.4.r.2.,.R ; ; : : : ; 1 < ; ; = * * & & # & & & * = ",
"+ @ & & & & * & & & * & & & & & * * * = = / a.a.u.d.h.d.y.y.d.d.f.f.y.t.f.s.s.s.h.h./ : : < < ; * * @ # # # + + + + + + @ + + @ ",
"+ + + @ + % # & # & & & & & & & * * * = > | =.&./ ^ ^ | ( ( ( ( H.*.&.=.K.K.F.=.X... .< < : ; = & @ + + + o o + + + + + + + + + ",
"@ @ % & * * * = : < - * & & & # @ * = = < 1 1 1 < < : = = * * < - & $ $ * ; : > < : < < : = = * & @ + o + o o + + + @ % # @ @ @ ",
"* * 1 1 1 1 1 1 1 < < : = & + & % + & = < 1 1 - @ + O o X X X O o . .   . o @ * = ; = = = = = = * & # + + + + + @ % * = = = = = ",
"< < 1 1 1 1 1 1 < : ; - : ; * + @ % * : : : - + .   . . X X X o X . . .     . o + * = = = = ; ; * * & # @ @ + @ % * * * = = ; ; ",
"* * = - = - = & + + + + + & * * * = : : - * + o . X o + + + + + + o o o X .     . + # * = ; ; : - * = * * # # # & & * * * = * = ",
"* * * # % + + + o o o X X X + * * = = * + o o X o + + @ # # # # @ $ @ @ + o o .   o @ * = = ; : 1 < - < ; * % % % & * * = = * = ",
"& & % + + o O + O O + o X X X + @ + o o X X X o + @ # * = = = = = * * < # + + + + # = : ; 1 1 1 1 - 1 1 1 1 = # # # # & * * * * ",
"# + O + + + + @ + + + + + X X o o X X X o o + + # # * = ; = ; 1 1 1 1 1 = # @ @ @ & 1 1 1 1 1 1 1 1 1 1 1 1 1 1 = = * & # # % @ ",
"+ + + + # # # # @ # @ + + + + o X X X o + + @ @ # * = = 1 1 1 1 1 1 1 1 1 ; 1 < # * : 1 1 1 1 1 1 1 1 1 1 1 1 1 1 1 = * * @ + + ",
"+ @ @ # & * & & & * & & @ # @ + + + + + + + @ @ # = = : 1 1 1 1 1 1 1 1 1 1 1 1 : 1 1 1 1 1 1 1 1 1 1 1 1 1 1 1 1 1 1 = * % @ + ",
"# # & * = = * = = = = = * & & & @ # @ @ + + @ # # * = 1 1 1 1 1 1 1 1 1 1 { 1 1 1 1 { 1 1 1 1 1 1 1 1 1 1 1 1 1 1 1 1 1 = & & % ",
"* * = = = ; 1 ; ; 1 1 1 1 ; ; = * # # # @ @ @ @ # * = ; 1 1 1 1 1 1 1 1 1 1 { { 1 1 { 1 1 1 : : < 1 1 1 1 1 < 1 - * % & & & & & ",
"= * = ; ; ; 1 1 1 1 1 1 1 1 1 1 * = = # # @ @ @ # * = = = ; 1 1 1 1 1 1 1 { { { { 1 1 1 1 * @ @ + # # * * = # @ O X O + @ # * * ",
"* * * = ; 1 1 1 1 1 1 1 1 1 1 1 1 1 1 < = * # # # # * = * = = ; 1 1 1 1 1 { { 1 1 1 1 1 * + o o o o o o o o o o o X O + + @ % & ",
"$ * - : < 1 1 < 1 1 1 1 { { 1 1 1 1 1 1 1 1 * # @ # * * * = = < 1 1 1 1 1 1 1 1 1 1 * & @ + + + + + + + + + + + % @ + % @ + + + ",
"- ; ; : < < 1 < 1 1 { { { { { { { { 1 1 1 1 * # # * * * = ; ; ; 1 1 1 1 1 1 1 1 1 ; & # @ @ # # + + # # & & * * = - 1 1 1 # # & ",
"> < : < < : < < 1 1 { { { { { { { 1 1 1 1 1 1 < : 1 1 1 1 = * = < < < 1 1 1 1 1 ; = * & # # # # & & & * = = = 1 1 1 1 1 1 1 1 1 ",
"< < < 1 < < < < 1 1 1 1 { 1 { 1 1 { 1 { 1 1 1 1 1 1 1 1 = # @ # ; 1 < < 1 1 1 1 ; = * * # # & # & * * 1 - 1 ; 1 1 1 1 1 1 1 1 1 ",
"< < > > > > ; = * = 1 1 1 1 { 1 1 1 1 1 1 1 1 : ; ; = * # # * = 1 1 1 1 1 1 1 1 ; = * * & & & & * = 1 ; 1 - 1 1 1 1 1 1 1 1 * 1 ",
": ; - - * # @ o @ 1 1 1 1 { { 1 1 1 1 1 1 1 ; * @ @ @ * = 1 1 1 1 1 1 1 1 1 1 1 ; * = * = * = = = = ; ; = 1 ; 1 1 * @ # * 1 * 1 ",
"; - $ # @ O X O & < 1 { 1 { 1 1 1 1 1 1 1 = # @ @ * * = 1 1 1 1 1 1 1 1 1 1 1 1 1 1 1 = ; ; ; = ; ; 1 ; - - 1 1 * # @ @ # * 1 * ",
"= $ # + O O + * ; 1 1 1 1 1 1 1 1 1 1 ; * # # * * * ; ; 1 1 1 1 1 { 1 { { 1 1 1 1 1 1 1 ; ; = = ; = 1 ; 1 - * - - * * * * < - * "
};
