/* XPM */
static char * zero_xpm[] = {
"64 48 193 2",
"  	c #000000",
". 	c #090608",
"+ 	c #010101",
"@ 	c #020202",
"# 	c #0C090B",
"$ 	c #161114",
"% 	c #030203",
"& 	c #060506",
"* 	c #0A0709",
"= 	c #0F0B0D",
"- 	c #040303",
"; 	c #010001",
"> 	c #010000",
", 	c #050304",
"' 	c #100D0F",
") 	c #151013",
"! 	c #161113",
"~ 	c #0D0A0C",
"{ 	c #030202",
"] 	c #181316",
"^ 	c #000100",
"/ 	c #080507",
"( 	c #0D090B",
"_ 	c #050404",
": 	c #0B0809",
"< 	c #0B080A",
"[ 	c #080607",
"} 	c #100C0E",
"| 	c #171215",
"1 	c #342A30",
"2 	c #110D0F",
"3 	c #1E181B",
"4 	c #140F12",
"5 	c #292125",
"6 	c #0A0809",
"7 	c #050405",
"8 	c #070506",
"9 	c #020102",
"0 	c #141012",
"a 	c #B4840E",
"b 	c #130700",
"c 	c #DCA95D",
"d 	c #DEAA5F",
"e 	c #DDAA5F",
"f 	c #321E03",
"g 	c #DCA95E",
"h 	c #DCA85D",
"i 	c #DCAA5E",
"j 	c #332003",
"k 	c #DCA85E",
"l 	c #DDAA5E",
"m 	c #D1A056",
"n 	c #D09F55",
"o 	c #030303",
"p 	c #191417",
"q 	c #DAA85D",
"r 	c #CE9E55",
"s 	c #CD9D54",
"t 	c #CC9C54",
"u 	c #CF9E55",
"v 	c #3B2405",
"w 	c #241E21",
"x 	c #040304",
"y 	c #D19F55",
"z 	c #412A07",
"A 	c #2B1A03",
"B 	c #120E10",
"C 	c #231D20",
"D 	c #060405",
"E 	c #57390C",
"F 	c #52360E",
"G 	c #CC9C53",
"H 	c #CF9F55",
"I 	c #462A07",
"J 	c #311E03",
"K 	c #3A2507",
"L 	c #211203",
"M 	c #1D0F02",
"N 	c #2D1A04",
"O 	c #462C0A",
"P 	c #DFAC60",
"Q 	c #E0AC60",
"R 	c #9E740B",
"S 	c #1A0D02",
"T 	c #0C0101",
"U 	c #0F0601",
"V 	c #E0AD61",
"W 	c #462F0A",
"X 	c #E1AE61",
"Y 	c #E2B062",
"Z 	c #C69955",
"` 	c #604405",
" .	c #E5B464",
"..	c #E8B666",
"+.	c #E7B665",
"@.	c #A88348",
"#.	c #A98448",
"$.	c #E7B666",
"%.	c #E6B465",
"&.	c #E9B865",
"*.	c #EAB968",
"=.	c #CEA35A",
"-.	c #7D6133",
";.	c #E8B765",
">.	c #EABB68",
",.	c #EDBC69",
"'.	c #D1A65C",
").	c #7E6234",
"!.	c #EABB67",
"~.	c #EDBE69",
"{.	c #EFBF6C",
"].	c #D3A85E",
"^.	c #806535",
"/.	c #EEBE6A",
"(.	c #010100",
"_.	c #F2C36D",
":.	c #F5C670",
"<.	c #B28F4F",
"[.	c #F5C570",
"}.	c #F2C46E",
"|.	c #F5C770",
"1.	c #F8C972",
"2.	c #F7C971",
"3.	c #D9AF63",
"4.	c #030000",
"5.	c #D9B063",
"6.	c #F7C972",
"7.	c #221C1F",
"8.	c #020101",
"9.	c #F7CA72",
"0.	c #FACC74",
"a.	c #FACC73",
"b.	c #020000",
"c.	c #F7CA71",
"d.	c #080506",
"e.	c #FACD74",
"f.	c #FDCF76",
"g.	c #FCCE75",
"h.	c #FDCF75",
"i.	c #FBCE75",
"j.	c #1C0F02",
"k.	c #180C01",
"l.	c #2D2429",
"m.	c #2B2327",
"n.	c #FBCE74",
"o.	c #FED076",
"p.	c #FFD277",
"q.	c #FFD378",
"r.	c #FFD278",
"s.	c #090708",
"t.	c #ECC06A",
"u.	c #EFC36D",
"v.	c #FED277",
"w.	c #FED177",
"x.	c #EBC06A",
"y.	c #EABE68",
"z.	c #ECC06C",
"A.	c #FCCF75",
"B.	c #FDD076",
"C.	c #EABF69",
"D.	c #422B0C",
"E.	c #EDC26C",
"F.	c #ECC16A",
"G.	c #EDC16A",
"H.	c #4B300A",
"I.	c #110D10",
"J.	c #251E22",
"K.	c #E9BE68",
"L.	c #EABE69",
"M.	c #4D300C",
"N.	c #3F2708",
"O.	c #2C2428",
"P.	c #1C1619",
"Q.	c #2F1A03",
"R.	c #30272B",
"S.	c #1D171A",
"T.	c #130E10",
"U.	c #090607",
"V.	c #000101",
"W.	c #0A0708",
"X.	c #0F0C0E",
"Y.	c #2F272C",
"Z.	c #040203",
"`.	c #382E34",
" +	c #292226",
".+	c #271F24",
"++	c #060404",
"@+	c #0E0B0C",
"#+	c #282025",
"$+	c #211B1E",
"%+	c #211A1E",
"&+	c #261F23",
"*+	c #100C0F",
"                        . .                                                                             + @                   + ",
"                        # $ +                                                                           % &                     ",
"  * =                     +                                                                                                 - % ",
"  + +         ;                         > ,                                     @ %   * ' +                                 ) ) ",
"                              + ! ~     { ] ^                                   / *   + {             (                 +       ",
"                              ; * _     > &                 + : < @ +             >                   [               } :       ",
"    +                         +                               | 1 }                   +           @                             ",
"  _ 2 >                       3 <                           + 4 5 6                                                             ",
"  + 7                         } 8                             + +                                                               ",
"        ;                               -                                                                                   +   ",
"        9 +                             &                         { *                                                           ",
"                +                                             +   + -           = 0                                             ",
"                                                    a a a a a a a a a a a a b   + +                                             ",
"                                                  a c d d d d d d d e d d c a f                                                 ",
"                                                a a d d d e g g h i d d e d a a j                                               ",
"                                              a k d e e l i m n n m i d e d d k a f                                             ",
"              o p 9             9             a g d d d i q r s t u q c d e d g a v b       + @ >                               ",
"              % w x                           a g l e i y u a a a a u m i d l g a z A       B C D                               ",
"                %                       >     a g d e g n t a E F a G H g e d g a I J       + o                                 ",
"                                              a g d d g a a K L M N a a g d d g a O j                                           ",
"                    + ;                       a e P Q e R S T T T T U R e P V d a W j                                           ",
"                    8 -                       a X Y Y Z ` T T T T T T ` Z Y Y X a W j                                           ",
"                                              a  ...+.@.T T T T T T T T #.+.$.%.a W j                                           ",
"              +                               a &.*.=.-.T T T T T T T T -.=.*.;.a W j                                           ",
"    - D                               ;       a >.,.'.).T T T T T T T T ).'.,.!.a W j                                           ",
"    : ~               +             9 @       a ~.{.].^.T T T T T T T T ^.].{./.a W j                                           ",
"                    (.: >                     a _.:.:.<.T T T T T T T T <.[.:.}.a W j               ; @ ;                       ",
"                                              a |.1.2.3.` 4.T T T T 4.` 5.6.6.|.a W j               o 7.8.                      ",
"          < 2                         + +     a 9.0.0.a.R ` 4.b.b.b.` R a.0.a.c.a W j                                       > + ",
"          , [                         < d.    a e.f.g.f.h.i.R j.k.R e.f.f.g.f.e.a W j                                           ",
"                                      l.m.@   a n.o.p.q.q.p.a a a a q.p.p.r.o.n.a O j                                           ",
"                                      x s.+   a t.u.o.p.v.r.p.q.q.p.p.q.p.w.u.x.a I J                                           ",
"                            + <       ; ;     a y.z.i.h.h.h.h.f.A.B.h.A.h.n.t.C.a D.A                                           ",
"                              9     + +       b a a t.E.F.G.E.G.G.G.E.G.E.t.a a H.v b                                           ",
"                                    I.J.        f a y.y.C.y.C.K.C.y.K.y.L.y.a M.N.f   >                                         ",
"                                    [ !           j a a a a a a a a a a a a H.N.j @ O.@                             o } x       ",
"                                      >             f v z I O W W W W O I z v f   @ P.                              8 J.=       ",
"                                                      b Q.J j j j j j j J Q.b                   & +                   < _       ",
"                                                                                            < R.S.                    8 %       ",
"                                                                      x ;                   * T.o             x               U.",
"                                                                                                              *               } ",
"                                            % 2 +                                                                               ",
"                  + x                       % ) 9   D ;                                                                         ",
"              + @   V.        @ W.+                 X.8.                                                                        ",
"              @ Y.'           + Z.                                                                                              ",
"              8.`.|                                                           + { +                                             ",
"                ^ - +       ^                                                 7  +.+              9 %                     ++| D ",
"                            @+#+                                              @ $+%+%             > +                     . &+*+"};
