/* XPM */
static char * six_xpm[] = {
"64 48 221 2",
"  	c #000000",
". 	c #090608",
"+ 	c #010101",
"@ 	c #020202",
"# 	c #0C090B",
"$ 	c #161114",
"% 	c #030203",
"& 	c #060506",
"* 	c #0A0709",
"= 	c #0F0B0D",
"- 	c #040303",
"; 	c #010001",
"> 	c #010000",
", 	c #050304",
"' 	c #100D0F",
") 	c #151013",
"! 	c #161113",
"~ 	c #0D0A0C",
"{ 	c #030202",
"] 	c #181316",
"^ 	c #000100",
"/ 	c #080507",
"( 	c #0D090B",
"_ 	c #050404",
": 	c #0B0809",
"< 	c #0B080A",
"[ 	c #080607",
"} 	c #100C0E",
"| 	c #171215",
"1 	c #342A30",
"2 	c #110D0F",
"3 	c #1E181B",
"4 	c #140F12",
"5 	c #292125",
"6 	c #0A0809",
"7 	c #050405",
"8 	c #070506",
"9 	c #020102",
"0 	c #B4840E",
"a 	c #130700",
"b 	c #141012",
"c 	c #DCAA5E",
"d 	c #DEAA5F",
"e 	c #DDAA5F",
"f 	c #DCA95D",
"g 	c #321E03",
"h 	c #DCA95E",
"i 	c #DCA85D",
"j 	c #332003",
"k 	c #DDAA5E",
"l 	c #D1A056",
"m 	c #D09F55",
"n 	c #CF9F55",
"o 	c #DCA85E",
"p 	c #DAA85D",
"q 	c #CE9E55",
"r 	c #CD9D54",
"s 	c #CC9C54",
"t 	c #CC9D54",
"u 	c #CE9D54",
"v 	c #DBA85D",
"w 	c #392206",
"x 	c #030303",
"y 	c #191417",
"z 	c #D19F55",
"A 	c #CF9E55",
"B 	c #CF9E54",
"C 	c #3B2605",
"D 	c #1D1001",
"E 	c #241E21",
"F 	c #040304",
"G 	c #57390D",
"H 	c #50330B",
"I 	c #4E330C",
"J 	c #3C2605",
"K 	c #120E10",
"L 	c #231D20",
"M 	c #060405",
"N 	c #5B3E1D",
"O 	c #50340C",
"P 	c #482E0A",
"Q 	c #442B07",
"R 	c #462C0A",
"S 	c #432B07",
"T 	c #372206",
"U 	c #080300",
"V 	c #DFAC60",
"W 	c #E0AC60",
"X 	c #4A2F09",
"Y 	c #452D06",
"Z 	c #2E1E03",
"` 	c #E1AE61",
" .	c #E2B062",
"..	c #E2AF62",
"+.	c #E1AF61",
"@.	c #E0AF61",
"#.	c #422908",
"$.	c #E5B464",
"%.	c #E8B666",
"&.	c #E7B665",
"*.	c #E8B766",
"=.	c #E6B465",
"-.	c #3B2406",
";.	c #211203",
">.	c #E9B865",
",.	c #EAB968",
"'.	c #EAB967",
").	c #E9B867",
"!.	c #DCAD5F",
"~.	c #DBAB5D",
"{.	c #DBAB5E",
"].	c #E9B866",
"^.	c #E8B765",
"/.	c #301C03",
"(.	c #EABB68",
"_.	c #EDBC69",
":.	c #EDBD6A",
"<.	c #EBBB69",
"[.	c #DAAC5E",
"}.	c #E9B966",
"|.	c #EBBA68",
"1.	c #EDBD69",
"2.	c #EABB67",
"3.	c #3B2405",
"4.	c #EDBE69",
"5.	c #EFBF6C",
"6.	c #EEBE6A",
"7.	c #E1B363",
"8.	c #DEB060",
"9.	c #DFB061",
"0.	c #F0BF6C",
"a.	c #412A07",
"b.	c #2B1A03",
"c.	c #F2C36D",
"d.	c #F5C670",
"e.	c #F2C46E",
"f.	c #E4B664",
"g.	c #E0B462",
"h.	c #53350B",
"i.	c #E1B463",
"j.	c #E3B664",
"k.	c #F5C570",
"l.	c #462A07",
"m.	c #311E03",
"n.	c #010100",
"o.	c #F5C770",
"p.	c #F8C972",
"q.	c #F7C971",
"r.	c #F6C771",
"s.	c #55380D",
"t.	c #4B3109",
"u.	c #462D07",
"v.	c #F6C871",
"w.	c #F7C972",
"x.	c #F8CA73",
"y.	c #FACC74",
"z.	c #FACC73",
"A.	c #4F340B",
"B.	c #F7CA71",
"C.	c #462F0A",
"D.	c #221C1F",
"E.	c #020101",
"F.	c #EABE69",
"G.	c #EDC16A",
"H.	c #FACD74",
"I.	c #FDCF76",
"J.	c #FDCF75",
"K.	c #FBCE75",
"L.	c #FCCE75",
"M.	c #080506",
"N.	c #EABE68",
"O.	c #ECC06A",
"P.	c #FBCE74",
"Q.	c #FED177",
"R.	c #FFD378",
"S.	c #FFD277",
"T.	c #FFD278",
"U.	c #FED076",
"V.	c #2D2429",
"W.	c #2B2327",
"X.	c #EFC36B",
"Y.	c #FDD076",
"Z.	c #EFC36D",
"`.	c #EBC06A",
" +	c #090708",
".+	c #EABF69",
"++	c #FCCF75",
"@+	c #321F03",
"#+	c #EDC26C",
"$+	c #4B300A",
"%+	c #3B2509",
"&+	c #170C06",
"*+	c #351F06",
"=+	c #E9BE68",
"-+	c #4D300C",
";+	c #3F2708",
">+	c #110D10",
",+	c #251E22",
"'+	c #35220C",
")+	c #2C2428",
"!+	c #2F1A03",
"~+	c #1C1619",
"{+	c #30272B",
"]+	c #1D171A",
"^+	c #130E10",
"/+	c #090607",
"(+	c #000101",
"_+	c #0A0708",
":+	c #0F0C0E",
"<+	c #2F272C",
"[+	c #040203",
"}+	c #382E34",
"|+	c #292226",
"1+	c #271F24",
"2+	c #060404",
"3+	c #0E0B0C",
"4+	c #282025",
"5+	c #211B1E",
"6+	c #211A1E",
"7+	c #261F23",
"8+	c #100C0F",
"                        . .                                                                             + @                   + ",
"                        # $ +                                                                           % &                     ",
"  * =                     +                                                                                                 - % ",
"  + +         ;                         > ,                                     @ %   * ' +                                 ) ) ",
"                              + ! ~     { ] ^                                   / *   + {             (                 +       ",
"                              ; * _     > &                 + : < @ +             >                   [               } :       ",
"    +                         +                               | 1 }                   +           @                             ",
"  _ 2 >                       3 <                           + 4 5 6                                                             ",
"  + 7                         } 8                             + +                                                               ",
"        ;                               -                                                                                   +   ",
"        9 +                             &                         { *                                                           ",
"                +                                     0 0 0 0 0 0 0 0 0 0 a     = b                                             ",
"                                                    0 c d d d d d e d d f 0 g   + +                                             ",
"                                                  0 0 d e h h i h h c e d 0 0 j                                                 ",
"                                                0 c e k c l m m n m l c d d o 0 g                                               ",
"                                              0 0 d d c p q r s r t u v h h v 0 w a                                             ",
"              x y 9             9           0 h k e c z A 0 0 0 0 0 0 A m B q 0 C D         + @ >                               ",
"              % E F                         0 h d e h m s 0 G H I I 0 r s r r 0 J D         K L M                               ",
"                %                       >   0 h d d c 0 0 N O P Q Q R 0 0 0 0 S T U         + x                                 ",
"                                            0 e V W V 0 0 0 0 0 0 0 0 0 0 X Y J Z                                               ",
"                    + ;                     0 `  . . . ... . .+. . . . .@.0 #.T D                                               ",
"                    8 -                     0 $.%.&.&.%.*.$.=.$.=.&.&.*.&.0 0 -.;.                                              ",
"                                            0 >.,.'.,.'.).!.~.{.!.].,.,.'.,.^.0 /.                                              ",
"              +                             0 (._.:._.<.].!.[.[.!.}.|._.1._.2.0 3.a                                             ",
"    - M                               ;     0 4.5.5.6.7.8.0 0 0 0 9.7.6.0.5.6.0 a.b.                                            ",
"    : ~               +             9 @     0 c.d.d.e.f.g.0 G h.0 i.j.e.k.d.e.0 l.m.                                            ",
"                    n.: >                   0 o.p.q.r.0 0 s.t.u.u.0 0 v.w.w.o.0 R j                 ; @ ;                       ",
"                                            0 v.x.y.z.0 0 A.l.J J 0 0 z.y.z.B.0 C.j                 x D.E.                      ",
"          < 2                         + +   0 F.G.H.I.J.K.0 l.J 0 H.I.I.L.I.H.0 C.j                                         > + ",
"          , [                         < M.  0 N.O.P.Q.R.S.0 0 0 0 R.S.S.T.U.P.0 R j                                             ",
"                                      V.W.@ a 0 0 O.X.Y.T.S.R.R.S.S.R.S.Q.Z.`.0 l.m.                                            ",
"                                      F  ++   g 0 .+O.P.J.J.I.++Y.J.++J.P.O..+0 a.b.                                            ",
"                            + <       ; ;       @+0 0 `.G.#+G.G.G.#+G.#+O.0 0 $+%+&+                                            ",
"                              9     + +         a *+0 .+N..+=+.+N.=+N.F.N.0 -+;+g                                               ",
"                                    >+,+          a '+0 0 0 0 0 0 0 0 0 0 $+;+j       >                                         ",
"                                    [ !             9 g 3.a.l.R C.C.R l.a.3.g     @ )+@                             x } F       ",
"                                      >                 a !+m.j j j j m.!+a       @ ~+                              8 ,+=       ",
"                                                                                                & +                   < _       ",
"                                                                                            < {+]+                    8 %       ",
"                                                                      F ;                   * ^+x             F               /+",
"                                                                                                              *               } ",
"                                            % 2 +                                                                               ",
"                  + F                       % ) 9   M ;                                                                         ",
"              + @   (+        @ _++                 :+E.                                                                        ",
"              @ <+'           + [+                                                                                              ",
"              E.}+|                                                           + { +                                             ",
"                ^ - +       ^                                                 7 |+1+              9 %                     2+| M ",
"                            3+4+                                              @ 5+6+%             > +                     . 7+8+"};
